<?xml version="1.0" encoding="utf-8" standalone="no"?>
<!DOCTYPE svg PUBLIC "-//W3C//DTD SVG 1.1//EN"
  "http://www.w3.org/Graphics/SVG/1.1/DTD/svg11.dtd">
<svg xmlns:xlink="http://www.w3.org/1999/xlink" width="214.501328pt" height="152.620194pt" viewBox="0 0 214.501328 152.620194" xmlns="http://www.w3.org/2000/svg" version="1.1">
 <metadata>
  <rdf:RDF xmlns:dc="http://purl.org/dc/elements/1.1/" xmlns:cc="http://creativecommons.org/ns#" xmlns:rdf="http://www.w3.org/1999/02/22-rdf-syntax-ns#">
   <cc:Work>
    <dc:type rdf:resource="http://purl.org/dc/dcmitype/StillImage"/>
    <dc:date>2023-10-11T10:12:39.922603</dc:date>
    <dc:format>image/svg+xml</dc:format>
    <dc:creator>
     <cc:Agent>
      <dc:title>Matplotlib v3.5.3, https://matplotlib.org/</dc:title>
     </cc:Agent>
    </dc:creator>
   </cc:Work>
  </rdf:RDF>
 </metadata>
 <defs>
  <style type="text/css">*{stroke-linejoin: round; stroke-linecap: butt}</style>
 </defs>
 <g id="figure_1">
  <g id="patch_1">
   <path d="M 0 152.620194 
L 214.501328 152.620194 
L 214.501328 0 
L 0 0 
L 0 152.620194 
z
" style="fill: none"/>
  </g>
  <g id="axes_1">
   <g id="patch_2">
    <path d="M 30.36625 104.956246 
L 201.569453 104.956246 
L 201.569453 6.3775 
L 30.36625 6.3775 
L 30.36625 104.956246 
z
" style="fill: none"/>
   </g>
   <g id="line2d_1">
    <path d="M 30.36625 53.139672 
L 91.342733 96.012465 
L 91.342733 96.012465 
" clip-path="url(#pa6942df589)" style="fill: none; stroke-dasharray: 2.775,1.2; stroke-dashoffset: 0; stroke: #808080; stroke-opacity: 0.6; stroke-width: 0.75"/>
   </g>
   <g id="line2d_2">
    <path d="M 91.342733 96.012465 
L 170.612162 16.934387 
L 170.612162 16.934387 
" clip-path="url(#pa6942df589)" style="fill: none; stroke-dasharray: 2.775,1.2; stroke-dashoffset: 0; stroke: #808080; stroke-opacity: 0.6; stroke-width: 0.75"/>
   </g>
   <g id="line2d_3">
    <path d="M 170.612162 16.934387 
L 171.081211 17.482952 
L 171.550261 18.031517 
L 172.019311 18.580082 
L 172.488361 19.128647 
L 172.957411 19.677212 
L 173.426461 20.225777 
L 173.895511 20.774342 
L 174.364561 21.322907 
L 174.83361 21.871472 
L 175.30266 22.420037 
L 175.77171 22.968602 
L 176.24076 23.517167 
L 176.70981 24.065731 
L 177.17886 24.614296 
L 177.64791 25.162861 
L 178.11696 25.711426 
L 178.586009 26.259991 
L 179.055059 26.808556 
L 179.524109 27.357121 
L 179.993159 27.905686 
L 180.462209 28.454251 
L 180.931259 29.002816 
L 181.400309 29.551381 
L 181.869359 30.099946 
L 182.338408 30.64851 
L 182.807458 31.197075 
L 183.276508 31.74564 
L 183.745558 32.294205 
L 184.214608 32.84277 
L 184.683658 33.391335 
L 185.152708 33.9399 
L 185.621757 34.488465 
L 186.090807 35.03703 
L 186.559857 35.585595 
L 187.028907 36.13416 
L 187.497957 36.682725 
L 187.967007 37.23129 
L 188.436057 37.779854 
L 188.905107 38.328419 
L 189.374156 38.876984 
L 189.843206 39.425549 
L 190.312256 39.974114 
L 190.781306 40.522679 
L 191.250356 41.071244 
L 191.719406 41.619809 
L 192.188456 42.168374 
L 192.657506 42.716939 
L 193.126555 43.265504 
L 193.595605 43.814069 
L 194.064655 44.362634 
L 194.533705 44.911198 
L 195.002755 45.459763 
L 195.471805 46.008328 
L 195.940855 46.556893 
L 196.409905 47.105458 
L 196.878954 47.654023 
L 197.348004 48.202588 
L 197.817054 48.751153 
L 198.286104 49.299718 
L 198.755154 49.848283 
L 199.224204 50.396848 
L 199.693254 50.945413 
L 200.162304 51.493977 
L 200.631353 52.042542 
L 201.100403 52.591107 
L 201.569453 53.139672 
" clip-path="url(#pa6942df589)" style="fill: none; stroke-dasharray: 2.775,1.2; stroke-dashoffset: 0; stroke: #808080; stroke-opacity: 0.6; stroke-width: 0.75"/>
   </g>
   <g id="line2d_4">
    <path d="M 91.342733 104.956246 
L 91.342733 96.012465 
" clip-path="url(#pa6942df589)" style="fill: none; stroke-dasharray: 2.775,1.2; stroke-dashoffset: 0; stroke: #808080; stroke-opacity: 0.4; stroke-width: 0.75"/>
   </g>
   <g id="line2d_5">
    <path d="M 170.612162 104.956246 
L 170.612162 16.934387 
" clip-path="url(#pa6942df589)" style="fill: none; stroke-dasharray: 2.775,1.2; stroke-dashoffset: 0; stroke: #808080; stroke-opacity: 0.4; stroke-width: 0.75"/>
   </g>
   <g id="PolyCollection_1">
    <defs>
     <path id="mda552a44a3" d="M 30.36625 -146.242694 
L 30.36625 -47.663949 
L 30.8353 -47.663949 
L 31.30435 -47.663949 
L 31.7734 -47.663949 
L 32.242449 -47.663949 
L 32.711499 -47.663949 
L 33.180549 -47.663949 
L 33.649599 -47.663949 
L 34.118649 -47.663949 
L 34.587699 -47.663949 
L 35.056749 -47.663949 
L 35.525799 -47.663949 
L 35.994848 -47.663949 
L 36.463898 -47.663949 
L 36.932948 -47.663949 
L 37.401998 -47.663949 
L 37.871048 -47.663949 
L 38.340098 -47.663949 
L 38.809148 -47.663949 
L 39.278198 -47.663949 
L 39.747247 -47.663949 
L 40.216297 -47.663949 
L 40.685347 -47.663949 
L 41.154397 -47.663949 
L 41.623447 -47.663949 
L 42.092497 -47.663949 
L 42.561547 -47.663949 
L 43.030597 -47.663949 
L 43.499646 -47.663949 
L 43.968696 -47.663949 
L 44.437746 -47.663949 
L 44.906796 -47.663949 
L 45.375846 -47.663949 
L 45.844896 -47.663949 
L 46.313946 -47.663949 
L 46.782996 -47.663949 
L 47.252045 -47.663949 
L 47.721095 -47.663949 
L 48.190145 -47.663949 
L 48.659195 -47.663949 
L 49.128245 -47.663949 
L 49.597295 -47.663949 
L 50.066345 -47.663949 
L 50.535394 -47.663949 
L 51.004444 -47.663949 
L 51.473494 -47.663949 
L 51.942544 -47.663949 
L 52.411594 -47.663949 
L 52.880644 -47.663949 
L 53.349694 -47.663949 
L 53.818744 -47.663949 
L 54.287793 -47.663949 
L 54.756843 -47.663949 
L 55.225893 -47.663949 
L 55.694943 -47.663949 
L 56.163993 -47.663949 
L 56.633043 -47.663949 
L 57.102093 -47.663949 
L 57.571143 -47.663949 
L 58.040192 -47.663949 
L 58.509242 -47.663949 
L 58.978292 -47.663949 
L 59.447342 -47.663949 
L 59.916392 -47.663949 
L 60.385442 -47.663949 
L 60.854492 -47.663949 
L 61.323542 -47.663949 
L 61.792591 -47.663949 
L 62.261641 -47.663949 
L 62.730691 -47.663949 
L 63.199741 -47.663949 
L 63.668791 -47.663949 
L 64.137841 -47.663949 
L 64.606891 -47.663949 
L 65.07594 -47.663949 
L 65.54499 -47.663949 
L 66.01404 -47.663949 
L 66.48309 -47.663949 
L 66.95214 -47.663949 
L 67.42119 -47.663949 
L 67.89024 -47.663949 
L 68.35929 -47.663949 
L 68.828339 -47.663949 
L 69.297389 -47.663949 
L 69.766439 -47.663949 
L 70.235489 -47.663949 
L 70.704539 -47.663949 
L 71.173589 -47.663949 
L 71.642639 -47.663949 
L 72.111689 -47.663949 
L 72.580738 -47.663949 
L 73.049788 -47.663949 
L 73.518838 -47.663949 
L 73.987888 -47.663949 
L 74.456938 -47.663949 
L 74.925988 -47.663949 
L 75.395038 -47.663949 
L 75.864088 -47.663949 
L 76.333137 -47.663949 
L 76.802187 -47.663949 
L 77.271237 -47.663949 
L 77.740287 -47.663949 
L 78.209337 -47.663949 
L 78.678387 -47.663949 
L 79.147437 -47.663949 
L 79.616487 -47.663949 
L 80.085536 -47.663949 
L 80.554586 -47.663949 
L 81.023636 -47.663949 
L 81.492686 -47.663949 
L 81.961736 -47.663949 
L 82.430786 -47.663949 
L 82.899836 -47.663949 
L 83.368885 -47.663949 
L 83.837935 -47.663949 
L 84.306985 -47.663949 
L 84.776035 -47.663949 
L 85.245085 -47.663949 
L 85.714135 -47.663949 
L 86.183185 -47.663949 
L 86.652235 -47.663949 
L 87.121284 -47.663949 
L 87.590334 -47.663949 
L 88.059384 -47.663949 
L 88.528434 -47.663949 
L 88.997484 -47.663949 
L 89.466534 -47.663949 
L 89.935584 -47.663949 
L 90.404634 -47.663949 
L 90.873683 -47.663949 
L 91.342733 -47.663949 
L 91.342733 -146.242694 
L 91.342733 -146.242694 
L 90.873683 -146.242694 
L 90.404634 -146.242694 
L 89.935584 -146.242694 
L 89.466534 -146.242694 
L 88.997484 -146.242694 
L 88.528434 -146.242694 
L 88.059384 -146.242694 
L 87.590334 -146.242694 
L 87.121284 -146.242694 
L 86.652235 -146.242694 
L 86.183185 -146.242694 
L 85.714135 -146.242694 
L 85.245085 -146.242694 
L 84.776035 -146.242694 
L 84.306985 -146.242694 
L 83.837935 -146.242694 
L 83.368885 -146.242694 
L 82.899836 -146.242694 
L 82.430786 -146.242694 
L 81.961736 -146.242694 
L 81.492686 -146.242694 
L 81.023636 -146.242694 
L 80.554586 -146.242694 
L 80.085536 -146.242694 
L 79.616487 -146.242694 
L 79.147437 -146.242694 
L 78.678387 -146.242694 
L 78.209337 -146.242694 
L 77.740287 -146.242694 
L 77.271237 -146.242694 
L 76.802187 -146.242694 
L 76.333137 -146.242694 
L 75.864088 -146.242694 
L 75.395038 -146.242694 
L 74.925988 -146.242694 
L 74.456938 -146.242694 
L 73.987888 -146.242694 
L 73.518838 -146.242694 
L 73.049788 -146.242694 
L 72.580738 -146.242694 
L 72.111689 -146.242694 
L 71.642639 -146.242694 
L 71.173589 -146.242694 
L 70.704539 -146.242694 
L 70.235489 -146.242694 
L 69.766439 -146.242694 
L 69.297389 -146.242694 
L 68.828339 -146.242694 
L 68.35929 -146.242694 
L 67.89024 -146.242694 
L 67.42119 -146.242694 
L 66.95214 -146.242694 
L 66.48309 -146.242694 
L 66.01404 -146.242694 
L 65.54499 -146.242694 
L 65.07594 -146.242694 
L 64.606891 -146.242694 
L 64.137841 -146.242694 
L 63.668791 -146.242694 
L 63.199741 -146.242694 
L 62.730691 -146.242694 
L 62.261641 -146.242694 
L 61.792591 -146.242694 
L 61.323542 -146.242694 
L 60.854492 -146.242694 
L 60.385442 -146.242694 
L 59.916392 -146.242694 
L 59.447342 -146.242694 
L 58.978292 -146.242694 
L 58.509242 -146.242694 
L 58.040192 -146.242694 
L 57.571143 -146.242694 
L 57.102093 -146.242694 
L 56.633043 -146.242694 
L 56.163993 -146.242694 
L 55.694943 -146.242694 
L 55.225893 -146.242694 
L 54.756843 -146.242694 
L 54.287793 -146.242694 
L 53.818744 -146.242694 
L 53.349694 -146.242694 
L 52.880644 -146.242694 
L 52.411594 -146.242694 
L 51.942544 -146.242694 
L 51.473494 -146.242694 
L 51.004444 -146.242694 
L 50.535394 -146.242694 
L 50.066345 -146.242694 
L 49.597295 -146.242694 
L 49.128245 -146.242694 
L 48.659195 -146.242694 
L 48.190145 -146.242694 
L 47.721095 -146.242694 
L 47.252045 -146.242694 
L 46.782996 -146.242694 
L 46.313946 -146.242694 
L 45.844896 -146.242694 
L 45.375846 -146.242694 
L 44.906796 -146.242694 
L 44.437746 -146.242694 
L 43.968696 -146.242694 
L 43.499646 -146.242694 
L 43.030597 -146.242694 
L 42.561547 -146.242694 
L 42.092497 -146.242694 
L 41.623447 -146.242694 
L 41.154397 -146.242694 
L 40.685347 -146.242694 
L 40.216297 -146.242694 
L 39.747247 -146.242694 
L 39.278198 -146.242694 
L 38.809148 -146.242694 
L 38.340098 -146.242694 
L 37.871048 -146.242694 
L 37.401998 -146.242694 
L 36.932948 -146.242694 
L 36.463898 -146.242694 
L 35.994848 -146.242694 
L 35.525799 -146.242694 
L 35.056749 -146.242694 
L 34.587699 -146.242694 
L 34.118649 -146.242694 
L 33.649599 -146.242694 
L 33.180549 -146.242694 
L 32.711499 -146.242694 
L 32.242449 -146.242694 
L 31.7734 -146.242694 
L 31.30435 -146.242694 
L 30.8353 -146.242694 
L 30.36625 -146.242694 
z
"/>
    </defs>
    <g clip-path="url(#pa6942df589)">
     <use xlink:href="#mda552a44a3" x="0" y="152.620194" style="fill: #fffdbd; fill-opacity: 0.3"/>
    </g>
   </g>
   <g id="PolyCollection_2">
    <defs>
     <path id="me8763a5630" d="M 91.342733 -146.242694 
L 91.342733 -47.663949 
L 91.811783 -47.663949 
L 92.280833 -47.663949 
L 92.749883 -47.663949 
L 93.218933 -47.663949 
L 93.687983 -47.663949 
L 94.157033 -47.663949 
L 94.626082 -47.663949 
L 95.095132 -47.663949 
L 95.564182 -47.663949 
L 96.033232 -47.663949 
L 96.502282 -47.663949 
L 96.971332 -47.663949 
L 97.440382 -47.663949 
L 97.909432 -47.663949 
L 98.378481 -47.663949 
L 98.847531 -47.663949 
L 99.316581 -47.663949 
L 99.785631 -47.663949 
L 100.254681 -47.663949 
L 100.723731 -47.663949 
L 101.192781 -47.663949 
L 101.66183 -47.663949 
L 102.13088 -47.663949 
L 102.59993 -47.663949 
L 103.06898 -47.663949 
L 103.53803 -47.663949 
L 104.00708 -47.663949 
L 104.47613 -47.663949 
L 104.94518 -47.663949 
L 105.414229 -47.663949 
L 105.883279 -47.663949 
L 106.352329 -47.663949 
L 106.821379 -47.663949 
L 107.290429 -47.663949 
L 107.759479 -47.663949 
L 108.228529 -47.663949 
L 108.697579 -47.663949 
L 109.166628 -47.663949 
L 109.635678 -47.663949 
L 110.104728 -47.663949 
L 110.573778 -47.663949 
L 111.042828 -47.663949 
L 111.511878 -47.663949 
L 111.980928 -47.663949 
L 112.449978 -47.663949 
L 112.919027 -47.663949 
L 113.388077 -47.663949 
L 113.857127 -47.663949 
L 114.326177 -47.663949 
L 114.795227 -47.663949 
L 115.264277 -47.663949 
L 115.733327 -47.663949 
L 116.202376 -47.663949 
L 116.671426 -47.663949 
L 117.140476 -47.663949 
L 117.609526 -47.663949 
L 118.078576 -47.663949 
L 118.547626 -47.663949 
L 119.016676 -47.663949 
L 119.485726 -47.663949 
L 119.954775 -47.663949 
L 120.423825 -47.663949 
L 120.892875 -47.663949 
L 121.361925 -47.663949 
L 121.830975 -47.663949 
L 122.300025 -47.663949 
L 122.769075 -47.663949 
L 123.238125 -47.663949 
L 123.707174 -47.663949 
L 124.176224 -47.663949 
L 124.645274 -47.663949 
L 125.114324 -47.663949 
L 125.583374 -47.663949 
L 126.052424 -47.663949 
L 126.521474 -47.663949 
L 126.990524 -47.663949 
L 127.459573 -47.663949 
L 127.928623 -47.663949 
L 128.397673 -47.663949 
L 128.866723 -47.663949 
L 129.335773 -47.663949 
L 129.804823 -47.663949 
L 130.273873 -47.663949 
L 130.742923 -47.663949 
L 131.211972 -47.663949 
L 131.681022 -47.663949 
L 132.150072 -47.663949 
L 132.619122 -47.663949 
L 133.088172 -47.663949 
L 133.557222 -47.663949 
L 134.026272 -47.663949 
L 134.495321 -47.663949 
L 134.964371 -47.663949 
L 135.433421 -47.663949 
L 135.902471 -47.663949 
L 136.371521 -47.663949 
L 136.840571 -47.663949 
L 137.309621 -47.663949 
L 137.778671 -47.663949 
L 138.24772 -47.663949 
L 138.71677 -47.663949 
L 139.18582 -47.663949 
L 139.65487 -47.663949 
L 140.12392 -47.663949 
L 140.59297 -47.663949 
L 141.06202 -47.663949 
L 141.53107 -47.663949 
L 142.000119 -47.663949 
L 142.469169 -47.663949 
L 142.938219 -47.663949 
L 143.407269 -47.663949 
L 143.876319 -47.663949 
L 144.345369 -47.663949 
L 144.814419 -47.663949 
L 145.283469 -47.663949 
L 145.752518 -47.663949 
L 146.221568 -47.663949 
L 146.690618 -47.663949 
L 147.159668 -47.663949 
L 147.628718 -47.663949 
L 148.097768 -47.663949 
L 148.566818 -47.663949 
L 149.035868 -47.663949 
L 149.504917 -47.663949 
L 149.973967 -47.663949 
L 150.443017 -47.663949 
L 150.912067 -47.663949 
L 151.381117 -47.663949 
L 151.850167 -47.663949 
L 152.319217 -47.663949 
L 152.788266 -47.663949 
L 153.257316 -47.663949 
L 153.726366 -47.663949 
L 154.195416 -47.663949 
L 154.664466 -47.663949 
L 155.133516 -47.663949 
L 155.602566 -47.663949 
L 156.071616 -47.663949 
L 156.540665 -47.663949 
L 157.009715 -47.663949 
L 157.478765 -47.663949 
L 157.947815 -47.663949 
L 158.416865 -47.663949 
L 158.885915 -47.663949 
L 159.354965 -47.663949 
L 159.824015 -47.663949 
L 160.293064 -47.663949 
L 160.762114 -47.663949 
L 161.231164 -47.663949 
L 161.700214 -47.663949 
L 162.169264 -47.663949 
L 162.638314 -47.663949 
L 163.107364 -47.663949 
L 163.576414 -47.663949 
L 164.045463 -47.663949 
L 164.514513 -47.663949 
L 164.983563 -47.663949 
L 165.452613 -47.663949 
L 165.921663 -47.663949 
L 166.390713 -47.663949 
L 166.859763 -47.663949 
L 167.328812 -47.663949 
L 167.797862 -47.663949 
L 168.266912 -47.663949 
L 168.735962 -47.663949 
L 169.205012 -47.663949 
L 169.674062 -47.663949 
L 170.143112 -47.663949 
L 170.612162 -47.663949 
L 170.612162 -146.242694 
L 170.612162 -146.242694 
L 170.143112 -146.242694 
L 169.674062 -146.242694 
L 169.205012 -146.242694 
L 168.735962 -146.242694 
L 168.266912 -146.242694 
L 167.797862 -146.242694 
L 167.328812 -146.242694 
L 166.859763 -146.242694 
L 166.390713 -146.242694 
L 165.921663 -146.242694 
L 165.452613 -146.242694 
L 164.983563 -146.242694 
L 164.514513 -146.242694 
L 164.045463 -146.242694 
L 163.576414 -146.242694 
L 163.107364 -146.242694 
L 162.638314 -146.242694 
L 162.169264 -146.242694 
L 161.700214 -146.242694 
L 161.231164 -146.242694 
L 160.762114 -146.242694 
L 160.293064 -146.242694 
L 159.824015 -146.242694 
L 159.354965 -146.242694 
L 158.885915 -146.242694 
L 158.416865 -146.242694 
L 157.947815 -146.242694 
L 157.478765 -146.242694 
L 157.009715 -146.242694 
L 156.540665 -146.242694 
L 156.071616 -146.242694 
L 155.602566 -146.242694 
L 155.133516 -146.242694 
L 154.664466 -146.242694 
L 154.195416 -146.242694 
L 153.726366 -146.242694 
L 153.257316 -146.242694 
L 152.788266 -146.242694 
L 152.319217 -146.242694 
L 151.850167 -146.242694 
L 151.381117 -146.242694 
L 150.912067 -146.242694 
L 150.443017 -146.242694 
L 149.973967 -146.242694 
L 149.504917 -146.242694 
L 149.035868 -146.242694 
L 148.566818 -146.242694 
L 148.097768 -146.242694 
L 147.628718 -146.242694 
L 147.159668 -146.242694 
L 146.690618 -146.242694 
L 146.221568 -146.242694 
L 145.752518 -146.242694 
L 145.283469 -146.242694 
L 144.814419 -146.242694 
L 144.345369 -146.242694 
L 143.876319 -146.242694 
L 143.407269 -146.242694 
L 142.938219 -146.242694 
L 142.469169 -146.242694 
L 142.000119 -146.242694 
L 141.53107 -146.242694 
L 141.06202 -146.242694 
L 140.59297 -146.242694 
L 140.12392 -146.242694 
L 139.65487 -146.242694 
L 139.18582 -146.242694 
L 138.71677 -146.242694 
L 138.24772 -146.242694 
L 137.778671 -146.242694 
L 137.309621 -146.242694 
L 136.840571 -146.242694 
L 136.371521 -146.242694 
L 135.902471 -146.242694 
L 135.433421 -146.242694 
L 134.964371 -146.242694 
L 134.495321 -146.242694 
L 134.026272 -146.242694 
L 133.557222 -146.242694 
L 133.088172 -146.242694 
L 132.619122 -146.242694 
L 132.150072 -146.242694 
L 131.681022 -146.242694 
L 131.211972 -146.242694 
L 130.742923 -146.242694 
L 130.273873 -146.242694 
L 129.804823 -146.242694 
L 129.335773 -146.242694 
L 128.866723 -146.242694 
L 128.397673 -146.242694 
L 127.928623 -146.242694 
L 127.459573 -146.242694 
L 126.990524 -146.242694 
L 126.521474 -146.242694 
L 126.052424 -146.242694 
L 125.583374 -146.242694 
L 125.114324 -146.242694 
L 124.645274 -146.242694 
L 124.176224 -146.242694 
L 123.707174 -146.242694 
L 123.238125 -146.242694 
L 122.769075 -146.242694 
L 122.300025 -146.242694 
L 121.830975 -146.242694 
L 121.361925 -146.242694 
L 120.892875 -146.242694 
L 120.423825 -146.242694 
L 119.954775 -146.242694 
L 119.485726 -146.242694 
L 119.016676 -146.242694 
L 118.547626 -146.242694 
L 118.078576 -146.242694 
L 117.609526 -146.242694 
L 117.140476 -146.242694 
L 116.671426 -146.242694 
L 116.202376 -146.242694 
L 115.733327 -146.242694 
L 115.264277 -146.242694 
L 114.795227 -146.242694 
L 114.326177 -146.242694 
L 113.857127 -146.242694 
L 113.388077 -146.242694 
L 112.919027 -146.242694 
L 112.449978 -146.242694 
L 111.980928 -146.242694 
L 111.511878 -146.242694 
L 111.042828 -146.242694 
L 110.573778 -146.242694 
L 110.104728 -146.242694 
L 109.635678 -146.242694 
L 109.166628 -146.242694 
L 108.697579 -146.242694 
L 108.228529 -146.242694 
L 107.759479 -146.242694 
L 107.290429 -146.242694 
L 106.821379 -146.242694 
L 106.352329 -146.242694 
L 105.883279 -146.242694 
L 105.414229 -146.242694 
L 104.94518 -146.242694 
L 104.47613 -146.242694 
L 104.00708 -146.242694 
L 103.53803 -146.242694 
L 103.06898 -146.242694 
L 102.59993 -146.242694 
L 102.13088 -146.242694 
L 101.66183 -146.242694 
L 101.192781 -146.242694 
L 100.723731 -146.242694 
L 100.254681 -146.242694 
L 99.785631 -146.242694 
L 99.316581 -146.242694 
L 98.847531 -146.242694 
L 98.378481 -146.242694 
L 97.909432 -146.242694 
L 97.440382 -146.242694 
L 96.971332 -146.242694 
L 96.502282 -146.242694 
L 96.033232 -146.242694 
L 95.564182 -146.242694 
L 95.095132 -146.242694 
L 94.626082 -146.242694 
L 94.157033 -146.242694 
L 93.687983 -146.242694 
L 93.218933 -146.242694 
L 92.749883 -146.242694 
L 92.280833 -146.242694 
L 91.811783 -146.242694 
L 91.342733 -146.242694 
z
"/>
    </defs>
    <g clip-path="url(#pa6942df589)">
     <use xlink:href="#me8763a5630" x="0" y="152.620194" style="fill: #bce9ff; fill-opacity: 0.3"/>
    </g>
   </g>
   <g id="PolyCollection_3">
    <defs>
     <path id="mbd96a2cb5a" d="M 170.612162 -146.242694 
L 170.612162 -47.663949 
L 171.081211 -47.663949 
L 171.550261 -47.663949 
L 172.019311 -47.663949 
L 172.488361 -47.663949 
L 172.957411 -47.663949 
L 173.426461 -47.663949 
L 173.895511 -47.663949 
L 174.364561 -47.663949 
L 174.83361 -47.663949 
L 175.30266 -47.663949 
L 175.77171 -47.663949 
L 176.24076 -47.663949 
L 176.70981 -47.663949 
L 177.17886 -47.663949 
L 177.64791 -47.663949 
L 178.11696 -47.663949 
L 178.586009 -47.663949 
L 179.055059 -47.663949 
L 179.524109 -47.663949 
L 179.993159 -47.663949 
L 180.462209 -47.663949 
L 180.931259 -47.663949 
L 181.400309 -47.663949 
L 181.869359 -47.663949 
L 182.338408 -47.663949 
L 182.807458 -47.663949 
L 183.276508 -47.663949 
L 183.745558 -47.663949 
L 184.214608 -47.663949 
L 184.683658 -47.663949 
L 185.152708 -47.663949 
L 185.621757 -47.663949 
L 186.090807 -47.663949 
L 186.559857 -47.663949 
L 187.028907 -47.663949 
L 187.497957 -47.663949 
L 187.967007 -47.663949 
L 188.436057 -47.663949 
L 188.905107 -47.663949 
L 189.374156 -47.663949 
L 189.843206 -47.663949 
L 190.312256 -47.663949 
L 190.781306 -47.663949 
L 191.250356 -47.663949 
L 191.719406 -47.663949 
L 192.188456 -47.663949 
L 192.657506 -47.663949 
L 193.126555 -47.663949 
L 193.595605 -47.663949 
L 194.064655 -47.663949 
L 194.533705 -47.663949 
L 195.002755 -47.663949 
L 195.471805 -47.663949 
L 195.940855 -47.663949 
L 196.409905 -47.663949 
L 196.878954 -47.663949 
L 197.348004 -47.663949 
L 197.817054 -47.663949 
L 198.286104 -47.663949 
L 198.755154 -47.663949 
L 199.224204 -47.663949 
L 199.693254 -47.663949 
L 200.162304 -47.663949 
L 200.631353 -47.663949 
L 201.100403 -47.663949 
L 201.569453 -47.663949 
L 201.569453 -146.242694 
L 201.569453 -146.242694 
L 201.100403 -146.242694 
L 200.631353 -146.242694 
L 200.162304 -146.242694 
L 199.693254 -146.242694 
L 199.224204 -146.242694 
L 198.755154 -146.242694 
L 198.286104 -146.242694 
L 197.817054 -146.242694 
L 197.348004 -146.242694 
L 196.878954 -146.242694 
L 196.409905 -146.242694 
L 195.940855 -146.242694 
L 195.471805 -146.242694 
L 195.002755 -146.242694 
L 194.533705 -146.242694 
L 194.064655 -146.242694 
L 193.595605 -146.242694 
L 193.126555 -146.242694 
L 192.657506 -146.242694 
L 192.188456 -146.242694 
L 191.719406 -146.242694 
L 191.250356 -146.242694 
L 190.781306 -146.242694 
L 190.312256 -146.242694 
L 189.843206 -146.242694 
L 189.374156 -146.242694 
L 188.905107 -146.242694 
L 188.436057 -146.242694 
L 187.967007 -146.242694 
L 187.497957 -146.242694 
L 187.028907 -146.242694 
L 186.559857 -146.242694 
L 186.090807 -146.242694 
L 185.621757 -146.242694 
L 185.152708 -146.242694 
L 184.683658 -146.242694 
L 184.214608 -146.242694 
L 183.745558 -146.242694 
L 183.276508 -146.242694 
L 182.807458 -146.242694 
L 182.338408 -146.242694 
L 181.869359 -146.242694 
L 181.400309 -146.242694 
L 180.931259 -146.242694 
L 180.462209 -146.242694 
L 179.993159 -146.242694 
L 179.524109 -146.242694 
L 179.055059 -146.242694 
L 178.586009 -146.242694 
L 178.11696 -146.242694 
L 177.64791 -146.242694 
L 177.17886 -146.242694 
L 176.70981 -146.242694 
L 176.24076 -146.242694 
L 175.77171 -146.242694 
L 175.30266 -146.242694 
L 174.83361 -146.242694 
L 174.364561 -146.242694 
L 173.895511 -146.242694 
L 173.426461 -146.242694 
L 172.957411 -146.242694 
L 172.488361 -146.242694 
L 172.019311 -146.242694 
L 171.550261 -146.242694 
L 171.081211 -146.242694 
L 170.612162 -146.242694 
z
"/>
    </defs>
    <g clip-path="url(#pa6942df589)">
     <use xlink:href="#mbd96a2cb5a" x="0" y="152.620194" style="fill: #bdffc6; fill-opacity: 0.3"/>
    </g>
   </g>
   <g id="matplotlib.axis_1">
    <g id="xtick_1">
     <g id="line2d_6">
      <defs>
       <path id="mb7680dfd53" d="M 0 0 
L 0 -3 
" style="stroke: #000000; stroke-width: 0.5"/>
      </defs>
      <g>
       <use xlink:href="#mb7680dfd53" x="30.36625" y="104.956246" style="stroke: #000000; stroke-width: 0.5"/>
      </g>
     </g>
     <g id="text_1">
      <!-- 01-01 -->
      <g transform="translate(21.034375 114.011246)scale(0.08 -0.08)">
       <defs>
        <path id="TimesNewRomanPSMT-30" d="M 231 2094 
Q 231 2819 450 3342 
Q 669 3866 1031 4122 
Q 1313 4325 1613 4325 
Q 2100 4325 2488 3828 
Q 2972 3213 2972 2159 
Q 2972 1422 2759 906 
Q 2547 391 2217 158 
Q 1888 -75 1581 -75 
Q 975 -75 572 641 
Q 231 1244 231 2094 
z
M 844 2016 
Q 844 1141 1059 588 
Q 1238 122 1591 122 
Q 1759 122 1940 273 
Q 2122 425 2216 781 
Q 2359 1319 2359 2297 
Q 2359 3022 2209 3506 
Q 2097 3866 1919 4016 
Q 1791 4119 1609 4119 
Q 1397 4119 1231 3928 
Q 1006 3669 925 3112 
Q 844 2556 844 2016 
z
" transform="scale(0.015625)"/>
        <path id="TimesNewRomanPSMT-31" d="M 750 3822 
L 1781 4325 
L 1884 4325 
L 1884 747 
Q 1884 391 1914 303 
Q 1944 216 2037 169 
Q 2131 122 2419 116 
L 2419 0 
L 825 0 
L 825 116 
Q 1125 122 1212 167 
Q 1300 213 1334 289 
Q 1369 366 1369 747 
L 1369 3034 
Q 1369 3497 1338 3628 
Q 1316 3728 1258 3775 
Q 1200 3822 1119 3822 
Q 1003 3822 797 3725 
L 750 3822 
z
" transform="scale(0.015625)"/>
        <path id="TimesNewRomanPSMT-2d" d="M 259 1672 
L 1875 1672 
L 1875 1200 
L 259 1200 
L 259 1672 
z
" transform="scale(0.015625)"/>
       </defs>
       <use xlink:href="#TimesNewRomanPSMT-30"/>
       <use xlink:href="#TimesNewRomanPSMT-31" x="50"/>
       <use xlink:href="#TimesNewRomanPSMT-2d" x="100"/>
       <use xlink:href="#TimesNewRomanPSMT-30" x="133.300781"/>
       <use xlink:href="#TimesNewRomanPSMT-31" x="183.300781"/>
      </g>
     </g>
    </g>
    <g id="xtick_2">
     <g id="line2d_7">
      <g>
       <use xlink:href="#mb7680dfd53" x="73.049788" y="104.956246" style="stroke: #000000; stroke-width: 0.5"/>
      </g>
     </g>
     <g id="text_2">
      <!-- 04-01 -->
      <g transform="translate(63.717913 114.011246)scale(0.08 -0.08)">
       <defs>
        <path id="TimesNewRomanPSMT-34" d="M 2978 1563 
L 2978 1119 
L 2409 1119 
L 2409 0 
L 1894 0 
L 1894 1119 
L 100 1119 
L 100 1519 
L 2066 4325 
L 2409 4325 
L 2409 1563 
L 2978 1563 
z
M 1894 1563 
L 1894 3666 
L 406 1563 
L 1894 1563 
z
" transform="scale(0.015625)"/>
       </defs>
       <use xlink:href="#TimesNewRomanPSMT-30"/>
       <use xlink:href="#TimesNewRomanPSMT-34" x="50"/>
       <use xlink:href="#TimesNewRomanPSMT-2d" x="100"/>
       <use xlink:href="#TimesNewRomanPSMT-30" x="133.300781"/>
       <use xlink:href="#TimesNewRomanPSMT-31" x="183.300781"/>
      </g>
     </g>
    </g>
    <g id="xtick_3">
     <g id="line2d_8">
      <g>
       <use xlink:href="#mb7680dfd53" x="115.733327" y="104.956246" style="stroke: #000000; stroke-width: 0.5"/>
      </g>
     </g>
     <g id="text_3">
      <!-- 07-01 -->
      <g transform="translate(106.401452 114.011246)scale(0.08 -0.08)">
       <defs>
        <path id="TimesNewRomanPSMT-37" d="M 644 4238 
L 2916 4238 
L 2916 4119 
L 1503 -88 
L 1153 -88 
L 2419 3728 
L 1253 3728 
Q 900 3728 750 3644 
Q 488 3500 328 3200 
L 238 3234 
L 644 4238 
z
" transform="scale(0.015625)"/>
       </defs>
       <use xlink:href="#TimesNewRomanPSMT-30"/>
       <use xlink:href="#TimesNewRomanPSMT-37" x="50"/>
       <use xlink:href="#TimesNewRomanPSMT-2d" x="100"/>
       <use xlink:href="#TimesNewRomanPSMT-30" x="133.300781"/>
       <use xlink:href="#TimesNewRomanPSMT-31" x="183.300781"/>
      </g>
     </g>
    </g>
    <g id="xtick_4">
     <g id="line2d_9">
      <g>
       <use xlink:href="#mb7680dfd53" x="158.885915" y="104.956246" style="stroke: #000000; stroke-width: 0.5"/>
      </g>
     </g>
     <g id="text_4">
      <!-- 10-01 -->
      <g transform="translate(149.55404 114.011246)scale(0.08 -0.08)">
       <use xlink:href="#TimesNewRomanPSMT-31"/>
       <use xlink:href="#TimesNewRomanPSMT-30" x="50"/>
       <use xlink:href="#TimesNewRomanPSMT-2d" x="100"/>
       <use xlink:href="#TimesNewRomanPSMT-30" x="133.300781"/>
       <use xlink:href="#TimesNewRomanPSMT-31" x="183.300781"/>
      </g>
     </g>
    </g>
    <g id="xtick_5">
     <g id="line2d_10">
      <g>
       <use xlink:href="#mb7680dfd53" x="201.569453" y="104.956246" style="stroke: #000000; stroke-width: 0.5"/>
      </g>
     </g>
     <g id="text_5">
      <!-- 12-31 -->
      <g transform="translate(192.237578 114.011246)scale(0.08 -0.08)">
       <defs>
        <path id="TimesNewRomanPSMT-32" d="M 2934 816 
L 2638 0 
L 138 0 
L 138 116 
Q 1241 1122 1691 1759 
Q 2141 2397 2141 2925 
Q 2141 3328 1894 3587 
Q 1647 3847 1303 3847 
Q 991 3847 742 3664 
Q 494 3481 375 3128 
L 259 3128 
Q 338 3706 661 4015 
Q 984 4325 1469 4325 
Q 1984 4325 2329 3994 
Q 2675 3663 2675 3213 
Q 2675 2891 2525 2569 
Q 2294 2063 1775 1497 
Q 997 647 803 472 
L 1909 472 
Q 2247 472 2383 497 
Q 2519 522 2628 598 
Q 2738 675 2819 816 
L 2934 816 
z
" transform="scale(0.015625)"/>
        <path id="TimesNewRomanPSMT-33" d="M 325 3431 
Q 506 3859 782 4092 
Q 1059 4325 1472 4325 
Q 1981 4325 2253 3994 
Q 2459 3747 2459 3466 
Q 2459 3003 1878 2509 
Q 2269 2356 2469 2072 
Q 2669 1788 2669 1403 
Q 2669 853 2319 450 
Q 1863 -75 997 -75 
Q 569 -75 414 31 
Q 259 138 259 259 
Q 259 350 332 419 
Q 406 488 509 488 
Q 588 488 669 463 
Q 722 447 909 348 
Q 1097 250 1169 231 
Q 1284 197 1416 197 
Q 1734 197 1970 444 
Q 2206 691 2206 1028 
Q 2206 1275 2097 1509 
Q 2016 1684 1919 1775 
Q 1784 1900 1550 2001 
Q 1316 2103 1072 2103 
L 972 2103 
L 972 2197 
Q 1219 2228 1467 2375 
Q 1716 2522 1828 2728 
Q 1941 2934 1941 3181 
Q 1941 3503 1739 3701 
Q 1538 3900 1238 3900 
Q 753 3900 428 3381 
L 325 3431 
z
" transform="scale(0.015625)"/>
       </defs>
       <use xlink:href="#TimesNewRomanPSMT-31"/>
       <use xlink:href="#TimesNewRomanPSMT-32" x="50"/>
       <use xlink:href="#TimesNewRomanPSMT-2d" x="100"/>
       <use xlink:href="#TimesNewRomanPSMT-33" x="133.300781"/>
       <use xlink:href="#TimesNewRomanPSMT-31" x="183.300781"/>
      </g>
     </g>
    </g>
    <g id="text_6">
     <!-- Date -->
     <g transform="translate(108.416602 125.277496)scale(0.08 -0.08)">
      <defs>
       <path id="TimesNewRomanPSMT-44" d="M 109 0 
L 109 116 
L 269 116 
Q 538 116 650 288 
Q 719 391 719 750 
L 719 3488 
Q 719 3884 631 3984 
Q 509 4122 269 4122 
L 109 4122 
L 109 4238 
L 1834 4238 
Q 2784 4238 3279 4022 
Q 3775 3806 4076 3303 
Q 4378 2800 4378 2141 
Q 4378 1256 3841 663 
Q 3238 0 2003 0 
L 109 0 
z
M 1319 306 
Q 1716 219 1984 219 
Q 2709 219 3187 728 
Q 3666 1238 3666 2109 
Q 3666 2988 3187 3494 
Q 2709 4000 1959 4000 
Q 1678 4000 1319 3909 
L 1319 306 
z
" transform="scale(0.015625)"/>
       <path id="TimesNewRomanPSMT-61" d="M 1822 413 
Q 1381 72 1269 19 
Q 1100 -59 909 -59 
Q 613 -59 420 144 
Q 228 347 228 678 
Q 228 888 322 1041 
Q 450 1253 767 1440 
Q 1084 1628 1822 1897 
L 1822 2009 
Q 1822 2438 1686 2597 
Q 1550 2756 1291 2756 
Q 1094 2756 978 2650 
Q 859 2544 859 2406 
L 866 2225 
Q 866 2081 792 2003 
Q 719 1925 600 1925 
Q 484 1925 411 2006 
Q 338 2088 338 2228 
Q 338 2497 613 2722 
Q 888 2947 1384 2947 
Q 1766 2947 2009 2819 
Q 2194 2722 2281 2516 
Q 2338 2381 2338 1966 
L 2338 994 
Q 2338 584 2353 492 
Q 2369 400 2405 369 
Q 2441 338 2488 338 
Q 2538 338 2575 359 
Q 2641 400 2828 588 
L 2828 413 
Q 2478 -56 2159 -56 
Q 2006 -56 1915 50 
Q 1825 156 1822 413 
z
M 1822 616 
L 1822 1706 
Q 1350 1519 1213 1441 
Q 966 1303 859 1153 
Q 753 1003 753 825 
Q 753 600 887 451 
Q 1022 303 1197 303 
Q 1434 303 1822 616 
z
" transform="scale(0.015625)"/>
       <path id="TimesNewRomanPSMT-74" d="M 1031 3803 
L 1031 2863 
L 1700 2863 
L 1700 2644 
L 1031 2644 
L 1031 788 
Q 1031 509 1111 412 
Q 1191 316 1316 316 
Q 1419 316 1516 380 
Q 1613 444 1666 569 
L 1788 569 
Q 1678 263 1478 108 
Q 1278 -47 1066 -47 
Q 922 -47 784 33 
Q 647 113 581 261 
Q 516 409 516 719 
L 516 2644 
L 63 2644 
L 63 2747 
Q 234 2816 414 2980 
Q 594 3144 734 3369 
Q 806 3488 934 3803 
L 1031 3803 
z
" transform="scale(0.015625)"/>
       <path id="TimesNewRomanPSMT-65" d="M 681 1784 
Q 678 1147 991 784 
Q 1303 422 1725 422 
Q 2006 422 2214 576 
Q 2422 731 2563 1106 
L 2659 1044 
Q 2594 616 2278 264 
Q 1963 -88 1488 -88 
Q 972 -88 605 314 
Q 238 716 238 1394 
Q 238 2128 614 2539 
Q 991 2950 1559 2950 
Q 2041 2950 2350 2633 
Q 2659 2316 2659 1784 
L 681 1784 
z
M 681 1966 
L 2006 1966 
Q 1991 2241 1941 2353 
Q 1863 2528 1708 2628 
Q 1553 2728 1384 2728 
Q 1125 2728 920 2526 
Q 716 2325 681 1966 
z
" transform="scale(0.015625)"/>
      </defs>
      <use xlink:href="#TimesNewRomanPSMT-44"/>
      <use xlink:href="#TimesNewRomanPSMT-61" x="72.216797"/>
      <use xlink:href="#TimesNewRomanPSMT-74" x="116.601562"/>
      <use xlink:href="#TimesNewRomanPSMT-65" x="144.384766"/>
     </g>
    </g>
   </g>
   <g id="matplotlib.axis_2">
    <g id="ytick_1">
     <g id="line2d_11">
      <defs>
       <path id="m0f8945bdaf" d="M 0 0 
L 3 0 
" style="stroke: #000000; stroke-width: 0.5"/>
      </defs>
      <g>
       <use xlink:href="#m0f8945bdaf" x="30.36625" y="95.994541" style="stroke: #000000; stroke-width: 0.5"/>
      </g>
     </g>
     <g id="text_7">
      <!-- $\mathdefault{330}$ -->
      <g transform="translate(14.86625 98.772041)scale(0.08 -0.08)">
       <use xlink:href="#TimesNewRomanPSMT-33" transform="translate(0 0.421875)"/>
       <use xlink:href="#TimesNewRomanPSMT-33" transform="translate(50 0.421875)"/>
       <use xlink:href="#TimesNewRomanPSMT-30" transform="translate(100 0.421875)"/>
      </g>
     </g>
    </g>
    <g id="ytick_2">
     <g id="line2d_12">
      <g>
       <use xlink:href="#m0f8945bdaf" x="30.36625" y="78.071133" style="stroke: #000000; stroke-width: 0.5"/>
      </g>
     </g>
     <g id="text_8">
      <!-- $\mathdefault{340}$ -->
      <g transform="translate(14.86625 80.848633)scale(0.08 -0.08)">
       <use xlink:href="#TimesNewRomanPSMT-33" transform="translate(0 0.421875)"/>
       <use xlink:href="#TimesNewRomanPSMT-34" transform="translate(50 0.421875)"/>
       <use xlink:href="#TimesNewRomanPSMT-30" transform="translate(100 0.421875)"/>
      </g>
     </g>
    </g>
    <g id="ytick_3">
     <g id="line2d_13">
      <g>
       <use xlink:href="#m0f8945bdaf" x="30.36625" y="60.147725" style="stroke: #000000; stroke-width: 0.5"/>
      </g>
     </g>
     <g id="text_9">
      <!-- $\mathdefault{350}$ -->
      <g transform="translate(14.86625 62.925225)scale(0.08 -0.08)">
       <defs>
        <path id="TimesNewRomanPSMT-35" d="M 2778 4238 
L 2534 3706 
L 1259 3706 
L 981 3138 
Q 1809 3016 2294 2522 
Q 2709 2097 2709 1522 
Q 2709 1188 2573 903 
Q 2438 619 2231 419 
Q 2025 219 1772 97 
Q 1413 -75 1034 -75 
Q 653 -75 479 54 
Q 306 184 306 341 
Q 306 428 378 495 
Q 450 563 559 563 
Q 641 563 702 538 
Q 763 513 909 409 
Q 1144 247 1384 247 
Q 1750 247 2026 523 
Q 2303 800 2303 1197 
Q 2303 1581 2056 1914 
Q 1809 2247 1375 2428 
Q 1034 2569 447 2591 
L 1259 4238 
L 2778 4238 
z
" transform="scale(0.015625)"/>
       </defs>
       <use xlink:href="#TimesNewRomanPSMT-33" transform="translate(0 0.421875)"/>
       <use xlink:href="#TimesNewRomanPSMT-35" transform="translate(50 0.421875)"/>
       <use xlink:href="#TimesNewRomanPSMT-30" transform="translate(100 0.421875)"/>
      </g>
     </g>
    </g>
    <g id="ytick_4">
     <g id="line2d_14">
      <g>
       <use xlink:href="#m0f8945bdaf" x="30.36625" y="42.224317" style="stroke: #000000; stroke-width: 0.5"/>
      </g>
     </g>
     <g id="text_10">
      <!-- $\mathdefault{360}$ -->
      <g transform="translate(14.86625 45.001817)scale(0.08 -0.08)">
       <defs>
        <path id="TimesNewRomanPSMT-36" d="M 2869 4325 
L 2869 4209 
Q 2456 4169 2195 4045 
Q 1934 3922 1679 3669 
Q 1425 3416 1258 3105 
Q 1091 2794 978 2366 
Q 1428 2675 1881 2675 
Q 2316 2675 2634 2325 
Q 2953 1975 2953 1425 
Q 2953 894 2631 456 
Q 2244 -75 1606 -75 
Q 1172 -75 869 213 
Q 275 772 275 1663 
Q 275 2231 503 2743 
Q 731 3256 1154 3653 
Q 1578 4050 1965 4187 
Q 2353 4325 2688 4325 
L 2869 4325 
z
M 925 2138 
Q 869 1716 869 1456 
Q 869 1156 980 804 
Q 1091 453 1309 247 
Q 1469 100 1697 100 
Q 1969 100 2183 356 
Q 2397 613 2397 1088 
Q 2397 1622 2184 2012 
Q 1972 2403 1581 2403 
Q 1463 2403 1327 2353 
Q 1191 2303 925 2138 
z
" transform="scale(0.015625)"/>
       </defs>
       <use xlink:href="#TimesNewRomanPSMT-33" transform="translate(0 0.421875)"/>
       <use xlink:href="#TimesNewRomanPSMT-36" transform="translate(50 0.421875)"/>
       <use xlink:href="#TimesNewRomanPSMT-30" transform="translate(100 0.421875)"/>
      </g>
     </g>
    </g>
    <g id="ytick_5">
     <g id="line2d_15">
      <g>
       <use xlink:href="#m0f8945bdaf" x="30.36625" y="24.300908" style="stroke: #000000; stroke-width: 0.5"/>
      </g>
     </g>
     <g id="text_11">
      <!-- $\mathdefault{370}$ -->
      <g transform="translate(14.86625 27.078408)scale(0.08 -0.08)">
       <use xlink:href="#TimesNewRomanPSMT-33" transform="translate(0 0.421875)"/>
       <use xlink:href="#TimesNewRomanPSMT-37" transform="translate(50 0.421875)"/>
       <use xlink:href="#TimesNewRomanPSMT-30" transform="translate(100 0.421875)"/>
      </g>
     </g>
    </g>
    <g id="ytick_6">
     <g id="line2d_16">
      <g>
       <use xlink:href="#m0f8945bdaf" x="30.36625" y="6.3775" style="stroke: #000000; stroke-width: 0.5"/>
      </g>
     </g>
     <g id="text_12">
      <!-- $\mathdefault{380}$ -->
      <g transform="translate(14.86625 9.155)scale(0.08 -0.08)">
       <defs>
        <path id="TimesNewRomanPSMT-38" d="M 1228 2134 
Q 725 2547 579 2797 
Q 434 3047 434 3316 
Q 434 3728 753 4026 
Q 1072 4325 1600 4325 
Q 2113 4325 2425 4047 
Q 2738 3769 2738 3413 
Q 2738 3175 2569 2928 
Q 2400 2681 1866 2347 
Q 2416 1922 2594 1678 
Q 2831 1359 2831 1006 
Q 2831 559 2490 242 
Q 2150 -75 1597 -75 
Q 994 -75 656 303 
Q 388 606 388 966 
Q 388 1247 577 1523 
Q 766 1800 1228 2134 
z
M 1719 2469 
Q 2094 2806 2194 3001 
Q 2294 3197 2294 3444 
Q 2294 3772 2109 3958 
Q 1925 4144 1606 4144 
Q 1288 4144 1088 3959 
Q 888 3775 888 3528 
Q 888 3366 970 3203 
Q 1053 3041 1206 2894 
L 1719 2469 
z
M 1375 2016 
Q 1116 1797 991 1539 
Q 866 1281 866 981 
Q 866 578 1086 336 
Q 1306 94 1647 94 
Q 1984 94 2187 284 
Q 2391 475 2391 747 
Q 2391 972 2272 1150 
Q 2050 1481 1375 2016 
z
" transform="scale(0.015625)"/>
       </defs>
       <use xlink:href="#TimesNewRomanPSMT-33" transform="translate(0 0.421875)"/>
       <use xlink:href="#TimesNewRomanPSMT-38" transform="translate(50 0.421875)"/>
       <use xlink:href="#TimesNewRomanPSMT-30" transform="translate(100 0.421875)"/>
      </g>
     </g>
    </g>
    <g id="text_13">
     <!-- Water Level (m) -->
     <g transform="translate(9.155 81.997498)rotate(-90)scale(0.08 -0.08)">
      <defs>
       <path id="TimesNewRomanPSMT-57" d="M 5991 4238 
L 5991 4122 
Q 5825 4122 5722 4062 
Q 5619 4003 5525 3841 
Q 5463 3731 5328 3319 
L 4147 -97 
L 4022 -97 
L 3056 2613 
L 2097 -97 
L 1984 -97 
L 725 3422 
Q 584 3816 547 3888 
Q 484 4006 376 4064 
Q 269 4122 84 4122 
L 84 4238 
L 1653 4238 
L 1653 4122 
L 1578 4122 
Q 1413 4122 1325 4047 
Q 1238 3972 1238 3866 
Q 1238 3756 1375 3363 
L 2209 984 
L 2913 3006 
L 2788 3363 
L 2688 3647 
Q 2622 3803 2541 3922 
Q 2500 3981 2441 4022 
Q 2363 4078 2284 4103 
Q 2225 4122 2097 4122 
L 2097 4238 
L 3747 4238 
L 3747 4122 
L 3634 4122 
Q 3459 4122 3378 4047 
Q 3297 3972 3297 3844 
Q 3297 3684 3438 3288 
L 4250 984 
L 5056 3319 
Q 5194 3706 5194 3856 
Q 5194 3928 5148 3990 
Q 5103 4053 5034 4078 
Q 4916 4122 4725 4122 
L 4725 4238 
L 5991 4238 
z
" transform="scale(0.015625)"/>
       <path id="TimesNewRomanPSMT-72" d="M 1038 2947 
L 1038 2303 
Q 1397 2947 1775 2947 
Q 1947 2947 2059 2842 
Q 2172 2738 2172 2600 
Q 2172 2478 2090 2393 
Q 2009 2309 1897 2309 
Q 1788 2309 1652 2417 
Q 1516 2525 1450 2525 
Q 1394 2525 1328 2463 
Q 1188 2334 1038 2041 
L 1038 669 
Q 1038 431 1097 309 
Q 1138 225 1241 169 
Q 1344 113 1538 113 
L 1538 0 
L 72 0 
L 72 113 
Q 291 113 397 181 
Q 475 231 506 341 
Q 522 394 522 644 
L 522 1753 
Q 522 2253 501 2348 
Q 481 2444 426 2487 
Q 372 2531 291 2531 
Q 194 2531 72 2484 
L 41 2597 
L 906 2947 
L 1038 2947 
z
" transform="scale(0.015625)"/>
       <path id="TimesNewRomanPSMT-20" transform="scale(0.015625)"/>
       <path id="TimesNewRomanPSMT-4c" d="M 3669 1172 
L 3772 1150 
L 3409 0 
L 128 0 
L 128 116 
L 288 116 
Q 556 116 672 291 
Q 738 391 738 753 
L 738 3488 
Q 738 3884 650 3984 
Q 528 4122 288 4122 
L 128 4122 
L 128 4238 
L 2047 4238 
L 2047 4122 
Q 1709 4125 1573 4059 
Q 1438 3994 1388 3894 
Q 1338 3794 1338 3416 
L 1338 753 
Q 1338 494 1388 397 
Q 1425 331 1503 300 
Q 1581 269 1991 269 
L 2300 269 
Q 2788 269 2984 341 
Q 3181 413 3343 595 
Q 3506 778 3669 1172 
z
" transform="scale(0.015625)"/>
       <path id="TimesNewRomanPSMT-76" d="M 53 2863 
L 1400 2863 
L 1400 2747 
L 1313 2747 
Q 1191 2747 1127 2687 
Q 1063 2628 1063 2528 
Q 1063 2419 1128 2269 
L 1794 688 
L 2463 2328 
Q 2534 2503 2534 2594 
Q 2534 2638 2509 2666 
Q 2475 2713 2422 2730 
Q 2369 2747 2206 2747 
L 2206 2863 
L 3141 2863 
L 3141 2747 
Q 2978 2734 2916 2681 
Q 2806 2588 2719 2369 
L 1703 -88 
L 1575 -88 
L 553 2328 
Q 484 2497 421 2570 
Q 359 2644 263 2694 
Q 209 2722 53 2747 
L 53 2863 
z
" transform="scale(0.015625)"/>
       <path id="TimesNewRomanPSMT-6c" d="M 1184 4444 
L 1184 647 
Q 1184 378 1223 290 
Q 1263 203 1344 158 
Q 1425 113 1647 113 
L 1647 0 
L 244 0 
L 244 113 
Q 441 113 512 153 
Q 584 194 625 287 
Q 666 381 666 647 
L 666 3247 
Q 666 3731 644 3842 
Q 622 3953 573 3993 
Q 525 4034 450 4034 
Q 369 4034 244 3984 
L 191 4094 
L 1044 4444 
L 1184 4444 
z
" transform="scale(0.015625)"/>
       <path id="TimesNewRomanPSMT-28" d="M 1988 -1253 
L 1988 -1369 
Q 1516 -1131 1200 -813 
Q 750 -359 506 256 
Q 263 872 263 1534 
Q 263 2503 741 3301 
Q 1219 4100 1988 4444 
L 1988 4313 
Q 1603 4100 1356 3731 
Q 1109 3363 987 2797 
Q 866 2231 866 1616 
Q 866 947 969 400 
Q 1050 -31 1165 -292 
Q 1281 -553 1476 -793 
Q 1672 -1034 1988 -1253 
z
" transform="scale(0.015625)"/>
       <path id="TimesNewRomanPSMT-6d" d="M 1050 2338 
Q 1363 2650 1419 2697 
Q 1559 2816 1721 2881 
Q 1884 2947 2044 2947 
Q 2313 2947 2506 2790 
Q 2700 2634 2766 2338 
Q 3088 2713 3309 2830 
Q 3531 2947 3766 2947 
Q 3994 2947 4170 2830 
Q 4347 2713 4450 2447 
Q 4519 2266 4519 1878 
L 4519 647 
Q 4519 378 4559 278 
Q 4591 209 4675 161 
Q 4759 113 4950 113 
L 4950 0 
L 3538 0 
L 3538 113 
L 3597 113 
Q 3781 113 3884 184 
Q 3956 234 3988 344 
Q 4000 397 4000 647 
L 4000 1878 
Q 4000 2228 3916 2372 
Q 3794 2572 3525 2572 
Q 3359 2572 3192 2489 
Q 3025 2406 2788 2181 
L 2781 2147 
L 2788 2013 
L 2788 647 
Q 2788 353 2820 281 
Q 2853 209 2943 161 
Q 3034 113 3253 113 
L 3253 0 
L 1806 0 
L 1806 113 
Q 2044 113 2133 169 
Q 2222 225 2256 338 
Q 2272 391 2272 647 
L 2272 1878 
Q 2272 2228 2169 2381 
Q 2031 2581 1784 2581 
Q 1616 2581 1450 2491 
Q 1191 2353 1050 2181 
L 1050 647 
Q 1050 366 1089 281 
Q 1128 197 1204 155 
Q 1281 113 1516 113 
L 1516 0 
L 100 0 
L 100 113 
Q 297 113 375 155 
Q 453 197 493 289 
Q 534 381 534 647 
L 534 1741 
Q 534 2213 506 2350 
Q 484 2453 437 2492 
Q 391 2531 309 2531 
Q 222 2531 100 2484 
L 53 2597 
L 916 2947 
L 1050 2947 
L 1050 2338 
z
" transform="scale(0.015625)"/>
       <path id="TimesNewRomanPSMT-29" d="M 144 4313 
L 144 4444 
Q 619 4209 934 3891 
Q 1381 3434 1625 2820 
Q 1869 2206 1869 1541 
Q 1869 572 1392 -226 
Q 916 -1025 144 -1369 
L 144 -1253 
Q 528 -1038 776 -670 
Q 1025 -303 1145 264 
Q 1266 831 1266 1447 
Q 1266 2113 1163 2663 
Q 1084 3094 967 3353 
Q 850 3613 656 3853 
Q 463 4094 144 4313 
z
" transform="scale(0.015625)"/>
      </defs>
      <use xlink:href="#TimesNewRomanPSMT-57"/>
      <use xlink:href="#TimesNewRomanPSMT-61" x="86.384766"/>
      <use xlink:href="#TimesNewRomanPSMT-74" x="130.769531"/>
      <use xlink:href="#TimesNewRomanPSMT-65" x="158.552734"/>
      <use xlink:href="#TimesNewRomanPSMT-72" x="202.9375"/>
      <use xlink:href="#TimesNewRomanPSMT-20" x="236.238281"/>
      <use xlink:href="#TimesNewRomanPSMT-4c" x="261.238281"/>
      <use xlink:href="#TimesNewRomanPSMT-65" x="322.322266"/>
      <use xlink:href="#TimesNewRomanPSMT-76" x="366.707031"/>
      <use xlink:href="#TimesNewRomanPSMT-65" x="416.707031"/>
      <use xlink:href="#TimesNewRomanPSMT-6c" x="461.091797"/>
      <use xlink:href="#TimesNewRomanPSMT-20" x="488.875"/>
      <use xlink:href="#TimesNewRomanPSMT-28" x="513.875"/>
      <use xlink:href="#TimesNewRomanPSMT-6d" x="547.175781"/>
      <use xlink:href="#TimesNewRomanPSMT-29" x="624.958984"/>
     </g>
    </g>
   </g>
   <g id="line2d_17">
    <path d="M 30.36625 53.139672 
L 30.8353 53.480217 
L 31.30435 54.161307 
L 33.180549 55.70272 
L 34.118649 56.150805 
L 35.056749 56.975282 
L 36.932948 58.875163 
L 38.340098 59.789257 
L 39.747247 60.470346 
L 40.216297 60.631657 
L 40.685347 60.936355 
L 41.623447 61.258976 
L 42.092497 61.581598 
L 43.030597 61.832525 
L 43.499646 61.904219 
L 43.968696 61.760832 
L 44.437746 61.940066 
L 44.906796 61.922142 
L 45.844896 62.029683 
L 49.128245 62.513615 
L 52.880644 63.499402 
L 53.818744 63.284321 
L 55.225893 63.732407 
L 56.163993 64.216339 
L 57.102093 64.736117 
L 58.978292 65.542671 
L 59.916392 65.936986 
L 62.730691 66.994467 
L 63.668791 67.818944 
L 64.606891 68.948118 
L 65.07594 69.306587 
L 66.48309 69.933906 
L 67.42119 70.489531 
L 69.297389 72.335643 
L 71.173589 74.576069 
L 75.395038 80.060631 
L 76.333137 80.58041 
L 76.802187 80.813415 
L 77.271237 81.279423 
L 79.616487 84.595254 
L 85.245085 92.481553 
L 86.183185 92.553247 
L 88.528434 93.610728 
L 89.466534 94.273894 
L 89.935584 94.93706 
L 90.873683 95.797384 
L 91.342733 96.012465 
L 91.811783 95.653997 
L 94.157033 94.847443 
L 95.564182 94.381435 
L 96.971332 94.327664 
L 97.909432 94.524822 
L 98.378481 94.524822 
L 99.785631 93.93335 
L 100.254681 93.736192 
L 100.723731 93.772039 
L 101.192781 93.574881 
L 101.66183 92.822098 
L 102.13088 92.391936 
L 102.59993 91.334455 
L 103.53803 88.215782 
L 104.94518 80.938878 
L 105.883279 73.464817 
L 106.352329 71.385702 
L 107.290429 69.539591 
L 108.228529 68.697191 
L 109.166628 67.729327 
L 109.635678 67.585939 
L 110.573778 66.833156 
L 111.980928 66.90485 
L 112.449978 66.725616 
L 112.919027 64.234262 
L 113.388077 63.105087 
L 113.857127 62.621155 
L 114.326177 62.746619 
L 114.795227 63.087164 
L 115.733327 64.288032 
L 116.202376 64.288032 
L 116.671426 62.836236 
L 117.140476 60.918431 
L 117.609526 59.610023 
L 118.078576 59.287401 
L 119.016676 59.323248 
L 119.954775 59.75341 
L 120.892875 59.663793 
L 121.361925 59.878874 
L 121.830975 60.219419 
L 122.300025 60.792968 
L 123.238125 61.312746 
L 123.707174 61.581598 
L 124.176224 61.366517 
L 124.645274 60.739197 
L 125.583374 57.620524 
L 126.052424 56.70643 
L 126.990524 55.828183 
L 128.397673 55.362175 
L 129.335773 55.362175 
L 130.273873 55.165017 
L 131.211972 54.932013 
L 131.681022 54.949936 
L 132.150072 54.842396 
L 134.026272 54.896166 
L 134.495321 54.448081 
L 134.964371 54.17923 
L 135.902471 54.071689 
L 136.840571 53.820762 
L 137.778671 53.283059 
L 138.71677 53.032132 
L 139.18582 52.673664 
L 139.65487 52.064268 
L 140.12392 51.7058 
L 142.938219 48.174888 
L 143.876319 47.332488 
L 144.814419 46.794786 
L 146.221568 46.167466 
L 147.159668 46.042003 
L 147.628718 45.773151 
L 148.097768 45.325066 
L 149.035868 44.106274 
L 149.973967 42.762019 
L 150.443017 41.614921 
L 151.850167 37.223686 
L 152.319217 34.338017 
L 152.788266 30.126016 
L 153.257316 26.935649 
L 153.726366 25.41216 
L 154.195416 24.300908 
L 154.664466 23.816976 
L 155.602566 23.386814 
L 156.071616 22.956653 
L 156.540665 22.849112 
L 157.947815 22.831189 
L 158.885915 22.383104 
L 161.700214 20.465299 
L 162.638314 19.873826 
L 163.576414 19.766286 
L 164.514513 19.873826 
L 164.983563 19.963443 
L 165.921663 19.676669 
L 166.859763 18.798422 
L 167.797862 18.009792 
L 168.735962 17.723017 
L 169.205012 17.364549 
L 170.143112 17.006081 
L 171.081211 16.934387 
L 171.550261 16.934387 
L 172.957411 17.400396 
L 173.895511 18.189026 
L 174.83361 19.04935 
L 175.30266 19.479511 
L 177.64791 20.608686 
L 179.993159 22.275563 
L 182.338408 23.924517 
L 188.436057 29.086458 
L 190.781306 32.025897 
L 192.188456 33.674851 
L 195.002755 37.313303 
L 195.940855 38.854716 
L 199.224204 43.944964 
L 201.100403 46.741015 
L 201.569453 47.404182 
L 201.569453 47.404182 
" clip-path="url(#pa6942df589)" style="fill: none; stroke: #1a6fdf; stroke-linecap: square"/>
   </g>
   <g id="line2d_18">
    <path d="M 30.36625 95.994541 
L 201.569453 95.994541 
L 201.569453 95.994541 
" clip-path="url(#pa6942df589)" style="fill: none; stroke-dasharray: 2.775,1.2; stroke-dashoffset: 0; stroke: #f4b919; stroke-width: 0.75"/>
   </g>
   <g id="line2d_19">
    <path d="M 30.36625 15.339204 
L 86.652235 15.339204 
L 86.652235 43.478955 
L 122.300025 43.478955 
L 122.300025 31.470272 
L 144.345369 31.470272 
L 144.345369 15.339204 
L 201.569453 15.339204 
L 201.569453 15.339204 
" clip-path="url(#pa6942df589)" style="fill: none; stroke-dasharray: 2.775,1.2; stroke-dashoffset: 0; stroke: #f14040; stroke-width: 0.75"/>
   </g>
   <g id="patch_3">
    <path d="M 30.36625 104.956246 
L 30.36625 6.3775 
" style="fill: none; stroke: #000000; stroke-width: 0.5; stroke-linejoin: miter; stroke-linecap: square"/>
   </g>
   <g id="patch_4">
    <path d="M 201.569453 104.956246 
L 201.569453 6.3775 
" style="fill: none; stroke: #000000; stroke-width: 0.5; stroke-linejoin: miter; stroke-linecap: square"/>
   </g>
   <g id="patch_5">
    <path d="M 30.36625 104.956246 
L 201.569453 104.956246 
" style="fill: none; stroke: #000000; stroke-width: 0.5; stroke-linejoin: miter; stroke-linecap: square"/>
   </g>
   <g id="patch_6">
    <path d="M 30.36625 6.3775 
L 201.569453 6.3775 
" style="fill: none; stroke: #000000; stroke-width: 0.5; stroke-linejoin: miter; stroke-linecap: square"/>
   </g>
   <g id="PathCollection_1">
    <defs>
     <path id="mf9e3a90515" d="M -0 1.414214 
L 1.414214 -1.414214 
L -1.414214 -1.414214 
z
" style="stroke: #1ae099"/>
    </defs>
    <g clip-path="url(#pa6942df589)">
     <use xlink:href="#mf9e3a90515" x="91.342733" y="96.012465" style="fill: #1ae099; stroke: #1ae099"/>
    </g>
   </g>
   <g id="PathCollection_2">
    <defs>
     <path id="mf67f308d5f" d="M 0 -1.414214 
L -1.414214 1.414214 
L 1.414214 1.414214 
z
" style="stroke: #821ae0"/>
    </defs>
    <g clip-path="url(#pa6942df589)">
     <use xlink:href="#mf67f308d5f" x="170.612162" y="16.934387" style="fill: #821ae0; stroke: #821ae0"/>
    </g>
   </g>
   <g id="legend_1">
    <g id="line2d_20">
     <path d="M 41.795977 129.982694 
L 49.795977 129.982694 
L 57.795977 129.982694 
" style="fill: none; stroke: #1a6fdf; stroke-linecap: square"/>
    </g>
    <g id="text_14">
     <!-- Actual -->
     <g transform="translate(64.195977 132.782694)scale(0.08 -0.08)">
      <defs>
       <path id="TimesNewRomanPSMT-41" d="M 2928 1419 
L 1288 1419 
L 1000 750 
Q 894 503 894 381 
Q 894 284 986 211 
Q 1078 138 1384 116 
L 1384 0 
L 50 0 
L 50 116 
Q 316 163 394 238 
Q 553 388 747 847 
L 2238 4334 
L 2347 4334 
L 3822 809 
Q 4000 384 4145 257 
Q 4291 131 4550 116 
L 4550 0 
L 2878 0 
L 2878 116 
Q 3131 128 3220 200 
Q 3309 272 3309 375 
Q 3309 513 3184 809 
L 2928 1419 
z
M 2841 1650 
L 2122 3363 
L 1384 1650 
L 2841 1650 
z
" transform="scale(0.015625)"/>
       <path id="TimesNewRomanPSMT-63" d="M 2631 1088 
Q 2516 522 2178 217 
Q 1841 -88 1431 -88 
Q 944 -88 581 321 
Q 219 731 219 1428 
Q 219 2103 620 2525 
Q 1022 2947 1584 2947 
Q 2006 2947 2278 2723 
Q 2550 2500 2550 2259 
Q 2550 2141 2473 2067 
Q 2397 1994 2259 1994 
Q 2075 1994 1981 2113 
Q 1928 2178 1911 2362 
Q 1894 2547 1784 2644 
Q 1675 2738 1481 2738 
Q 1169 2738 978 2506 
Q 725 2200 725 1697 
Q 725 1184 976 792 
Q 1228 400 1656 400 
Q 1963 400 2206 609 
Q 2378 753 2541 1131 
L 2631 1088 
z
" transform="scale(0.015625)"/>
       <path id="TimesNewRomanPSMT-75" d="M 2709 2863 
L 2709 1128 
Q 2709 631 2732 520 
Q 2756 409 2807 365 
Q 2859 322 2928 322 
Q 3025 322 3147 375 
L 3191 266 
L 2334 -88 
L 2194 -88 
L 2194 519 
Q 1825 119 1631 15 
Q 1438 -88 1222 -88 
Q 981 -88 804 51 
Q 628 191 559 409 
Q 491 628 491 1028 
L 491 2306 
Q 491 2509 447 2587 
Q 403 2666 317 2708 
Q 231 2750 6 2747 
L 6 2863 
L 1009 2863 
L 1009 947 
Q 1009 547 1148 422 
Q 1288 297 1484 297 
Q 1619 297 1789 381 
Q 1959 466 2194 703 
L 2194 2325 
Q 2194 2569 2105 2655 
Q 2016 2741 1734 2747 
L 1734 2863 
L 2709 2863 
z
" transform="scale(0.015625)"/>
      </defs>
      <use xlink:href="#TimesNewRomanPSMT-41"/>
      <use xlink:href="#TimesNewRomanPSMT-63" x="72.216797"/>
      <use xlink:href="#TimesNewRomanPSMT-74" x="116.601562"/>
      <use xlink:href="#TimesNewRomanPSMT-75" x="144.384766"/>
      <use xlink:href="#TimesNewRomanPSMT-61" x="194.384766"/>
      <use xlink:href="#TimesNewRomanPSMT-6c" x="238.769531"/>
     </g>
    </g>
    <g id="line2d_21">
     <path d="M 41.795977 141.293944 
L 49.795977 141.293944 
L 57.795977 141.293944 
" style="fill: none; stroke-dasharray: 2.775,1.2; stroke-dashoffset: 0; stroke: #f4b919; stroke-width: 0.75"/>
    </g>
    <g id="text_15">
     <!-- Lower Bound -->
     <g transform="translate(64.195977 144.093944)scale(0.08 -0.08)">
      <defs>
       <path id="TimesNewRomanPSMT-6f" d="M 1600 2947 
Q 2250 2947 2644 2453 
Q 2978 2031 2978 1484 
Q 2978 1100 2793 706 
Q 2609 313 2286 112 
Q 1963 -88 1566 -88 
Q 919 -88 538 428 
Q 216 863 216 1403 
Q 216 1797 411 2186 
Q 606 2575 925 2761 
Q 1244 2947 1600 2947 
z
M 1503 2744 
Q 1338 2744 1170 2645 
Q 1003 2547 900 2300 
Q 797 2053 797 1666 
Q 797 1041 1045 587 
Q 1294 134 1700 134 
Q 2003 134 2200 384 
Q 2397 634 2397 1244 
Q 2397 2006 2069 2444 
Q 1847 2744 1503 2744 
z
" transform="scale(0.015625)"/>
       <path id="TimesNewRomanPSMT-77" d="M 41 2863 
L 1241 2863 
L 1241 2747 
Q 1075 2734 1023 2687 
Q 972 2641 972 2553 
Q 972 2456 1025 2319 
L 1638 672 
L 2253 2013 
L 2091 2434 
Q 2016 2622 1894 2694 
Q 1825 2738 1638 2747 
L 1638 2863 
L 3000 2863 
L 3000 2747 
Q 2775 2738 2681 2666 
Q 2619 2616 2619 2506 
Q 2619 2444 2644 2378 
L 3294 734 
L 3897 2319 
Q 3959 2488 3959 2588 
Q 3959 2647 3898 2694 
Q 3838 2741 3659 2747 
L 3659 2863 
L 4563 2863 
L 4563 2747 
Q 4291 2706 4163 2378 
L 3206 -88 
L 3078 -88 
L 2363 1741 
L 1528 -88 
L 1413 -88 
L 494 2319 
Q 403 2547 315 2626 
Q 228 2706 41 2747 
L 41 2863 
z
" transform="scale(0.015625)"/>
       <path id="TimesNewRomanPSMT-42" d="M 2956 2163 
Q 3397 2069 3616 1863 
Q 3919 1575 3919 1159 
Q 3919 844 3719 555 
Q 3519 266 3170 133 
Q 2822 0 2106 0 
L 106 0 
L 106 116 
L 266 116 
Q 531 116 647 284 
Q 719 394 719 750 
L 719 3488 
Q 719 3881 628 3984 
Q 506 4122 266 4122 
L 106 4122 
L 106 4238 
L 1938 4238 
Q 2450 4238 2759 4163 
Q 3228 4050 3475 3764 
Q 3722 3478 3722 3106 
Q 3722 2788 3528 2536 
Q 3334 2284 2956 2163 
z
M 1319 2331 
Q 1434 2309 1582 2298 
Q 1731 2288 1909 2288 
Q 2366 2288 2595 2386 
Q 2825 2484 2947 2687 
Q 3069 2891 3069 3131 
Q 3069 3503 2766 3765 
Q 2463 4028 1881 4028 
Q 1569 4028 1319 3959 
L 1319 2331 
z
M 1319 306 
Q 1681 222 2034 222 
Q 2600 222 2897 476 
Q 3194 731 3194 1106 
Q 3194 1353 3059 1581 
Q 2925 1809 2622 1940 
Q 2319 2072 1872 2072 
Q 1678 2072 1540 2065 
Q 1403 2059 1319 2044 
L 1319 306 
z
" transform="scale(0.015625)"/>
       <path id="TimesNewRomanPSMT-6e" d="M 1034 2341 
Q 1538 2947 1994 2947 
Q 2228 2947 2397 2830 
Q 2566 2713 2666 2444 
Q 2734 2256 2734 1869 
L 2734 647 
Q 2734 375 2778 278 
Q 2813 200 2889 156 
Q 2966 113 3172 113 
L 3172 0 
L 1756 0 
L 1756 113 
L 1816 113 
Q 2016 113 2095 173 
Q 2175 234 2206 353 
Q 2219 400 2219 647 
L 2219 1819 
Q 2219 2209 2117 2386 
Q 2016 2563 1775 2563 
Q 1403 2563 1034 2156 
L 1034 647 
Q 1034 356 1069 288 
Q 1113 197 1189 155 
Q 1266 113 1500 113 
L 1500 0 
L 84 0 
L 84 113 
L 147 113 
Q 366 113 442 223 
Q 519 334 519 647 
L 519 1709 
Q 519 2225 495 2337 
Q 472 2450 423 2490 
Q 375 2531 294 2531 
Q 206 2531 84 2484 
L 38 2597 
L 900 2947 
L 1034 2947 
L 1034 2341 
z
" transform="scale(0.015625)"/>
       <path id="TimesNewRomanPSMT-64" d="M 2222 322 
Q 2013 103 1813 7 
Q 1613 -88 1381 -88 
Q 913 -88 563 304 
Q 213 697 213 1313 
Q 213 1928 600 2439 
Q 988 2950 1597 2950 
Q 1975 2950 2222 2709 
L 2222 3238 
Q 2222 3728 2198 3840 
Q 2175 3953 2125 3993 
Q 2075 4034 2000 4034 
Q 1919 4034 1784 3984 
L 1744 4094 
L 2597 4444 
L 2738 4444 
L 2738 1134 
Q 2738 631 2761 520 
Q 2784 409 2836 365 
Q 2888 322 2956 322 
Q 3041 322 3181 375 
L 3216 266 
L 2366 -88 
L 2222 -88 
L 2222 322 
z
M 2222 541 
L 2222 2016 
Q 2203 2228 2109 2403 
Q 2016 2578 1861 2667 
Q 1706 2756 1559 2756 
Q 1284 2756 1069 2509 
Q 784 2184 784 1559 
Q 784 928 1059 592 
Q 1334 256 1672 256 
Q 1956 256 2222 541 
z
" transform="scale(0.015625)"/>
      </defs>
      <use xlink:href="#TimesNewRomanPSMT-4c"/>
      <use xlink:href="#TimesNewRomanPSMT-6f" x="61.083984"/>
      <use xlink:href="#TimesNewRomanPSMT-77" x="111.083984"/>
      <use xlink:href="#TimesNewRomanPSMT-65" x="183.300781"/>
      <use xlink:href="#TimesNewRomanPSMT-72" x="227.685547"/>
      <use xlink:href="#TimesNewRomanPSMT-20" x="260.986328"/>
      <use xlink:href="#TimesNewRomanPSMT-42" x="285.986328"/>
      <use xlink:href="#TimesNewRomanPSMT-6f" x="352.685547"/>
      <use xlink:href="#TimesNewRomanPSMT-75" x="402.685547"/>
      <use xlink:href="#TimesNewRomanPSMT-6e" x="452.685547"/>
      <use xlink:href="#TimesNewRomanPSMT-64" x="502.685547"/>
     </g>
    </g>
    <g id="line2d_22">
     <path d="M 124.410977 129.982694 
L 132.410977 129.982694 
L 140.410977 129.982694 
" style="fill: none; stroke-dasharray: 2.775,1.2; stroke-dashoffset: 0; stroke: #808080; stroke-opacity: 0.6; stroke-width: 0.75"/>
    </g>
    <g id="text_16">
     <!-- Target -->
     <g transform="translate(146.810977 132.782694)scale(0.08 -0.08)">
      <defs>
       <path id="TimesNewRomanPSMT-54" d="M 3703 4238 
L 3750 3244 
L 3631 3244 
Q 3597 3506 3538 3619 
Q 3441 3800 3280 3886 
Q 3119 3972 2856 3972 
L 2259 3972 
L 2259 734 
Q 2259 344 2344 247 
Q 2463 116 2709 116 
L 2856 116 
L 2856 0 
L 1059 0 
L 1059 116 
L 1209 116 
Q 1478 116 1591 278 
Q 1659 378 1659 734 
L 1659 3972 
L 1150 3972 
Q 853 3972 728 3928 
Q 566 3869 450 3700 
Q 334 3531 313 3244 
L 194 3244 
L 244 4238 
L 3703 4238 
z
" transform="scale(0.015625)"/>
       <path id="TimesNewRomanPSMT-67" d="M 966 1044 
Q 703 1172 562 1401 
Q 422 1631 422 1909 
Q 422 2334 742 2640 
Q 1063 2947 1563 2947 
Q 1972 2947 2272 2747 
L 2878 2747 
Q 3013 2747 3034 2739 
Q 3056 2731 3066 2713 
Q 3084 2684 3084 2613 
Q 3084 2531 3069 2500 
Q 3059 2484 3036 2475 
Q 3013 2466 2878 2466 
L 2506 2466 
Q 2681 2241 2681 1891 
Q 2681 1491 2375 1206 
Q 2069 922 1553 922 
Q 1341 922 1119 984 
Q 981 866 932 777 
Q 884 688 884 625 
Q 884 572 936 522 
Q 988 472 1138 450 
Q 1225 438 1575 428 
Q 2219 413 2409 384 
Q 2700 344 2873 169 
Q 3047 -6 3047 -263 
Q 3047 -616 2716 -925 
Q 2228 -1381 1444 -1381 
Q 841 -1381 425 -1109 
Q 191 -953 191 -784 
Q 191 -709 225 -634 
Q 278 -519 444 -313 
Q 466 -284 763 25 
Q 600 122 533 198 
Q 466 275 466 372 
Q 466 481 555 628 
Q 644 775 966 1044 
z
M 1509 2797 
Q 1278 2797 1122 2612 
Q 966 2428 966 2047 
Q 966 1553 1178 1281 
Q 1341 1075 1591 1075 
Q 1828 1075 1981 1253 
Q 2134 1431 2134 1813 
Q 2134 2309 1919 2591 
Q 1759 2797 1509 2797 
z
M 934 0 
Q 788 -159 713 -296 
Q 638 -434 638 -550 
Q 638 -700 819 -813 
Q 1131 -1006 1722 -1006 
Q 2284 -1006 2551 -807 
Q 2819 -609 2819 -384 
Q 2819 -222 2659 -153 
Q 2497 -84 2016 -72 
Q 1313 -53 934 0 
z
" transform="scale(0.015625)"/>
      </defs>
      <use xlink:href="#TimesNewRomanPSMT-54"/>
      <use xlink:href="#TimesNewRomanPSMT-61" x="54.083984"/>
      <use xlink:href="#TimesNewRomanPSMT-72" x="98.46875"/>
      <use xlink:href="#TimesNewRomanPSMT-67" x="130.019531"/>
      <use xlink:href="#TimesNewRomanPSMT-65" x="180.019531"/>
      <use xlink:href="#TimesNewRomanPSMT-74" x="224.404297"/>
     </g>
    </g>
    <g id="line2d_23">
     <path d="M 124.410977 141.308944 
L 124.410977 141.308944 
L 132.410977 141.308944 
L 132.410977 141.308944 
L 140.410977 141.308944 
" style="fill: none; stroke-dasharray: 2.775,1.2; stroke-dashoffset: 0; stroke: #f14040; stroke-width: 0.75"/>
    </g>
    <g id="text_17">
     <!-- Upper Bound -->
     <g transform="translate(146.810977 144.108944)scale(0.08 -0.08)">
      <defs>
       <path id="TimesNewRomanPSMT-55" d="M 3053 4122 
L 3053 4238 
L 4553 4238 
L 4553 4122 
L 4394 4122 
Q 4144 4122 4009 3913 
Q 3944 3816 3944 3463 
L 3944 1744 
Q 3944 1106 3817 754 
Q 3691 403 3320 151 
Q 2950 -100 2313 -100 
Q 1619 -100 1259 140 
Q 900 381 750 788 
Q 650 1066 650 1831 
L 650 3488 
Q 650 3878 542 4000 
Q 434 4122 194 4122 
L 34 4122 
L 34 4238 
L 1866 4238 
L 1866 4122 
L 1703 4122 
Q 1441 4122 1328 3956 
Q 1250 3844 1250 3488 
L 1250 1641 
Q 1250 1394 1295 1075 
Q 1341 756 1459 578 
Q 1578 400 1801 284 
Q 2025 169 2350 169 
Q 2766 169 3094 350 
Q 3422 531 3542 814 
Q 3663 1097 3663 1772 
L 3663 3488 
Q 3663 3884 3575 3984 
Q 3453 4122 3213 4122 
L 3053 4122 
z
" transform="scale(0.015625)"/>
       <path id="TimesNewRomanPSMT-70" d="M -6 2578 
L 875 2934 
L 994 2934 
L 994 2266 
Q 1216 2644 1439 2795 
Q 1663 2947 1909 2947 
Q 2341 2947 2628 2609 
Q 2981 2197 2981 1534 
Q 2981 794 2556 309 
Q 2206 -88 1675 -88 
Q 1444 -88 1275 -22 
Q 1150 25 994 166 
L 994 -706 
Q 994 -1000 1030 -1079 
Q 1066 -1159 1155 -1206 
Q 1244 -1253 1478 -1253 
L 1478 -1369 
L -22 -1369 
L -22 -1253 
L 56 -1253 
Q 228 -1256 350 -1188 
Q 409 -1153 442 -1076 
Q 475 -1000 475 -688 
L 475 2019 
Q 475 2297 450 2372 
Q 425 2447 370 2484 
Q 316 2522 222 2522 
Q 147 2522 31 2478 
L -6 2578 
z
M 994 2081 
L 994 1013 
Q 994 666 1022 556 
Q 1066 375 1236 237 
Q 1406 100 1666 100 
Q 1978 100 2172 344 
Q 2425 663 2425 1241 
Q 2425 1897 2138 2250 
Q 1938 2494 1663 2494 
Q 1513 2494 1366 2419 
Q 1253 2363 994 2081 
z
" transform="scale(0.015625)"/>
      </defs>
      <use xlink:href="#TimesNewRomanPSMT-55"/>
      <use xlink:href="#TimesNewRomanPSMT-70" x="72.216797"/>
      <use xlink:href="#TimesNewRomanPSMT-70" x="122.216797"/>
      <use xlink:href="#TimesNewRomanPSMT-65" x="172.216797"/>
      <use xlink:href="#TimesNewRomanPSMT-72" x="216.601562"/>
      <use xlink:href="#TimesNewRomanPSMT-20" x="249.902344"/>
      <use xlink:href="#TimesNewRomanPSMT-42" x="274.902344"/>
      <use xlink:href="#TimesNewRomanPSMT-6f" x="341.601562"/>
      <use xlink:href="#TimesNewRomanPSMT-75" x="391.601562"/>
      <use xlink:href="#TimesNewRomanPSMT-6e" x="441.601562"/>
      <use xlink:href="#TimesNewRomanPSMT-64" x="491.601562"/>
     </g>
    </g>
   </g>
  </g>
 </g>
 <defs>
  <clipPath id="pa6942df589">
   <rect x="30.36625" y="6.3775" width="171.203203" height="98.578746"/>
  </clipPath>
 </defs>
</svg>
