<?xml version="1.0" encoding="UTF-8"?>
<!DOCTYPE svg PUBLIC "-//W3C//DTD SVG 1.1//EN" "http://www.w3.org/Graphics/SVG/1.1/DTD/svg11.dtd">
<!--Generated by Origin-->
<svg xmlns="http://www.w3.org/2000/svg" xmlns:xlink="http://www.w3.org/1999/xlink" viewBox="0,0 543,660" width="2.828125in" height="3.437500in">
	<svg xmlns="http://www.w3.org/2000/svg" xmlns:xlink="http://www.w3.org/1999/xlink" viewBox="0,0 1694.95,2061.92" width="541.999" height="658.999" x="6.10351e-05" y="6.10351e-05" preserveAspectRatio="none">
		<defs>
			<mask id="Cp_1">
				<rect x="249" y="173" width="1182" height="473" fill="white"/>
			</mask>
		</defs>
		<g mask="url(#Cp_1)">
			<rect x="0" y="0" width="1695" height="2062" visibility="hidden" fill="none" opacity="0"/>
			<polyline points="249,510 300,511 352,512 403,512 454,513 506,514 557,514 608,515 660,374 711,274 762,274 814,275 865,324 917,359 968,373 1019,370 1071,346 1122,277 1173,278 1225,278 1276,279 1327,340 1379,355 1430,399" style="stroke: #EE7733;stroke-width: 6;stroke-linecap:round;stroke-linejoin:round" fill="none"/>
			<polyline points="249,612 285,612" style="stroke: #0077BB;stroke-width: 6;stroke-linecap:round;stroke-linejoin:round" fill="none"/>
			<polyline points="303,612 310,612" style="stroke: #0077BB;stroke-width: 6;stroke-linecap:round;stroke-linejoin:round" fill="none"/>
			<polyline points="329,612 352,612 365,612" style="stroke: #0077BB;stroke-width: 6;stroke-linecap:round;stroke-linejoin:round" fill="none"/>
			<polyline points="383,612 390,612" style="stroke: #0077BB;stroke-width: 6;stroke-linecap:round;stroke-linejoin:round" fill="none"/>
			<polyline points="409,612 445,612" style="stroke: #0077BB;stroke-width: 6;stroke-linecap:round;stroke-linejoin:round" fill="none"/>
			<polyline points="463,612 470,612" style="stroke: #0077BB;stroke-width: 6;stroke-linecap:round;stroke-linejoin:round" fill="none"/>
			<polyline points="489,612 506,612 525,612" style="stroke: #0077BB;stroke-width: 6;stroke-linecap:round;stroke-linejoin:round" fill="none"/>
			<polyline points="543,612 550,612" style="stroke: #0077BB;stroke-width: 6;stroke-linecap:round;stroke-linejoin:round" fill="none"/>
			<polyline points="569,612 605,612" style="stroke: #0077BB;stroke-width: 6;stroke-linecap:round;stroke-linejoin:round" fill="none"/>
			<polyline points="611,597 613,590" style="stroke: #0077BB;stroke-width: 6;stroke-linecap:round;stroke-linejoin:round" fill="none"/>
			<polyline points="617,572 625,537" style="stroke: #0077BB;stroke-width: 6;stroke-linecap:round;stroke-linejoin:round" fill="none"/>
			<polyline points="629,519 631,512" style="stroke: #0077BB;stroke-width: 6;stroke-linecap:round;stroke-linejoin:round" fill="none"/>
			<polyline points="635,494 643,459" style="stroke: #0077BB;stroke-width: 6;stroke-linecap:round;stroke-linejoin:round" fill="none"/>
			<polyline points="648,441 649,434" style="stroke: #0077BB;stroke-width: 6;stroke-linecap:round;stroke-linejoin:round" fill="none"/>
			<polyline points="653,416 660,387 662,383" style="stroke: #0077BB;stroke-width: 6;stroke-linecap:round;stroke-linejoin:round" fill="none"/>
			<polyline points="669,367 672,360" style="stroke: #0077BB;stroke-width: 6;stroke-linecap:round;stroke-linejoin:round" fill="none"/>
			<polyline points="680,343 695,310" style="stroke: #0077BB;stroke-width: 6;stroke-linecap:round;stroke-linejoin:round" fill="none"/>
			<polyline points="702,294 706,287" style="stroke: #0077BB;stroke-width: 6;stroke-linecap:round;stroke-linejoin:round" fill="none"/>
			<polyline points="718,275 754,275" style="stroke: #0077BB;stroke-width: 6;stroke-linecap:round;stroke-linejoin:round" fill="none"/>
			<polyline points="772,275 779,275" style="stroke: #0077BB;stroke-width: 6;stroke-linecap:round;stroke-linejoin:round" fill="none"/>
			<polyline points="798,276 814,276 823,288" style="stroke: #0077BB;stroke-width: 6;stroke-linecap:round;stroke-linejoin:round" fill="none"/>
			<polyline points="834,302 839,308" style="stroke: #0077BB;stroke-width: 6;stroke-linecap:round;stroke-linejoin:round" fill="none"/>
			<polyline points="851,323 865,341 878,349" style="stroke: #0077BB;stroke-width: 6;stroke-linecap:round;stroke-linejoin:round" fill="none"/>
			<polyline points="893,358 899,362" style="stroke: #0077BB;stroke-width: 6;stroke-linecap:round;stroke-linejoin:round" fill="none"/>
			<polyline points="915,372 917,373 950,382" style="stroke: #0077BB;stroke-width: 6;stroke-linecap:round;stroke-linejoin:round" fill="none"/>
			<polyline points="967,387 968,387 974,387" style="stroke: #0077BB;stroke-width: 6;stroke-linecap:round;stroke-linejoin:round" fill="none"/>
			<polyline points="993,386 1019,384 1026,381" style="stroke: #0077BB;stroke-width: 6;stroke-linecap:round;stroke-linejoin:round" fill="none"/>
			<polyline points="1043,373 1049,371" style="stroke: #0077BB;stroke-width: 6;stroke-linecap:round;stroke-linejoin:round" fill="none"/>
			<polyline points="1067,363 1071,361 1087,335" style="stroke: #0077BB;stroke-width: 6;stroke-linecap:round;stroke-linejoin:round" fill="none"/>
			<polyline points="1097,319 1100,313" style="stroke: #0077BB;stroke-width: 6;stroke-linecap:round;stroke-linejoin:round" fill="none"/>
			<polyline points="1110,297 1122,278 1139,278" style="stroke: #0077BB;stroke-width: 6;stroke-linecap:round;stroke-linejoin:round" fill="none"/>
			<polyline points="1157,279 1164,279" style="stroke: #0077BB;stroke-width: 6;stroke-linecap:round;stroke-linejoin:round" fill="none"/>
			<polyline points="1183,279 1219,279" style="stroke: #0077BB;stroke-width: 6;stroke-linecap:round;stroke-linejoin:round" fill="none"/>
			<polyline points="1237,279 1244,279" style="stroke: #0077BB;stroke-width: 6;stroke-linecap:round;stroke-linejoin:round" fill="none"/>
			<polyline points="1263,280 1276,280 1287,297" style="stroke: #0077BB;stroke-width: 6;stroke-linecap:round;stroke-linejoin:round" fill="none"/>
			<polyline points="1297,312 1301,318" style="stroke: #0077BB;stroke-width: 6;stroke-linecap:round;stroke-linejoin:round" fill="none"/>
			<polyline points="1312,334 1327,356 1339,359" style="stroke: #0077BB;stroke-width: 6;stroke-linecap:round;stroke-linejoin:round" fill="none"/>
			<polyline points="1357,364 1364,366" style="stroke: #0077BB;stroke-width: 6;stroke-linecap:round;stroke-linejoin:round" fill="none"/>
			<polyline points="1380,371 1407,395" style="stroke: #0077BB;stroke-width: 6;stroke-linecap:round;stroke-linejoin:round" fill="none"/>
			<polyline points="1421,407 1426,411" style="stroke: #0077BB;stroke-width: 6;stroke-linecap:round;stroke-linejoin:round" fill="none"/>
			<polyline points="249,594 279,594" style="stroke: #A5A5A5;stroke-width: 6;stroke-linecap:round;stroke-linejoin:round" fill="none"/>
			<polyline points="313,594 343,594" style="stroke: #A5A5A5;stroke-width: 6;stroke-linecap:round;stroke-linejoin:round" fill="none"/>
			<polyline points="377,594 403,594 407,594" style="stroke: #A5A5A5;stroke-width: 6;stroke-linecap:round;stroke-linejoin:round" fill="none"/>
			<polyline points="441,594 454,594 471,594" style="stroke: #A5A5A5;stroke-width: 6;stroke-linecap:round;stroke-linejoin:round" fill="none"/>
			<polyline points="505,594 506,594 535,594" style="stroke: #A5A5A5;stroke-width: 6;stroke-linecap:round;stroke-linejoin:round" fill="none"/>
			<polyline points="569,594 599,594" style="stroke: #A5A5A5;stroke-width: 6;stroke-linecap:round;stroke-linejoin:round" fill="none"/>
			<polyline points="617,571 628,543" style="stroke: #A5A5A5;stroke-width: 6;stroke-linecap:round;stroke-linejoin:round" fill="none"/>
			<polyline points="641,511 652,484" style="stroke: #A5A5A5;stroke-width: 6;stroke-linecap:round;stroke-linejoin:round" fill="none"/>
			<polyline points="665,453 679,426" style="stroke: #A5A5A5;stroke-width: 6;stroke-linecap:round;stroke-linejoin:round" fill="none"/>
			<polyline points="694,395 707,369" style="stroke: #A5A5A5;stroke-width: 6;stroke-linecap:round;stroke-linejoin:round" fill="none"/>
			<polyline points="737,362 762,362 767,362" style="stroke: #A5A5A5;stroke-width: 6;stroke-linecap:round;stroke-linejoin:round" fill="none"/>
			<polyline points="801,362 814,362 823,371" style="stroke: #A5A5A5;stroke-width: 6;stroke-linecap:round;stroke-linejoin:round" fill="none"/>
			<polyline points="847,396 865,415 871,419" style="stroke: #A5A5A5;stroke-width: 6;stroke-linecap:round;stroke-linejoin:round" fill="none"/>
			<polyline points="899,438 917,450 928,453" style="stroke: #A5A5A5;stroke-width: 6;stroke-linecap:round;stroke-linejoin:round" fill="none"/>
			<polyline points="961,461 968,463 991,462" style="stroke: #A5A5A5;stroke-width: 6;stroke-linecap:round;stroke-linejoin:round" fill="none"/>
			<polyline points="1022,459 1050,446" style="stroke: #A5A5A5;stroke-width: 6;stroke-linecap:round;stroke-linejoin:round" fill="none"/>
			<polyline points="1076,430 1093,406" style="stroke: #A5A5A5;stroke-width: 6;stroke-linecap:round;stroke-linejoin:round" fill="none"/>
			<polyline points="1113,378 1122,365 1139,365" style="stroke: #A5A5A5;stroke-width: 6;stroke-linecap:round;stroke-linejoin:round" fill="none"/>
			<polyline points="1173,366 1203,367" style="stroke: #A5A5A5;stroke-width: 6;stroke-linecap:round;stroke-linejoin:round" fill="none"/>
			<polyline points="1237,367 1267,367" style="stroke: #A5A5A5;stroke-width: 6;stroke-linecap:round;stroke-linejoin:round" fill="none"/>
			<polyline points="1290,385 1309,409" style="stroke: #A5A5A5;stroke-width: 6;stroke-linecap:round;stroke-linejoin:round" fill="none"/>
			<polyline points="1337,435 1365,443" style="stroke: #A5A5A5;stroke-width: 6;stroke-linecap:round;stroke-linejoin:round" fill="none"/>
			<polyline points="1392,458 1415,477" style="stroke: #A5A5A5;stroke-width: 6;stroke-linecap:round;stroke-linejoin:round" fill="none"/>
		</g>
		<defs>
			<mask id="Cp_2">
				<rect x="249" y="1160" width="1182" height="473" fill="white"/>
			</mask>
		</defs>
		<g mask="url(#Cp_2)">
			<rect x="0" y="0" width="1695" height="2062" visibility="hidden" fill="none" opacity="0"/>
			<polyline points="249,1497 300,1498 352,1499 403,1499 454,1500 506,1501 557,1501 608,1502 660,1361 711,1261 762,1261 814,1262 865,1311 917,1346 968,1360 1019,1357 1071,1333 1122,1264 1173,1265 1225,1265 1276,1266 1327,1327 1379,1342 1430,1386" style="stroke: #EE7733;stroke-width: 6;stroke-linecap:round;stroke-linejoin:round" fill="none"/>
			<polyline points="249,1599 285,1599" style="stroke: #0077BB;stroke-width: 6;stroke-linecap:round;stroke-linejoin:round" fill="none"/>
			<polyline points="303,1599 310,1599" style="stroke: #0077BB;stroke-width: 6;stroke-linecap:round;stroke-linejoin:round" fill="none"/>
			<polyline points="329,1599 352,1599 365,1599" style="stroke: #0077BB;stroke-width: 6;stroke-linecap:round;stroke-linejoin:round" fill="none"/>
			<polyline points="383,1599 390,1599" style="stroke: #0077BB;stroke-width: 6;stroke-linecap:round;stroke-linejoin:round" fill="none"/>
			<polyline points="409,1599 445,1599" style="stroke: #0077BB;stroke-width: 6;stroke-linecap:round;stroke-linejoin:round" fill="none"/>
			<polyline points="463,1599 470,1599" style="stroke: #0077BB;stroke-width: 6;stroke-linecap:round;stroke-linejoin:round" fill="none"/>
			<polyline points="489,1599 506,1599 525,1599" style="stroke: #0077BB;stroke-width: 6;stroke-linecap:round;stroke-linejoin:round" fill="none"/>
			<polyline points="543,1599 550,1599" style="stroke: #0077BB;stroke-width: 6;stroke-linecap:round;stroke-linejoin:round" fill="none"/>
			<polyline points="569,1599 605,1599" style="stroke: #0077BB;stroke-width: 6;stroke-linecap:round;stroke-linejoin:round" fill="none"/>
			<polyline points="611,1584 613,1577" style="stroke: #0077BB;stroke-width: 6;stroke-linecap:round;stroke-linejoin:round" fill="none"/>
			<polyline points="617,1559 625,1524" style="stroke: #0077BB;stroke-width: 6;stroke-linecap:round;stroke-linejoin:round" fill="none"/>
			<polyline points="629,1506 631,1499" style="stroke: #0077BB;stroke-width: 6;stroke-linecap:round;stroke-linejoin:round" fill="none"/>
			<polyline points="635,1481 643,1446" style="stroke: #0077BB;stroke-width: 6;stroke-linecap:round;stroke-linejoin:round" fill="none"/>
			<polyline points="648,1428 649,1421" style="stroke: #0077BB;stroke-width: 6;stroke-linecap:round;stroke-linejoin:round" fill="none"/>
			<polyline points="653,1403 660,1374 662,1370" style="stroke: #0077BB;stroke-width: 6;stroke-linecap:round;stroke-linejoin:round" fill="none"/>
			<polyline points="669,1354 672,1347" style="stroke: #0077BB;stroke-width: 6;stroke-linecap:round;stroke-linejoin:round" fill="none"/>
			<polyline points="680,1330 695,1297" style="stroke: #0077BB;stroke-width: 6;stroke-linecap:round;stroke-linejoin:round" fill="none"/>
			<polyline points="702,1281 706,1274" style="stroke: #0077BB;stroke-width: 6;stroke-linecap:round;stroke-linejoin:round" fill="none"/>
			<polyline points="718,1262 754,1262" style="stroke: #0077BB;stroke-width: 6;stroke-linecap:round;stroke-linejoin:round" fill="none"/>
			<polyline points="772,1262 779,1262" style="stroke: #0077BB;stroke-width: 6;stroke-linecap:round;stroke-linejoin:round" fill="none"/>
			<polyline points="798,1263 814,1263 823,1275" style="stroke: #0077BB;stroke-width: 6;stroke-linecap:round;stroke-linejoin:round" fill="none"/>
			<polyline points="834,1289 839,1295" style="stroke: #0077BB;stroke-width: 6;stroke-linecap:round;stroke-linejoin:round" fill="none"/>
			<polyline points="851,1310 865,1328 878,1336" style="stroke: #0077BB;stroke-width: 6;stroke-linecap:round;stroke-linejoin:round" fill="none"/>
			<polyline points="893,1345 899,1349" style="stroke: #0077BB;stroke-width: 6;stroke-linecap:round;stroke-linejoin:round" fill="none"/>
			<polyline points="915,1359 917,1360 950,1369" style="stroke: #0077BB;stroke-width: 6;stroke-linecap:round;stroke-linejoin:round" fill="none"/>
			<polyline points="967,1374 968,1374 974,1374" style="stroke: #0077BB;stroke-width: 6;stroke-linecap:round;stroke-linejoin:round" fill="none"/>
			<polyline points="993,1373 1019,1371 1026,1368" style="stroke: #0077BB;stroke-width: 6;stroke-linecap:round;stroke-linejoin:round" fill="none"/>
			<polyline points="1043,1360 1049,1358" style="stroke: #0077BB;stroke-width: 6;stroke-linecap:round;stroke-linejoin:round" fill="none"/>
			<polyline points="1067,1350 1071,1348 1087,1322" style="stroke: #0077BB;stroke-width: 6;stroke-linecap:round;stroke-linejoin:round" fill="none"/>
			<polyline points="1097,1306 1100,1300" style="stroke: #0077BB;stroke-width: 6;stroke-linecap:round;stroke-linejoin:round" fill="none"/>
			<polyline points="1110,1284 1122,1265 1139,1265" style="stroke: #0077BB;stroke-width: 6;stroke-linecap:round;stroke-linejoin:round" fill="none"/>
			<polyline points="1157,1266 1164,1266" style="stroke: #0077BB;stroke-width: 6;stroke-linecap:round;stroke-linejoin:round" fill="none"/>
			<polyline points="1183,1266 1219,1266" style="stroke: #0077BB;stroke-width: 6;stroke-linecap:round;stroke-linejoin:round" fill="none"/>
			<polyline points="1237,1266 1244,1266" style="stroke: #0077BB;stroke-width: 6;stroke-linecap:round;stroke-linejoin:round" fill="none"/>
			<polyline points="1263,1267 1276,1267 1287,1284" style="stroke: #0077BB;stroke-width: 6;stroke-linecap:round;stroke-linejoin:round" fill="none"/>
			<polyline points="1297,1299 1301,1305" style="stroke: #0077BB;stroke-width: 6;stroke-linecap:round;stroke-linejoin:round" fill="none"/>
			<polyline points="1312,1321 1327,1343 1339,1346" style="stroke: #0077BB;stroke-width: 6;stroke-linecap:round;stroke-linejoin:round" fill="none"/>
			<polyline points="1357,1351 1364,1353" style="stroke: #0077BB;stroke-width: 6;stroke-linecap:round;stroke-linejoin:round" fill="none"/>
			<polyline points="1380,1358 1407,1382" style="stroke: #0077BB;stroke-width: 6;stroke-linecap:round;stroke-linejoin:round" fill="none"/>
			<polyline points="1421,1394 1426,1398" style="stroke: #0077BB;stroke-width: 6;stroke-linecap:round;stroke-linejoin:round" fill="none"/>
			<polyline points="249,1510 279,1511" style="stroke: #A5A5A5;stroke-width: 6;stroke-linecap:round;stroke-linejoin:round" fill="none"/>
			<polyline points="313,1511 343,1512" style="stroke: #A5A5A5;stroke-width: 6;stroke-linecap:round;stroke-linejoin:round" fill="none"/>
			<polyline points="377,1512 403,1512 407,1512" style="stroke: #A5A5A5;stroke-width: 6;stroke-linecap:round;stroke-linejoin:round" fill="none"/>
			<polyline points="441,1513 454,1513 471,1513" style="stroke: #A5A5A5;stroke-width: 6;stroke-linecap:round;stroke-linejoin:round" fill="none"/>
			<polyline points="505,1514 506,1514 535,1515" style="stroke: #A5A5A5;stroke-width: 6;stroke-linecap:round;stroke-linejoin:round" fill="none"/>
			<polyline points="569,1515 599,1515" style="stroke: #A5A5A5;stroke-width: 6;stroke-linecap:round;stroke-linejoin:round" fill="none"/>
			<polyline points="633,1516 660,1517 663,1517" style="stroke: #A5A5A5;stroke-width: 6;stroke-linecap:round;stroke-linejoin:round" fill="none"/>
			<polyline points="697,1518 711,1518 727,1518" style="stroke: #A5A5A5;stroke-width: 6;stroke-linecap:round;stroke-linejoin:round" fill="none"/>
			<polyline points="761,1517 762,1517 791,1516" style="stroke: #A5A5A5;stroke-width: 6;stroke-linecap:round;stroke-linejoin:round" fill="none"/>
			<polyline points="825,1516 855,1516" style="stroke: #A5A5A5;stroke-width: 6;stroke-linecap:round;stroke-linejoin:round" fill="none"/>
			<polyline points="889,1516 917,1516 919,1516" style="stroke: #A5A5A5;stroke-width: 6;stroke-linecap:round;stroke-linejoin:round" fill="none"/>
			<polyline points="953,1516 968,1516 983,1516" style="stroke: #A5A5A5;stroke-width: 6;stroke-linecap:round;stroke-linejoin:round" fill="none"/>
			<polyline points="1017,1516 1019,1516 1047,1516" style="stroke: #A5A5A5;stroke-width: 6;stroke-linecap:round;stroke-linejoin:round" fill="none"/>
			<polyline points="1081,1516 1111,1517" style="stroke: #A5A5A5;stroke-width: 6;stroke-linecap:round;stroke-linejoin:round" fill="none"/>
			<polyline points="1145,1517 1173,1516 1175,1516" style="stroke: #A5A5A5;stroke-width: 6;stroke-linecap:round;stroke-linejoin:round" fill="none"/>
			<polyline points="1209,1515 1225,1515 1239,1515" style="stroke: #A5A5A5;stroke-width: 6;stroke-linecap:round;stroke-linejoin:round" fill="none"/>
			<polyline points="1273,1515 1276,1515 1303,1514" style="stroke: #A5A5A5;stroke-width: 6;stroke-linecap:round;stroke-linejoin:round" fill="none"/>
			<polyline points="1337,1514 1367,1514" style="stroke: #A5A5A5;stroke-width: 6;stroke-linecap:round;stroke-linejoin:round" fill="none"/>
			<polyline points="1401,1514 1430,1514" style="stroke: #A5A5A5;stroke-width: 6;stroke-linecap:round;stroke-linejoin:round" fill="none"/>
		</g>
		<polyline points="249,645 1430,645" style="stroke: black;stroke-width: 6;stroke-linecap:square;stroke-linejoin:round" fill="none"/>
		<polyline points="403,645 403,628" style="stroke: black;stroke-width: 6;stroke-linecap:butt;stroke-linejoin:round" fill="none"/>
		<polyline points="608,645 608,628" style="stroke: black;stroke-width: 6;stroke-linecap:butt;stroke-linejoin:round" fill="none"/>
		<polyline points="814,645 814,628" style="stroke: black;stroke-width: 6;stroke-linecap:butt;stroke-linejoin:round" fill="none"/>
		<polyline points="1019,645 1019,628" style="stroke: black;stroke-width: 6;stroke-linecap:butt;stroke-linejoin:round" fill="none"/>
		<polyline points="1225,645 1225,628" style="stroke: black;stroke-width: 6;stroke-linecap:butt;stroke-linejoin:round" fill="none"/>
		<polyline points="1430,645 1430,628" style="stroke: black;stroke-width: 6;stroke-linecap:butt;stroke-linejoin:round" fill="none"/>
		<polyline points="249,645 249,173" style="stroke: black;stroke-width: 6;stroke-linecap:square;stroke-linejoin:round" fill="none"/>
		<polyline points="249,645 266,645" style="stroke: black;stroke-width: 6;stroke-linecap:butt;stroke-linejoin:round" fill="none"/>
		<polyline points="249,488 266,488" style="stroke: black;stroke-width: 6;stroke-linecap:butt;stroke-linejoin:round" fill="none"/>
		<polyline points="249,330 266,330" style="stroke: black;stroke-width: 6;stroke-linecap:butt;stroke-linejoin:round" fill="none"/>
		<polyline points="249,173 266,173" style="stroke: black;stroke-width: 6;stroke-linecap:butt;stroke-linejoin:round" fill="none"/>
		<polyline points="1430,645 1430,173" style="stroke: black;stroke-width: 6;stroke-linecap:square;stroke-linejoin:round" fill="none"/>
		<polyline points="1430,645 1413,645" style="stroke: black;stroke-width: 6;stroke-linecap:butt;stroke-linejoin:round" fill="none"/>
		<polyline points="1430,488 1413,488" style="stroke: black;stroke-width: 6;stroke-linecap:butt;stroke-linejoin:round" fill="none"/>
		<polyline points="1430,330 1413,330" style="stroke: black;stroke-width: 6;stroke-linecap:butt;stroke-linejoin:round" fill="none"/>
		<polyline points="1430,173 1413,173" style="stroke: black;stroke-width: 6;stroke-linecap:butt;stroke-linejoin:round" fill="none"/>
		<text x="386" dominant-baseline="auto" y="715" fill="black" font-family="Times New Roman,'MS PGothic',SimSun" font-size="67" font-weight="400">
			<tspan x="386" style="font-kerning:none">4</tspan>
		</text>
		<text x="591" dominant-baseline="auto" y="715" fill="black" font-family="Times New Roman,'MS PGothic',SimSun" font-size="67" font-weight="400">
			<tspan x="591" style="font-kerning:none">8</tspan>
		</text>
		<text x="780" dominant-baseline="auto" y="715" fill="black" font-family="Times New Roman,'MS PGothic',SimSun" font-size="67" font-weight="400">
			<tspan x="780" style="font-kerning:none">12</tspan>
		</text>
		<text x="985" dominant-baseline="auto" y="715" fill="black" font-family="Times New Roman,'MS PGothic',SimSun" font-size="67" font-weight="400">
			<tspan x="985" style="font-kerning:none">16</tspan>
		</text>
		<text x="1191" dominant-baseline="auto" y="715" fill="black" font-family="Times New Roman,'MS PGothic',SimSun" font-size="67" font-weight="400">
			<tspan x="1191" style="font-kerning:none">20</tspan>
		</text>
		<text x="1396" dominant-baseline="auto" y="715" fill="black" font-family="Times New Roman,'MS PGothic',SimSun" font-size="67" font-weight="400">
			<tspan x="1396" style="font-kerning:none">24</tspan>
		</text>
		<text x="128" dominant-baseline="auto" y="665" fill="black" font-family="Times New Roman,'MS PGothic',SimSun" font-size="67" font-weight="400">
			<tspan x="128" style="font-kerning:none">219</tspan>
		</text>
		<text x="128" dominant-baseline="auto" y="508" fill="black" font-family="Times New Roman,'MS PGothic',SimSun" font-size="67" font-weight="400">
			<tspan x="128" style="font-kerning:none">223</tspan>
		</text>
		<text x="128" dominant-baseline="auto" y="350" fill="black" font-family="Times New Roman,'MS PGothic',SimSun" font-size="67" font-weight="400">
			<tspan x="128" style="font-kerning:none">227</tspan>
		</text>
		<text x="128" dominant-baseline="auto" y="193" fill="black" font-family="Times New Roman,'MS PGothic',SimSun" font-size="67" font-weight="400">
			<tspan x="128" style="font-kerning:none">231</tspan>
		</text>
		<polyline points="101,907 253,907" style="stroke: #EE7733;stroke-width: 6;stroke-linecap:round;stroke-linejoin:round" fill="none"/>
		<text x="253" dominant-baseline="auto" y="929" fill="black" font-family="Times New Roman,'MS PGothic',SimSun" font-size="67" font-weight="400">
			<tspan x="253" style="white-space:pre;font-kerning:none" xml:space="preserve"> TLCBE </tspan>
		</text>
		<polyline points="497,907 533,907" style="stroke: #0077BB;stroke-width: 6;stroke-linecap:round;stroke-linejoin:round" fill="none"/>
		<polyline points="551,907 558,907" style="stroke: #0077BB;stroke-width: 6;stroke-linecap:round;stroke-linejoin:round" fill="none"/>
		<polyline points="577,907 613,907" style="stroke: #0077BB;stroke-width: 6;stroke-linecap:round;stroke-linejoin:round" fill="none"/>
		<polyline points="631,907 638,907" style="stroke: #0077BB;stroke-width: 6;stroke-linecap:round;stroke-linejoin:round" fill="none"/>
		<text x="649" dominant-baseline="auto" y="929" fill="black" font-family="Times New Roman,'MS PGothic',SimSun" font-size="67" font-weight="400">
			<tspan x="649" style="white-space:pre;font-kerning:none" xml:space="preserve"> TLNBE </tspan>
		</text>
		<polyline points="896,907 926,907" style="stroke: #A5A5A5;stroke-width: 6;stroke-linecap:round;stroke-linejoin:round" fill="none"/>
		<polyline points="960,907 990,907" style="stroke: #A5A5A5;stroke-width: 6;stroke-linecap:round;stroke-linejoin:round" fill="none"/>
		<polyline points="1024,907 1048,907" style="stroke: #A5A5A5;stroke-width: 6;stroke-linecap:round;stroke-linejoin:round" fill="none"/>
		<text x="1048" dominant-baseline="auto" y="929" fill="black" font-family="Times New Roman,'MS PGothic',SimSun" font-size="67" font-weight="400">
			<tspan x="1048" style="white-space:pre;font-kerning:none" xml:space="preserve">  Plant B Discharge</tspan>
		</text>
		<text x="605" dominant-baseline="auto" y="823" fill="black" font-family="Times New Roman,'MS PGothic',SimSun" font-size="67" font-weight="400">
			<tspan x="605" style="white-space:pre;font-kerning:none" xml:space="preserve">Time Period (h)</tspan>
		</text>
		<text x="0" dominant-baseline="auto" y="0" fill="black" font-family="Times New Roman,'MS PGothic',SimSun" font-size="67" font-weight="400" transform="matrix(-1.83698e-16 -1 0.999999 -1.83698e-16 72 680)">
			<tspan x="0" style="white-space:pre;font-kerning:none" xml:space="preserve">Tailwater Level (m)</tspan>
		</text>
		<text x="322" dominant-baseline="auto" y="1042" fill="black" font-family="Times New Roman,'MS PGothic',SimSun" font-size="67" font-weight="400">
			<tspan x="322" style="white-space:pre;font-kerning:none" xml:space="preserve">(a) Refer to Plant A Turbined Discgarge</tspan>
		</text>
		<text x="1458" dominant-baseline="auto" y="665" fill="black" font-family="Times New Roman,'MS PGothic',SimSun" font-size="67" font-weight="400">
			<tspan x="1458" style="font-kerning:none">0</tspan>
		</text>
		<text x="1458" dominant-baseline="auto" y="571" fill="black" font-family="Times New Roman,'MS PGothic',SimSun" font-size="67" font-weight="400">
			<tspan x="1458" style="font-kerning:none">1000</tspan>
		</text>
		<text x="1458" dominant-baseline="auto" y="476" fill="black" font-family="Times New Roman,'MS PGothic',SimSun" font-size="67" font-weight="400">
			<tspan x="1458" style="font-kerning:none">2000</tspan>
		</text>
		<text x="1458" dominant-baseline="auto" y="382" fill="black" font-family="Times New Roman,'MS PGothic',SimSun" font-size="67" font-weight="400">
			<tspan x="1458" style="font-kerning:none">3000</tspan>
		</text>
		<text x="1458" dominant-baseline="auto" y="287" fill="black" font-family="Times New Roman,'MS PGothic',SimSun" font-size="67" font-weight="400">
			<tspan x="1458" style="font-kerning:none">4000</tspan>
		</text>
		<text x="1458" dominant-baseline="auto" y="193" fill="black" font-family="Times New Roman,'MS PGothic',SimSun" font-size="67" font-weight="400">
			<tspan x="1458" style="font-kerning:none">5000</tspan>
		</text>
		<text x="0" dominant-baseline="auto" y="0" fill="black" font-family="Times New Roman,'MS PGothic',SimSun" font-size="67" font-weight="400" transform="matrix(-1.83698e-16 -1 0.999999 -1.83698e-16 1676 768)">
			<tspan x="0" style="white-space:pre;font-kerning:none" xml:space="preserve">Turbined Dischagre </tspan>
		</text>
		<text x="0" dominant-baseline="auto" y="0" fill="black" font-family="Times New Roman,'MS PGothic',SimSun" font-size="67" font-weight="400" transform="matrix(-1.83698e-16 -1 0.999999 -1.83698e-16 1676 213)">
			<tspan x="0" style="font-kerning:none">(</tspan>
		</text>
		<text x="0" dominant-baseline="auto" y="0" fill="black" font-family="Times New Roman,'MS PGothic',SimSun" font-size="67" font-weight="400" transform="matrix(-1.83698e-16 -1 0.999999 -1.83698e-16 1676 191)">
			<tspan x="0" style="font-kerning:none">m</tspan>
		</text>
		<text x="0" dominant-baseline="auto" y="0" fill="black" font-family="Times New Roman,'MS PGothic',SimSun" font-size="46" font-weight="400" transform="matrix(-1.83698e-16 -1 0.999999 -1.83698e-16 1649 139)">
			<tspan x="0" style="font-kerning:none">3</tspan>
		</text>
		<text x="0" dominant-baseline="auto" y="0" fill="black" font-family="Times New Roman,'MS PGothic',SimSun" font-size="67" font-weight="400" transform="matrix(-1.83698e-16 -1 0.999999 -1.83698e-16 1676 116)">
			<tspan x="0" style="font-kerning:none">/s</tspan>
		</text>
		<text x="0" dominant-baseline="auto" y="0" fill="black" font-family="Times New Roman,'MS PGothic',SimSun" font-size="67" font-weight="400" transform="matrix(-1.83698e-16 -1 0.999999 -1.83698e-16 1676 71)">
			<tspan x="0" style="font-kerning:none">)</tspan>
		</text>
		<polyline points="249,1632 1430,1632" style="stroke: black;stroke-width: 6;stroke-linecap:square;stroke-linejoin:round" fill="none"/>
		<polyline points="403,1632 403,1615" style="stroke: black;stroke-width: 6;stroke-linecap:butt;stroke-linejoin:round" fill="none"/>
		<polyline points="608,1632 608,1615" style="stroke: black;stroke-width: 6;stroke-linecap:butt;stroke-linejoin:round" fill="none"/>
		<polyline points="814,1632 814,1615" style="stroke: black;stroke-width: 6;stroke-linecap:butt;stroke-linejoin:round" fill="none"/>
		<polyline points="1019,1632 1019,1615" style="stroke: black;stroke-width: 6;stroke-linecap:butt;stroke-linejoin:round" fill="none"/>
		<polyline points="1225,1632 1225,1615" style="stroke: black;stroke-width: 6;stroke-linecap:butt;stroke-linejoin:round" fill="none"/>
		<polyline points="1430,1632 1430,1615" style="stroke: black;stroke-width: 6;stroke-linecap:butt;stroke-linejoin:round" fill="none"/>
		<polyline points="249,1632 249,1160" style="stroke: black;stroke-width: 6;stroke-linecap:square;stroke-linejoin:round" fill="none"/>
		<polyline points="249,1632 266,1632" style="stroke: black;stroke-width: 6;stroke-linecap:butt;stroke-linejoin:round" fill="none"/>
		<polyline points="249,1475 266,1475" style="stroke: black;stroke-width: 6;stroke-linecap:butt;stroke-linejoin:round" fill="none"/>
		<polyline points="249,1317 266,1317" style="stroke: black;stroke-width: 6;stroke-linecap:butt;stroke-linejoin:round" fill="none"/>
		<polyline points="249,1160 266,1160" style="stroke: black;stroke-width: 6;stroke-linecap:butt;stroke-linejoin:round" fill="none"/>
		<text x="386" dominant-baseline="auto" y="1702" fill="black" font-family="Times New Roman,'MS PGothic',SimSun" font-size="67" font-weight="400">
			<tspan x="386" style="font-kerning:none">4</tspan>
		</text>
		<text x="591" dominant-baseline="auto" y="1702" fill="black" font-family="Times New Roman,'MS PGothic',SimSun" font-size="67" font-weight="400">
			<tspan x="591" style="font-kerning:none">8</tspan>
		</text>
		<text x="780" dominant-baseline="auto" y="1702" fill="black" font-family="Times New Roman,'MS PGothic',SimSun" font-size="67" font-weight="400">
			<tspan x="780" style="font-kerning:none">12</tspan>
		</text>
		<text x="985" dominant-baseline="auto" y="1702" fill="black" font-family="Times New Roman,'MS PGothic',SimSun" font-size="67" font-weight="400">
			<tspan x="985" style="font-kerning:none">16</tspan>
		</text>
		<text x="1191" dominant-baseline="auto" y="1702" fill="black" font-family="Times New Roman,'MS PGothic',SimSun" font-size="67" font-weight="400">
			<tspan x="1191" style="font-kerning:none">20</tspan>
		</text>
		<text x="1396" dominant-baseline="auto" y="1702" fill="black" font-family="Times New Roman,'MS PGothic',SimSun" font-size="67" font-weight="400">
			<tspan x="1396" style="font-kerning:none">24</tspan>
		</text>
		<text x="128" dominant-baseline="auto" y="1652" fill="black" font-family="Times New Roman,'MS PGothic',SimSun" font-size="67" font-weight="400">
			<tspan x="128" style="font-kerning:none">219</tspan>
		</text>
		<text x="128" dominant-baseline="auto" y="1495" fill="black" font-family="Times New Roman,'MS PGothic',SimSun" font-size="67" font-weight="400">
			<tspan x="128" style="font-kerning:none">223</tspan>
		</text>
		<text x="128" dominant-baseline="auto" y="1337" fill="black" font-family="Times New Roman,'MS PGothic',SimSun" font-size="67" font-weight="400">
			<tspan x="128" style="font-kerning:none">227</tspan>
		</text>
		<text x="128" dominant-baseline="auto" y="1180" fill="black" font-family="Times New Roman,'MS PGothic',SimSun" font-size="67" font-weight="400">
			<tspan x="128" style="font-kerning:none">231</tspan>
		</text>
		<text x="0" dominant-baseline="auto" y="0" fill="black" font-family="Times New Roman,'MS PGothic',SimSun" font-size="67" font-weight="400" transform="matrix(-1.83698e-16 -1 0.999999 -1.83698e-16 76 1667)">
			<tspan x="0" style="white-space:pre;font-kerning:none" xml:space="preserve">Tailwater Level (m)</tspan>
		</text>
		<text x="605" dominant-baseline="auto" y="1814" fill="black" font-family="Times New Roman,'MS PGothic',SimSun" font-size="67" font-weight="400">
			<tspan x="605" style="white-space:pre;font-kerning:none" xml:space="preserve">Time Period (h)</tspan>
		</text>
		<polyline points="39,1894 191,1894" style="stroke: #EE7733;stroke-width: 6;stroke-linecap:round;stroke-linejoin:round" fill="none"/>
		<text x="191" dominant-baseline="auto" y="1916" fill="black" font-family="Times New Roman,'MS PGothic',SimSun" font-size="67" font-weight="400">
			<tspan x="191" style="white-space:pre;font-kerning:none" xml:space="preserve"> TLCBE </tspan>
		</text>
		<polyline points="435,1894 471,1894" style="stroke: #0077BB;stroke-width: 6;stroke-linecap:round;stroke-linejoin:round" fill="none"/>
		<polyline points="489,1894 496,1894" style="stroke: #0077BB;stroke-width: 6;stroke-linecap:round;stroke-linejoin:round" fill="none"/>
		<polyline points="515,1894 551,1894" style="stroke: #0077BB;stroke-width: 6;stroke-linecap:round;stroke-linejoin:round" fill="none"/>
		<polyline points="569,1894 576,1894" style="stroke: #0077BB;stroke-width: 6;stroke-linecap:round;stroke-linejoin:round" fill="none"/>
		<text x="587" dominant-baseline="auto" y="1916" fill="black" font-family="Times New Roman,'MS PGothic',SimSun" font-size="67" font-weight="400">
			<tspan x="587" style="white-space:pre;font-kerning:none" xml:space="preserve"> TLNBE </tspan>
		</text>
		<polyline points="834,1894 864,1894" style="stroke: #A5A5A5;stroke-width: 6;stroke-linecap:round;stroke-linejoin:round" fill="none"/>
		<polyline points="898,1894 928,1894" style="stroke: #A5A5A5;stroke-width: 6;stroke-linecap:round;stroke-linejoin:round" fill="none"/>
		<polyline points="962,1894 986,1894" style="stroke: #A5A5A5;stroke-width: 6;stroke-linecap:round;stroke-linejoin:round" fill="none"/>
		<text x="986" dominant-baseline="auto" y="1916" fill="black" font-family="Times New Roman,'MS PGothic',SimSun" font-size="67" font-weight="400">
			<tspan x="986" style="white-space:pre;font-kerning:none" xml:space="preserve">  Plant B Water Level</tspan>
		</text>
		<text x="269" dominant-baseline="auto" y="2044" fill="black" font-family="Times New Roman,'MS PGothic',SimSun" font-size="67" font-weight="400">
			<tspan x="269" style="white-space:pre;font-kerning:none" xml:space="preserve">(b) Refer to Plant B Forebay Water Level</tspan>
		</text>
	</svg>
</svg>

