<?xml version="1.0" encoding="UTF-8"?>
<!DOCTYPE svg PUBLIC "-//W3C//DTD SVG 1.1//EN" "http://www.w3.org/Graphics/SVG/1.1/DTD/svg11.dtd">
<!--Generated by Origin-->
<svg xmlns="http://www.w3.org/2000/svg" xmlns:xlink="http://www.w3.org/1999/xlink" viewBox="0,0 1076,329" width="5.604167in" height="1.713542in">
	<svg xmlns="http://www.w3.org/2000/svg" xmlns:xlink="http://www.w3.org/1999/xlink" viewBox="0,0 3361.92,1025.93" width="1074.99" height="327.999" x="0.00012207" y="3.05175e-05" preserveAspectRatio="none">
		<defs>
			<mask id="Cp_1">
				<rect x="240" y="126" width="1182" height="473" fill="white"/>
			</mask>
		</defs>
		<g mask="url(#Cp_1)">
			<rect x="0" y="0" width="3362" height="1026" visibility="hidden" fill="none" opacity="0"/>
			<polyline points="240,463 291,464 343,465 394,465 445,466 497,467 548,467 599,468 651,327 702,227 753,227 805,228 856,277 908,312 959,326 1010,323 1062,299 1113,230 1164,231 1216,231 1267,232 1318,293 1370,308 1421,352" style="stroke: #EE7733;stroke-width: 6;stroke-linecap:round;stroke-linejoin:round" fill="none"/>
			<polyline points="240,565 276,565" style="stroke: #0077BB;stroke-width: 6;stroke-linecap:round;stroke-linejoin:round" fill="none"/>
			<polyline points="294,565 301,565" style="stroke: #0077BB;stroke-width: 6;stroke-linecap:round;stroke-linejoin:round" fill="none"/>
			<polyline points="320,565 343,565 356,565" style="stroke: #0077BB;stroke-width: 6;stroke-linecap:round;stroke-linejoin:round" fill="none"/>
			<polyline points="374,565 381,565" style="stroke: #0077BB;stroke-width: 6;stroke-linecap:round;stroke-linejoin:round" fill="none"/>
			<polyline points="400,565 436,565" style="stroke: #0077BB;stroke-width: 6;stroke-linecap:round;stroke-linejoin:round" fill="none"/>
			<polyline points="454,565 461,565" style="stroke: #0077BB;stroke-width: 6;stroke-linecap:round;stroke-linejoin:round" fill="none"/>
			<polyline points="480,565 497,565 516,565" style="stroke: #0077BB;stroke-width: 6;stroke-linecap:round;stroke-linejoin:round" fill="none"/>
			<polyline points="534,565 541,565" style="stroke: #0077BB;stroke-width: 6;stroke-linecap:round;stroke-linejoin:round" fill="none"/>
			<polyline points="560,565 596,565" style="stroke: #0077BB;stroke-width: 6;stroke-linecap:round;stroke-linejoin:round" fill="none"/>
			<polyline points="602,550 604,543" style="stroke: #0077BB;stroke-width: 6;stroke-linecap:round;stroke-linejoin:round" fill="none"/>
			<polyline points="608,525 616,490" style="stroke: #0077BB;stroke-width: 6;stroke-linecap:round;stroke-linejoin:round" fill="none"/>
			<polyline points="620,472 622,465" style="stroke: #0077BB;stroke-width: 6;stroke-linecap:round;stroke-linejoin:round" fill="none"/>
			<polyline points="626,447 634,412" style="stroke: #0077BB;stroke-width: 6;stroke-linecap:round;stroke-linejoin:round" fill="none"/>
			<polyline points="639,394 640,387" style="stroke: #0077BB;stroke-width: 6;stroke-linecap:round;stroke-linejoin:round" fill="none"/>
			<polyline points="644,369 651,340 653,336" style="stroke: #0077BB;stroke-width: 6;stroke-linecap:round;stroke-linejoin:round" fill="none"/>
			<polyline points="660,320 663,313" style="stroke: #0077BB;stroke-width: 6;stroke-linecap:round;stroke-linejoin:round" fill="none"/>
			<polyline points="671,296 686,263" style="stroke: #0077BB;stroke-width: 6;stroke-linecap:round;stroke-linejoin:round" fill="none"/>
			<polyline points="693,247 697,240" style="stroke: #0077BB;stroke-width: 6;stroke-linecap:round;stroke-linejoin:round" fill="none"/>
			<polyline points="709,228 745,228" style="stroke: #0077BB;stroke-width: 6;stroke-linecap:round;stroke-linejoin:round" fill="none"/>
			<polyline points="763,228 770,228" style="stroke: #0077BB;stroke-width: 6;stroke-linecap:round;stroke-linejoin:round" fill="none"/>
			<polyline points="789,229 805,229 814,241" style="stroke: #0077BB;stroke-width: 6;stroke-linecap:round;stroke-linejoin:round" fill="none"/>
			<polyline points="825,255 830,261" style="stroke: #0077BB;stroke-width: 6;stroke-linecap:round;stroke-linejoin:round" fill="none"/>
			<polyline points="842,276 856,294 869,302" style="stroke: #0077BB;stroke-width: 6;stroke-linecap:round;stroke-linejoin:round" fill="none"/>
			<polyline points="884,311 890,315" style="stroke: #0077BB;stroke-width: 6;stroke-linecap:round;stroke-linejoin:round" fill="none"/>
			<polyline points="906,325 908,326 941,335" style="stroke: #0077BB;stroke-width: 6;stroke-linecap:round;stroke-linejoin:round" fill="none"/>
			<polyline points="958,340 959,340 965,340" style="stroke: #0077BB;stroke-width: 6;stroke-linecap:round;stroke-linejoin:round" fill="none"/>
			<polyline points="984,339 1010,337 1017,334" style="stroke: #0077BB;stroke-width: 6;stroke-linecap:round;stroke-linejoin:round" fill="none"/>
			<polyline points="1034,326 1040,324" style="stroke: #0077BB;stroke-width: 6;stroke-linecap:round;stroke-linejoin:round" fill="none"/>
			<polyline points="1058,316 1062,314 1078,288" style="stroke: #0077BB;stroke-width: 6;stroke-linecap:round;stroke-linejoin:round" fill="none"/>
			<polyline points="1088,272 1091,266" style="stroke: #0077BB;stroke-width: 6;stroke-linecap:round;stroke-linejoin:round" fill="none"/>
			<polyline points="1101,250 1113,231 1130,231" style="stroke: #0077BB;stroke-width: 6;stroke-linecap:round;stroke-linejoin:round" fill="none"/>
			<polyline points="1148,232 1155,232" style="stroke: #0077BB;stroke-width: 6;stroke-linecap:round;stroke-linejoin:round" fill="none"/>
			<polyline points="1174,232 1210,232" style="stroke: #0077BB;stroke-width: 6;stroke-linecap:round;stroke-linejoin:round" fill="none"/>
			<polyline points="1228,232 1235,232" style="stroke: #0077BB;stroke-width: 6;stroke-linecap:round;stroke-linejoin:round" fill="none"/>
			<polyline points="1254,233 1267,233 1278,250" style="stroke: #0077BB;stroke-width: 6;stroke-linecap:round;stroke-linejoin:round" fill="none"/>
			<polyline points="1288,265 1292,271" style="stroke: #0077BB;stroke-width: 6;stroke-linecap:round;stroke-linejoin:round" fill="none"/>
			<polyline points="1303,287 1318,309 1330,312" style="stroke: #0077BB;stroke-width: 6;stroke-linecap:round;stroke-linejoin:round" fill="none"/>
			<polyline points="1348,317 1355,319" style="stroke: #0077BB;stroke-width: 6;stroke-linecap:round;stroke-linejoin:round" fill="none"/>
			<polyline points="1371,324 1398,348" style="stroke: #0077BB;stroke-width: 6;stroke-linecap:round;stroke-linejoin:round" fill="none"/>
			<polyline points="1412,360 1417,364" style="stroke: #0077BB;stroke-width: 6;stroke-linecap:round;stroke-linejoin:round" fill="none"/>
			<polyline points="240,547 270,547" style="stroke: #A5A5A5;stroke-width: 6;stroke-linecap:round;stroke-linejoin:round" fill="none"/>
			<polyline points="304,547 334,547" style="stroke: #A5A5A5;stroke-width: 6;stroke-linecap:round;stroke-linejoin:round" fill="none"/>
			<polyline points="368,547 394,547 398,547" style="stroke: #A5A5A5;stroke-width: 6;stroke-linecap:round;stroke-linejoin:round" fill="none"/>
			<polyline points="432,547 445,547 462,547" style="stroke: #A5A5A5;stroke-width: 6;stroke-linecap:round;stroke-linejoin:round" fill="none"/>
			<polyline points="496,547 497,547 526,547" style="stroke: #A5A5A5;stroke-width: 6;stroke-linecap:round;stroke-linejoin:round" fill="none"/>
			<polyline points="560,547 590,547" style="stroke: #A5A5A5;stroke-width: 6;stroke-linecap:round;stroke-linejoin:round" fill="none"/>
			<polyline points="608,524 619,496" style="stroke: #A5A5A5;stroke-width: 6;stroke-linecap:round;stroke-linejoin:round" fill="none"/>
			<polyline points="632,464 643,437" style="stroke: #A5A5A5;stroke-width: 6;stroke-linecap:round;stroke-linejoin:round" fill="none"/>
			<polyline points="656,406 670,379" style="stroke: #A5A5A5;stroke-width: 6;stroke-linecap:round;stroke-linejoin:round" fill="none"/>
			<polyline points="685,348 698,322" style="stroke: #A5A5A5;stroke-width: 6;stroke-linecap:round;stroke-linejoin:round" fill="none"/>
			<polyline points="728,315 753,315 758,315" style="stroke: #A5A5A5;stroke-width: 6;stroke-linecap:round;stroke-linejoin:round" fill="none"/>
			<polyline points="792,315 805,315 814,324" style="stroke: #A5A5A5;stroke-width: 6;stroke-linecap:round;stroke-linejoin:round" fill="none"/>
			<polyline points="838,349 856,368 862,372" style="stroke: #A5A5A5;stroke-width: 6;stroke-linecap:round;stroke-linejoin:round" fill="none"/>
			<polyline points="890,391 908,403 919,406" style="stroke: #A5A5A5;stroke-width: 6;stroke-linecap:round;stroke-linejoin:round" fill="none"/>
			<polyline points="952,414 959,416 982,415" style="stroke: #A5A5A5;stroke-width: 6;stroke-linecap:round;stroke-linejoin:round" fill="none"/>
			<polyline points="1013,412 1041,399" style="stroke: #A5A5A5;stroke-width: 6;stroke-linecap:round;stroke-linejoin:round" fill="none"/>
			<polyline points="1067,383 1084,359" style="stroke: #A5A5A5;stroke-width: 6;stroke-linecap:round;stroke-linejoin:round" fill="none"/>
			<polyline points="1104,331 1113,318 1130,318" style="stroke: #A5A5A5;stroke-width: 6;stroke-linecap:round;stroke-linejoin:round" fill="none"/>
			<polyline points="1164,319 1194,320" style="stroke: #A5A5A5;stroke-width: 6;stroke-linecap:round;stroke-linejoin:round" fill="none"/>
			<polyline points="1228,320 1258,320" style="stroke: #A5A5A5;stroke-width: 6;stroke-linecap:round;stroke-linejoin:round" fill="none"/>
			<polyline points="1281,338 1300,362" style="stroke: #A5A5A5;stroke-width: 6;stroke-linecap:round;stroke-linejoin:round" fill="none"/>
			<polyline points="1328,388 1356,396" style="stroke: #A5A5A5;stroke-width: 6;stroke-linecap:round;stroke-linejoin:round" fill="none"/>
			<polyline points="1383,411 1406,430" style="stroke: #A5A5A5;stroke-width: 6;stroke-linecap:round;stroke-linejoin:round" fill="none"/>
		</g>
		<defs>
			<mask id="Cp_2">
				<rect x="2045" y="124" width="1182" height="473" fill="white"/>
			</mask>
		</defs>
		<g mask="url(#Cp_2)">
			<rect x="0" y="0" width="3362" height="1026" visibility="hidden" fill="none" opacity="0"/>
			<polyline points="2045,461 2096,462 2148,463 2199,463 2250,464 2302,465 2353,465 2404,466 2456,325 2507,225 2558,225 2610,226 2661,275 2713,310 2764,324 2815,321 2867,297 2918,228 2969,229 3021,229 3072,230 3123,291 3175,306 3226,350" style="stroke: #EE7733;stroke-width: 6;stroke-linecap:round;stroke-linejoin:round" fill="none"/>
			<polyline points="2045,563 2081,563" style="stroke: #0077BB;stroke-width: 6;stroke-linecap:round;stroke-linejoin:round" fill="none"/>
			<polyline points="2099,563 2106,563" style="stroke: #0077BB;stroke-width: 6;stroke-linecap:round;stroke-linejoin:round" fill="none"/>
			<polyline points="2125,563 2148,563 2161,563" style="stroke: #0077BB;stroke-width: 6;stroke-linecap:round;stroke-linejoin:round" fill="none"/>
			<polyline points="2179,563 2186,563" style="stroke: #0077BB;stroke-width: 6;stroke-linecap:round;stroke-linejoin:round" fill="none"/>
			<polyline points="2205,563 2241,563" style="stroke: #0077BB;stroke-width: 6;stroke-linecap:round;stroke-linejoin:round" fill="none"/>
			<polyline points="2259,563 2266,563" style="stroke: #0077BB;stroke-width: 6;stroke-linecap:round;stroke-linejoin:round" fill="none"/>
			<polyline points="2285,563 2302,563 2321,563" style="stroke: #0077BB;stroke-width: 6;stroke-linecap:round;stroke-linejoin:round" fill="none"/>
			<polyline points="2339,563 2346,563" style="stroke: #0077BB;stroke-width: 6;stroke-linecap:round;stroke-linejoin:round" fill="none"/>
			<polyline points="2365,563 2401,563" style="stroke: #0077BB;stroke-width: 6;stroke-linecap:round;stroke-linejoin:round" fill="none"/>
			<polyline points="2407,548 2409,541" style="stroke: #0077BB;stroke-width: 6;stroke-linecap:round;stroke-linejoin:round" fill="none"/>
			<polyline points="2413,523 2421,488" style="stroke: #0077BB;stroke-width: 6;stroke-linecap:round;stroke-linejoin:round" fill="none"/>
			<polyline points="2425,470 2427,463" style="stroke: #0077BB;stroke-width: 6;stroke-linecap:round;stroke-linejoin:round" fill="none"/>
			<polyline points="2431,445 2439,410" style="stroke: #0077BB;stroke-width: 6;stroke-linecap:round;stroke-linejoin:round" fill="none"/>
			<polyline points="2444,392 2445,385" style="stroke: #0077BB;stroke-width: 6;stroke-linecap:round;stroke-linejoin:round" fill="none"/>
			<polyline points="2449,367 2456,338 2458,334" style="stroke: #0077BB;stroke-width: 6;stroke-linecap:round;stroke-linejoin:round" fill="none"/>
			<polyline points="2465,318 2468,311" style="stroke: #0077BB;stroke-width: 6;stroke-linecap:round;stroke-linejoin:round" fill="none"/>
			<polyline points="2476,294 2491,261" style="stroke: #0077BB;stroke-width: 6;stroke-linecap:round;stroke-linejoin:round" fill="none"/>
			<polyline points="2498,245 2502,238" style="stroke: #0077BB;stroke-width: 6;stroke-linecap:round;stroke-linejoin:round" fill="none"/>
			<polyline points="2514,226 2550,226" style="stroke: #0077BB;stroke-width: 6;stroke-linecap:round;stroke-linejoin:round" fill="none"/>
			<polyline points="2568,226 2575,226" style="stroke: #0077BB;stroke-width: 6;stroke-linecap:round;stroke-linejoin:round" fill="none"/>
			<polyline points="2594,227 2610,227 2619,239" style="stroke: #0077BB;stroke-width: 6;stroke-linecap:round;stroke-linejoin:round" fill="none"/>
			<polyline points="2630,253 2635,259" style="stroke: #0077BB;stroke-width: 6;stroke-linecap:round;stroke-linejoin:round" fill="none"/>
			<polyline points="2647,274 2661,292 2674,300" style="stroke: #0077BB;stroke-width: 6;stroke-linecap:round;stroke-linejoin:round" fill="none"/>
			<polyline points="2689,309 2695,313" style="stroke: #0077BB;stroke-width: 6;stroke-linecap:round;stroke-linejoin:round" fill="none"/>
			<polyline points="2711,323 2713,324 2746,333" style="stroke: #0077BB;stroke-width: 6;stroke-linecap:round;stroke-linejoin:round" fill="none"/>
			<polyline points="2763,338 2764,338 2770,338" style="stroke: #0077BB;stroke-width: 6;stroke-linecap:round;stroke-linejoin:round" fill="none"/>
			<polyline points="2789,337 2815,335 2822,332" style="stroke: #0077BB;stroke-width: 6;stroke-linecap:round;stroke-linejoin:round" fill="none"/>
			<polyline points="2839,324 2845,322" style="stroke: #0077BB;stroke-width: 6;stroke-linecap:round;stroke-linejoin:round" fill="none"/>
			<polyline points="2863,314 2867,312 2883,286" style="stroke: #0077BB;stroke-width: 6;stroke-linecap:round;stroke-linejoin:round" fill="none"/>
			<polyline points="2893,270 2896,264" style="stroke: #0077BB;stroke-width: 6;stroke-linecap:round;stroke-linejoin:round" fill="none"/>
			<polyline points="2906,248 2918,229 2935,229" style="stroke: #0077BB;stroke-width: 6;stroke-linecap:round;stroke-linejoin:round" fill="none"/>
			<polyline points="2953,230 2960,230" style="stroke: #0077BB;stroke-width: 6;stroke-linecap:round;stroke-linejoin:round" fill="none"/>
			<polyline points="2979,230 3015,230" style="stroke: #0077BB;stroke-width: 6;stroke-linecap:round;stroke-linejoin:round" fill="none"/>
			<polyline points="3033,230 3040,230" style="stroke: #0077BB;stroke-width: 6;stroke-linecap:round;stroke-linejoin:round" fill="none"/>
			<polyline points="3059,231 3072,231 3083,248" style="stroke: #0077BB;stroke-width: 6;stroke-linecap:round;stroke-linejoin:round" fill="none"/>
			<polyline points="3093,263 3097,269" style="stroke: #0077BB;stroke-width: 6;stroke-linecap:round;stroke-linejoin:round" fill="none"/>
			<polyline points="3108,285 3123,307 3135,310" style="stroke: #0077BB;stroke-width: 6;stroke-linecap:round;stroke-linejoin:round" fill="none"/>
			<polyline points="3153,315 3160,317" style="stroke: #0077BB;stroke-width: 6;stroke-linecap:round;stroke-linejoin:round" fill="none"/>
			<polyline points="3176,322 3203,346" style="stroke: #0077BB;stroke-width: 6;stroke-linecap:round;stroke-linejoin:round" fill="none"/>
			<polyline points="3217,358 3222,362" style="stroke: #0077BB;stroke-width: 6;stroke-linecap:round;stroke-linejoin:round" fill="none"/>
			<polyline points="2045,474 2075,475" style="stroke: #A5A5A5;stroke-width: 6;stroke-linecap:round;stroke-linejoin:round" fill="none"/>
			<polyline points="2109,475 2139,476" style="stroke: #A5A5A5;stroke-width: 6;stroke-linecap:round;stroke-linejoin:round" fill="none"/>
			<polyline points="2173,476 2199,476 2203,476" style="stroke: #A5A5A5;stroke-width: 6;stroke-linecap:round;stroke-linejoin:round" fill="none"/>
			<polyline points="2237,477 2250,477 2267,477" style="stroke: #A5A5A5;stroke-width: 6;stroke-linecap:round;stroke-linejoin:round" fill="none"/>
			<polyline points="2301,478 2302,478 2331,479" style="stroke: #A5A5A5;stroke-width: 6;stroke-linecap:round;stroke-linejoin:round" fill="none"/>
			<polyline points="2365,479 2395,479" style="stroke: #A5A5A5;stroke-width: 6;stroke-linecap:round;stroke-linejoin:round" fill="none"/>
			<polyline points="2429,480 2456,481 2459,481" style="stroke: #A5A5A5;stroke-width: 6;stroke-linecap:round;stroke-linejoin:round" fill="none"/>
			<polyline points="2493,482 2507,482 2523,482" style="stroke: #A5A5A5;stroke-width: 6;stroke-linecap:round;stroke-linejoin:round" fill="none"/>
			<polyline points="2557,481 2558,481 2587,480" style="stroke: #A5A5A5;stroke-width: 6;stroke-linecap:round;stroke-linejoin:round" fill="none"/>
			<polyline points="2621,480 2651,480" style="stroke: #A5A5A5;stroke-width: 6;stroke-linecap:round;stroke-linejoin:round" fill="none"/>
			<polyline points="2685,480 2713,480 2715,480" style="stroke: #A5A5A5;stroke-width: 6;stroke-linecap:round;stroke-linejoin:round" fill="none"/>
			<polyline points="2749,480 2764,480 2779,480" style="stroke: #A5A5A5;stroke-width: 6;stroke-linecap:round;stroke-linejoin:round" fill="none"/>
			<polyline points="2813,480 2815,480 2843,480" style="stroke: #A5A5A5;stroke-width: 6;stroke-linecap:round;stroke-linejoin:round" fill="none"/>
			<polyline points="2877,480 2907,481" style="stroke: #A5A5A5;stroke-width: 6;stroke-linecap:round;stroke-linejoin:round" fill="none"/>
			<polyline points="2941,481 2969,480 2971,480" style="stroke: #A5A5A5;stroke-width: 6;stroke-linecap:round;stroke-linejoin:round" fill="none"/>
			<polyline points="3005,479 3021,479 3035,479" style="stroke: #A5A5A5;stroke-width: 6;stroke-linecap:round;stroke-linejoin:round" fill="none"/>
			<polyline points="3069,479 3072,479 3099,478" style="stroke: #A5A5A5;stroke-width: 6;stroke-linecap:round;stroke-linejoin:round" fill="none"/>
			<polyline points="3133,478 3163,478" style="stroke: #A5A5A5;stroke-width: 6;stroke-linecap:round;stroke-linejoin:round" fill="none"/>
			<polyline points="3197,478 3226,478" style="stroke: #A5A5A5;stroke-width: 6;stroke-linecap:round;stroke-linejoin:round" fill="none"/>
		</g>
		<polyline points="240,598 1421,598" style="stroke: black;stroke-width: 6;stroke-linecap:square;stroke-linejoin:round" fill="none"/>
		<polyline points="394,598 394,581" style="stroke: black;stroke-width: 6;stroke-linecap:butt;stroke-linejoin:round" fill="none"/>
		<polyline points="599,598 599,581" style="stroke: black;stroke-width: 6;stroke-linecap:butt;stroke-linejoin:round" fill="none"/>
		<polyline points="805,598 805,581" style="stroke: black;stroke-width: 6;stroke-linecap:butt;stroke-linejoin:round" fill="none"/>
		<polyline points="1010,598 1010,581" style="stroke: black;stroke-width: 6;stroke-linecap:butt;stroke-linejoin:round" fill="none"/>
		<polyline points="1216,598 1216,581" style="stroke: black;stroke-width: 6;stroke-linecap:butt;stroke-linejoin:round" fill="none"/>
		<polyline points="1421,598 1421,581" style="stroke: black;stroke-width: 6;stroke-linecap:butt;stroke-linejoin:round" fill="none"/>
		<polyline points="240,598 240,126" style="stroke: black;stroke-width: 6;stroke-linecap:square;stroke-linejoin:round" fill="none"/>
		<polyline points="240,598 257,598" style="stroke: black;stroke-width: 6;stroke-linecap:butt;stroke-linejoin:round" fill="none"/>
		<polyline points="240,441 257,441" style="stroke: black;stroke-width: 6;stroke-linecap:butt;stroke-linejoin:round" fill="none"/>
		<polyline points="240,283 257,283" style="stroke: black;stroke-width: 6;stroke-linecap:butt;stroke-linejoin:round" fill="none"/>
		<polyline points="240,126 257,126" style="stroke: black;stroke-width: 6;stroke-linecap:butt;stroke-linejoin:round" fill="none"/>
		<polyline points="1421,598 1421,126" style="stroke: black;stroke-width: 6;stroke-linecap:square;stroke-linejoin:round" fill="none"/>
		<polyline points="1421,598 1404,598" style="stroke: black;stroke-width: 6;stroke-linecap:butt;stroke-linejoin:round" fill="none"/>
		<polyline points="1421,441 1404,441" style="stroke: black;stroke-width: 6;stroke-linecap:butt;stroke-linejoin:round" fill="none"/>
		<polyline points="1421,283 1404,283" style="stroke: black;stroke-width: 6;stroke-linecap:butt;stroke-linejoin:round" fill="none"/>
		<polyline points="1421,126 1404,126" style="stroke: black;stroke-width: 6;stroke-linecap:butt;stroke-linejoin:round" fill="none"/>
		<text x="377" dominant-baseline="auto" y="668" fill="black" font-family="Times New Roman,'MS PGothic',SimSun" font-size="67" font-weight="400">
			<tspan x="377" style="font-kerning:none">4</tspan>
		</text>
		<text x="582" dominant-baseline="auto" y="668" fill="black" font-family="Times New Roman,'MS PGothic',SimSun" font-size="67" font-weight="400">
			<tspan x="582" style="font-kerning:none">8</tspan>
		</text>
		<text x="771" dominant-baseline="auto" y="668" fill="black" font-family="Times New Roman,'MS PGothic',SimSun" font-size="67" font-weight="400">
			<tspan x="771" style="font-kerning:none">12</tspan>
		</text>
		<text x="976" dominant-baseline="auto" y="668" fill="black" font-family="Times New Roman,'MS PGothic',SimSun" font-size="67" font-weight="400">
			<tspan x="976" style="font-kerning:none">16</tspan>
		</text>
		<text x="1182" dominant-baseline="auto" y="668" fill="black" font-family="Times New Roman,'MS PGothic',SimSun" font-size="67" font-weight="400">
			<tspan x="1182" style="font-kerning:none">20</tspan>
		</text>
		<text x="1387" dominant-baseline="auto" y="668" fill="black" font-family="Times New Roman,'MS PGothic',SimSun" font-size="67" font-weight="400">
			<tspan x="1387" style="font-kerning:none">24</tspan>
		</text>
		<text x="119" dominant-baseline="auto" y="618" fill="black" font-family="Times New Roman,'MS PGothic',SimSun" font-size="67" font-weight="400">
			<tspan x="119" style="font-kerning:none">219</tspan>
		</text>
		<text x="119" dominant-baseline="auto" y="461" fill="black" font-family="Times New Roman,'MS PGothic',SimSun" font-size="67" font-weight="400">
			<tspan x="119" style="font-kerning:none">223</tspan>
		</text>
		<text x="119" dominant-baseline="auto" y="303" fill="black" font-family="Times New Roman,'MS PGothic',SimSun" font-size="67" font-weight="400">
			<tspan x="119" style="font-kerning:none">227</tspan>
		</text>
		<text x="119" dominant-baseline="auto" y="146" fill="black" font-family="Times New Roman,'MS PGothic',SimSun" font-size="67" font-weight="400">
			<tspan x="119" style="font-kerning:none">231</tspan>
		</text>
		<polyline points="92,860 244,860" style="stroke: #EE7733;stroke-width: 6;stroke-linecap:round;stroke-linejoin:round" fill="none"/>
		<text x="244" dominant-baseline="auto" y="882" fill="black" font-family="Times New Roman,'MS PGothic',SimSun" font-size="67" font-weight="400">
			<tspan x="244" style="white-space:pre;font-kerning:none" xml:space="preserve"> TLCBE </tspan>
		</text>
		<polyline points="488,860 524,860" style="stroke: #0077BB;stroke-width: 6;stroke-linecap:round;stroke-linejoin:round" fill="none"/>
		<polyline points="542,860 549,860" style="stroke: #0077BB;stroke-width: 6;stroke-linecap:round;stroke-linejoin:round" fill="none"/>
		<polyline points="568,860 604,860" style="stroke: #0077BB;stroke-width: 6;stroke-linecap:round;stroke-linejoin:round" fill="none"/>
		<polyline points="622,860 629,860" style="stroke: #0077BB;stroke-width: 6;stroke-linecap:round;stroke-linejoin:round" fill="none"/>
		<text x="640" dominant-baseline="auto" y="882" fill="black" font-family="Times New Roman,'MS PGothic',SimSun" font-size="67" font-weight="400">
			<tspan x="640" style="white-space:pre;font-kerning:none" xml:space="preserve"> TLNBE </tspan>
		</text>
		<polyline points="887,860 917,860" style="stroke: #A5A5A5;stroke-width: 6;stroke-linecap:round;stroke-linejoin:round" fill="none"/>
		<polyline points="951,860 981,860" style="stroke: #A5A5A5;stroke-width: 6;stroke-linecap:round;stroke-linejoin:round" fill="none"/>
		<polyline points="1015,860 1039,860" style="stroke: #A5A5A5;stroke-width: 6;stroke-linecap:round;stroke-linejoin:round" fill="none"/>
		<text x="1039" dominant-baseline="auto" y="882" fill="black" font-family="Times New Roman,'MS PGothic',SimSun" font-size="67" font-weight="400">
			<tspan x="1039" style="white-space:pre;font-kerning:none" xml:space="preserve">  Plant B Discharge</tspan>
		</text>
		<text x="596" dominant-baseline="auto" y="776" fill="black" font-family="Times New Roman,'MS PGothic',SimSun" font-size="67" font-weight="400">
			<tspan x="596" style="white-space:pre;font-kerning:none" xml:space="preserve">Time Period (h)</tspan>
		</text>
		<text x="0" dominant-baseline="auto" y="0" fill="black" font-family="Times New Roman,'MS PGothic',SimSun" font-size="67" font-weight="400" transform="matrix(-1.83698e-16 -1 0.999999 -1.83698e-16 63 633)">
			<tspan x="0" style="white-space:pre;font-kerning:none" xml:space="preserve">Tailwater Level (m)</tspan>
		</text>
		<text x="313" dominant-baseline="auto" y="995" fill="black" font-family="Times New Roman,'MS PGothic',SimSun" font-size="67" font-weight="400">
			<tspan x="313" style="white-space:pre;font-kerning:none" xml:space="preserve">(a) Refer to Plant A Turbined Discgarge</tspan>
		</text>
		<text x="1449" dominant-baseline="auto" y="618" fill="black" font-family="Times New Roman,'MS PGothic',SimSun" font-size="67" font-weight="400">
			<tspan x="1449" style="font-kerning:none">0</tspan>
		</text>
		<text x="1449" dominant-baseline="auto" y="524" fill="black" font-family="Times New Roman,'MS PGothic',SimSun" font-size="67" font-weight="400">
			<tspan x="1449" style="font-kerning:none">1000</tspan>
		</text>
		<text x="1449" dominant-baseline="auto" y="429" fill="black" font-family="Times New Roman,'MS PGothic',SimSun" font-size="67" font-weight="400">
			<tspan x="1449" style="font-kerning:none">2000</tspan>
		</text>
		<text x="1449" dominant-baseline="auto" y="335" fill="black" font-family="Times New Roman,'MS PGothic',SimSun" font-size="67" font-weight="400">
			<tspan x="1449" style="font-kerning:none">3000</tspan>
		</text>
		<text x="1449" dominant-baseline="auto" y="240" fill="black" font-family="Times New Roman,'MS PGothic',SimSun" font-size="67" font-weight="400">
			<tspan x="1449" style="font-kerning:none">4000</tspan>
		</text>
		<text x="1449" dominant-baseline="auto" y="146" fill="black" font-family="Times New Roman,'MS PGothic',SimSun" font-size="67" font-weight="400">
			<tspan x="1449" style="font-kerning:none">5000</tspan>
		</text>
		<text x="0" dominant-baseline="auto" y="0" fill="black" font-family="Times New Roman,'MS PGothic',SimSun" font-size="67" font-weight="400" transform="matrix(-1.83698e-16 -1 0.999999 -1.83698e-16 1667 721)">
			<tspan x="0" style="white-space:pre;font-kerning:none" xml:space="preserve">Turbined Dischagre </tspan>
		</text>
		<text x="0" dominant-baseline="auto" y="0" fill="black" font-family="Times New Roman,'MS PGothic',SimSun" font-size="67" font-weight="400" transform="matrix(-1.83698e-16 -1 0.999999 -1.83698e-16 1667 166)">
			<tspan x="0" style="font-kerning:none">(</tspan>
		</text>
		<text x="0" dominant-baseline="auto" y="0" fill="black" font-family="Times New Roman,'MS PGothic',SimSun" font-size="67" font-weight="400" transform="matrix(-1.83698e-16 -1 0.999999 -1.83698e-16 1667 144)">
			<tspan x="0" style="font-kerning:none">m</tspan>
		</text>
		<text x="0" dominant-baseline="auto" y="0" fill="black" font-family="Times New Roman,'MS PGothic',SimSun" font-size="46" font-weight="400" transform="matrix(-1.83698e-16 -1 0.999999 -1.83698e-16 1640 92)">
			<tspan x="0" style="font-kerning:none">3</tspan>
		</text>
		<text x="0" dominant-baseline="auto" y="0" fill="black" font-family="Times New Roman,'MS PGothic',SimSun" font-size="67" font-weight="400" transform="matrix(-1.83698e-16 -1 0.999999 -1.83698e-16 1667 69)">
			<tspan x="0" style="font-kerning:none">/s</tspan>
		</text>
		<text x="0" dominant-baseline="auto" y="0" fill="black" font-family="Times New Roman,'MS PGothic',SimSun" font-size="67" font-weight="400" transform="matrix(-1.83698e-16 -1 0.999999 -1.83698e-16 1667 24)">
			<tspan x="0" style="font-kerning:none">)</tspan>
		</text>
		<polyline points="2045,596 3226,596" style="stroke: black;stroke-width: 6;stroke-linecap:square;stroke-linejoin:round" fill="none"/>
		<polyline points="2199,596 2199,579" style="stroke: black;stroke-width: 6;stroke-linecap:butt;stroke-linejoin:round" fill="none"/>
		<polyline points="2404,596 2404,579" style="stroke: black;stroke-width: 6;stroke-linecap:butt;stroke-linejoin:round" fill="none"/>
		<polyline points="2610,596 2610,579" style="stroke: black;stroke-width: 6;stroke-linecap:butt;stroke-linejoin:round" fill="none"/>
		<polyline points="2815,596 2815,579" style="stroke: black;stroke-width: 6;stroke-linecap:butt;stroke-linejoin:round" fill="none"/>
		<polyline points="3021,596 3021,579" style="stroke: black;stroke-width: 6;stroke-linecap:butt;stroke-linejoin:round" fill="none"/>
		<polyline points="3226,596 3226,579" style="stroke: black;stroke-width: 6;stroke-linecap:butt;stroke-linejoin:round" fill="none"/>
		<polyline points="2045,596 2045,124" style="stroke: black;stroke-width: 6;stroke-linecap:square;stroke-linejoin:round" fill="none"/>
		<polyline points="2045,596 2062,596" style="stroke: black;stroke-width: 6;stroke-linecap:butt;stroke-linejoin:round" fill="none"/>
		<polyline points="2045,439 2062,439" style="stroke: black;stroke-width: 6;stroke-linecap:butt;stroke-linejoin:round" fill="none"/>
		<polyline points="2045,281 2062,281" style="stroke: black;stroke-width: 6;stroke-linecap:butt;stroke-linejoin:round" fill="none"/>
		<polyline points="2045,124 2062,124" style="stroke: black;stroke-width: 6;stroke-linecap:butt;stroke-linejoin:round" fill="none"/>
		<text x="2182" dominant-baseline="auto" y="666" fill="black" font-family="Times New Roman,'MS PGothic',SimSun" font-size="67" font-weight="400">
			<tspan x="2182" style="font-kerning:none">4</tspan>
		</text>
		<text x="2387" dominant-baseline="auto" y="666" fill="black" font-family="Times New Roman,'MS PGothic',SimSun" font-size="67" font-weight="400">
			<tspan x="2387" style="font-kerning:none">8</tspan>
		</text>
		<text x="2576" dominant-baseline="auto" y="666" fill="black" font-family="Times New Roman,'MS PGothic',SimSun" font-size="67" font-weight="400">
			<tspan x="2576" style="font-kerning:none">12</tspan>
		</text>
		<text x="2781" dominant-baseline="auto" y="666" fill="black" font-family="Times New Roman,'MS PGothic',SimSun" font-size="67" font-weight="400">
			<tspan x="2781" style="font-kerning:none">16</tspan>
		</text>
		<text x="2987" dominant-baseline="auto" y="666" fill="black" font-family="Times New Roman,'MS PGothic',SimSun" font-size="67" font-weight="400">
			<tspan x="2987" style="font-kerning:none">20</tspan>
		</text>
		<text x="3192" dominant-baseline="auto" y="666" fill="black" font-family="Times New Roman,'MS PGothic',SimSun" font-size="67" font-weight="400">
			<tspan x="3192" style="font-kerning:none">24</tspan>
		</text>
		<text x="1924" dominant-baseline="auto" y="616" fill="black" font-family="Times New Roman,'MS PGothic',SimSun" font-size="67" font-weight="400">
			<tspan x="1924" style="font-kerning:none">219</tspan>
		</text>
		<text x="1924" dominant-baseline="auto" y="459" fill="black" font-family="Times New Roman,'MS PGothic',SimSun" font-size="67" font-weight="400">
			<tspan x="1924" style="font-kerning:none">223</tspan>
		</text>
		<text x="1924" dominant-baseline="auto" y="301" fill="black" font-family="Times New Roman,'MS PGothic',SimSun" font-size="67" font-weight="400">
			<tspan x="1924" style="font-kerning:none">227</tspan>
		</text>
		<text x="1924" dominant-baseline="auto" y="144" fill="black" font-family="Times New Roman,'MS PGothic',SimSun" font-size="67" font-weight="400">
			<tspan x="1924" style="font-kerning:none">231</tspan>
		</text>
		<text x="0" dominant-baseline="auto" y="0" fill="black" font-family="Times New Roman,'MS PGothic',SimSun" font-size="67" font-weight="400" transform="matrix(-1.83698e-16 -1 0.999999 -1.83698e-16 1872 631)">
			<tspan x="0" style="white-space:pre;font-kerning:none" xml:space="preserve">Tailwater Level (m)</tspan>
		</text>
		<text x="2401" dominant-baseline="auto" y="778" fill="black" font-family="Times New Roman,'MS PGothic',SimSun" font-size="67" font-weight="400">
			<tspan x="2401" style="white-space:pre;font-kerning:none" xml:space="preserve">Time Period (h)</tspan>
		</text>
		<polyline points="1835,858 1987,858" style="stroke: #EE7733;stroke-width: 6;stroke-linecap:round;stroke-linejoin:round" fill="none"/>
		<text x="1987" dominant-baseline="auto" y="880" fill="black" font-family="Times New Roman,'MS PGothic',SimSun" font-size="67" font-weight="400">
			<tspan x="1987" style="white-space:pre;font-kerning:none" xml:space="preserve"> TLCBE </tspan>
		</text>
		<polyline points="2231,858 2267,858" style="stroke: #0077BB;stroke-width: 6;stroke-linecap:round;stroke-linejoin:round" fill="none"/>
		<polyline points="2285,858 2292,858" style="stroke: #0077BB;stroke-width: 6;stroke-linecap:round;stroke-linejoin:round" fill="none"/>
		<polyline points="2311,858 2347,858" style="stroke: #0077BB;stroke-width: 6;stroke-linecap:round;stroke-linejoin:round" fill="none"/>
		<polyline points="2365,858 2372,858" style="stroke: #0077BB;stroke-width: 6;stroke-linecap:round;stroke-linejoin:round" fill="none"/>
		<text x="2383" dominant-baseline="auto" y="880" fill="black" font-family="Times New Roman,'MS PGothic',SimSun" font-size="67" font-weight="400">
			<tspan x="2383" style="white-space:pre;font-kerning:none" xml:space="preserve"> TLNBE </tspan>
		</text>
		<polyline points="2630,858 2660,858" style="stroke: #A5A5A5;stroke-width: 6;stroke-linecap:round;stroke-linejoin:round" fill="none"/>
		<polyline points="2694,858 2724,858" style="stroke: #A5A5A5;stroke-width: 6;stroke-linecap:round;stroke-linejoin:round" fill="none"/>
		<polyline points="2758,858 2782,858" style="stroke: #A5A5A5;stroke-width: 6;stroke-linecap:round;stroke-linejoin:round" fill="none"/>
		<text x="2782" dominant-baseline="auto" y="880" fill="black" font-family="Times New Roman,'MS PGothic',SimSun" font-size="67" font-weight="400">
			<tspan x="2782" style="white-space:pre;font-kerning:none" xml:space="preserve">  Plant B Water Level</tspan>
		</text>
		<text x="2065" dominant-baseline="auto" y="1008" fill="black" font-family="Times New Roman,'MS PGothic',SimSun" font-size="67" font-weight="400">
			<tspan x="2065" style="white-space:pre;font-kerning:none" xml:space="preserve">(b) Refer to Plant B Forebay Water Level</tspan>
		</text>
	</svg>
</svg>

