<?xml version="1.0" encoding="UTF-8"?>
<svg id="uuid-dc5cd564-9264-460d-9703-bfbd248af407" data-name="图层 1" xmlns="http://www.w3.org/2000/svg" xmlns:xlink="http://www.w3.org/1999/xlink" viewBox="0 0 206.32539 142.1052">
  <defs>
    <clipPath id="uuid-5a4a9e5a-6028-4983-bc49-8f465c2056ac">
      <rect x="26.76625" y="2.6625" width="171.20321" height="98.57875" style="fill: none; stroke-width: 0px;"/>
    </clipPath>
    <clipPath id="uuid-22dfd131-bc2c-42e1-a660-bd5f0ae4cdb0">
      <rect x="26.76625" y="2.6625" width="171.20321" height="98.57875" style="fill: none; stroke-width: 0px;"/>
    </clipPath>
    <clipPath id="uuid-d31aa914-ca23-4567-8776-7d49ac813423">
      <rect x="26.76625" y="2.6625" width="171.20321" height="98.57875" style="fill: none; stroke-width: 0px;"/>
    </clipPath>
    <clipPath id="uuid-ac1e0f28-01eb-41a3-85df-558e4f350fdd">
      <rect x="26.76625" y="2.6625" width="171.20321" height="98.57875" style="fill: none; stroke-width: 0px;"/>
    </clipPath>
    <clipPath id="uuid-41f27220-dd4b-4236-9562-c77392fe6b28">
      <rect x="26.76625" y="2.6625" width="171.20321" height="98.57875" style="fill: none; stroke-width: 0px;"/>
    </clipPath>
    <clipPath id="uuid-18cc4ec8-8d38-46f0-a1e2-0ceb1fe2c4f8">
      <rect x="26.76625" y="2.6625" width="171.20321" height="98.57875" style="fill: none; stroke-width: 0px;"/>
    </clipPath>
    <clipPath id="uuid-3f4626a6-e705-491d-a361-18d8805f9001">
      <rect x="26.76625" y="2.6625" width="171.20321" height="98.57875" style="fill: none; stroke-width: 0px;"/>
    </clipPath>
    <clipPath id="uuid-64178e3a-4af3-4911-b802-7e8e4968cf3a">
      <rect x="26.76625" y="2.6625" width="171.20321" height="98.57875" style="fill: none; stroke-width: 0px;"/>
    </clipPath>
    <clipPath id="uuid-771d4202-a501-4a8b-8f1d-e9039e65ed9c">
      <rect x="26.76625" y="2.6625" width="171.20321" height="98.57875" style="fill: none; stroke-width: 0px;"/>
    </clipPath>
    <clipPath id="uuid-e1515db4-bf53-4899-877a-63ebb5a58e95">
      <rect x="26.76625" y="2.6625" width="171.20321" height="98.57875" style="fill: none; stroke-width: 0px;"/>
    </clipPath>
    <clipPath id="uuid-c795f16d-7f8a-4559-83bd-0fb347d52245">
      <rect x="26.76625" y="2.6625" width="171.20321" height="98.57875" style="fill: none; stroke-width: 0px;"/>
    </clipPath>
    <clipPath id="uuid-9d195053-5ead-4ed5-8d26-adc51fcfc681">
      <rect x="26.76625" y="2.6625" width="171.20321" height="98.57875" style="fill: none; stroke-width: 0px;"/>
    </clipPath>
    <clipPath id="uuid-cb828980-8079-4cbb-a8f8-c322420bbbf5">
      <rect x="26.76625" y="2.6625" width="171.20321" height="98.57875" style="fill: none; stroke-width: 0px;"/>
    </clipPath>
  </defs>
  <g id="uuid-de965192-6cfd-4906-aec5-5ba08bee9ea1" data-name="axes 1">
    <g id="uuid-e85f5ba7-683a-4ff3-a26b-6509436549fd" data-name="patch 2">
      <path d="m26.76625,101.24125h171.20321V2.6625H26.76625v98.57875Z" style="fill: none; stroke-width: 0px;"/>
    </g>
    <g id="uuid-7b729129-0791-4df7-a948-d751819a0dbb" data-name="line2d 1">
      <g style="clip-path: url(#uuid-5a4a9e5a-6028-4983-bc49-8f465c2056ac);">
        <path d="m26.76625,49.42467l60.97649,42.8728h0" style="fill: none; stroke: rgba(112, 128, 144, .6); stroke-dasharray: 0 0 2.775 1.2; stroke-linejoin: round; stroke-width: .75px;"/>
      </g>
    </g>
    <g id="uuid-6b393aa2-fd3d-4bb7-83c4-166c30198a33" data-name="line2d 2">
      <g style="clip-path: url(#uuid-22dfd131-bc2c-42e1-a660-bd5f0ae4cdb0);">
        <path d="m87.74274,92.29747L167.01217,13.21939h0" style="fill: none; stroke: rgba(112, 128, 144, .6); stroke-dasharray: 0 0 2.775 1.2; stroke-linejoin: round; stroke-width: .75px;"/>
      </g>
    </g>
    <g id="uuid-2de4842a-1158-413f-adac-b14483859939" data-name="line2d 3">
      <g style="clip-path: url(#uuid-d31aa914-ca23-4567-8776-7d49ac813423);">
        <path d="m167.01217,13.21939l.46904.54856.46906.54856.46906.54856.46904.54856.46906.54856.46906.54856.46904.54856.46906.54856.46904.54856.46906.54856.46906.54856.46904.54856.46906.54856.46906.54856.46904.54856.46906.54856.46906.54856.46904.54856.46906.54856.46906.54856.46904.54856.46906.54856.46906.54856.46904.54856.46906.54856.46906.54856.46904.54856.46906.54856.46906.54856.46904.54856.46906.54856.46904.54856.46906.54856.46906.54856.46904.54856.46906.54856.46906.54856.46904.54856.46906.54856.46906.54856.46904.54856.46906.54856.46906.54856.46904.54856.46906.54856.46906.54856.46904.54856.46906.54856.46906.54856.46904.54856.46906.54856.46906.54856.46904.54856.46906.54856.46906.54856.46904.54856.46906.54856.46904.54856.46906.54856.46906.54856.46904.54856.46906.54856.46906.54856.46904.54856.46906.54856.46906.54856" style="fill: none; stroke: rgba(112, 128, 144, .6); stroke-dasharray: 0 0 2.775 1.2; stroke-linejoin: round; stroke-width: .75px;"/>
      </g>
    </g>
    <g id="uuid-f4673751-9bac-4927-b658-5213e2cb634c" data-name="line2d 4">
      <g style="clip-path: url(#uuid-ac1e0f28-01eb-41a3-85df-558e4f350fdd);">
        <path d="m87.74274,101.24125v-8.94378" style="fill: none; stroke: rgba(222, 184, 135, .4); stroke-dasharray: 0 0 2.775 1.2; stroke-linejoin: round; stroke-width: .75px;"/>
      </g>
    </g>
    <g id="uuid-fdcec5c9-084d-4689-8867-f64e272f38ee" data-name="line2d 5">
      <g style="clip-path: url(#uuid-41f27220-dd4b-4236-9562-c77392fe6b28);">
        <path d="m167.01217,101.24125V13.21939" style="fill: none; stroke: rgba(222, 184, 135, .4); stroke-dasharray: 0 0 2.775 1.2; stroke-linejoin: round; stroke-width: .75px;"/>
      </g>
    </g>
    <g id="uuid-a63cc7b4-fc6f-49ba-bad7-c3bb9fa72a29" data-name="PolyCollection 1">
      <g style="clip-path: url(#uuid-18cc4ec8-8d38-46f0-a1e2-0ceb1fe2c4f8);">
        <path id="uuid-5ba6c7d1-0fd5-42db-9ff4-25d833810ef4" data-name="m052d3f0559" d="m26.76625,2.6625v98.57874h60.97649V2.6625H26.76625Z" style="fill: rgba(255, 253, 189, .3); stroke-width: 0px;"/>
      </g>
    </g>
    <g id="uuid-17d845b6-f7c1-4f5a-82c7-2575d386ca29" data-name="PolyCollection 2">
      <g style="clip-path: url(#uuid-3f4626a6-e705-491d-a361-18d8805f9001);">
        <path id="uuid-e256680b-ba33-4cd8-937a-a2460e27d975" data-name="ma39ca9bef0" d="m87.74274,2.6625v98.57874h79.26943V2.6625h-79.26943Z" style="fill: rgba(188, 233, 255, .3); stroke-width: 0px;"/>
      </g>
    </g>
    <g id="uuid-0a9f6f08-3d40-4c31-80d3-840ddf2996e0" data-name="PolyCollection 3">
      <g style="clip-path: url(#uuid-64178e3a-4af3-4911-b802-7e8e4968cf3a);">
        <path id="uuid-75aaf0ef-bcde-4582-9170-94f6e296d795" data-name="m7bce9d4031" d="m167.01217,2.6625v98.57874h30.95729V2.6625h-30.95729Z" style="fill: rgba(189, 255, 198, .3); stroke-width: 0px;"/>
      </g>
    </g>
    <g id="uuid-b9736391-6894-4556-af10-d8ad6ab2457a" data-name="matplotlib.axis 1">
      <g id="uuid-121c05be-8a72-48e1-99bf-b012931b9c34" data-name="xtick 1">
        <g id="uuid-3c274c74-a45f-4a33-b362-53969bdbf90e" data-name="line2d 6">
          <path id="uuid-b665b1dd-4fa0-4104-902c-664666cb91e7" data-name="mc79f6b305d" d="m26.76625,101.24125v-3" style="stroke: #000; stroke-linejoin: round; stroke-width: .5px;"/>
        </g>
        <g id="uuid-6e47ad93-b5dd-4c9b-888e-08a8c23466d5" data-name="text 1">
          <g>
            <path id="uuid-269df34d-eba3-479a-9e06-83d1e04b783e" data-name="TimesNewRomanPSMT-30" d="m17.72312,107.67875c0-.60417.09125-1.12417.27375-1.56.1825-.43667.42458-.76167.72625-.975.235-.16917.4775-.25375.7275-.25375.40583,0,.77042.20708,1.09375.62125.40333.5125.605,1.20792.605,2.08625,0,.61417-.08875,1.13625-.26625,1.56625-.17667.42917-.4025.74083-.6775.935-.27417.19417-.53917.29125-.795.29125-.505,0-.92542-.29833-1.26125-.895-.28417-.5025-.42625-1.10792-.42625-1.81625Zm.76625.0975c0,.72917.08958,1.32417.26875,1.785.14917.38833.37083.5825.665.5825.14,0,.28542-.06292.43625-.18875.15167-.12667.26667-.33833.345-.635.11917-.44833.17875-1.08.17875-1.895,0-.60417-.0625-1.10792-.1875-1.51125-.09333-.3-.21417-.5125-.3625-.6375-.10667-.08583-.23583-.12875-.3875-.12875-.17667,0-.33417.07958-.4725.23875-.1875.21583-.315.55583-.3825,1.02-.0675.46333-.10125.92-.10125,1.37Z" style="stroke-width: 0px;"/>
            <path id="uuid-a3920f35-d797-4453-9666-72c0c549e87e" data-name="TimesNewRomanPSMT-31" d="m22.37187,105.51875l1.28875-.62875h.12875v4.4725c0,.29667.0125.48167.0375.555.025.0725.07625.12833.15375.1675.07833.03917.2375.06125.4775.06625v.145h-1.9925v-.145c.25-.005.41125-.02625.48375-.06375.07333-.03833.12417-.08917.1525-.1525.02917-.06417.04375-.255.04375-.5725v-2.85875c0-.38583-.01292-.63333-.03875-.7425-.01833-.08333-.05167-.14458-.1-.18375s-.10625-.05875-.17375-.05875c-.09667,0-.23083.04042-.4025.12125l-.05875-.12125Z" style="stroke-width: 0px;"/>
            <path id="uuid-204669d8-2d3a-472f-b7a6-58edd314a234" data-name="TimesNewRomanPSMT-2d" d="m25.75812,108.20625h2.02v.59h-2.02v-.59Z" style="stroke-width: 0px;"/>
            <path id="uuid-fc0e5202-439a-45fa-b146-1e703aff87ff" data-name="TimesNewRomanPSMT-30" d="m28.38719,107.67875c0-.60417.09125-1.12417.27375-1.56.1825-.43667.42458-.76167.72625-.975.235-.16917.4775-.25375.7275-.25375.40583,0,.77042.20708,1.09375.62125.40333.5125.605,1.20792.605,2.08625,0,.61417-.08875,1.13625-.26625,1.56625-.17667.42917-.4025.74083-.6775.935-.27417.19417-.53917.29125-.795.29125-.505,0-.92542-.29833-1.26125-.895-.28417-.5025-.42625-1.10792-.42625-1.81625Zm.76625.0975c0,.72917.08958,1.32417.26875,1.785.14917.38833.37083.5825.665.5825.14,0,.28542-.06292.43625-.18875.15167-.12667.26667-.33833.345-.635.11917-.44833.17875-1.08.17875-1.895,0-.60417-.0625-1.10792-.1875-1.51125-.09333-.3-.21417-.5125-.3625-.6375-.10667-.08583-.23583-.12875-.3875-.12875-.17667,0-.33417.07958-.4725.23875-.1875.21583-.315.55583-.3825,1.02-.0675.46333-.10125.92-.10125,1.37Z" style="stroke-width: 0px;"/>
            <path id="uuid-e34f49f1-5c58-4d0a-8fdd-6e0439c71d19" data-name="TimesNewRomanPSMT-31" d="m33.03594,105.51875l1.28875-.62875h.12875v4.4725c0,.29667.0125.48167.0375.555.025.0725.07625.12833.15375.1675.07833.03917.2375.06125.4775.06625v.145h-1.9925v-.145c.25-.005.41125-.02625.48375-.06375.07333-.03833.12417-.08917.1525-.1525.02917-.06417.04375-.255.04375-.5725v-2.85875c0-.38583-.01292-.63333-.03875-.7425-.01833-.08333-.05167-.14458-.1-.18375s-.10625-.05875-.17375-.05875c-.09667,0-.23083.04042-.4025.12125l-.05875-.12125Z" style="stroke-width: 0px;"/>
          </g>
        </g>
      </g>
      <g id="uuid-33a60659-9f0c-474e-a350-928ef83df249" data-name="xtick 2">
        <g id="uuid-64ee9244-776b-40ce-89f6-4c6468555dc6" data-name="line2d 7">
          <path id="uuid-aa525c90-3de8-4cbb-b260-fdd7a76f1cd1" data-name="mc79f6b305d" d="m69.44979,101.24125v-3" style="stroke: #000; stroke-linejoin: round; stroke-width: .5px;"/>
        </g>
        <g id="uuid-72dd026e-3b03-465c-93d9-a47e33d2b780" data-name="text 2">
          <g>
            <path id="uuid-a8cbc741-1d79-4a25-a481-5cafe2d3bc52" data-name="TimesNewRomanPSMT-30" d="m60.40666,107.67875c0-.60417.09125-1.12417.27375-1.56.1825-.43667.42458-.76167.72625-.975.235-.16917.4775-.25375.7275-.25375.40583,0,.77042.20708,1.09375.62125.40333.5125.605,1.20792.605,2.08625,0,.61417-.08875,1.13625-.26625,1.56625-.17667.42917-.4025.74083-.6775.935-.27417.19417-.53917.29125-.795.29125-.505,0-.92542-.29833-1.26125-.895-.28417-.5025-.42625-1.10792-.42625-1.81625Zm.76625.0975c0,.72917.08958,1.32417.26875,1.785.14917.38833.37083.5825.665.5825.14,0,.28542-.06292.43625-.18875.15167-.12667.26667-.33833.345-.635.11917-.44833.17875-1.08.17875-1.895,0-.60417-.0625-1.10792-.1875-1.51125-.09333-.3-.21417-.5125-.3625-.6375-.10667-.08583-.23583-.12875-.3875-.12875-.17667,0-.33417.07958-.4725.23875-.1875.21583-.315.55583-.3825,1.02-.0675.46333-.10125.92-.10125,1.37Z" style="stroke-width: 0px;"/>
            <path id="uuid-8830694e-9c53-45cd-9d33-4723a78f70ae" data-name="TimesNewRomanPSMT-34" d="m67.84041,108.3425v.555h-.71125v1.39875h-.64375v-1.39875h-2.2425v-.5l2.4575-3.5075h.42875v3.4525h.71125Zm-1.355,0v-2.62875l-1.86,2.62875h1.86Z" style="stroke-width: 0px;"/>
            <path id="uuid-691702a3-e78b-401b-9f42-eabdae1c8f46" data-name="TimesNewRomanPSMT-2d" d="m68.44166,108.20625h2.02v.59h-2.02v-.59Z" style="stroke-width: 0px;"/>
            <path id="uuid-18dbe36a-0e6e-4a9c-8ada-2ccbefbb96c2" data-name="TimesNewRomanPSMT-30" d="m71.07073,107.67875c0-.60417.09125-1.12417.27375-1.56.1825-.43667.42458-.76167.72625-.975.235-.16917.4775-.25375.7275-.25375.40583,0,.77042.20708,1.09375.62125.40333.5125.605,1.20792.605,2.08625,0,.61417-.08875,1.13625-.26625,1.56625-.17667.42917-.4025.74083-.6775.935-.27417.19417-.53917.29125-.795.29125-.505,0-.92542-.29833-1.26125-.895-.28417-.5025-.42625-1.10792-.42625-1.81625Zm.76625.0975c0,.72917.08958,1.32417.26875,1.785.14917.38833.37083.5825.665.5825.14,0,.28542-.06292.43625-.18875.15167-.12667.26667-.33833.345-.635.11917-.44833.17875-1.08.17875-1.895,0-.60417-.0625-1.10792-.1875-1.51125-.09333-.3-.21417-.5125-.3625-.6375-.10667-.08583-.23583-.12875-.3875-.12875-.17667,0-.33417.07958-.4725.23875-.1875.21583-.315.55583-.3825,1.02-.0675.46333-.10125.92-.10125,1.37Z" style="stroke-width: 0px;"/>
            <path id="uuid-f7910acd-1c51-4de3-97e0-e9503edcce7b" data-name="TimesNewRomanPSMT-31" d="m75.71948,105.51875l1.28875-.62875h.12875v4.4725c0,.29667.0125.48167.0375.555.025.0725.07625.12833.15375.1675.07833.03917.2375.06125.4775.06625v.145h-1.9925v-.145c.25-.005.41125-.02625.48375-.06375.07333-.03833.12417-.08917.1525-.1525.02917-.06417.04375-.255.04375-.5725v-2.85875c0-.38583-.01292-.63333-.03875-.7425-.01833-.08333-.05167-.14458-.1-.18375s-.10625-.05875-.17375-.05875c-.09667,0-.23083.04042-.4025.12125l-.05875-.12125Z" style="stroke-width: 0px;"/>
          </g>
        </g>
      </g>
      <g id="uuid-ae41c946-a649-47b7-b91a-cad64388ffa9" data-name="xtick 3">
        <g id="uuid-e4767150-a32e-4d79-966e-a1e497270be2" data-name="line2d 8">
          <path id="uuid-1082439f-49af-47a9-b054-7c77f012571e" data-name="mc79f6b305d" d="m112.13333,101.24125v-3" style="stroke: #000; stroke-linejoin: round; stroke-width: .5px;"/>
        </g>
        <g id="uuid-53f26535-4ac7-4915-ae92-368b915248ce" data-name="text 3">
          <g>
            <path id="uuid-780b8104-8b06-44ed-a19c-d1f8d29718fb" data-name="TimesNewRomanPSMT-30" d="m103.0902,107.67875c0-.60417.09125-1.12417.27375-1.56.1825-.43667.42458-.76167.72625-.975.235-.16917.4775-.25375.7275-.25375.40583,0,.77042.20708,1.09375.62125.40333.5125.605,1.20792.605,2.08625,0,.61417-.08875,1.13625-.26625,1.56625-.17667.42917-.4025.74083-.6775.935-.27417.19417-.53917.29125-.795.29125-.505,0-.92542-.29833-1.26125-.895-.28417-.5025-.42625-1.10792-.42625-1.81625Zm.76625.0975c0,.72917.08958,1.32417.26875,1.785.14917.38833.37083.5825.665.5825.14,0,.28542-.06292.43625-.18875.15167-.12667.26667-.33833.345-.635.11917-.44833.17875-1.08.17875-1.895,0-.60417-.0625-1.10792-.1875-1.51125-.09333-.3-.21417-.5125-.3625-.6375-.10667-.08583-.23583-.12875-.3875-.12875-.17667,0-.33417.07958-.4725.23875-.1875.21583-.315.55583-.3825,1.02-.0675.46333-.10125.92-.10125,1.37Z" style="stroke-width: 0px;"/>
            <path id="uuid-a57de66d-53ba-4d96-904c-0657a25c6bf4" data-name="TimesNewRomanPSMT-37" d="m107.60645,104.99875h2.84v.14875l-1.76625,5.25875h-.4375l1.5825-4.77h-1.4575c-.29417,0-.50375.035-.62875.105-.21833.12-.39417.305-.5275.555l-.1125-.0425.5075-1.255Z" style="stroke-width: 0px;"/>
            <path id="uuid-6f46f9e2-b0ba-40de-9336-70d381904aeb" data-name="TimesNewRomanPSMT-2d" d="m111.1252,108.20625h2.02v.59h-2.02v-.59Z" style="stroke-width: 0px;"/>
            <path id="uuid-46827665-7a46-4382-91a5-86c81d5b07f3" data-name="TimesNewRomanPSMT-30" d="m113.75426,107.67875c0-.60417.09125-1.12417.27375-1.56.1825-.43667.42458-.76167.72625-.975.235-.16917.4775-.25375.7275-.25375.40583,0,.77042.20708,1.09375.62125.40333.5125.605,1.20792.605,2.08625,0,.61417-.08875,1.13625-.26625,1.56625-.17667.42917-.4025.74083-.6775.935-.27417.19417-.53917.29125-.795.29125-.505,0-.92542-.29833-1.26125-.895-.28417-.5025-.42625-1.10792-.42625-1.81625Zm.76625.0975c0,.72917.08958,1.32417.26875,1.785.14917.38833.37083.5825.665.5825.14,0,.28542-.06292.43625-.18875.15167-.12667.26667-.33833.345-.635.11917-.44833.17875-1.08.17875-1.895,0-.60417-.0625-1.10792-.1875-1.51125-.09333-.3-.21417-.5125-.3625-.6375-.10667-.08583-.23583-.12875-.3875-.12875-.17667,0-.33417.07958-.4725.23875-.1875.21583-.315.55583-.3825,1.02-.0675.46333-.10125.92-.10125,1.37Z" style="stroke-width: 0px;"/>
            <path id="uuid-1e528002-aa4d-4b11-98c3-7cc72bd0c830" data-name="TimesNewRomanPSMT-31" d="m118.40301,105.51875l1.28875-.62875h.12875v4.4725c0,.29667.0125.48167.0375.555.025.0725.07625.12833.15375.1675.07833.03917.2375.06125.4775.06625v.145h-1.9925v-.145c.25-.005.41125-.02625.48375-.06375.07333-.03833.12417-.08917.1525-.1525.02917-.06417.04375-.255.04375-.5725v-2.85875c0-.38583-.01292-.63333-.03875-.7425-.01833-.08333-.05167-.14458-.1-.18375s-.10625-.05875-.17375-.05875c-.09667,0-.23083.04042-.4025.12125l-.05875-.12125Z" style="stroke-width: 0px;"/>
          </g>
        </g>
      </g>
      <g id="uuid-3f629e30-4d7c-4a4a-91e0-e191a97ae89b" data-name="xtick 4">
        <g id="uuid-62a2b59a-42d0-477d-9233-6e048f74c568" data-name="line2d 9">
          <path id="uuid-84bf054b-6539-4bb6-af86-9892aaeff11e" data-name="mc79f6b305d" d="m155.28591,101.24125v-3" style="stroke: #000; stroke-linejoin: round; stroke-width: .5px;"/>
        </g>
        <g id="uuid-cbb90052-aca9-4a64-9431-155b423d93b1" data-name="text 4">
          <g>
            <path id="uuid-b7463e3a-768e-4eb4-9157-fb2f8ba485ed" data-name="TimesNewRomanPSMT-31" d="m146.89155,105.51875l1.28875-.62875h.12875v4.4725c0,.29667.0125.48167.0375.555.025.0725.07625.12833.15375.1675.07833.03917.2375.06125.4775.06625v.145h-1.9925v-.145c.25-.005.41125-.02625.48375-.06375.07333-.03833.12417-.08917.1525-.1525.02917-.06417.04375-.255.04375-.5725v-2.85875c0-.38583-.01292-.63333-.03875-.7425-.01833-.08333-.05167-.14458-.1-.18375s-.10625-.05875-.17375-.05875c-.09667,0-.23083.04042-.4025.12125l-.05875-.12125Z" style="stroke-width: 0px;"/>
            <path id="uuid-f3ef3b25-1973-4307-a125-9ead882ccdaf" data-name="TimesNewRomanPSMT-30" d="m150.2428,107.67875c0-.60417.09125-1.12417.27375-1.56.1825-.43667.42458-.76167.72625-.975.235-.16917.4775-.25375.7275-.25375.40583,0,.77042.20708,1.09375.62125.40333.5125.605,1.20792.605,2.08625,0,.61417-.08875,1.13625-.26625,1.56625-.17667.42917-.4025.74083-.6775.935-.27417.19417-.53917.29125-.795.29125-.505,0-.92542-.29833-1.26125-.895-.28417-.5025-.42625-1.10792-.42625-1.81625Zm.76625.0975c0,.72917.08958,1.32417.26875,1.785.14917.38833.37083.5825.665.5825.14,0,.28542-.06292.43625-.18875.15167-.12667.26667-.33833.345-.635.11917-.44833.17875-1.08.17875-1.895,0-.60417-.0625-1.10792-.1875-1.51125-.09333-.3-.21417-.5125-.3625-.6375-.10667-.08583-.23583-.12875-.3875-.12875-.17667,0-.33417.07958-.4725.23875-.1875.21583-.315.55583-.3825,1.02-.0675.46333-.10125.92-.10125,1.37Z" style="stroke-width: 0px;"/>
            <path id="uuid-ad77f667-758a-40da-b916-91860215d3a3" data-name="TimesNewRomanPSMT-2d" d="m154.2778,108.20625h2.02v.59h-2.02v-.59Z" style="stroke-width: 0px;"/>
            <path id="uuid-67d246e7-38de-4e81-a8a9-8de466cf9981" data-name="TimesNewRomanPSMT-30" d="m156.90686,107.67875c0-.60417.09125-1.12417.27375-1.56.1825-.43667.42458-.76167.72625-.975.235-.16917.4775-.25375.7275-.25375.40583,0,.77042.20708,1.09375.62125.40333.5125.605,1.20792.605,2.08625,0,.61417-.08875,1.13625-.26625,1.56625-.17667.42917-.4025.74083-.6775.935-.27417.19417-.53917.29125-.795.29125-.505,0-.92542-.29833-1.26125-.895-.28417-.5025-.42625-1.10792-.42625-1.81625Zm.76625.0975c0,.72917.08958,1.32417.26875,1.785.14917.38833.37083.5825.665.5825.14,0,.28542-.06292.43625-.18875.15167-.12667.26667-.33833.345-.635.11917-.44833.17875-1.08.17875-1.895,0-.60417-.0625-1.10792-.1875-1.51125-.09333-.3-.21417-.5125-.3625-.6375-.10667-.08583-.23583-.12875-.3875-.12875-.17667,0-.33417.07958-.4725.23875-.1875.21583-.315.55583-.3825,1.02-.0675.46333-.10125.92-.10125,1.37Z" style="stroke-width: 0px;"/>
            <path id="uuid-1fdc20dd-1740-4618-81f6-a694945162fd" data-name="TimesNewRomanPSMT-31" d="m161.55561,105.51875l1.28875-.62875h.12875v4.4725c0,.29667.0125.48167.0375.555.025.0725.07625.12833.15375.1675.07833.03917.2375.06125.4775.06625v.145h-1.9925v-.145c.25-.005.41125-.02625.48375-.06375.07333-.03833.12417-.08917.1525-.1525.02917-.06417.04375-.255.04375-.5725v-2.85875c0-.38583-.01292-.63333-.03875-.7425-.01833-.08333-.05167-.14458-.1-.18375s-.10625-.05875-.17375-.05875c-.09667,0-.23083.04042-.4025.12125l-.05875-.12125Z" style="stroke-width: 0px;"/>
          </g>
        </g>
      </g>
      <g id="uuid-693136f5-0a30-4e6f-b3fa-086c286a0967" data-name="xtick 5">
        <g id="uuid-097c6357-9e82-47fe-87e4-6404ae5d74a1" data-name="line2d 10">
          <path id="uuid-006254a5-18cc-47e8-accf-0af9f7b3a676" data-name="mc79f6b305d" d="m197.96946,101.24125v-3" style="stroke: #000; stroke-linejoin: round; stroke-width: .5px;"/>
        </g>
        <g id="uuid-e4bca553-9b6f-4fe5-9404-647b6185a73f" data-name="text 5">
          <g>
            <path id="uuid-7299d883-1289-4975-a2f1-c45ac142a958" data-name="TimesNewRomanPSMT-31" d="m189.57508,105.51875l1.28875-.62875h.12875v4.4725c0,.29667.0125.48167.0375.555.025.0725.07625.12833.15375.1675.07833.03917.2375.06125.4775.06625v.145h-1.9925v-.145c.25-.005.41125-.02625.48375-.06375.07333-.03833.12417-.08917.1525-.1525.02917-.06417.04375-.255.04375-.5725v-2.85875c0-.38583-.01292-.63333-.03875-.7425-.01833-.08333-.05167-.14458-.1-.18375s-.10625-.05875-.17375-.05875c-.09667,0-.23083.04042-.4025.12125l-.05875-.12125Z" style="stroke-width: 0px;"/>
            <path id="uuid-293d6b64-56e0-4760-b384-5db17fffaabb" data-name="TimesNewRomanPSMT-32" d="m196.30508,109.27625l-.37,1.02h-3.125v-.145c.91917-.83833,1.56625-1.52292,1.94125-2.05375.375-.53167.5625-1.0175.5625-1.4575,0-.33583-.10292-.61167-.30875-.8275-.20583-.21667-.45208-.325-.73875-.325-.26,0-.49375.07625-.70125.22875-.20667.1525-.35958.37583-.45875.67h-.145c.06583-.48167.23333-.85125.5025-1.10875.26917-.25833.60583-.3875,1.01-.3875.42917,0,.7875.13792,1.075.41375.28833.27583.4325.60125.4325.97625,0,.26833-.0625.53667-.1875.805-.1925.42167-.505.86833-.9375,1.34-.64833.70833-1.05333,1.13542-1.215,1.28125h1.3825c.28167,0,.47917-.01042.5925-.03125.11333-.02083.21542-.06292.30625-.12625.09167-.06417.17125-.155.23875-.2725h.14375Z" style="stroke-width: 0px;"/>
            <path id="uuid-92756db5-409c-4c97-9189-012f713180e7" data-name="TimesNewRomanPSMT-2d" d="m196.96133,108.20625h2.02v.59h-2.02v-.59Z" style="stroke-width: 0px;"/>
            <path id="uuid-9852c3a6-0dce-4867-b5e4-3c8dbcdfe32f" data-name="TimesNewRomanPSMT-33" d="m199.70789,106.0075c.15083-.35667.34125-.63208.57125-.82625.23083-.19417.51833-.29125.8625-.29125.42417,0,.74958.13792.97625.41375.17167.20583.2575.42583.2575.66,0,.38583-.24208.78458-.72625,1.19625.32583.1275.57208.30958.73875.54625.16667.23667.25.51542.25.83625,0,.45833-.14583.85542-.4375,1.19125-.38.4375-.93083.65625-1.6525.65625-.35667,0-.59958-.04417-.72875-.1325-.12917-.08917-.19375-.18417-.19375-.285,0-.07583.03042-.1425.09125-.2.06167-.0575.13542-.08625.22125-.08625.06583,0,.1325.01042.2.03125.04417.01333.14417.06125.3.14375.15667.08167.265.13042.325.14625.09583.02833.19875.0425.30875.0425.265,0,.49583-.10292.6925-.30875.19667-.20583.295-.44917.295-.73,0-.20583-.04542-.40625-.13625-.60125-.0675-.14583-.14167-.25667-.2225-.3325-.1125-.10417-.26625-.19833-.46125-.2825-.195-.085-.39417-.1275-.5975-.1275h-.125v-.1175c.20583-.02583.41208-.1.61875-.2225.2075-.1225.35792-.26958.45125-.44125.09417-.17167.14125-.36042.14125-.56625,0-.26833-.08417-.485-.2525-.65-.1675-.16583-.37625-.24875-.62625-.24875-.40417,0-.74167.21625-1.0125.64875l-.12875-.0625Z" style="stroke-width: 0px;"/>
            <path id="uuid-587c240e-de0a-4eac-a386-83f79cddcdb7" data-name="TimesNewRomanPSMT-31" d="m204.23914,105.51875l1.28875-.62875h.12875v4.4725c0,.29667.0125.48167.0375.555.025.0725.07625.12833.15375.1675.07833.03917.2375.06125.4775.06625v.145h-1.9925v-.145c.25-.005.41125-.02625.48375-.06375.07333-.03833.12417-.08917.1525-.1525.02917-.06417.04375-.255.04375-.5725v-2.85875c0-.38583-.01292-.63333-.03875-.7425-.01833-.08333-.05167-.14458-.1-.18375s-.10625-.05875-.17375-.05875c-.09667,0-.23083.04042-.4025.12125l-.05875-.12125Z" style="stroke-width: 0px;"/>
          </g>
        </g>
      </g>
      <g id="uuid-5ea06912-ea8d-45d9-ba3c-5e0c718f77d7" data-name="text 6">
        <g>
          <path id="uuid-5238a670-4826-48bc-aa01-24b0e24f4f7a" data-name="TimesNewRomanPSMT-44" d="m104.95285,121.5625v-.145h.2c.22417,0,.38292-.07167.47625-.215.0575-.08583.08625-.27833.08625-.5775v-3.4225c0-.33-.03667-.53667-.11-.62-.10167-.115-.2525-.1725-.4525-.1725h-.2v-.145h2.15625c.79167,0,1.39375.09,1.80625.27.41333.18.74542.47958.99625.89875.25167.41917.3775.90333.3775,1.4525,0,.7375-.22375,1.35333-.67125,1.8475-.5025.5525-1.26833.82875-2.2975.82875h-2.3675Zm1.5125-.3825c.33083.0725.60792.10875.83125.10875.60417,0,1.10542-.21208,1.50375-.63625.39917-.425.59875-1.00042.59875-1.72625,0-.7325-.19958-1.30958-.59875-1.73125-.39833-.42167-.91-.6325-1.535-.6325-.23417,0-.50083.03792-.8.11375v4.50375Z" style="stroke-width: 0px;"/>
          <path id="uuid-165b44a1-d7c1-443f-b846-4fac3513ad2a" data-name="TimesNewRomanPSMT-61" d="m112.87145,121.04625c-.3675.28417-.59792.44833-.69125.4925-.14083.065-.29083.0975-.45.0975-.24667,0-.45042-.08458-.61125-.25375-.16-.16917-.24-.39167-.24-.6675,0-.175.03917-.32625.1175-.45375.10667-.17667.29208-.34292.55625-.49875.26417-.15667.70375-.34708,1.31875-.57125v-.14c0-.3575-.05667-.6025-.17-.735s-.27792-.19875-.49375-.19875c-.16417,0-.29458.04417-.39125.1325-.09917.08833-.14875.19-.14875.305l.00875.22625c0,.12-.03083.2125-.0925.2775-.06083.065-.14083.0975-.24.0975-.09667,0-.17542-.03375-.23625-.10125-.06083-.06833-.09125-.16083-.09125-.2775,0-.22417.11458-.43.34375-.6175.22917-.1875.55042-.28125.96375-.28125.31833,0,.57875.05333.78125.16.15417.08083.2675.20708.34.37875.0475.1125.07125.34167.07125.6875v1.215c0,.34167.00625.55083.01875.6275.01333.07667.035.12792.065.15375s.06458.03875.10375.03875c.04167,0,.07792-.00875.10875-.02625.055-.03417.16042-.12958.31625-.28625v.21875c-.29167.39083-.57042.58625-.83625.58625-.1275,0-.22917-.04417-.305-.1325-.075-.08833-.11375-.23958-.11625-.45375Zm0-.25375v-1.3625c-.39333.15583-.64708.26625-.76125.33125-.20583.115-.35333.235-.4425.36-.08833.125-.1325.26167-.1325.41,0,.1875.05583.34333.1675.4675.1125.12333.24167.185.3875.185.1975,0,.45792-.13042.78125-.39125Z" style="stroke-width: 0px;"/>
          <path id="uuid-a11d0137-8ab6-4474-80ea-c153a0b22fe8" data-name="TimesNewRomanPSMT-74" d="m115.43348,116.80875v1.175h.83625v.27375h-.83625v2.32c0,.2325.03333.38917.1.47.06667.08.15208.12.25625.12.08583,0,.16917-.02667.25-.08s.14333-.13208.1875-.23625h.1525c-.09167.255-.22083.44708-.3875.57625-.16667.12917-.33833.19375-.515.19375-.12,0-.2375-.03333-.3525-.1-.11417-.06667-.19875-.16167-.25375-.285-.05417-.12333-.08125-.31417-.08125-.5725v-2.40625h-.56625v-.12875c.1425-.0575.28875-.15458.43875-.29125s.28333-.29875.4-.48625c.06-.09917.14333-.28.25-.5425h.12125Z" style="stroke-width: 0px;"/>
          <path id="uuid-3c8a14d0-36c9-4f15-8b6c-bab84fba5118" data-name="TimesNewRomanPSMT-65" d="m117.21863,119.3325c-.0025.53083.12667.9475.3875,1.25.26.30167.56583.4525.9175.4525.23417,0,.43792-.06417.61125-.1925.17333-.12917.31875-.35.43625-.6625l.12.0775c-.05417.35667-.21292.68167-.47625.975-.2625.29333-.59167.44-.9875.44-.43,0-.79792-.1675-1.10375-.5025-.30583-.335-.45875-.785-.45875-1.35,0-.61167.15667-1.08875.47-1.43125.31417-.3425.70792-.51375,1.18125-.51375.40167,0,.73125.13208.98875.39625s.38625.61792.38625,1.06125h-2.4725Zm0-.2275h1.65625c-.0125-.22917-.03958-.39042-.08125-.48375-.065-.14583-.16208-.26042-.29125-.34375s-.26417-.125-.405-.125c-.21583,0-.40917.08417-.58.2525-.17.1675-.26958.40083-.29875.7Z" style="stroke-width: 0px;"/>
        </g>
      </g>
    </g>
    <g id="uuid-cf6e23ce-397e-4b21-9b86-46550026e17a" data-name="matplotlib.axis 2">
      <g id="uuid-6bda2c6e-da69-4c65-ade7-fb7bc3439b75" data-name="ytick 1">
        <g id="uuid-2443709a-6822-4ef4-80d7-88a5129d2942" data-name="line2d 11">
          <path id="uuid-df18f01d-7c11-41e0-a762-dff88e02305c" data-name="m36890c2c5d" d="m26.76625,92.27954h3" style="stroke: #000; stroke-linejoin: round; stroke-width: .5px;"/>
        </g>
        <g id="uuid-e8ab6500-a475-494e-8800-2ec6c758a60c" data-name="text 7">
          <g>
            <path id="uuid-7f5584d2-53dd-489e-b3fd-2cbaae8cbae1" data-name="TimesNewRomanPSMT-33" d="m11.6725,90.73454c.15083-.35667.34125-.63208.57125-.82625.23083-.19417.51833-.29125.8625-.29125.42417,0,.74958.13792.97625.41375.17167.20583.2575.42583.2575.66,0,.38583-.24208.78458-.72625,1.19625.32583.1275.57208.30958.73875.54625.16667.23667.25.51542.25.83625,0,.45833-.14583.85542-.4375,1.19125-.38.4375-.93083.65625-1.6525.65625-.35667,0-.59958-.04417-.72875-.1325-.12917-.08917-.19375-.18417-.19375-.285,0-.07583.03042-.1425.09125-.2.06167-.0575.13542-.08625.22125-.08625.06583,0,.1325.01042.2.03125.04417.01333.14417.06125.3.14375.15667.08167.265.13042.325.14625.09583.02833.19875.0425.30875.0425.265,0,.49583-.10292.6925-.30875.19667-.20583.295-.44917.295-.73,0-.20583-.04542-.40625-.13625-.60125-.0675-.14583-.14167-.25667-.2225-.3325-.1125-.10417-.26625-.19833-.46125-.2825-.195-.085-.39417-.1275-.5975-.1275h-.125v-.1175c.20583-.02583.41208-.1.61875-.2225.2075-.1225.35792-.26958.45125-.44125.09417-.17167.14125-.36042.14125-.56625,0-.26833-.08417-.485-.2525-.65-.1675-.16583-.37625-.24875-.62625-.24875-.40417,0-.74167.21625-1.0125.64875l-.12875-.0625Z" style="stroke-width: 0px;"/>
            <path id="uuid-7ba41a9b-88db-4d0d-a1be-a0280f09cc1f" data-name="TimesNewRomanPSMT-33" d="m15.6725,90.73454c.15083-.35667.34125-.63208.57125-.82625.23083-.19417.51833-.29125.8625-.29125.42417,0,.74958.13792.97625.41375.17167.20583.2575.42583.2575.66,0,.38583-.24208.78458-.72625,1.19625.32583.1275.57208.30958.73875.54625.16667.23667.25.51542.25.83625,0,.45833-.14583.85542-.4375,1.19125-.38.4375-.93083.65625-1.6525.65625-.35667,0-.59958-.04417-.72875-.1325-.12917-.08917-.19375-.18417-.19375-.285,0-.07583.03042-.1425.09125-.2.06167-.0575.13542-.08625.22125-.08625.06583,0,.1325.01042.2.03125.04417.01333.14417.06125.3.14375.15667.08167.265.13042.325.14625.09583.02833.19875.0425.30875.0425.265,0,.49583-.10292.6925-.30875.19667-.20583.295-.44917.295-.73,0-.20583-.04542-.40625-.13625-.60125-.0675-.14583-.14167-.25667-.2225-.3325-.1125-.10417-.26625-.19833-.46125-.2825-.195-.085-.39417-.1275-.5975-.1275h-.125v-.1175c.20583-.02583.41208-.1.61875-.2225.2075-.1225.35792-.26958.45125-.44125.09417-.17167.14125-.36042.14125-.56625,0-.26833-.08417-.485-.2525-.65-.1675-.16583-.37625-.24875-.62625-.24875-.40417,0-.74167.21625-1.0125.64875l-.12875-.0625Z" style="stroke-width: 0px;"/>
            <path id="uuid-9b8b9a5f-131b-42a8-8121-a3d4f2454ed9" data-name="TimesNewRomanPSMT-30" d="m19.555,92.40579c0-.60417.09125-1.12417.27375-1.56.1825-.43667.42458-.76167.72625-.975.235-.16917.4775-.25375.7275-.25375.40583,0,.77042.20708,1.09375.62125.40333.5125.605,1.20792.605,2.08625,0,.61417-.08875,1.13625-.26625,1.56625-.17667.42917-.4025.74083-.6775.935-.27417.19417-.53917.29125-.795.29125-.505,0-.92542-.29833-1.26125-.895-.28417-.5025-.42625-1.10792-.42625-1.81625Zm.76625.0975c0,.72917.08958,1.32417.26875,1.785.14917.38833.37083.5825.665.5825.14,0,.28542-.06292.43625-.18875.15167-.12667.26667-.33833.345-.635.11917-.44833.17875-1.08.17875-1.895,0-.60417-.0625-1.10792-.1875-1.51125-.09333-.3-.21417-.5125-.3625-.6375-.10667-.08583-.23583-.12875-.3875-.12875-.17667,0-.33417.07958-.4725.23875-.1875.21583-.315.55583-.3825,1.02-.0675.46333-.10125.92-.10125,1.37Z" style="stroke-width: 0px;"/>
          </g>
        </g>
      </g>
      <g id="uuid-46809d09-8196-4a22-83d9-742a44d68c1b" data-name="ytick 2">
        <g id="uuid-b3ffeb02-bcb6-4aeb-a9ba-564abc3ad34a" data-name="line2d 12">
          <path id="uuid-b3d5d417-c49a-4dc9-bc00-eecd324e9bd0" data-name="m36890c2c5d" d="m26.76625,74.35614h3" style="stroke: #000; stroke-linejoin: round; stroke-width: .5px;"/>
        </g>
        <g id="uuid-3dc57c0d-c0e0-40cb-9c48-ecbc44db015a" data-name="text 8">
          <g>
            <path id="uuid-c0c8f3fb-2c49-45ac-a3a4-0accd45eb4d9" data-name="TimesNewRomanPSMT-33" d="m11.6725,72.81113c.15083-.35667.34125-.63208.57125-.82625.23083-.19417.51833-.29125.8625-.29125.42417,0,.74958.13792.97625.41375.17167.20583.2575.42583.2575.66,0,.38583-.24208.78458-.72625,1.19625.32583.1275.57208.30958.73875.54625.16667.23667.25.51542.25.83625,0,.45833-.14583.85542-.4375,1.19125-.38.4375-.93083.65625-1.6525.65625-.35667,0-.59958-.04417-.72875-.1325-.12917-.08917-.19375-.18417-.19375-.285,0-.07583.03042-.1425.09125-.2.06167-.0575.13542-.08625.22125-.08625.06583,0,.1325.01042.2.03125.04417.01333.14417.06125.3.14375.15667.08167.265.13042.325.14625.09583.02833.19875.0425.30875.0425.265,0,.49583-.10292.6925-.30875.19667-.20583.295-.44917.295-.73,0-.20583-.04542-.40625-.13625-.60125-.0675-.14583-.14167-.25667-.2225-.3325-.1125-.10417-.26625-.19833-.46125-.2825-.195-.085-.39417-.1275-.5975-.1275h-.125v-.1175c.20583-.02583.41208-.1.61875-.2225.2075-.1225.35792-.26958.45125-.44125.09417-.17167.14125-.36042.14125-.56625,0-.26833-.08417-.485-.2525-.65-.1675-.16583-.37625-.24875-.62625-.24875-.40417,0-.74167.21625-1.0125.64875l-.12875-.0625Z" style="stroke-width: 0px;"/>
            <path id="uuid-6e16c3db-9c83-4785-864e-c96c197738f2" data-name="TimesNewRomanPSMT-34" d="m18.98875,75.14613v.555h-.71125v1.39875h-.64375v-1.39875h-2.2425v-.5l2.4575-3.5075h.42875v3.4525h.71125Zm-1.355,0v-2.62875l-1.86,2.62875h1.86Z" style="stroke-width: 0px;"/>
            <path id="uuid-2d645204-595f-462c-bcab-7ddfda3f3e51" data-name="TimesNewRomanPSMT-30" d="m19.555,74.48238c0-.60417.09125-1.12417.27375-1.56.1825-.43667.42458-.76167.72625-.975.235-.16917.4775-.25375.7275-.25375.40583,0,.77042.20708,1.09375.62125.40333.5125.605,1.20792.605,2.08625,0,.61417-.08875,1.13625-.26625,1.56625-.17667.42917-.4025.74083-.6775.935-.27417.19417-.53917.29125-.795.29125-.505,0-.92542-.29833-1.26125-.895-.28417-.5025-.42625-1.10792-.42625-1.81625Zm.76625.0975c0,.72917.08958,1.32417.26875,1.785.14917.38833.37083.5825.665.5825.14,0,.28542-.06292.43625-.18875.15167-.12667.26667-.33833.345-.635.11917-.44833.17875-1.08.17875-1.895,0-.60417-.0625-1.10792-.1875-1.51125-.09333-.3-.21417-.5125-.3625-.6375-.10667-.08583-.23583-.12875-.3875-.12875-.17667,0-.33417.07958-.4725.23875-.1875.21583-.315.55583-.3825,1.02-.0675.46333-.10125.92-.10125,1.37Z" style="stroke-width: 0px;"/>
          </g>
        </g>
      </g>
      <g id="uuid-2f08f8b5-68af-4e28-9a11-be0c17c9fef5" data-name="ytick 3">
        <g id="uuid-49346c1d-d2d1-49cf-bcdf-45bb6f1b7a3a" data-name="line2d 13">
          <path id="uuid-4624e637-2577-4c23-843b-12c7f42a11cb" data-name="m36890c2c5d" d="m26.76625,56.43272h3" style="stroke: #000; stroke-linejoin: round; stroke-width: .5px;"/>
        </g>
        <g id="uuid-ee052b01-ee53-4381-b1e0-b342b4929194" data-name="text 9">
          <g>
            <path id="uuid-de301b49-1e1b-423c-9fd5-d7f7cf67d403" data-name="TimesNewRomanPSMT-33" d="m11.6725,54.88772c.15083-.35667.34125-.63208.57125-.82625.23083-.19417.51833-.29125.8625-.29125.42417,0,.74958.13792.97625.41375.17167.20583.2575.42583.2575.66,0,.38583-.24208.78458-.72625,1.19625.32583.1275.57208.30958.73875.54625.16667.23667.25.51542.25.83625,0,.45833-.14583.85542-.4375,1.19125-.38.4375-.93083.65625-1.6525.65625-.35667,0-.59958-.04417-.72875-.1325-.12917-.08917-.19375-.18417-.19375-.285,0-.07583.03042-.1425.09125-.2.06167-.0575.13542-.08625.22125-.08625.06583,0,.1325.01042.2.03125.04417.01333.14417.06125.3.14375.15667.08167.265.13042.325.14625.09583.02833.19875.0425.30875.0425.265,0,.49583-.10292.6925-.30875.19667-.20583.295-.44917.295-.73,0-.20583-.04542-.40625-.13625-.60125-.0675-.14583-.14167-.25667-.2225-.3325-.1125-.10417-.26625-.19833-.46125-.2825-.195-.085-.39417-.1275-.5975-.1275h-.125v-.1175c.20583-.02583.41208-.1.61875-.2225.2075-.1225.35792-.26958.45125-.44125.09417-.17167.14125-.36042.14125-.56625,0-.26833-.08417-.485-.2525-.65-.1675-.16583-.37625-.24875-.62625-.24875-.40417,0-.74167.21625-1.0125.64875l-.12875-.0625Z" style="stroke-width: 0px;"/>
            <path id="uuid-a6a6beda-17ae-40ae-8397-8968f0f8696a" data-name="TimesNewRomanPSMT-35" d="m18.73875,53.87897l-.305.665h-1.59375l-.3475.71c.69.10167,1.23708.35833,1.64125.77.34583.35417.51875.77083.51875,1.25,0,.27833-.05667.53625-.17.77375-.1125.23667-.255.43833-.4275.605-.17167.16667-.36292.30083-.57375.4025-.29917.14333-.60667.215-.9225.215-.3175,0-.54875-.05375-.69375-.16125-.14417-.10833-.21625-.22792-.21625-.35875,0-.0725.03-.13667.09-.1925.06-.05667.13542-.085.22625-.085.06833,0,.12792.01042.17875.03125s.13708.07458.25875.16125c.19583.135.39375.2025.59375.2025.305,0,.5725-.115.8025-.345.23083-.23083.34625-.51167.34625-.8425,0-.32-.10292-.61875-.30875-.89625-.20583-.2775-.48958-.49167-.85125-.6425-.28417-.1175-.67083-.18542-1.16-.20375l1.015-2.05875h1.89875Z" style="stroke-width: 0px;"/>
            <path id="uuid-4c587282-968b-461a-ac2d-be63a32b2263" data-name="TimesNewRomanPSMT-30" d="m19.555,56.55897c0-.60417.09125-1.12417.27375-1.56.1825-.43667.42458-.76167.72625-.975.235-.16917.4775-.25375.7275-.25375.40583,0,.77042.20708,1.09375.62125.40333.5125.605,1.20792.605,2.08625,0,.61417-.08875,1.13625-.26625,1.56625-.17667.42917-.4025.74083-.6775.935-.27417.19417-.53917.29125-.795.29125-.505,0-.92542-.29833-1.26125-.895-.28417-.5025-.42625-1.10792-.42625-1.81625Zm.76625.0975c0,.72917.08958,1.32417.26875,1.785.14917.38833.37083.5825.665.5825.14,0,.28542-.06292.43625-.18875.15167-.12667.26667-.33833.345-.635.11917-.44833.17875-1.08.17875-1.895,0-.60417-.0625-1.10792-.1875-1.51125-.09333-.3-.21417-.5125-.3625-.6375-.10667-.08583-.23583-.12875-.3875-.12875-.17667,0-.33417.07958-.4725.23875-.1875.21583-.315.55583-.3825,1.02-.0675.46333-.10125.92-.10125,1.37Z" style="stroke-width: 0px;"/>
          </g>
        </g>
      </g>
      <g id="uuid-943dc7d5-5df1-4cc0-827d-c99f1931be19" data-name="ytick 4">
        <g id="uuid-b28cfbef-51ba-45cd-a133-86e6f0e04d82" data-name="line2d 14">
          <path id="uuid-8c1e2c41-d52c-4e06-a40b-32e75636de3d" data-name="m36890c2c5d" d="m26.76625,38.50932h3" style="stroke: #000; stroke-linejoin: round; stroke-width: .5px;"/>
        </g>
        <g id="uuid-f84df6e5-aa9f-4c2c-801e-351980a9208a" data-name="text 10">
          <g>
            <path id="uuid-b37e1670-a5e5-42c5-a13a-aee72f22a39b" data-name="TimesNewRomanPSMT-33" d="m11.6725,36.96432c.15083-.35667.34125-.63208.57125-.82625.23083-.19417.51833-.29125.8625-.29125.42417,0,.74958.13792.97625.41375.17167.20583.2575.42583.2575.66,0,.38583-.24208.78458-.72625,1.19625.32583.1275.57208.30958.73875.54625.16667.23667.25.51542.25.83625,0,.45833-.14583.85542-.4375,1.19125-.38.4375-.93083.65625-1.6525.65625-.35667,0-.59958-.04417-.72875-.1325-.12917-.08917-.19375-.18417-.19375-.285,0-.07583.03042-.1425.09125-.2.06167-.0575.13542-.08625.22125-.08625.06583,0,.1325.01042.2.03125.04417.01333.14417.06125.3.14375.15667.08167.265.13042.325.14625.09583.02833.19875.0425.30875.0425.265,0,.49583-.10292.6925-.30875.19667-.20583.295-.44917.295-.73,0-.20583-.04542-.40625-.13625-.60125-.0675-.14583-.14167-.25667-.2225-.3325-.1125-.10417-.26625-.19833-.46125-.2825-.195-.085-.39417-.1275-.5975-.1275h-.125v-.1175c.20583-.02583.41208-.1.61875-.2225.2075-.1225.35792-.26958.45125-.44125.09417-.17167.14125-.36042.14125-.56625,0-.26833-.08417-.485-.2525-.65-.1675-.16583-.37625-.24875-.62625-.24875-.40417,0-.74167.21625-1.0125.64875l-.12875-.0625Z" style="stroke-width: 0px;"/>
            <path id="uuid-933584ae-f16d-4d09-86e2-b1b9e20a35f6" data-name="TimesNewRomanPSMT-36" d="m18.8525,35.84682v.145c-.34417.03333-.625.10167-.8425.205-.2175.1025-.4325.25917-.645.47-.21167.21083-.38708.44583-.52625.705s-.25583.56708-.35.92375c.375-.2575.75125-.38625,1.12875-.38625.3625,0,.67625.14583.94125.4375.26583.29167.39875.66667.39875,1.125,0,.4425-.13417.84625-.4025,1.21125-.3225.4425-.74958.66375-1.28125.66375-.36167,0-.66875-.12-.92125-.36-.495-.46583-.7425-1.07-.7425-1.8125,0-.47333.095-.92333.285-1.35.19-.4275.46125-.80667.81375-1.1375.35333-.33083.69125-.55333,1.01375-.6675.32333-.115.62458-.1725.90375-.1725h.22625Zm-2.43,2.73375c-.04667.35167-.07.63583-.07.8525,0,.25.04625.52167.13875.815.0925.2925.22958.52458.41125.69625.13333.1225.295.18375.485.18375.22667,0,.42917-.10667.6075-.32.17833-.21417.2675-.51917.2675-.915,0-.445-.08875-.83-.26625-1.155-.17667-.32583-.42792-.48875-.75375-.48875-.09833,0-.20417.02083-.3175.0625s-.28083.13125-.5025.26875Z" style="stroke-width: 0px;"/>
            <path id="uuid-a41c7dae-63f6-4627-bacb-0aa85021474a" data-name="TimesNewRomanPSMT-30" d="m19.555,38.63557c0-.60417.09125-1.12417.27375-1.56.1825-.43667.42458-.76167.72625-.975.235-.16917.4775-.25375.7275-.25375.40583,0,.77042.20708,1.09375.62125.40333.5125.605,1.20792.605,2.08625,0,.61417-.08875,1.13625-.26625,1.56625-.17667.42917-.4025.74083-.6775.935-.27417.19417-.53917.29125-.795.29125-.505,0-.92542-.29833-1.26125-.895-.28417-.5025-.42625-1.10792-.42625-1.81625Zm.76625.0975c0,.72917.08958,1.32417.26875,1.785.14917.38833.37083.5825.665.5825.14,0,.28542-.06292.43625-.18875.15167-.12667.26667-.33833.345-.635.11917-.44833.17875-1.08.17875-1.895,0-.60417-.0625-1.10792-.1875-1.51125-.09333-.3-.21417-.5125-.3625-.6375-.10667-.08583-.23583-.12875-.3875-.12875-.17667,0-.33417.07958-.4725.23875-.1875.21583-.315.55583-.3825,1.02-.0675.46333-.10125.92-.10125,1.37Z" style="stroke-width: 0px;"/>
          </g>
        </g>
      </g>
      <g id="uuid-b605ed35-bb03-4fdb-a1bc-de3f2bb8787b" data-name="ytick 5">
        <g id="uuid-f9c92a37-3d63-40a2-8405-d3b7130ff75c" data-name="line2d 15">
          <path id="uuid-64f209be-1c06-406b-8467-c86e7e854034" data-name="m36890c2c5d" d="m26.76625,20.58591h3" style="stroke: #000; stroke-linejoin: round; stroke-width: .5px;"/>
        </g>
        <g id="uuid-911bcd16-0968-40b8-aa64-7ac5d2175a7c" data-name="text 11">
          <g>
            <path id="uuid-72b87312-ff6f-4ae7-81b2-84f254e6e985" data-name="TimesNewRomanPSMT-33" d="m11.6725,19.04091c.15083-.35667.34125-.63208.57125-.82625.23083-.19417.51833-.29125.8625-.29125.42417,0,.74958.13792.97625.41375.17167.20583.2575.42583.2575.66,0,.38583-.24208.78458-.72625,1.19625.32583.1275.57208.30958.73875.54625.16667.23667.25.51542.25.83625,0,.45833-.14583.85542-.4375,1.19125-.38.4375-.93083.65625-1.6525.65625-.35667,0-.59958-.04417-.72875-.1325-.12917-.08917-.19375-.18417-.19375-.285,0-.07583.03042-.1425.09125-.2.06167-.0575.13542-.08625.22125-.08625.06583,0,.1325.01042.2.03125.04417.01333.14417.06125.3.14375.15667.08167.265.13042.325.14625.09583.02833.19875.0425.30875.0425.265,0,.49583-.10292.6925-.30875.19667-.20583.295-.44917.295-.73,0-.20583-.04542-.40625-.13625-.60125-.0675-.14583-.14167-.25667-.2225-.3325-.1125-.10417-.26625-.19833-.46125-.2825-.195-.085-.39417-.1275-.5975-.1275h-.125v-.1175c.20583-.02583.41208-.1.61875-.2225.2075-.1225.35792-.26958.45125-.44125.09417-.17167.14125-.36042.14125-.56625,0-.26833-.08417-.485-.2525-.65-.1675-.16583-.37625-.24875-.62625-.24875-.40417,0-.74167.21625-1.0125.64875l-.12875-.0625Z" style="stroke-width: 0px;"/>
            <path id="uuid-c3944549-d667-4ec6-bce9-e8489ab33ae4" data-name="TimesNewRomanPSMT-37" d="m16.07125,18.03216h2.84v.14875l-1.76625,5.25875h-.4375l1.5825-4.77h-1.4575c-.29417,0-.50375.035-.62875.105-.21833.12-.39417.305-.5275.555l-.1125-.0425.5075-1.255Z" style="stroke-width: 0px;"/>
            <path id="uuid-d4c4514c-02bb-4045-862e-7f860139e6b3" data-name="TimesNewRomanPSMT-30" d="m19.555,20.71216c0-.60417.09125-1.12417.27375-1.56.1825-.43667.42458-.76167.72625-.975.235-.16917.4775-.25375.7275-.25375.40583,0,.77042.20708,1.09375.62125.40333.5125.605,1.20792.605,2.08625,0,.61417-.08875,1.13625-.26625,1.56625-.17667.42917-.4025.74083-.6775.935-.27417.19417-.53917.29125-.795.29125-.505,0-.92542-.29833-1.26125-.895-.28417-.5025-.42625-1.10792-.42625-1.81625Zm.76625.0975c0,.72917.08958,1.32417.26875,1.785.14917.38833.37083.5825.665.5825.14,0,.28542-.06292.43625-.18875.15167-.12667.26667-.33833.345-.635.11917-.44833.17875-1.08.17875-1.895,0-.60417-.0625-1.10792-.1875-1.51125-.09333-.3-.21417-.5125-.3625-.6375-.10667-.08583-.23583-.12875-.3875-.12875-.17667,0-.33417.07958-.4725.23875-.1875.21583-.315.55583-.3825,1.02-.0675.46333-.10125.92-.10125,1.37Z" style="stroke-width: 0px;"/>
          </g>
        </g>
      </g>
      <g id="uuid-3f62675d-af17-4b59-9616-dd44f30a1510" data-name="ytick 6">
        <g id="uuid-7966ef52-7f80-4405-9ba8-0f40e9c6bba5" data-name="line2d 16">
          <path id="uuid-283f4fde-5e5a-4160-8f3a-80f0dfdaba44" data-name="m36890c2c5d" d="m26.76625,2.6625h3" style="stroke: #000; stroke-linejoin: round; stroke-width: .5px;"/>
        </g>
        <g id="uuid-8afe8ee5-0db8-4e5a-a73c-9a9840c23926" data-name="text 12">
          <g>
            <path id="uuid-86ac0986-12e8-4c08-8b4c-72cc789c6339" data-name="TimesNewRomanPSMT-33" d="m11.6725,1.1175c.15083-.35667.34125-.63208.57125-.82625.23083-.19417.51833-.29125.8625-.29125.42417,0,.74958.13792.97625.41375.17167.20583.2575.42583.2575.66,0,.38583-.24208.78458-.72625,1.19625.32583.1275.57208.30958.73875.54625.16667.23667.25.51542.25.83625,0,.45833-.14583.85542-.4375,1.19125-.38.4375-.93083.65625-1.6525.65625-.35667,0-.59958-.04417-.72875-.1325-.12917-.08917-.19375-.18417-.19375-.285,0-.07583.03042-.1425.09125-.2.06167-.0575.13542-.08625.22125-.08625.06583,0,.1325.01042.2.03125.04417.01333.14417.06125.3.14375.15667.08167.265.13042.325.14625.09583.02833.19875.0425.30875.0425.265,0,.49583-.10292.6925-.30875.19667-.20583.295-.44917.295-.73,0-.20583-.04542-.40625-.13625-.60125-.0675-.14583-.14167-.25667-.2225-.3325-.1125-.10417-.26625-.19833-.46125-.2825-.195-.085-.39417-.1275-.5975-.1275h-.125v-.1175c.20583-.02583.41208-.1.61875-.2225.2075-.1225.35792-.26958.45125-.44125.09417-.17167.14125-.36042.14125-.56625,0-.26833-.08417-.485-.2525-.65-.1675-.16583-.37625-.24875-.62625-.24875-.40417,0-.74167.21625-1.0125.64875l-.12875-.0625Z" style="stroke-width: 0px;"/>
            <path id="uuid-3f454865-45f1-4216-b049-a50b945ae62f" data-name="TimesNewRomanPSMT-38" d="m16.80125,2.73875c-.41917-.34417-.68958-.62042-.81125-.82875-.12083-.20833-.18125-.42458-.18125-.64875,0-.34333.13292-.63917.39875-.8875.26583-.24917.61875-.37375,1.05875-.37375.4275,0,.77125.11583,1.03125.3475.26083.23167.39125.49583.39125.7925,0,.19833-.07042.40042-.21125.60625s-.43375.44792-.87875.72625c.45833.35417.76167.63292.91.83625.1975.26583.29625.54583.29625.84,0,.3725-.14208.69083-.42625.955-.28333.26417-.65542.39625-1.11625.39625-.5025,0-.89458-.1575-1.17625-.4725-.22333-.2525-.335-.52875-.335-.82875,0-.23417.07875-.46625.23625-.69625.1575-.23083.42875-.48542.81375-.76375Zm.61375-.41875c.3125-.28083.51042-.5025.59375-.665.08333-.16333.125-.34792.125-.55375,0-.27333-.07708-.4875-.23125-.6425-.15333-.155-.36292-.2325-.62875-.2325-.265,0-.48083.07708-.6475.23125-.16667.15333-.25.33292-.25.53875,0,.135.03417.27042.1025.40625.06917.135.1675.26375.295.38625l.64125.53125Zm-.43.56625c-.21583.1825-.37583.38125-.48.59625-.10417.215-.15625.4475-.15625.6975,0,.33583.09167.60458.275.80625.18333.20167.41708.3025.70125.3025.28083,0,.50583-.07917.675-.2375.17-.15917.255-.35208.255-.57875,0-.1875-.04958-.35542-.14875-.50375-.185-.27583-.55875-.63667-1.12125-1.0825Z" style="stroke-width: 0px;"/>
            <path id="uuid-bfb71b9f-cd33-4865-97de-e1fefb353a18" data-name="TimesNewRomanPSMT-30" d="m19.555,2.78875c0-.60417.09125-1.12417.27375-1.56.1825-.43667.42458-.76167.72625-.975.235-.16917.4775-.25375.7275-.25375.40583,0,.77042.20708,1.09375.62125.40333.5125.605,1.20792.605,2.08625,0,.61417-.08875,1.13625-.26625,1.56625-.17667.42917-.4025.74083-.6775.935-.27417.19417-.53917.29125-.795.29125-.505,0-.92542-.29833-1.26125-.895-.28417-.5025-.42625-1.10792-.42625-1.81625Zm.76625.0975c0,.72917.08958,1.32417.26875,1.785.14917.38833.37083.5825.665.5825.14,0,.28542-.06292.43625-.18875.15167-.12667.26667-.33833.345-.635.11917-.44833.17875-1.08.17875-1.895,0-.60417-.0625-1.10792-.1875-1.51125-.09333-.3-.21417-.5125-.3625-.6375-.10667-.08583-.23583-.12875-.3875-.12875-.17667,0-.33417.07958-.4725.23875-.1875.21583-.315.55583-.3825,1.02-.0675.46333-.10125.92-.10125,1.37Z" style="stroke-width: 0px;"/>
          </g>
        </g>
      </g>
      <g id="uuid-ff23f303-3357-47fe-99d4-e18e089e742b" data-name="text 13">
        <g>
          <path id="uuid-be0a9f14-7f29-4108-865c-aacd48be5523" data-name="TimesNewRomanPSMT-57" d="m.2575,70.79375h.145c0,.13833.025.25042.075.33625.04917.08583.14125.16792.27625.24625.09167.05167.30917.13375.6525.24625l4.27,1.47625v.15625l-3.3875,1.2075,3.3875,1.19875v.14125l-4.39875,1.57375c-.32833.1175-.5225.19167-.5825.2225-.09833.0525-.17167.12375-.22.21375-.04833.08917-.0725.21083-.0725.365h-.145v-1.96125h.145v.09375c0,.1375.03125.24292.09375.31625.0625.0725.13792.10875.22625.10875.09167,0,.30125-.05708.62875-.17125l2.97375-1.0425-2.5275-.88-.44625.15625-.355.125c-.13.055-.24458.11625-.34375.18375-.04917.03417-.09083.07583-.125.125-.04667.065-.08042.13042-.10125.19625-.01583.04917-.02375.12708-.02375.23375h-.145v-2.0625h.145v.14125c0,.14583.03125.2525.09375.32s.14708.10125.25375.10125c.13333,0,.365-.05875.695-.17625l2.88-1.015-2.91875-1.0075c-.3225-.115-.54625-.1725-.67125-.1725-.06,0-.11583.01917-.1675.0575-.0525.0375-.08917.085-.11.1425-.03667.09833-.055.22708-.055.38625h-.145v-1.5825Z" style="stroke-width: 0px;"/>
          <path id="uuid-785097a5-d76a-4894-9a46-608ab6c1850a" data-name="TimesNewRomanPSMT-61" d="m5.03875,69.09422c.28417.3675.44833.59792.4925.69125.065.14083.0975.29083.0975.45,0,.24667-.08458.45042-.25375.61125-.16917.16-.39167.24-.6675.24-.175,0-.32625-.03917-.45375-.1175-.17667-.10667-.34292-.29208-.49875-.55625-.15667-.26417-.34708-.70375-.57125-1.31875h-.14c-.3575,0-.6025.05667-.735.17s-.19875.27792-.19875.49375c0,.16417.04417.29458.1325.39125.08833.09917.19.14875.305.14875l.22625-.00875c.12,0,.2125.03083.2775.0925.065.06083.0975.14083.0975.24,0,.09667-.03375.17542-.10125.23625-.06833.06083-.16083.09125-.2775.09125-.22417,0-.43-.11458-.6175-.34375-.1875-.22917-.28125-.55042-.28125-.96375,0-.31833.05333-.57875.16-.78125.08083-.15417.20708-.2675.37875-.34.1125-.0475.34167-.07125.6875-.07125h1.215c.34167,0,.55083-.00625.6275-.01875.07667-.01333.12792-.035.15375-.065s.03875-.06458.03875-.10375c0-.04167-.00875-.07792-.02625-.10875-.03417-.055-.12958-.16042-.28625-.31625h.21875c.39083.29167.58625.57042.58625.83625,0,.1275-.04417.22917-.1325.305-.08833.075-.23958.11375-.45375.11625Zm-.25375,0h-1.3625c.15583.39333.26625.64708.33125.76125.115.20583.235.35333.36.4425.125.08833.26167.1325.41.1325.1875,0,.34333-.05583.4675-.1675.12333-.1125.185-.24167.185-.3875,0-.1975-.13042-.45792-.39125-.78125Z" style="stroke-width: 0px;"/>
          <path id="uuid-c3faa15a-5079-470f-b2da-49a9f0cae7d4" data-name="TimesNewRomanPSMT-74" d="m.80125,66.53219h1.175v-.83625h.27375v.83625h2.32c.2325,0,.38917-.03333.47-.1.08-.06667.12-.15208.12-.25625,0-.08583-.02667-.16917-.08-.25s-.13208-.14333-.23625-.1875v-.1525c.255.09167.44708.22083.57625.3875.12917.16667.19375.33833.19375.515,0,.12-.03333.2375-.1.3525-.06667.11417-.16167.19875-.285.25375-.12333.05417-.31417.08125-.5725.08125h-2.40625v.56625h-.12875c-.0575-.1425-.15458-.28875-.29125-.43875s-.29875-.28333-.48625-.4c-.09917-.06-.28-.14333-.5425-.25v-.12125Z" style="stroke-width: 0px;"/>
          <path id="uuid-c9e1bcac-eecb-4315-8c9b-a07c09099d58" data-name="TimesNewRomanPSMT-65" d="m3.325,64.74703c.53083.0025.9475-.12667,1.25-.3875.30167-.26.4525-.56583.4525-.9175,0-.23417-.06417-.43792-.1925-.61125-.12917-.17333-.35-.31875-.6625-.43625l.0775-.12c.35667.05417.68167.21292.975.47625.29333.2625.44.59167.44.9875,0,.43-.1675.79792-.5025,1.10375-.335.30583-.785.45875-1.35.45875-.61167,0-1.08875-.15667-1.43125-.47-.3425-.31417-.51375-.70792-.51375-1.18125,0-.40167.13208-.73125.39625-.98875s.61792-.38625,1.06125-.38625v2.4725Zm-.2275,0v-1.65625c-.22917.0125-.39042.03958-.48375.08125-.14583.065-.26042.16208-.34375.29125s-.125.26417-.125.405c0,.21583.08417.40917.2525.58.1675.17.40083.26958.7.29875Z" style="stroke-width: 0px;"/>
          <path id="uuid-77278fa7-5b06-442a-92d5-326522330cd6" data-name="TimesNewRomanPSMT-72" d="m1.87125,60.75h.805c-.53667-.29917-.805-.60625-.805-.92125,0-.14333.04375-.26167.13125-.355.08667-.09417.1875-.14125.3025-.14125.10167,0,.18792.03417.25875.1025.07.0675.105.14792.105.24125,0,.09083-.045.19292-.135.30625s-.135.1975-.135.2525c0,.04667.02583.0975.0775.1525.1075.11667.28333.2375.5275.3625h1.715c.19833,0,.34833-.02458.45-.07375.07-.03417.12833-.09417.175-.18s.07-.20958.07-.37125h.14125v1.8325h-.14125c0-.1825-.02833-.31792-.085-.40625-.04167-.065-.10833-.11042-.2-.13625-.04417-.01333-.17042-.02-.37875-.02h-1.38625c-.41667,0-.66458.00875-.74375.02625-.08.01667-.13792.04792-.17375.09375-.03667.045-.055.10125-.055.16875,0,.08083.01958.17208.05875.27375l-.14125.03875-.4375-1.08125v-.165Z" style="stroke-width: 0px;"/>
          <path id="uuid-9e367c58-b19f-4ed7-b068-e931ca12e5d6" data-name="TimesNewRomanPSMT-4c" d="m4.09,52.79719l.0275-.12875,1.4375.45375v4.10125h-.145v-.2c0-.22333-.07292-.38333-.21875-.48-.08333-.055-.27583-.0825-.5775-.0825H1.195c-.33,0-.53667.03667-.62.11-.115.10167-.1725.2525-.1725.4525v.2h-.145v-2.39875h.145c-.0025.28167.02375.47917.07875.5925.05417.1125.12292.18958.20625.23125s.2825.0625.5975.0625h3.32875c.21583,0,.36417-.02083.445-.0625.055-.03083.09542-.07875.12125-.14375s.03875-.26833.03875-.61v-.38625c0-.40667-.03-.69167-.09-.855-.06-.16417-.16583-.31375-.3175-.44875-.1525-.13583-.39292-.27167-.72125-.4075Z" style="stroke-width: 0px;"/>
          <path id="uuid-f5c34a95-9d97-4291-95ec-fdb4d0c052fb" data-name="TimesNewRomanPSMT-65" d="m3.325,51.64547c.53083.0025.9475-.12667,1.25-.3875.30167-.26.4525-.56583.4525-.9175,0-.23417-.06417-.43792-.1925-.61125-.12917-.17333-.35-.31875-.6625-.43625l.0775-.12c.35667.05417.68167.21292.975.47625.29333.2625.44.59167.44.9875,0,.43-.1675.79792-.5025,1.10375-.335.30583-.785.45875-1.35.45875-.61167,0-1.08875-.15667-1.43125-.47-.3425-.31417-.51375-.70792-.51375-1.18125,0-.40167.13208-.73125.39625-.98875s.61792-.38625,1.06125-.38625v2.4725Zm-.2275,0v-1.65625c-.22917.0125-.39042.03958-.48375.08125-.14583.065-.26042.16208-.34375.29125s-.125.26417-.125.405c0,.21583.08417.40917.2525.58.1675.17.40083.26958.7.29875Z" style="stroke-width: 0px;"/>
          <path id="uuid-40aa9d32-bb6e-4643-93fe-726ec2782353" data-name="TimesNewRomanPSMT-76" d="m1.97625,48.87969v-1.68375h.145v.10875c0,.10167.025.17917.075.2325.04917.05333.11542.08.19875.08.09083,0,.19875-.02708.32375-.08125l1.97625-.8325-2.05-.83625c-.14583-.05917-.25667-.08875-.3325-.08875-.03667,0-.06667.01042-.09.03125-.03917.02833-.06583.06458-.08.10875s-.02125.13417-.02125.27h-.145v-1.16875h.145c.01083.13583.03833.22958.0825.28125.0775.09167.2075.17375.39.24625l3.07125,1.27v.16l-3.02,1.2775c-.14083.0575-.24167.1125-.3025.165-.06167.05167-.11333.1175-.155.1975-.02333.045-.04542.1325-.06625.2625h-.145Z" style="stroke-width: 0px;"/>
          <path id="uuid-84fac3e2-b420-449c-8b42-55ea6f4f37a7" data-name="TimesNewRomanPSMT-65" d="m3.325,44.09469c.53083.0025.9475-.12667,1.25-.3875.30167-.26.4525-.56583.4525-.9175,0-.23417-.06417-.43792-.1925-.61125-.12917-.17333-.35-.31875-.6625-.43625l.0775-.12c.35667.05417.68167.21292.975.47625.29333.2625.44.59167.44.9875,0,.43-.1675.79792-.5025,1.10375-.335.30583-.785.45875-1.35.45875-.61167,0-1.08875-.15667-1.43125-.47-.3425-.31417-.51375-.70792-.51375-1.18125,0-.40167.13208-.73125.39625-.98875s.61792-.38625,1.06125-.38625v2.4725Zm-.2275,0v-1.65625c-.22917.0125-.39042.03958-.48375.08125-.14583.065-.26042.16208-.34375.29125s-.125.26417-.125.405c0,.21583.08417.40917.2525.58.1675.17.40083.26958.7.29875Z" style="stroke-width: 0px;"/>
          <path id="uuid-0bb14674-e9f2-4ab8-9e7a-a2fabe5f6ecf" data-name="TimesNewRomanPSMT-6c" d="m0,39.91515h4.74625c.22417,0,.37292-.01625.44625-.04875.0725-.03333.1275-.08375.165-.15125s.05625-.19375.05625-.37875h.14125v1.75375h-.14125c0-.16417-.01667-.27583-.05-.335-.03417-.06-.09-.10708-.1675-.14125-.07833-.03417-.22833-.05125-.45-.05125H1.49625c-.40333,0-.65125.00917-.74375.0275s-.15542.04792-.18875.08875c-.03417.04-.05125.09125-.05125.15375,0,.0675.02083.15333.0625.2575l-.1375.06625-.4375-1.06625v-.175Z" style="stroke-width: 0px;"/>
          <path id="uuid-0b77c3dd-81c7-4268-bed8-a190340c7de1" data-name="TimesNewRomanPSMT-28" d="m7.12125,34.6875h.145c-.19833.39333-.43.72167-.695.985-.37833.375-.82375.66417-1.33625.8675-.51333.2025-1.04583.30375-1.5975.30375-.8075,0-1.54375-.19917-2.20875-.5975-.66583-.39833-1.14208-.91792-1.42875-1.55875h.16375c.1775.32083.42.58417.7275.79.30667.20583.69583.35958,1.1675.46125.47167.10083.96375.15125,1.47625.15125.5575,0,1.06417-.04292,1.52-.12875.35917-.0675.6475-.14917.865-.245.2175-.09667.42625-.22625.62625-.38875.20083-.16333.3925-.37667.575-.64Z" style="stroke-width: 0px;"/>
          <path id="uuid-1e80932b-0a6d-487a-9a4d-98499f393672" data-name="TimesNewRomanPSMT-6d" d="m2.6325,33.19594c-.26-.26083-.40958-.41458-.44875-.46125-.09917-.11667-.17583-.2425-.23-.3775-.055-.13583-.0825-.27042-.0825-.40375,0-.22417.06542-.41667.19625-.5775.13-.16167.31833-.27.565-.325-.3125-.26833-.5175-.49458-.615-.67875-.0975-.185-.14625-.37542-.14625-.57125,0-.19.04875-.35833.14625-.505.0975-.1475.25708-.26417.47875-.35.15083-.0575.38792-.08625.71125-.08625h1.53875c.22417,0,.37792-.01667.46125-.05.0575-.02667.10625-.075.14625-.145s.06-.18458.06-.34375h.14125v1.765h-.14125v-.07375c0-.15333-.02958-.27292-.08875-.35875-.04167-.06-.10833-.10333-.2-.13-.04417-.01-.17042-.015-.37875-.015h-1.53875c-.29167,0-.4975.035-.6175.105-.16667.10167-.25.26458-.25.48875,0,.13833.03458.27708.10375.41625s.1975.3075.385.505l.0425.00875.1675-.00875h1.7075c.245,0,.3975-.01333.4575-.04.06-.0275.11-.07875.15-.15375.04-.07583.06-.205.06-.3875h.14125v1.80875h-.14125c0-.19833-.02333-.33458-.07-.40875s-.11708-.12542-.21125-.15375c-.04417-.01333-.17292-.02-.38625-.02h-1.53875c-.29167,0-.50125.04292-.62875.12875-.16667.115-.25.27542-.25.48125,0,.14.0375.27917.1125.4175.115.21583.24417.3825.3875.5h1.9175c.23417,0,.38667-.01625.4575-.04875.07-.0325.1225-.08042.1575-.14375.035-.06417.0525-.19417.0525-.39h.14125v1.77h-.14125c0-.16417-.0175-.27875-.0525-.34375s-.09083-.11417-.1675-.1475c-.07667-.03417-.22583-.05125-.4475-.05125h-1.3675c-.39333,0-.64708.01167-.76125.035-.08583.01833-.145.04708-.1775.08625-.0325.03833-.04875.09167-.04875.16,0,.0725.01958.15958.05875.26125l-.14125.05875-.4375-1.07875v-.1675h.76125Z" style="stroke-width: 0px;"/>
          <path id="uuid-1b737766-94fe-4c1e-a29c-6ec1785eccf3" data-name="TimesNewRomanPSMT-29" d="m.16375,28.10578h-.16375c.19583-.39583.42625-.725.69125-.9875.38083-.3725.82708-.66042,1.33875-.86375s1.04458-.305,1.59875-.305c.8075,0,1.54375.19875,2.20875.59625.66583.39667,1.14208.91667,1.42875,1.56h-.145c-.17917-.32-.42208-.58333-.72875-.79-.30583-.2075-.695-.36125-1.1675-.46125-.4725-.10083-.96542-.15125-1.47875-.15125-.555,0-1.06167.04292-1.52.12875-.35917.06583-.64667.1475-.8625.245-.21667.0975-.425.22708-.625.38875-.20083.16083-.3925.37417-.575.64Z" style="stroke-width: 0px;"/>
        </g>
      </g>
    </g>
    <g id="uuid-58754747-f338-4e86-8f51-d94c3e96e06c" data-name="line2d 17">
      <g style="clip-path: url(#uuid-771d4202-a501-4a8b-8f1d-e9039e65ed9c);">
        <path d="m26.76625,49.42467l.46905.34055.46905.68109,1.8762,1.54141.9381.44809.9381.82447,1.8762,1.89988,1.40715.91409,1.40715.68109.46905.16131.46905.3047.9381.32262.46905.32262.9381.25093.46905.0717.46905-.14339.46905.17923.46905-.01793.9381.10754,3.28335.48393,3.7524.98579.9381-.21508,1.40715.44809.9381.48393.9381.51978,1.8762.80656.9381.39432,2.8143,1.05748.9381.82448.9381,1.12917.46906.35847,1.40715.62732.9381.55563,1.8762,1.84611,1.87621,2.24043,4.22144,5.48456.9381.51978.46905.23301.46906.46601,2.34525,3.31583,5.6286,7.8863.9381.07169,2.34525,1.05748.9381.66317.46905.66316.9381.86033.46906.21508.46905-.35847,2.34525-.80656,1.40714-.46601,1.40715-.05376.9381.19715h.46905l1.40715-.59147.46906-.19716.46905.03585.46905-.19716.46905-.75278.46906-.43016.46905-1.05748.9381-3.11868,1.40715-7.2769.9381-7.47407.46905-2.07911.9381-1.84612.9381-.8424.9381-.96786.46906-.14339.9381-.75278,1.40715.07169.46906-.17923.46905-2.49136.46905-1.12917.46905-.48393.46906.12547.46905.34055.9381,1.20087h.46905l.46905-1.4518.46905-1.9178.46906-1.30841.46905-.32262.9381.03585.9381.43016.9381-.08962.46905.21508.46906.34054.46905.57355.9381.51978.46905.26885.46905-.21508.46905-.62732.9381-3.11867.46905-.9141.9381-.87825,1.40715-.46601h.9381l.93811-.19716.9381-.233.46904.01792.46906-.10754,1.87621.05377.46904-.44809.46906-.26885.9381-.10754.93811-.25093.9381-.5377.9381-.25093.46906-.35847.46906-.6094.46904-.35847,2.8143-3.53091.9381-.8424.93811-.5377,1.40715-.62732.9381-.12546.46906-.26885.46904-.44809.93811-1.21879.9381-1.34425.46906-1.1471,1.40715-4.39124.46904-2.88567.46906-4.212.46904-3.19037.46906-1.52349.46906-1.11125.46904-.48393.93811-.43016.46904-.43016.46906-.10754,1.40715-.01792.9381-.44808,2.8143-1.9178.93811-.59147.9381-.10754.9381.10754.46906.08962.9381-.28678.9381-.87825.93811-.78863.9381-.28678.46906-.35847.9381-.35847.9381-.07169h.46906l1.40715.46601.9381.78863.9381.86032.46906.43016,2.34525,1.12918,2.34526,1.66688,2.34525,1.64895,6.09764,5.16194,2.34526,2.93944,1.40715,1.64895,2.8143,3.63845.9381,1.54141,3.28334,5.09025,1.87621,2.79605.46906.66317h0" style="fill: none; stroke: #1a6fdf; stroke-linecap: square; stroke-linejoin: round;"/>
      </g>
    </g>
    <g id="uuid-be969a7e-f699-4c65-8547-cfe6a2c1cfa5" data-name="line2d 18">
      <g style="clip-path: url(#uuid-e1515db4-bf53-4899-877a-63ebb5a58e95);">
        <path d="m26.76625,92.27954h171.20321" style="fill: none; stroke: #f4b919; stroke-dasharray: 0 0 2.775 1.2; stroke-linejoin: round; stroke-width: .75px;"/>
      </g>
    </g>
    <g id="uuid-daa48aa1-90bb-4735-9d8a-dc3c4a0e0c9c" data-name="line2d 19">
      <g style="clip-path: url(#uuid-c795f16d-7f8a-4559-83bd-0fb347d52245);">
        <path d="m26.76625,11.6242h56.28599v28.13975h35.64779v-12.00868h22.04534V11.6242h57.22409" style="fill: none; stroke: #f14040; stroke-dasharray: 0 0 2.775 1.2; stroke-linejoin: round; stroke-width: .75px;"/>
      </g>
    </g>
    <g id="uuid-03442cfc-2e4d-41ac-9daf-918720816fd7" data-name="patch 3">
      <path d="m26.76625,101.24125V2.6625" style="fill: none; stroke: #000; stroke-linecap: square; stroke-width: .5px;"/>
    </g>
    <g id="uuid-3e85c0bf-ff80-4f87-a73b-799ae95523b6" data-name="patch 4">
      <path d="m197.96946,101.24125V2.6625" style="fill: none; stroke: #000; stroke-linecap: square; stroke-width: .5px;"/>
    </g>
    <g id="uuid-9dd91fa2-752a-4256-b5d3-f09e83cb3709" data-name="patch 5">
      <path d="m26.76625,101.24125h171.20321" style="fill: none; stroke: #000; stroke-linecap: square; stroke-width: .5px;"/>
    </g>
    <g id="uuid-b48746aa-3084-4658-83e8-145a2b5384fc" data-name="patch 6">
      <path d="m26.76625,2.6625h171.20321" style="fill: none; stroke: #000; stroke-linecap: square; stroke-width: .5px;"/>
    </g>
    <g id="uuid-c473c03a-9a54-4b7d-afdd-ea9a581dda1f" data-name="PathCollection 1">
      <g style="clip-path: url(#uuid-9d195053-5ead-4ed5-8d26-adc51fcfc681);">
        <path id="uuid-f04b641c-6e67-4fe8-8acb-8cba90212b9c" data-name="mc6c6d9198b" d="m87.74274,93.71168l1.41421-2.82843h-2.82843l1.41421,2.82843Z" style="fill: #1ae099; stroke: #1ae099; stroke-linejoin: round;"/>
      </g>
    </g>
    <g id="uuid-5aa95503-c9eb-4a2a-baeb-b5a9bc05706a" data-name="PathCollection 2">
      <g style="clip-path: url(#uuid-cb828980-8079-4cbb-a8f8-c322420bbbf5);">
        <path id="uuid-cb4128ac-0911-4762-9606-691b058be667" data-name="m6b2c962bcb" d="m167.01217,11.80517l-1.41421,2.82843h2.82843l-1.41421-2.82843Z" style="fill: #821ae0; stroke: #821ae0; stroke-linejoin: round;"/>
      </g>
    </g>
    <g id="uuid-2628ddb7-39ee-43c5-8f67-5cdff3472380" data-name="legend 1">
      <g id="uuid-b27618b2-827b-4c3f-a8ec-c506becd636a" data-name="line2d 20">
        <path d="m38.19598,126.2677h16" style="fill: none; stroke: #1a6fdf; stroke-linecap: square; stroke-linejoin: round;"/>
      </g>
      <g id="uuid-d2521d73-c205-465d-a212-cbb0807a2685" data-name="text 14">
        <g>
          <path id="uuid-a1e6a182-52a5-4194-ab20-07a7ad99eff2" data-name="TimesNewRomanPSMT-41" d="m64.25598,127.29395h-2.05l-.36.83625c-.08833.20583-.1325.35958-.1325.46125,0,.08083.03833.15167.115.2125.07667.06083.2425.10042.4975.11875v.145h-1.6675v-.145c.22167-.03917.365-.09.43-.1525.1325-.125.27958-.37875.44125-.76125l1.86375-4.35875h.13625l1.84375,4.40625c.14833.35417.28292.58417.40375.69.12167.105.29042.16375.50625.17625v.145h-2.09v-.145c.21083-.01.35333-.045.4275-.105s.11125-.13292.11125-.21875c0-.115-.05208-.29583-.15625-.5425l-.32-.7625Zm-.10875-.28875l-.89875-2.14125-.9225,2.14125h1.82125Z" style="stroke-width: 0px;"/>
          <path id="uuid-326cc537-e684-49f9-a7fc-f5793ece8f31" data-name="TimesNewRomanPSMT-63" d="m69.66207,127.7077c-.09583.47167-.28458.83458-.56625,1.08875-.28083.25417-.59208.38125-.93375.38125-.40583,0-.76-.17042-1.0625-.51125-.30167-.34167-.4525-.80292-.4525-1.38375,0-.5625.16708-1.01958.50125-1.37125.335-.35167.73667-.5275,1.205-.5275.35167,0,.64083.09333.8675.28.22667.18583.34.37917.34.58,0,.09833-.03208.17833-.09625.24-.06333.06083-.1525.09125-.2675.09125-.15333,0-.26917-.04958-.3475-.14875-.04417-.05417-.07333-.15792-.0875-.31125-.01417-.15417-.06708-.27167-.15875-.3525-.09083-.07833-.21708-.1175-.37875-.1175-.26,0-.46958.09667-.62875.29-.21083.255-.31625.59208-.31625,1.01125,0,.4275.10458.80458.31375,1.13125.21.32667.49333.49.85.49.25583,0,.485-.08708.6875-.26125.14333-.12.28292-.3375.41875-.6525l.1125.05375Z" style="stroke-width: 0px;"/>
          <path id="uuid-935dc1d1-d001-4a5d-8560-feac22758837" data-name="TimesNewRomanPSMT-74" d="m71.21285,124.31395v1.175h.83625v.27375h-.83625v2.32c0,.2325.03333.38917.1.47.06667.08.15208.12.25625.12.08583,0,.16917-.02667.25-.08s.14333-.13208.1875-.23625h.1525c-.09167.255-.22083.44708-.3875.57625-.16667.12917-.33833.19375-.515.19375-.12,0-.2375-.03333-.3525-.1-.11417-.06667-.19875-.16167-.25375-.285-.05417-.12333-.08125-.31417-.08125-.5725v-2.40625h-.56625v-.12875c.1425-.0575.28875-.15458.43875-.29125s.28333-.29875.4-.48625c.06-.09917.14333-.28.25-.5425h.12125Z" style="stroke-width: 0px;"/>
          <path id="uuid-c5602f8f-3646-423e-80bf-ced5412db2fe" data-name="TimesNewRomanPSMT-75" d="m75.53301,125.48895v2.16875c0,.41417.00958.6675.02875.76.02.0925.05125.15708.09375.19375.04333.03583.09375.05375.15125.05375.08083,0,.17208-.02208.27375-.06625l.055.13625-1.07125.4425h-.175v-.75875c-.3075.33333-.54208.54333-.70375.63-.16083.08583-.33125.12875-.51125.12875-.20083,0-.375-.05792-.5225-.17375-.14667-.11667-.24875-.26583-.30625-.4475-.05667-.1825-.085-.44042-.085-.77375v-1.5975c0-.16917-.01833-.28625-.055-.35125-.03667-.06583-.09083-.11625-.1625-.15125s-.20125-.05125-.38875-.04875v-.145h1.25375v2.395c0,.33333.05792.55208.17375.65625.11667.10417.25667.15625.42.15625.1125,0,.23958-.035.38125-.105.14167-.07083.31042-.205.50625-.4025v-2.0275c0-.20333-.03708-.34083-.11125-.4125-.07417-.07167-.22875-.11-.46375-.115v-.145h1.21875Z" style="stroke-width: 0px;"/>
          <path id="uuid-06739f43-a90b-4260-916d-9e6a87cb5d49" data-name="TimesNewRomanPSMT-61" d="m78.42426,128.55145c-.3675.28417-.59792.44833-.69125.4925-.14083.065-.29083.0975-.45.0975-.24667,0-.45042-.08458-.61125-.25375-.16-.16917-.24-.39167-.24-.6675,0-.175.03917-.32625.1175-.45375.10667-.17667.29208-.34292.55625-.49875.26417-.15667.70375-.34708,1.31875-.57125v-.14c0-.3575-.05667-.6025-.17-.735s-.27792-.19875-.49375-.19875c-.16417,0-.29458.04417-.39125.1325-.09917.08833-.14875.19-.14875.305l.00875.22625c0,.12-.03083.2125-.0925.2775-.06083.065-.14083.0975-.24.0975-.09667,0-.17542-.03375-.23625-.10125-.06083-.06833-.09125-.16083-.09125-.2775,0-.22417.11458-.43.34375-.6175.22917-.1875.55042-.28125.96375-.28125.31833,0,.57875.05333.78125.16.15417.08083.2675.20708.34.37875.0475.1125.07125.34167.07125.6875v1.215c0,.34167.00625.55083.01875.6275.01333.07667.035.12792.065.15375s.06458.03875.10375.03875c.04167,0,.07792-.00875.10875-.02625.055-.03417.16042-.12958.31625-.28625v.21875c-.29167.39083-.57042.58625-.83625.58625-.1275,0-.22917-.04417-.305-.1325-.075-.08833-.11375-.23958-.11625-.45375Zm0-.25375v-1.3625c-.39333.15583-.64708.26625-.76125.33125-.20583.115-.35333.235-.4425.36-.08833.125-.1325.26167-.1325.41,0,.1875.05583.34333.1675.4675.1125.12333.24167.185.3875.185.1975,0,.45792-.13042.78125-.39125Z" style="stroke-width: 0px;"/>
          <path id="uuid-33b6ab95-2d91-4845-8177-a1022d07bcc2" data-name="TimesNewRomanPSMT-6c" d="m81.17754,123.5127v4.74625c0,.22417.01625.37292.04875.44625.03333.0725.08375.1275.15125.165s.19375.05625.37875.05625v.14125h-1.75375v-.14125c.16417,0,.27583-.01667.335-.05.06-.03417.10708-.09.14125-.1675.03417-.07833.05125-.22833.05125-.45v-3.25c0-.40333-.00917-.65125-.0275-.74375s-.04792-.15542-.08875-.18875c-.04-.03417-.09125-.05125-.15375-.05125-.0675,0-.15333.02083-.2575.0625l-.06625-.1375,1.06625-.4375h.175Z" style="stroke-width: 0px;"/>
        </g>
      </g>
      <g id="uuid-438d10eb-8589-4800-b13d-103011dc792d" data-name="line2d 21">
        <path d="m38.19598,137.57895h16" style="fill: none; stroke: #f4b919; stroke-dasharray: 0 0 2.775 1.2; stroke-linejoin: round; stroke-width: .75px;"/>
      </g>
      <g id="uuid-6e3cb48e-0755-4647-8abe-9b07841ee5da" data-name="text 15">
        <g>
          <path id="uuid-d65c7af9-27e1-401e-b235-3430ba4bc0a2" data-name="TimesNewRomanPSMT-4c" d="m65.18223,138.91395l.12875.0275-.45375,1.4375h-4.10125v-.145h.2c.22333,0,.38333-.07292.48-.21875.055-.08333.0825-.27583.0825-.5775v-3.41875c0-.33-.03667-.53667-.11-.62-.10167-.115-.2525-.1725-.4525-.1725h-.2v-.145h2.39875v.145c-.28167-.0025-.47917.02375-.5925.07875-.1125.05417-.18958.12292-.23125.20625s-.0625.2825-.0625.5975v3.32875c0,.21583.02083.36417.0625.445.03083.055.07875.09542.14375.12125s.26833.03875.61.03875h.38625c.40667,0,.69167-.03.855-.09.16417-.06.31375-.16583.44875-.3175.13583-.1525.27167-.39292.4075-.72125Z" style="stroke-width: 0px;"/>
          <path id="uuid-18dfccfb-4ccf-4f59-bc1e-9b9d0f263ff3" data-name="TimesNewRomanPSMT-6f" d="m67.48269,136.6952c.54167,0,.97667.20583,1.305.6175.27833.35167.4175.75542.4175,1.21125,0,.32-.07708.64417-.23125.9725-.15333.3275-.36458.575-.63375.7425-.26917.16667-.56917.25-.9.25-.53917,0-.9675-.215-1.285-.645-.26833-.3625-.4025-.76875-.4025-1.21875,0-.32833.08125-.65458.24375-.97875.1625-.32417.37667-.56375.6425-.71875.26583-.155.54708-.2325.84375-.2325Zm-.12125.25375c-.1375,0-.27625.04125-.41625.12375-.13917.08167-.25167.22542-.3375.43125s-.12875.47-.12875.7925c0,.52083.10333.97042.31,1.34875.2075.3775.48042.56625.81875.56625.2525,0,.46083-.10417.625-.3125.16417-.20833.24625-.56667.24625-1.075,0-.635-.13667-1.135-.41-1.5-.185-.25-.42083-.375-.7075-.375Z" style="stroke-width: 0px;"/>
          <path id="uuid-6ecc026e-ec56-450d-8429-c0807716a81f" data-name="TimesNewRomanPSMT-77" d="m69.53394,136.8002h1.5v.145c-.13833.01083-.22917.03583-.2725.075-.0425.03833-.06375.09417-.06375.1675,0,.08083.02208.17833.06625.2925l.76625,2.05875.76875-1.67625-.2025-.52625c-.0625-.15667-.14458-.265-.24625-.325-.0575-.03667-.16417-.05875-.32-.06625v-.145h1.7025v.145c-.1875.0075-.32042.04125-.39875.10125-.05167.04167-.0775.10833-.0775.2,0,.05167.01042.105.03125.16l.8125,2.055.75375-1.98125c.05167-.14083.0775-.25292.0775-.33625,0-.04917-.02542-.09333-.07625-.1325-.05-.03917-.14958-.06125-.29875-.06625v-.145h1.13v.145c-.22667.03417-.39333.18792-.5.46125l-1.19625,3.0825h-.16l-.89375-2.28625-1.04375,2.28625h-.14375l-1.14875-3.00875c-.07583-.19-.15042-.31792-.22375-.38375-.0725-.06667-.18667-.11708-.3425-.15125v-.145Z" style="stroke-width: 0px;"/>
          <path id="uuid-8b2def86-9fad-4037-9f21-0a64cfee2f71" data-name="TimesNewRomanPSMT-65" d="m76.11129,138.14895c-.0025.53083.12667.9475.3875,1.25.26.30167.56583.4525.9175.4525.23417,0,.43792-.06417.61125-.1925.17333-.12917.31875-.35.43625-.6625l.12.0775c-.05417.35667-.21292.68167-.47625.975-.2625.29333-.59167.44-.9875.44-.43,0-.79792-.1675-1.10375-.5025-.30583-.335-.45875-.785-.45875-1.35,0-.61167.15667-1.08875.47-1.43125.31417-.3425.70792-.51375,1.18125-.51375.40167,0,.73125.13208.98875.39625s.38625.61792.38625,1.06125h-2.4725Zm0-.2275h1.65625c-.0125-.22917-.03958-.39042-.08125-.48375-.065-.14583-.16208-.26042-.29125-.34375s-.26417-.125-.405-.125c-.21583,0-.40917.08417-.58.2525-.17.1675-.26958.40083-.29875.7Z" style="stroke-width: 0px;"/>
          <path id="uuid-99add3b3-79a6-4bc8-b5fc-24eabe2b9984" data-name="TimesNewRomanPSMT-72" d="m80.10832,136.6952v.805c.29917-.53667.60625-.805.92125-.805.14333,0,.26167.04375.355.13125.09417.08667.14125.1875.14125.3025,0,.10167-.03417.18792-.1025.25875-.0675.07-.14792.105-.24125.105-.09083,0-.19292-.045-.30625-.135s-.1975-.135-.2525-.135c-.04667,0-.0975.02583-.1525.0775-.11667.1075-.2375.28333-.3625.5275v1.715c0,.19833.02458.34833.07375.45.03417.07.09417.12833.18.175s.20958.07.37125.07v.14125h-1.8325v-.14125c.1825,0,.31792-.02833.40625-.085.065-.04167.11042-.10833.13625-.2.01333-.04417.02-.17042.02-.37875v-1.38625c0-.41667-.00875-.66458-.02625-.74375-.01667-.08-.04792-.13792-.09375-.17375-.045-.03667-.10125-.055-.16875-.055-.08083,0-.17208.01958-.27375.05875l-.03875-.14125,1.08125-.4375h.165Z" style="stroke-width: 0px;"/>
          <path id="uuid-90dd8c09-f20f-450f-aa18-287c02fdbe9f" data-name="TimesNewRomanPSMT-42" d="m87.16988,137.6752c.3675.07833.6425.20333.825.375.2525.24.37875.53333.37875.88,0,.2625-.08333.51417-.25.755-.16667.24083-.39542.41667-.68625.5275-.29.11083-.73333.16625-1.33.16625h-2.5v-.145h.2c.22083,0,.37958-.07.47625-.21.06-.09167.09-.28583.09-.5825v-3.4225c0-.3275-.03792-.53417-.11375-.62-.10167-.115-.2525-.1725-.4525-.1725h-.2v-.145h2.29c.42667,0,.76875.03125,1.02625.09375.39083.09417.68917.26042.895.49875s.30875.5125.30875.8225c0,.265-.08083.5025-.2425.7125s-.4.36542-.715.46625Zm-2.04625-.21c.09583.01833.20542.03208.32875.04125.12417.00833.26042.0125.40875.0125.38083,0,.66667-.04083.8575-.1225.19167-.08167.33833-.20708.44-.37625.10167-.17.1525-.355.1525-.555,0-.31-.12625-.57417-.37875-.7925-.2525-.21917-.62125-.32875-1.10625-.32875-.26,0-.49417.02875-.7025.08625v2.035Zm0,2.53125c.30167.07.59958.105.89375.105.47167,0,.83125-.10583,1.07875-.3175.2475-.2125.37125-.475.37125-.7875,0-.20583-.05625-.40375-.16875-.59375-.11167-.19-.29375-.33958-.54625-.44875-.2525-.11-.565-.165-.9375-.165-.16167,0-.3.00292-.415.00875-.11417.005-.20625.01375-.27625.02625v2.1725Z" style="stroke-width: 0px;"/>
          <path id="uuid-65db3513-ca63-4e57-a5f3-250d5f95965d" data-name="TimesNewRomanPSMT-6f" d="m90.81082,136.6952c.54167,0,.97667.20583,1.305.6175.27833.35167.4175.75542.4175,1.21125,0,.32-.07708.64417-.23125.9725-.15333.3275-.36458.575-.63375.7425-.26917.16667-.56917.25-.9.25-.53917,0-.9675-.215-1.285-.645-.26833-.3625-.4025-.76875-.4025-1.21875,0-.32833.08125-.65458.24375-.97875.1625-.32417.37667-.56375.6425-.71875.26583-.155.54708-.2325.84375-.2325Zm-.12125.25375c-.1375,0-.27625.04125-.41625.12375-.13917.08167-.25167.22542-.3375.43125s-.12875.47-.12875.7925c0,.52083.10333.97042.31,1.34875.2075.3775.48042.56625.81875.56625.2525,0,.46083-.10417.625-.3125.16417-.20833.24625-.56667.24625-1.075,0-.635-.13667-1.135-.41-1.5-.185-.25-.42083-.375-.7075-.375Z" style="stroke-width: 0px;"/>
          <path id="uuid-5fe8a336-4a55-4b69-a9a0-3ce372cca902" data-name="TimesNewRomanPSMT-75" d="m96.19707,136.8002v2.16875c0,.41417.00958.6675.02875.76.02.0925.05125.15708.09375.19375.04333.03583.09375.05375.15125.05375.08083,0,.17208-.02208.27375-.06625l.055.13625-1.07125.4425h-.175v-.75875c-.3075.33333-.54208.54333-.70375.63-.16083.08583-.33125.12875-.51125.12875-.20083,0-.375-.05792-.5225-.17375-.14667-.11667-.24875-.26583-.30625-.4475-.05667-.1825-.085-.44042-.085-.77375v-1.5975c0-.16917-.01833-.28625-.055-.35125-.03667-.06583-.09083-.11625-.1625-.15125s-.20125-.05125-.38875-.04875v-.145h1.25375v2.395c0,.33333.05792.55208.17375.65625.11667.10417.25667.15625.42.15625.1125,0,.23958-.035.38125-.105.14167-.07083.31042-.205.50625-.4025v-2.0275c0-.20333-.03708-.34083-.11125-.4125-.07417-.07167-.22875-.11-.46375-.115v-.145h1.21875Z" style="stroke-width: 0px;"/>
          <path id="uuid-c76000a1-9447-4406-97e7-2234e902c58d" data-name="TimesNewRomanPSMT-6e" d="m98.10332,137.4527c.42-.505.82-.7575,1.2-.7575.195,0,.36292.04875.50375.14625s.25292.25833.33625.4825c.05667.15667.085.39625.085.71875v1.5275c0,.22667.01833.38042.055.46125.02917.065.07542.11583.13875.1525.06417.03583.18208.05375.35375.05375v.14125h-1.77v-.14125h.075c.16667,0,.28292-.025.34875-.075.06667-.05083.11292-.12583.13875-.225.01083-.03917.01625-.16167.01625-.3675v-1.465c0-.325-.0425-.56125-.1275-.70875-.08417-.1475-.22667-.22125-.4275-.22125-.31,0-.61875.16958-.92625.50875v1.88625c0,.2425.01458.39208.04375.44875.03667.07583.08667.13125.15.16625.06417.035.19375.0525.38875.0525v.14125h-1.77v-.14125h.07875c.1825,0,.30542-.04583.36875-.1375.06417-.0925.09625-.26917.09625-.53v-1.3275c0-.43-.01-.69167-.03-.785-.01917-.09417-.04917-.15792-.09-.19125-.04-.03417-.09375-.05125-.16125-.05125-.07333,0-.16083.01958-.2625.05875l-.0575-.14125,1.0775-.4375h.1675v.7575Z" style="stroke-width: 0px;"/>
          <path id="uuid-dfcd116d-f1e0-421b-9000-61b3d8093fd8" data-name="TimesNewRomanPSMT-64" d="m103.58832,139.97645c-.17417.1825-.34458.31375-.51125.39375-.16667.07917-.34667.11875-.54.11875-.39,0-.73083-.16333-1.0225-.49-.29167-.3275-.4375-.74792-.4375-1.26125,0-.5125.16125-.98167.48375-1.4075.32333-.42583.73875-.63875,1.24625-.63875.315,0,.57542.10042.78125.30125v-.66125c0-.40833-.01-.65917-.03-.7525-.01917-.09417-.04958-.15792-.09125-.19125-.04167-.03417-.09375-.05125-.15625-.05125-.0675,0-.1575.02083-.27.0625l-.05-.1375,1.06625-.4375h.17625v4.1375c0,.41917.00958.675.02875.7675s.05042.15708.09375.19375c.04333.03583.09333.05375.15.05375.07083,0,.16458-.02208.28125-.06625l.04375.13625-1.0625.4425h-.18v-.5125Zm0-.27375v-1.84375c-.01583-.17667-.06292-.33792-.14125-.48375-.0775-.14583-.18083-.25583-.31-.33s-.255-.11125-.3775-.11125c-.22917,0-.43333.10292-.6125.30875-.2375.27083-.35625.66667-.35625,1.1875,0,.52583.11458.92875.34375,1.20875.22917.28.48458.42.76625.42.23667,0,.46583-.11875.6875-.35625Z" style="stroke-width: 0px;"/>
        </g>
      </g>
      <g id="uuid-b0687c8e-de48-45f9-9e76-2b7ba29ba08a" data-name="line2d 22">
        <path d="m120.81098,126.2677h16" style="fill: none; stroke: rgba(112, 128, 144, .6); stroke-dasharray: 0 0 2.775 1.2; stroke-linejoin: round; stroke-width: .75px;"/>
      </g>
      <g id="uuid-860fe313-fe45-4057-892d-89d592f8fc62" data-name="text 16">
        <g>
          <path id="uuid-57e2905d-bd63-467a-8963-fa2bb805273d" data-name="TimesNewRomanPSMT-54" d="m147.83972,123.7702l.05875,1.2425h-.14875c-.02833-.21833-.06708-.37458-.11625-.46875-.08083-.15083-.18833-.26208-.3225-.33375s-.31083-.1075-.53-.1075h-.74625v4.0475c0,.325.03542.52792.10625.60875.09917.10917.25125.16375.45625.16375h.18375v.145h-2.24625v-.145h.1875c.22417,0,.38333-.0675.4775-.2025.05667-.08333.085-.27333.085-.57v-4.0475h-.63625c-.2475,0-.42333.01833-.5275.055-.135.04917-.25083.14417-.3475.285-.09667.14083-.15375.33083-.17125.57h-.14875l.0625-1.2425h4.32375Z" style="stroke-width: 0px;"/>
          <path id="uuid-9ad429c9-3228-4e9e-967c-1b97a215d6d4" data-name="TimesNewRomanPSMT-61" d="m149.81519,128.55145c-.3675.28417-.59792.44833-.69125.4925-.14083.065-.29083.0975-.45.0975-.24667,0-.45042-.08458-.61125-.25375-.16-.16917-.24-.39167-.24-.6675,0-.175.03917-.32625.1175-.45375.10667-.17667.29208-.34292.55625-.49875.26417-.15667.70375-.34708,1.31875-.57125v-.14c0-.3575-.05667-.6025-.17-.735s-.27792-.19875-.49375-.19875c-.16417,0-.29458.04417-.39125.1325-.09917.08833-.14875.19-.14875.305l.00875.22625c0,.12-.03083.2125-.0925.2775-.06083.065-.14083.0975-.24.0975-.09667,0-.17542-.03375-.23625-.10125-.06083-.06833-.09125-.16083-.09125-.2775,0-.22417.11458-.43.34375-.6175.22917-.1875.55042-.28125.96375-.28125.31833,0,.57875.05333.78125.16.15417.08083.2675.20708.34.37875.0475.1125.07125.34167.07125.6875v1.215c0,.34167.00625.55083.01875.6275.01333.07667.035.12792.065.15375s.06458.03875.10375.03875c.04167,0,.07792-.00875.10875-.02625.055-.03417.16042-.12958.31625-.28625v.21875c-.29167.39083-.57042.58625-.83625.58625-.1275,0-.22917-.04417-.305-.1325-.075-.08833-.11375-.23958-.11625-.45375Zm0-.25375v-1.3625c-.39333.15583-.64708.26625-.76125.33125-.20583.115-.35333.235-.4425.36-.08833.125-.1325.26167-.1325.41,0,.1875.05583.34333.1675.4675.1125.12333.24167.185.3875.185.1975,0,.45792-.13042.78125-.39125Z" style="stroke-width: 0px;"/>
          <path id="uuid-8aa4522e-dc5e-4657-8abb-13909809350e" data-name="TimesNewRomanPSMT-72" d="m152.38597,125.38395v.805c.29917-.53667.60625-.805.92125-.805.14333,0,.26167.04375.355.13125.09417.08667.14125.1875.14125.3025,0,.10167-.03417.18792-.1025.25875-.0675.07-.14792.105-.24125.105-.09083,0-.19292-.045-.30625-.135s-.1975-.135-.2525-.135c-.04667,0-.0975.02583-.1525.0775-.11667.1075-.2375.28333-.3625.5275v1.715c0,.19833.02458.34833.07375.45.03417.07.09417.12833.18.175s.20958.07.37125.07v.14125h-1.8325v-.14125c.1825,0,.31792-.02833.40625-.085.065-.04167.11042-.10833.13625-.2.01333-.04417.02-.17042.02-.37875v-1.38625c0-.41667-.00875-.66458-.02625-.74375-.01667-.08-.04792-.13792-.09375-.17375-.045-.03667-.10125-.055-.16875-.055-.08083,0-.17208.01958-.27375.05875l-.03875-.14125,1.08125-.4375h.165Z" style="stroke-width: 0px;"/>
          <path id="uuid-d8bdcb60-65cd-4ef0-afe9-1b4ed538ceec" data-name="TimesNewRomanPSMT-67" d="m154.82004,127.7627c-.21917-.10667-.3875-.25542-.505-.44625-.11667-.19167-.175-.40333-.175-.635,0-.35417.13333-.65875.4-.91375.2675-.25583.60958-.38375,1.02625-.38375.34083,0,.63625.08333.88625.25h.7575c.1125,0,.1775.00333.195.01.01833.00667.03167.0175.04.0325.015.02417.0225.06583.0225.125,0,.06833-.00625.11542-.01875.14125-.00833.01333-.02208.02375-.04125.03125s-.085.01125-.1975.01125h-.465c.14583.1875.21875.42708.21875.71875,0,.33333-.1275.61875-.3825.85625-.255.23667-.5975.355-1.0275.355-.17667,0-.3575-.02583-.5425-.0775-.115.09833-.19292.18458-.23375.25875-.04.07417-.06.1375-.06.19,0,.04417.02167.08708.065.12875.04333.04167.1275.07167.2525.09.0725.01.25458.01917.54625.0275.53667.0125.88417.03083,1.0425.055.2425.03333.43583.12292.58.26875.145.14583.2175.32583.2175.54,0,.29417-.13792.57-.41375.8275-.40667.38-.93667.57-1.59.57-.5025,0-.92708-.11333-1.27375-.34-.195-.13-.2925-.26542-.2925-.40625,0-.0625.01417-.125.0425-.1875.04417-.09583.13542-.22958.27375-.40125.01833-.02417.15125-.165.39875-.4225-.13583-.08083-.23167-.15292-.2875-.21625-.05583-.06417-.08375-.13667-.08375-.2175,0-.09083.03708-.1975.11125-.32.07417-.1225.24542-.29583.51375-.52Zm.67875-2.19125c-.1925,0-.35375.07708-.48375.23125-.13.15333-.195.38875-.195.70625,0,.41167.08833.73083.265.9575.13583.17167.30792.2575.51625.2575.1975,0,.36-.07417.4875-.2225s.19125-.38167.19125-.7c0-.41333-.08958-.7375-.26875-.9725-.13333-.17167-.30417-.2575-.5125-.2575Zm-.71875,3.49625c-.12167.1325-.21375.25583-.27625.37-.0625.115-.09375.22083-.09375.3175,0,.125.07542.23458.22625.32875.26.16083.63625.24125,1.12875.24125.46833,0,.81375-.08292,1.03625-.24875.22333-.165.335-.34125.335-.52875,0-.135-.06667-.23125-.2-.28875-.135-.0575-.40292-.09125-.80375-.10125-.58583-.01583-1.03667-.04583-1.3525-.09Z" style="stroke-width: 0px;"/>
          <path id="uuid-ea8f65e6-79e9-4c4a-a220-3fcdb80a8657" data-name="TimesNewRomanPSMT-65" d="m158.46379,126.8377c-.0025.53083.12667.9475.3875,1.25.26.30167.56583.4525.9175.4525.23417,0,.43792-.06417.61125-.1925.17333-.12917.31875-.35.43625-.6625l.12.0775c-.05417.35667-.21292.68167-.47625.975-.2625.29333-.59167.44-.9875.44-.43,0-.79792-.1675-1.10375-.5025-.30583-.335-.45875-.785-.45875-1.35,0-.61167.15667-1.08875.47-1.43125.31417-.3425.70792-.51375,1.18125-.51375.40167,0,.73125.13208.98875.39625s.38625.61792.38625,1.06125h-2.4725Zm0-.2275h1.65625c-.0125-.22917-.03958-.39042-.08125-.48375-.065-.14583-.16208-.26042-.29125-.34375s-.26417-.125-.405-.125c-.21583,0-.40917.08417-.58.2525-.17.1675-.26958.40083-.29875.7Z" style="stroke-width: 0px;"/>
          <path id="uuid-411f27d9-e9b8-45eb-9ae7-fff0af5ef997" data-name="TimesNewRomanPSMT-74" d="m162.45207,124.31395v1.175h.83625v.27375h-.83625v2.32c0,.2325.03333.38917.1.47.06667.08.15208.12.25625.12.08583,0,.16917-.02667.25-.08s.14333-.13208.1875-.23625h.1525c-.09167.255-.22083.44708-.3875.57625-.16667.12917-.33833.19375-.515.19375-.12,0-.2375-.03333-.3525-.1-.11417-.06667-.19875-.16167-.25375-.285-.05417-.12333-.08125-.31417-.08125-.5725v-2.40625h-.56625v-.12875c.1425-.0575.28875-.15458.43875-.29125s.28333-.29875.4-.48625c.06-.09917.14333-.28.25-.5425h.12125Z" style="stroke-width: 0px;"/>
        </g>
      </g>
      <g id="uuid-adf9a1eb-8b3c-4a6c-8881-f78b9c8a5399" data-name="line2d 23">
        <path d="m120.81098,137.59394h16" style="fill: none; stroke: #f14040; stroke-dasharray: 0 0 2.775 1.2; stroke-linejoin: round; stroke-width: .75px;"/>
      </g>
      <g id="uuid-957b897d-45c8-4470-9700-f75b49afc02c" data-name="text 17">
        <g>
          <path id="uuid-f9e15a9a-f2b5-47d9-b5b0-41da9bc52de9" data-name="TimesNewRomanPSMT-55" d="m147.02722,135.24145v-.145h1.875v.145h-.19875c-.20833,0-.36875.08708-.48125.26125-.05417.08083-.08125.26833-.08125.5625v2.14875c0,.53167-.05292.94417-.15875,1.2375-.105.2925-.31208.54375-.62125.75375-.30833.20917-.72792.31375-1.25875.31375-.57833,0-1.0175-.1-1.3175-.3-.29917-.20083-.51125-.47083-.63625-.81-.08333-.23167-.125-.66625-.125-1.30375v-2.07125c0-.325-.045-.53833-.135-.64s-.235-.1525-.435-.1525h-.2v-.145h2.29v.145h-.20375c-.21833,0-.37458.06917-.46875.2075-.065.09333-.0975.28833-.0975.585v2.30875c0,.20583.01875.44167.05625.7075.03833.26583.10667.47292.205.62125.09917.14833.24167.27083.4275.3675.18667.09583.41542.14375.68625.14375.34667,0,.65667-.07542.93-.22625.27333-.15083.46-.34417.56-.58.10083-.23583.15125-.635.15125-1.1975v-2.145c0-.33-.03667-.53667-.11-.62-.10167-.115-.2525-.1725-.4525-.1725h-.2Z" style="stroke-width: 0px;"/>
          <path id="uuid-e49de016-d9f4-4aad-836d-8fa6812c6d6b" data-name="TimesNewRomanPSMT-70" d="m148.98082,137.17145l1.10125-.445h.14875v.835c.185-.315.37042-.53542.55625-.66125.18667-.12667.3825-.19.5875-.19.36,0,.65958.14083.89875.4225.29417.34333.44125.79125.44125,1.34375,0,.61667-.17708,1.12708-.53125,1.53125-.29167.33083-.65875.49625-1.10125.49625-.1925,0-.35917-.0275-.5-.0825-.10417-.03917-.22125-.1175-.35125-.235v1.09c0,.245.015.40042.045.46625.03.06667.08208.11958.15625.15875s.20875.05875.40375.05875v.145h-1.875v-.145h.0975c.14333.0025.26583-.02458.3675-.08125.04917-.02917.0875-.07583.115-.14.0275-.06333.04125-.225.04125-.485v-3.38375c0-.23167-.01042-.37875-.03125-.44125s-.05417-.10917-.1-.14c-.045-.03167-.10667-.0475-.185-.0475-.0625,0-.14208.01833-.23875.055l-.04625-.125Zm1.25.62125v1.335c0,.28917.01167.47958.035.57125.03667.15083.12583.28375.2675.39875.14167.11417.32083.17125.5375.17125.26,0,.47083-.10167.6325-.305.21083-.26583.31625-.63958.31625-1.12125,0-.54667-.11958-.96708-.35875-1.26125-.16667-.20333-.36458-.305-.59375-.305-.125,0-.24875.03125-.37125.09375-.09417.04667-.24917.1875-.465.4225Z" style="stroke-width: 0px;"/>
          <path id="uuid-9ba59c60-9a5c-481b-94a0-1cf52779cfee" data-name="TimesNewRomanPSMT-70" d="m152.98082,137.17145l1.10125-.445h.14875v.835c.185-.315.37042-.53542.55625-.66125.18667-.12667.3825-.19.5875-.19.36,0,.65958.14083.89875.4225.29417.34333.44125.79125.44125,1.34375,0,.61667-.17708,1.12708-.53125,1.53125-.29167.33083-.65875.49625-1.10125.49625-.1925,0-.35917-.0275-.5-.0825-.10417-.03917-.22125-.1175-.35125-.235v1.09c0,.245.015.40042.045.46625.03.06667.08208.11958.15625.15875s.20875.05875.40375.05875v.145h-1.875v-.145h.0975c.14333.0025.26583-.02458.3675-.08125.04917-.02917.0875-.07583.115-.14.0275-.06333.04125-.225.04125-.485v-3.38375c0-.23167-.01042-.37875-.03125-.44125s-.05417-.10917-.1-.14c-.045-.03167-.10667-.0475-.185-.0475-.0625,0-.14208.01833-.23875.055l-.04625-.125Zm1.25.62125v1.335c0,.28917.01167.47958.035.57125.03667.15083.12583.28375.2675.39875.14167.11417.32083.17125.5375.17125.26,0,.47083-.10167.6325-.305.21083-.26583.31625-.63958.31625-1.12125,0-.54667-.11958-.96708-.35875-1.26125-.16667-.20333-.36458-.305-.59375-.305-.125,0-.24875.03125-.37125.09375-.09417.04667-.24917.1875-.465.4225Z" style="stroke-width: 0px;"/>
          <path id="uuid-4387169d-a437-44d1-9030-d9ebc6a368b5" data-name="TimesNewRomanPSMT-65" d="m157.83957,138.16395c-.0025.53083.12667.9475.3875,1.25.26.30167.56583.4525.9175.4525.23417,0,.43792-.06417.61125-.1925.17333-.12917.31875-.35.43625-.6625l.12.0775c-.05417.35667-.21292.68167-.47625.975-.2625.29333-.59167.44-.9875.44-.43,0-.79792-.1675-1.10375-.5025-.30583-.335-.45875-.785-.45875-1.35,0-.61167.15667-1.08875.47-1.43125.31417-.3425.70792-.51375,1.18125-.51375.40167,0,.73125.13208.98875.39625s.38625.61792.38625,1.06125h-2.4725Zm0-.2275h1.65625c-.0125-.22917-.03958-.39042-.08125-.48375-.065-.14583-.16208-.26042-.29125-.34375s-.26417-.125-.405-.125c-.21583,0-.40917.08417-.58.2525-.17.1675-.26958.40083-.29875.7Z" style="stroke-width: 0px;"/>
          <path id="uuid-ad784eb6-f4f5-4503-8850-0d3101ba80d3" data-name="TimesNewRomanPSMT-72" d="m161.8366,136.7102v.805c.29917-.53667.60625-.805.92125-.805.14333,0,.26167.04375.355.13125.09417.08667.14125.1875.14125.3025,0,.10167-.03417.18792-.1025.25875-.0675.07-.14792.105-.24125.105-.09083,0-.19292-.045-.30625-.135s-.1975-.135-.2525-.135c-.04667,0-.0975.02583-.1525.0775-.11667.1075-.2375.28333-.3625.5275v1.715c0,.19833.02458.34833.07375.45.03417.07.09417.12833.18.175s.20958.07.37125.07v.14125h-1.8325v-.14125c.1825,0,.31792-.02833.40625-.085.065-.04167.11042-.10833.13625-.2.01333-.04417.02-.17042.02-.37875v-1.38625c0-.41667-.00875-.66458-.02625-.74375-.01667-.08-.04792-.13792-.09375-.17375-.045-.03667-.10125-.055-.16875-.055-.08083,0-.17208.01958-.27375.05875l-.03875-.14125,1.08125-.4375h.165Z" style="stroke-width: 0px;"/>
          <path id="uuid-76b44d03-6468-4c8f-a1ee-5f0a0e113eea" data-name="TimesNewRomanPSMT-42" d="m168.89816,137.6902c.3675.07833.6425.20333.825.375.2525.24.37875.53333.37875.88,0,.2625-.08333.51417-.25.755-.16667.24083-.39542.41667-.68625.5275-.29.11083-.73333.16625-1.33.16625h-2.5v-.145h.2c.22083,0,.37958-.07.47625-.21.06-.09167.09-.28583.09-.5825v-3.4225c0-.3275-.03792-.53417-.11375-.62-.10167-.115-.2525-.1725-.4525-.1725h-.2v-.145h2.29c.42667,0,.76875.03125,1.02625.09375.39083.09417.68917.26042.895.49875s.30875.5125.30875.8225c0,.265-.08083.5025-.2425.7125s-.4.36542-.715.46625Zm-2.04625-.21c.09583.01833.20542.03208.32875.04125.12417.00833.26042.0125.40875.0125.38083,0,.66667-.04083.8575-.1225.19167-.08167.33833-.20708.44-.37625.10167-.17.1525-.355.1525-.555,0-.31-.12625-.57417-.37875-.7925-.2525-.21917-.62125-.32875-1.10625-.32875-.26,0-.49417.02875-.7025.08625v2.035Zm0,2.53125c.30167.07.59958.105.89375.105.47167,0,.83125-.10583,1.07875-.3175.2475-.2125.37125-.475.37125-.7875,0-.20583-.05625-.40375-.16875-.59375-.11167-.19-.29375-.33958-.54625-.44875-.2525-.11-.565-.165-.9375-.165-.16167,0-.3.00292-.415.00875-.11417.005-.20625.01375-.27625.02625v2.1725Z" style="stroke-width: 0px;"/>
          <path id="uuid-e237be8d-f8aa-49fd-b931-06f1f7944ae2" data-name="TimesNewRomanPSMT-6f" d="m172.5391,136.7102c.54167,0,.97667.20583,1.305.6175.27833.35167.4175.75542.4175,1.21125,0,.32-.07708.64417-.23125.9725-.15333.3275-.36458.575-.63375.7425-.26917.16667-.56917.25-.9.25-.53917,0-.9675-.215-1.285-.645-.26833-.3625-.4025-.76875-.4025-1.21875,0-.32833.08125-.65458.24375-.97875.1625-.32417.37667-.56375.6425-.71875.26583-.155.54708-.2325.84375-.2325Zm-.12125.25375c-.1375,0-.27625.04125-.41625.12375-.13917.08167-.25167.22542-.3375.43125s-.12875.47-.12875.7925c0,.52083.10333.97042.31,1.34875.2075.3775.48042.56625.81875.56625.2525,0,.46083-.10417.625-.3125.16417-.20833.24625-.56667.24625-1.075,0-.635-.13667-1.135-.41-1.5-.185-.25-.42083-.375-.7075-.375Z" style="stroke-width: 0px;"/>
          <path id="uuid-54708ddb-d696-4852-a89b-c915eee2a50a" data-name="TimesNewRomanPSMT-75" d="m177.92535,136.8152v2.16875c0,.41417.00958.6675.02875.76.02.0925.05125.15708.09375.19375.04333.03583.09375.05375.15125.05375.08083,0,.17208-.02208.27375-.06625l.055.13625-1.07125.4425h-.175v-.75875c-.3075.33333-.54208.54333-.70375.63-.16083.08583-.33125.12875-.51125.12875-.20083,0-.375-.05792-.5225-.17375-.14667-.11667-.24875-.26583-.30625-.4475-.05667-.1825-.085-.44042-.085-.77375v-1.5975c0-.16917-.01833-.28625-.055-.35125-.03667-.06583-.09083-.11625-.1625-.15125s-.20125-.05125-.38875-.04875v-.145h1.25375v2.395c0,.33333.05792.55208.17375.65625.11667.10417.25667.15625.42.15625.1125,0,.23958-.035.38125-.105.14167-.07083.31042-.205.50625-.4025v-2.0275c0-.20333-.03708-.34083-.11125-.4125-.07417-.07167-.22875-.11-.46375-.115v-.145h1.21875Z" style="stroke-width: 0px;"/>
          <path id="uuid-d381d663-e4f6-4cb5-bb93-dfd107181253" data-name="TimesNewRomanPSMT-6e" d="m179.8316,137.4677c.42-.505.82-.7575,1.2-.7575.195,0,.36292.04875.50375.14625s.25292.25833.33625.4825c.05667.15667.085.39625.085.71875v1.5275c0,.22667.01833.38042.055.46125.02917.065.07542.11583.13875.1525.06417.03583.18208.05375.35375.05375v.14125h-1.77v-.14125h.075c.16667,0,.28292-.025.34875-.075.06667-.05083.11292-.12583.13875-.225.01083-.03917.01625-.16167.01625-.3675v-1.465c0-.325-.0425-.56125-.1275-.70875-.08417-.1475-.22667-.22125-.4275-.22125-.31,0-.61875.16958-.92625.50875v1.88625c0,.2425.01458.39208.04375.44875.03667.07583.08667.13125.15.16625.06417.035.19375.0525.38875.0525v.14125h-1.77v-.14125h.07875c.1825,0,.30542-.04583.36875-.1375.06417-.0925.09625-.26917.09625-.53v-1.3275c0-.43-.01-.69167-.03-.785-.01917-.09417-.04917-.15792-.09-.19125-.04-.03417-.09375-.05125-.16125-.05125-.07333,0-.16083.01958-.2625.05875l-.0575-.14125,1.0775-.4375h.1675v.7575Z" style="stroke-width: 0px;"/>
          <path id="uuid-a762522b-c37d-4461-a131-ff5a5da75f33" data-name="TimesNewRomanPSMT-64" d="m185.3166,139.99145c-.17417.1825-.34458.31375-.51125.39375-.16667.07917-.34667.11875-.54.11875-.39,0-.73083-.16333-1.0225-.49-.29167-.3275-.4375-.74792-.4375-1.26125,0-.5125.16125-.98167.48375-1.4075.32333-.42583.73875-.63875,1.24625-.63875.315,0,.57542.10042.78125.30125v-.66125c0-.40833-.01-.65917-.03-.7525-.01917-.09417-.04958-.15792-.09125-.19125-.04167-.03417-.09375-.05125-.15625-.05125-.0675,0-.1575.02083-.27.0625l-.05-.1375,1.06625-.4375h.17625v4.1375c0,.41917.00958.675.02875.7675s.05042.15708.09375.19375c.04333.03583.09333.05375.15.05375.07083,0,.16458-.02208.28125-.06625l.04375.13625-1.0625.4425h-.18v-.5125Zm0-.27375v-1.84375c-.01583-.17667-.06292-.33792-.14125-.48375-.0775-.14583-.18083-.25583-.31-.33s-.255-.11125-.3775-.11125c-.22917,0-.43333.10292-.6125.30875-.2375.27083-.35625.66667-.35625,1.1875,0,.52583.11458.92875.34375,1.20875.22917.28.48458.42.76625.42.23667,0,.46583-.11875.6875-.35625Z" style="stroke-width: 0px;"/>
        </g>
      </g>
    </g>
  </g>
</svg>