<?xml version="1.0" encoding="utf-8" standalone="no"?>
<!DOCTYPE svg PUBLIC "-//W3C//DTD SVG 1.1//EN"
  "http://www.w3.org/Graphics/SVG/1.1/DTD/svg11.dtd">
<svg xmlns:xlink="http://www.w3.org/1999/xlink" width="897.214178pt" height="305.333125pt" viewBox="0 0 897.214178 305.333125" xmlns="http://www.w3.org/2000/svg" version="1.1">
 <metadata>
  <rdf:RDF xmlns:dc="http://purl.org/dc/elements/1.1/" xmlns:cc="http://creativecommons.org/ns#" xmlns:rdf="http://www.w3.org/1999/02/22-rdf-syntax-ns#">
   <cc:Work>
    <dc:type rdf:resource="http://purl.org/dc/dcmitype/StillImage"/>
    <dc:date>2023-09-27T10:50:13.607356</dc:date>
    <dc:format>image/svg+xml</dc:format>
    <dc:creator>
     <cc:Agent>
      <dc:title>Matplotlib v3.7.0, https://matplotlib.org/</dc:title>
     </cc:Agent>
    </dc:creator>
   </cc:Work>
  </rdf:RDF>
 </metadata>
 <defs>
  <style type="text/css">*{stroke-linejoin: round; stroke-linecap: butt}</style>
 </defs>
 <g id="figure_1">
  <g id="patch_1">
   <path d="M 0 305.333125 
L 897.214178 305.333125 
L 897.214178 0 
L 0 0 
L 0 305.333125 
z
" style="fill: none"/>
  </g>
  <g id="axes_1">
   <g id="patch_2">
    <path d="M 56.210625 268.80125 
L 436.66517 268.80125 
L 436.66517 19.32125 
L 56.210625 19.32125 
L 56.210625 268.80125 
z
" style="fill: none"/>
   </g>
   <g id="PolyCollection_1">
    <path d="M 77.069661 131.175711 
L 77.069661 156.946789 
L 87.766602 163.099191 
L 94.897896 164.394977 
L 102.02919 164.40106 
L 109.160484 165.63122 
L 116.291779 168.405067 
L 123.423073 171.436964 
L 130.554367 173.578157 
L 137.685661 174.401215 
L 144.816955 174.412101 
L 151.94825 175.023135 
L 159.079544 177.070878 
L 166.210838 179.759942 
L 173.342132 181.501508 
L 180.473426 181.959265 
L 187.604721 181.975191 
L 194.736015 182.636668 
L 201.867309 184.151886 
L 208.998603 185.938412 
L 216.129897 187.284854 
L 223.261192 187.809255 
L 230.392486 187.811206 
L 237.52378 188.266925 
L 244.655074 189.800116 
L 251.786368 191.926409 
L 258.917663 193.359025 
L 266.048957 193.750388 
L 273.180251 193.75601 
L 280.311545 194.197772 
L 287.442839 195.273368 
L 294.574134 196.572447 
L 301.705428 197.573631 
L 308.836722 197.979095 
L 315.968016 197.982344 
L 323.09931 198.294751 
L 330.230605 199.387041 
L 337.361899 200.876204 
L 344.493193 201.856627 
L 351.624487 202.129069 
L 358.755781 202.136438 
L 365.887076 202.505035 
L 373.01837 203.382624 
L 380.149664 204.446179 
L 387.280958 205.281313 
L 394.412252 205.616784 
L 401.543547 205.621884 
L 408.674841 205.859946 
L 419.371782 206.745645 
L 419.371782 81.376855 
L 419.371782 81.376855 
L 408.674841 82.262554 
L 401.543547 82.500616 
L 394.412252 82.505716 
L 387.280958 82.841187 
L 380.149664 83.676321 
L 373.01837 84.739876 
L 365.887076 85.617465 
L 358.755781 85.986062 
L 351.624487 85.993431 
L 344.493193 86.265873 
L 337.361899 87.246296 
L 330.230605 88.735459 
L 323.09931 89.827749 
L 315.968016 90.140156 
L 308.836722 90.143405 
L 301.705428 90.548869 
L 294.574134 91.550053 
L 287.442839 92.849132 
L 280.311545 93.924728 
L 273.180251 94.36649 
L 266.048957 94.372112 
L 258.917663 94.763475 
L 251.786368 96.196091 
L 244.655074 98.322384 
L 237.52378 99.855575 
L 230.392486 100.311294 
L 223.261192 100.313245 
L 216.129897 100.837646 
L 208.998603 102.184088 
L 201.867309 103.970614 
L 194.736015 105.485832 
L 187.604721 106.147309 
L 180.473426 106.163235 
L 173.342132 106.620992 
L 166.210838 108.362558 
L 159.079544 111.051622 
L 151.94825 113.099365 
L 144.816955 113.710399 
L 137.685661 113.721285 
L 130.554367 114.544343 
L 123.423073 116.685536 
L 116.291779 119.717433 
L 109.160484 122.49128 
L 102.02919 123.72144 
L 94.897896 123.727523 
L 87.766602 125.023309 
L 77.069661 131.175711 
z
" clip-path="url(#pe8e6188c2d)" style="fill: #1f77b4; fill-opacity: 0.25"/>
   </g>
   <g id="matplotlib.axis_1">
    <g id="xtick_1">
     <g id="line2d_1">
      <path d="M 73.504013 268.80125 
L 73.504013 19.32125 
" clip-path="url(#pe8e6188c2d)" style="fill: none; stroke-dasharray: 1.85,0.8; stroke-dashoffset: 0; stroke: #000000; stroke-width: 0.5"/>
     </g>
     <g id="line2d_2">
      <defs>
       <path id="m3594e59923" d="M 0 0 
L 0 -2 
" style="stroke: #000000; stroke-width: 0.5"/>
      </defs>
      <g>
       <use xlink:href="#m3594e59923" x="73.504013" y="268.80125" style="stroke: #000000; stroke-width: 0.5"/>
      </g>
     </g>
     <g id="text_1">
      <!-- 0 -->
      <g transform="translate(70.004013 282.0225) scale(0.14 -0.14)">
       <defs>
        <path id="TimesNewRomanPSMT-30" d="M 231 2094 
Q 231 2819 450 3342 
Q 669 3866 1031 4122 
Q 1313 4325 1613 4325 
Q 2100 4325 2488 3828 
Q 2972 3213 2972 2159 
Q 2972 1422 2759 906 
Q 2547 391 2217 158 
Q 1888 -75 1581 -75 
Q 975 -75 572 641 
Q 231 1244 231 2094 
z
M 844 2016 
Q 844 1141 1059 588 
Q 1238 122 1591 122 
Q 1759 122 1940 273 
Q 2122 425 2216 781 
Q 2359 1319 2359 2297 
Q 2359 3022 2209 3506 
Q 2097 3866 1919 4016 
Q 1791 4119 1609 4119 
Q 1397 4119 1231 3928 
Q 1006 3669 925 3112 
Q 844 2556 844 2016 
z
" transform="scale(0.015625)"/>
       </defs>
       <use xlink:href="#TimesNewRomanPSMT-30"/>
      </g>
     </g>
    </g>
    <g id="xtick_2">
     <g id="line2d_3">
      <path d="M 144.816955 268.80125 
L 144.816955 19.32125 
" clip-path="url(#pe8e6188c2d)" style="fill: none; stroke-dasharray: 1.85,0.8; stroke-dashoffset: 0; stroke: #000000; stroke-width: 0.5"/>
     </g>
     <g id="line2d_4">
      <g>
       <use xlink:href="#m3594e59923" x="144.816955" y="268.80125" style="stroke: #000000; stroke-width: 0.5"/>
      </g>
     </g>
     <g id="text_2">
      <!-- 10 -->
      <g transform="translate(137.816955 282.0225) scale(0.14 -0.14)">
       <defs>
        <path id="TimesNewRomanPSMT-31" d="M 750 3822 
L 1781 4325 
L 1884 4325 
L 1884 747 
Q 1884 391 1914 303 
Q 1944 216 2037 169 
Q 2131 122 2419 116 
L 2419 0 
L 825 0 
L 825 116 
Q 1125 122 1212 167 
Q 1300 213 1334 289 
Q 1369 366 1369 747 
L 1369 3034 
Q 1369 3497 1338 3628 
Q 1316 3728 1258 3775 
Q 1200 3822 1119 3822 
Q 1003 3822 797 3725 
L 750 3822 
z
" transform="scale(0.015625)"/>
       </defs>
       <use xlink:href="#TimesNewRomanPSMT-31"/>
       <use xlink:href="#TimesNewRomanPSMT-30" x="50"/>
      </g>
     </g>
    </g>
    <g id="xtick_3">
     <g id="line2d_5">
      <path d="M 216.129897 268.80125 
L 216.129897 19.32125 
" clip-path="url(#pe8e6188c2d)" style="fill: none; stroke-dasharray: 1.85,0.8; stroke-dashoffset: 0; stroke: #000000; stroke-width: 0.5"/>
     </g>
     <g id="line2d_6">
      <g>
       <use xlink:href="#m3594e59923" x="216.129897" y="268.80125" style="stroke: #000000; stroke-width: 0.5"/>
      </g>
     </g>
     <g id="text_3">
      <!-- 20 -->
      <g transform="translate(209.129897 282.0225) scale(0.14 -0.14)">
       <defs>
        <path id="TimesNewRomanPSMT-32" d="M 2934 816 
L 2638 0 
L 138 0 
L 138 116 
Q 1241 1122 1691 1759 
Q 2141 2397 2141 2925 
Q 2141 3328 1894 3587 
Q 1647 3847 1303 3847 
Q 991 3847 742 3664 
Q 494 3481 375 3128 
L 259 3128 
Q 338 3706 661 4015 
Q 984 4325 1469 4325 
Q 1984 4325 2329 3994 
Q 2675 3663 2675 3213 
Q 2675 2891 2525 2569 
Q 2294 2063 1775 1497 
Q 997 647 803 472 
L 1909 472 
Q 2247 472 2383 497 
Q 2519 522 2628 598 
Q 2738 675 2819 816 
L 2934 816 
z
" transform="scale(0.015625)"/>
       </defs>
       <use xlink:href="#TimesNewRomanPSMT-32"/>
       <use xlink:href="#TimesNewRomanPSMT-30" x="50"/>
      </g>
     </g>
    </g>
    <g id="xtick_4">
     <g id="line2d_7">
      <path d="M 287.442839 268.80125 
L 287.442839 19.32125 
" clip-path="url(#pe8e6188c2d)" style="fill: none; stroke-dasharray: 1.85,0.8; stroke-dashoffset: 0; stroke: #000000; stroke-width: 0.5"/>
     </g>
     <g id="line2d_8">
      <g>
       <use xlink:href="#m3594e59923" x="287.442839" y="268.80125" style="stroke: #000000; stroke-width: 0.5"/>
      </g>
     </g>
     <g id="text_4">
      <!-- 30 -->
      <g transform="translate(280.442839 282.0225) scale(0.14 -0.14)">
       <defs>
        <path id="TimesNewRomanPSMT-33" d="M 325 3431 
Q 506 3859 782 4092 
Q 1059 4325 1472 4325 
Q 1981 4325 2253 3994 
Q 2459 3747 2459 3466 
Q 2459 3003 1878 2509 
Q 2269 2356 2469 2072 
Q 2669 1788 2669 1403 
Q 2669 853 2319 450 
Q 1863 -75 997 -75 
Q 569 -75 414 31 
Q 259 138 259 259 
Q 259 350 332 419 
Q 406 488 509 488 
Q 588 488 669 463 
Q 722 447 909 348 
Q 1097 250 1169 231 
Q 1284 197 1416 197 
Q 1734 197 1970 444 
Q 2206 691 2206 1028 
Q 2206 1275 2097 1509 
Q 2016 1684 1919 1775 
Q 1784 1900 1550 2001 
Q 1316 2103 1072 2103 
L 972 2103 
L 972 2197 
Q 1219 2228 1467 2375 
Q 1716 2522 1828 2728 
Q 1941 2934 1941 3181 
Q 1941 3503 1739 3701 
Q 1538 3900 1238 3900 
Q 753 3900 428 3381 
L 325 3431 
z
" transform="scale(0.015625)"/>
       </defs>
       <use xlink:href="#TimesNewRomanPSMT-33"/>
       <use xlink:href="#TimesNewRomanPSMT-30" x="50"/>
      </g>
     </g>
    </g>
    <g id="xtick_5">
     <g id="line2d_9">
      <path d="M 358.755781 268.80125 
L 358.755781 19.32125 
" clip-path="url(#pe8e6188c2d)" style="fill: none; stroke-dasharray: 1.85,0.8; stroke-dashoffset: 0; stroke: #000000; stroke-width: 0.5"/>
     </g>
     <g id="line2d_10">
      <g>
       <use xlink:href="#m3594e59923" x="358.755781" y="268.80125" style="stroke: #000000; stroke-width: 0.5"/>
      </g>
     </g>
     <g id="text_5">
      <!-- 40 -->
      <g transform="translate(351.755781 282.0225) scale(0.14 -0.14)">
       <defs>
        <path id="TimesNewRomanPSMT-34" d="M 2978 1563 
L 2978 1119 
L 2409 1119 
L 2409 0 
L 1894 0 
L 1894 1119 
L 100 1119 
L 100 1519 
L 2066 4325 
L 2409 4325 
L 2409 1563 
L 2978 1563 
z
M 1894 1563 
L 1894 3666 
L 406 1563 
L 1894 1563 
z
" transform="scale(0.015625)"/>
       </defs>
       <use xlink:href="#TimesNewRomanPSMT-34"/>
       <use xlink:href="#TimesNewRomanPSMT-30" x="50"/>
      </g>
     </g>
    </g>
    <g id="xtick_6">
     <g id="line2d_11">
      <path d="M 430.068723 268.80125 
L 430.068723 19.32125 
" clip-path="url(#pe8e6188c2d)" style="fill: none; stroke-dasharray: 1.85,0.8; stroke-dashoffset: 0; stroke: #000000; stroke-width: 0.5"/>
     </g>
     <g id="line2d_12">
      <g>
       <use xlink:href="#m3594e59923" x="430.068723" y="268.80125" style="stroke: #000000; stroke-width: 0.5"/>
      </g>
     </g>
     <g id="text_6">
      <!-- 50 -->
      <g transform="translate(423.068723 282.0225) scale(0.14 -0.14)">
       <defs>
        <path id="TimesNewRomanPSMT-35" d="M 2778 4238 
L 2534 3706 
L 1259 3706 
L 981 3138 
Q 1809 3016 2294 2522 
Q 2709 2097 2709 1522 
Q 2709 1188 2573 903 
Q 2438 619 2231 419 
Q 2025 219 1772 97 
Q 1413 -75 1034 -75 
Q 653 -75 479 54 
Q 306 184 306 341 
Q 306 428 378 495 
Q 450 563 559 563 
Q 641 563 702 538 
Q 763 513 909 409 
Q 1144 247 1384 247 
Q 1750 247 2026 523 
Q 2303 800 2303 1197 
Q 2303 1581 2056 1914 
Q 1809 2247 1375 2428 
Q 1034 2569 447 2591 
L 1259 4238 
L 2778 4238 
z
" transform="scale(0.015625)"/>
       </defs>
       <use xlink:href="#TimesNewRomanPSMT-35"/>
       <use xlink:href="#TimesNewRomanPSMT-30" x="50"/>
      </g>
     </g>
    </g>
    <g id="text_7">
     <!-- Lag -->
     <g transform="translate(235.555085 298.712187) scale(0.14 -0.14)">
      <defs>
       <path id="TimesNewRomanPSMT-4c" d="M 3669 1172 
L 3772 1150 
L 3409 0 
L 128 0 
L 128 116 
L 288 116 
Q 556 116 672 291 
Q 738 391 738 753 
L 738 3488 
Q 738 3884 650 3984 
Q 528 4122 288 4122 
L 128 4122 
L 128 4238 
L 2047 4238 
L 2047 4122 
Q 1709 4125 1573 4059 
Q 1438 3994 1388 3894 
Q 1338 3794 1338 3416 
L 1338 753 
Q 1338 494 1388 397 
Q 1425 331 1503 300 
Q 1581 269 1991 269 
L 2300 269 
Q 2788 269 2984 341 
Q 3181 413 3343 595 
Q 3506 778 3669 1172 
z
" transform="scale(0.015625)"/>
       <path id="TimesNewRomanPSMT-61" d="M 1822 413 
Q 1381 72 1269 19 
Q 1100 -59 909 -59 
Q 613 -59 420 144 
Q 228 347 228 678 
Q 228 888 322 1041 
Q 450 1253 767 1440 
Q 1084 1628 1822 1897 
L 1822 2009 
Q 1822 2438 1686 2597 
Q 1550 2756 1291 2756 
Q 1094 2756 978 2650 
Q 859 2544 859 2406 
L 866 2225 
Q 866 2081 792 2003 
Q 719 1925 600 1925 
Q 484 1925 411 2006 
Q 338 2088 338 2228 
Q 338 2497 613 2722 
Q 888 2947 1384 2947 
Q 1766 2947 2009 2819 
Q 2194 2722 2281 2516 
Q 2338 2381 2338 1966 
L 2338 994 
Q 2338 584 2353 492 
Q 2369 400 2405 369 
Q 2441 338 2488 338 
Q 2538 338 2575 359 
Q 2641 400 2828 588 
L 2828 413 
Q 2478 -56 2159 -56 
Q 2006 -56 1915 50 
Q 1825 156 1822 413 
z
M 1822 616 
L 1822 1706 
Q 1350 1519 1213 1441 
Q 966 1303 859 1153 
Q 753 1003 753 825 
Q 753 600 887 451 
Q 1022 303 1197 303 
Q 1434 303 1822 616 
z
" transform="scale(0.015625)"/>
       <path id="TimesNewRomanPSMT-67" d="M 966 1044 
Q 703 1172 562 1401 
Q 422 1631 422 1909 
Q 422 2334 742 2640 
Q 1063 2947 1563 2947 
Q 1972 2947 2272 2747 
L 2878 2747 
Q 3013 2747 3034 2739 
Q 3056 2731 3066 2713 
Q 3084 2684 3084 2613 
Q 3084 2531 3069 2500 
Q 3059 2484 3036 2475 
Q 3013 2466 2878 2466 
L 2506 2466 
Q 2681 2241 2681 1891 
Q 2681 1491 2375 1206 
Q 2069 922 1553 922 
Q 1341 922 1119 984 
Q 981 866 932 777 
Q 884 688 884 625 
Q 884 572 936 522 
Q 988 472 1138 450 
Q 1225 438 1575 428 
Q 2219 413 2409 384 
Q 2700 344 2873 169 
Q 3047 -6 3047 -263 
Q 3047 -616 2716 -925 
Q 2228 -1381 1444 -1381 
Q 841 -1381 425 -1109 
Q 191 -953 191 -784 
Q 191 -709 225 -634 
Q 278 -519 444 -313 
Q 466 -284 763 25 
Q 600 122 533 198 
Q 466 275 466 372 
Q 466 481 555 628 
Q 644 775 966 1044 
z
M 1509 2797 
Q 1278 2797 1122 2612 
Q 966 2428 966 2047 
Q 966 1553 1178 1281 
Q 1341 1075 1591 1075 
Q 1828 1075 1981 1253 
Q 2134 1431 2134 1813 
Q 2134 2309 1919 2591 
Q 1759 2797 1509 2797 
z
M 934 0 
Q 788 -159 713 -296 
Q 638 -434 638 -550 
Q 638 -700 819 -813 
Q 1131 -1006 1722 -1006 
Q 2284 -1006 2551 -807 
Q 2819 -609 2819 -384 
Q 2819 -222 2659 -153 
Q 2497 -84 2016 -72 
Q 1313 -53 934 0 
z
" transform="scale(0.015625)"/>
      </defs>
      <use xlink:href="#TimesNewRomanPSMT-4c"/>
      <use xlink:href="#TimesNewRomanPSMT-61" x="61.083984"/>
      <use xlink:href="#TimesNewRomanPSMT-67" x="105.46875"/>
     </g>
    </g>
   </g>
   <g id="matplotlib.axis_2">
    <g id="ytick_1">
     <g id="line2d_13">
      <path d="M 56.210625 268.80125 
L 436.66517 268.80125 
" clip-path="url(#pe8e6188c2d)" style="fill: none; stroke-dasharray: 1.85,0.8; stroke-dashoffset: 0; stroke: #000000; stroke-width: 0.5"/>
     </g>
     <g id="line2d_14">
      <defs>
       <path id="mb59b8249f7" d="M 0 0 
L 2 0 
" style="stroke: #000000; stroke-width: 0.5"/>
      </defs>
      <g>
       <use xlink:href="#mb59b8249f7" x="56.210625" y="268.80125" style="stroke: #000000; stroke-width: 0.5"/>
      </g>
     </g>
     <g id="text_8">
      <!-- −1.00 -->
      <g transform="translate(20.315938 273.661875) scale(0.14 -0.14)">
       <defs>
        <path id="TimesNewRomanPSMT-2212" d="M 3484 2000 
L 116 2000 
L 116 2256 
L 3484 2256 
L 3484 2000 
z
" transform="scale(0.015625)"/>
        <path id="TimesNewRomanPSMT-2e" d="M 800 606 
Q 947 606 1047 504 
Q 1147 403 1147 259 
Q 1147 116 1045 14 
Q 944 -88 800 -88 
Q 656 -88 554 14 
Q 453 116 453 259 
Q 453 406 554 506 
Q 656 606 800 606 
z
" transform="scale(0.015625)"/>
       </defs>
       <use xlink:href="#TimesNewRomanPSMT-2212"/>
       <use xlink:href="#TimesNewRomanPSMT-31" x="56.396484"/>
       <use xlink:href="#TimesNewRomanPSMT-2e" x="106.396484"/>
       <use xlink:href="#TimesNewRomanPSMT-30" x="131.396484"/>
       <use xlink:href="#TimesNewRomanPSMT-30" x="181.396484"/>
      </g>
     </g>
    </g>
    <g id="ytick_2">
     <g id="line2d_15">
      <path d="M 56.210625 237.61625 
L 436.66517 237.61625 
" clip-path="url(#pe8e6188c2d)" style="fill: none; stroke-dasharray: 1.85,0.8; stroke-dashoffset: 0; stroke: #000000; stroke-width: 0.5"/>
     </g>
     <g id="line2d_16">
      <g>
       <use xlink:href="#mb59b8249f7" x="56.210625" y="237.61625" style="stroke: #000000; stroke-width: 0.5"/>
      </g>
     </g>
     <g id="text_9">
      <!-- −0.75 -->
      <g transform="translate(20.315938 242.476875) scale(0.14 -0.14)">
       <defs>
        <path id="TimesNewRomanPSMT-37" d="M 644 4238 
L 2916 4238 
L 2916 4119 
L 1503 -88 
L 1153 -88 
L 2419 3728 
L 1253 3728 
Q 900 3728 750 3644 
Q 488 3500 328 3200 
L 238 3234 
L 644 4238 
z
" transform="scale(0.015625)"/>
       </defs>
       <use xlink:href="#TimesNewRomanPSMT-2212"/>
       <use xlink:href="#TimesNewRomanPSMT-30" x="56.396484"/>
       <use xlink:href="#TimesNewRomanPSMT-2e" x="106.396484"/>
       <use xlink:href="#TimesNewRomanPSMT-37" x="131.396484"/>
       <use xlink:href="#TimesNewRomanPSMT-35" x="181.396484"/>
      </g>
     </g>
    </g>
    <g id="ytick_3">
     <g id="line2d_17">
      <path d="M 56.210625 206.43125 
L 436.66517 206.43125 
" clip-path="url(#pe8e6188c2d)" style="fill: none; stroke-dasharray: 1.85,0.8; stroke-dashoffset: 0; stroke: #000000; stroke-width: 0.5"/>
     </g>
     <g id="line2d_18">
      <g>
       <use xlink:href="#mb59b8249f7" x="56.210625" y="206.43125" style="stroke: #000000; stroke-width: 0.5"/>
      </g>
     </g>
     <g id="text_10">
      <!-- −0.50 -->
      <g transform="translate(20.315938 211.291875) scale(0.14 -0.14)">
       <use xlink:href="#TimesNewRomanPSMT-2212"/>
       <use xlink:href="#TimesNewRomanPSMT-30" x="56.396484"/>
       <use xlink:href="#TimesNewRomanPSMT-2e" x="106.396484"/>
       <use xlink:href="#TimesNewRomanPSMT-35" x="131.396484"/>
       <use xlink:href="#TimesNewRomanPSMT-30" x="181.396484"/>
      </g>
     </g>
    </g>
    <g id="ytick_4">
     <g id="line2d_19">
      <path d="M 56.210625 175.24625 
L 436.66517 175.24625 
" clip-path="url(#pe8e6188c2d)" style="fill: none; stroke-dasharray: 1.85,0.8; stroke-dashoffset: 0; stroke: #000000; stroke-width: 0.5"/>
     </g>
     <g id="line2d_20">
      <g>
       <use xlink:href="#mb59b8249f7" x="56.210625" y="175.24625" style="stroke: #000000; stroke-width: 0.5"/>
      </g>
     </g>
     <g id="text_11">
      <!-- −0.25 -->
      <g transform="translate(20.315938 180.106875) scale(0.14 -0.14)">
       <use xlink:href="#TimesNewRomanPSMT-2212"/>
       <use xlink:href="#TimesNewRomanPSMT-30" x="56.396484"/>
       <use xlink:href="#TimesNewRomanPSMT-2e" x="106.396484"/>
       <use xlink:href="#TimesNewRomanPSMT-32" x="131.396484"/>
       <use xlink:href="#TimesNewRomanPSMT-35" x="181.396484"/>
      </g>
     </g>
    </g>
    <g id="ytick_5">
     <g id="line2d_21">
      <path d="M 56.210625 144.06125 
L 436.66517 144.06125 
" clip-path="url(#pe8e6188c2d)" style="fill: none; stroke-dasharray: 1.85,0.8; stroke-dashoffset: 0; stroke: #000000; stroke-width: 0.5"/>
     </g>
     <g id="line2d_22">
      <g>
       <use xlink:href="#mb59b8249f7" x="56.210625" y="144.06125" style="stroke: #000000; stroke-width: 0.5"/>
      </g>
     </g>
     <g id="text_12">
      <!-- 0.00 -->
      <g transform="translate(28.210625 148.921875) scale(0.14 -0.14)">
       <use xlink:href="#TimesNewRomanPSMT-30"/>
       <use xlink:href="#TimesNewRomanPSMT-2e" x="50"/>
       <use xlink:href="#TimesNewRomanPSMT-30" x="75"/>
       <use xlink:href="#TimesNewRomanPSMT-30" x="125"/>
      </g>
     </g>
    </g>
    <g id="ytick_6">
     <g id="line2d_23">
      <path d="M 56.210625 112.87625 
L 436.66517 112.87625 
" clip-path="url(#pe8e6188c2d)" style="fill: none; stroke-dasharray: 1.85,0.8; stroke-dashoffset: 0; stroke: #000000; stroke-width: 0.5"/>
     </g>
     <g id="line2d_24">
      <g>
       <use xlink:href="#mb59b8249f7" x="56.210625" y="112.87625" style="stroke: #000000; stroke-width: 0.5"/>
      </g>
     </g>
     <g id="text_13">
      <!-- 0.25 -->
      <g transform="translate(28.210625 117.736875) scale(0.14 -0.14)">
       <use xlink:href="#TimesNewRomanPSMT-30"/>
       <use xlink:href="#TimesNewRomanPSMT-2e" x="50"/>
       <use xlink:href="#TimesNewRomanPSMT-32" x="75"/>
       <use xlink:href="#TimesNewRomanPSMT-35" x="125"/>
      </g>
     </g>
    </g>
    <g id="ytick_7">
     <g id="line2d_25">
      <path d="M 56.210625 81.69125 
L 436.66517 81.69125 
" clip-path="url(#pe8e6188c2d)" style="fill: none; stroke-dasharray: 1.85,0.8; stroke-dashoffset: 0; stroke: #000000; stroke-width: 0.5"/>
     </g>
     <g id="line2d_26">
      <g>
       <use xlink:href="#mb59b8249f7" x="56.210625" y="81.69125" style="stroke: #000000; stroke-width: 0.5"/>
      </g>
     </g>
     <g id="text_14">
      <!-- 0.50 -->
      <g transform="translate(28.210625 86.551875) scale(0.14 -0.14)">
       <use xlink:href="#TimesNewRomanPSMT-30"/>
       <use xlink:href="#TimesNewRomanPSMT-2e" x="50"/>
       <use xlink:href="#TimesNewRomanPSMT-35" x="75"/>
       <use xlink:href="#TimesNewRomanPSMT-30" x="125"/>
      </g>
     </g>
    </g>
    <g id="ytick_8">
     <g id="line2d_27">
      <path d="M 56.210625 50.50625 
L 436.66517 50.50625 
" clip-path="url(#pe8e6188c2d)" style="fill: none; stroke-dasharray: 1.85,0.8; stroke-dashoffset: 0; stroke: #000000; stroke-width: 0.5"/>
     </g>
     <g id="line2d_28">
      <g>
       <use xlink:href="#mb59b8249f7" x="56.210625" y="50.50625" style="stroke: #000000; stroke-width: 0.5"/>
      </g>
     </g>
     <g id="text_15">
      <!-- 0.75 -->
      <g transform="translate(28.210625 55.366875) scale(0.14 -0.14)">
       <use xlink:href="#TimesNewRomanPSMT-30"/>
       <use xlink:href="#TimesNewRomanPSMT-2e" x="50"/>
       <use xlink:href="#TimesNewRomanPSMT-37" x="75"/>
       <use xlink:href="#TimesNewRomanPSMT-35" x="125"/>
      </g>
     </g>
    </g>
    <g id="ytick_9">
     <g id="line2d_29">
      <path d="M 56.210625 19.32125 
L 436.66517 19.32125 
" clip-path="url(#pe8e6188c2d)" style="fill: none; stroke-dasharray: 1.85,0.8; stroke-dashoffset: 0; stroke: #000000; stroke-width: 0.5"/>
     </g>
     <g id="line2d_30">
      <g>
       <use xlink:href="#mb59b8249f7" x="56.210625" y="19.32125" style="stroke: #000000; stroke-width: 0.5"/>
      </g>
     </g>
     <g id="text_16">
      <!-- 1.00 -->
      <g transform="translate(28.210625 24.181875) scale(0.14 -0.14)">
       <use xlink:href="#TimesNewRomanPSMT-31"/>
       <use xlink:href="#TimesNewRomanPSMT-2e" x="50"/>
       <use xlink:href="#TimesNewRomanPSMT-30" x="75"/>
       <use xlink:href="#TimesNewRomanPSMT-30" x="125"/>
      </g>
     </g>
    </g>
    <g id="text_17">
     <!-- ACF -->
     <g transform="translate(13.32125 157.678437) rotate(-90) scale(0.14 -0.14)">
      <defs>
       <path id="TimesNewRomanPSMT-41" d="M 2928 1419 
L 1288 1419 
L 1000 750 
Q 894 503 894 381 
Q 894 284 986 211 
Q 1078 138 1384 116 
L 1384 0 
L 50 0 
L 50 116 
Q 316 163 394 238 
Q 553 388 747 847 
L 2238 4334 
L 2347 4334 
L 3822 809 
Q 4000 384 4145 257 
Q 4291 131 4550 116 
L 4550 0 
L 2878 0 
L 2878 116 
Q 3131 128 3220 200 
Q 3309 272 3309 375 
Q 3309 513 3184 809 
L 2928 1419 
z
M 2841 1650 
L 2122 3363 
L 1384 1650 
L 2841 1650 
z
" transform="scale(0.015625)"/>
       <path id="TimesNewRomanPSMT-43" d="M 3853 4334 
L 3950 2894 
L 3853 2894 
Q 3659 3541 3300 3825 
Q 2941 4109 2438 4109 
Q 2016 4109 1675 3895 
Q 1334 3681 1139 3212 
Q 944 2744 944 2047 
Q 944 1472 1128 1050 
Q 1313 628 1683 403 
Q 2053 178 2528 178 
Q 2941 178 3256 354 
Q 3572 531 3950 1056 
L 4047 994 
Q 3728 428 3303 165 
Q 2878 -97 2294 -97 
Q 1241 -97 663 684 
Q 231 1266 231 2053 
Q 231 2688 515 3219 
Q 800 3750 1298 4042 
Q 1797 4334 2388 4334 
Q 2847 4334 3294 4109 
Q 3425 4041 3481 4041 
Q 3566 4041 3628 4100 
Q 3709 4184 3744 4334 
L 3853 4334 
z
" transform="scale(0.015625)"/>
       <path id="TimesNewRomanPSMT-46" d="M 1309 4006 
L 1309 2341 
L 2081 2341 
Q 2347 2341 2470 2458 
Q 2594 2575 2634 2922 
L 2750 2922 
L 2750 1488 
L 2634 1488 
Q 2631 1734 2570 1850 
Q 2509 1966 2401 2023 
Q 2294 2081 2081 2081 
L 1309 2081 
L 1309 750 
Q 1309 428 1350 325 
Q 1381 247 1481 191 
Q 1619 116 1769 116 
L 1922 116 
L 1922 0 
L 103 0 
L 103 116 
L 253 116 
Q 516 116 634 269 
Q 709 369 709 750 
L 709 3488 
Q 709 3809 669 3913 
Q 638 3991 541 4047 
Q 406 4122 253 4122 
L 103 4122 
L 103 4238 
L 3256 4238 
L 3297 3306 
L 3188 3306 
Q 3106 3603 2998 3742 
Q 2891 3881 2733 3943 
Q 2575 4006 2244 4006 
L 1309 4006 
z
" transform="scale(0.015625)"/>
      </defs>
      <use xlink:href="#TimesNewRomanPSMT-41"/>
      <use xlink:href="#TimesNewRomanPSMT-43" x="72.216797"/>
      <use xlink:href="#TimesNewRomanPSMT-46" x="138.916016"/>
     </g>
    </g>
   </g>
   <g id="LineCollection_1">
    <path d="M 73.504013 144.06125 
L 73.504013 19.32125 
" clip-path="url(#pe8e6188c2d)" style="fill: none; stroke: #1f77b4"/>
    <path d="M 80.635308 144.06125 
L 80.635308 48.128778 
" clip-path="url(#pe8e6188c2d)" style="fill: none; stroke: #1f77b4"/>
    <path d="M 87.766602 144.06125 
L 87.766602 95.168253 
" clip-path="url(#pe8e6188c2d)" style="fill: none; stroke: #1f77b4"/>
    <path d="M 94.897896 144.06125 
L 94.897896 147.466292 
" clip-path="url(#pe8e6188c2d)" style="fill: none; stroke: #1f77b4"/>
    <path d="M 102.02919 144.06125 
L 102.02919 193.211595 
" clip-path="url(#pe8e6188c2d)" style="fill: none; stroke: #1f77b4"/>
    <path d="M 109.160484 144.06125 
L 109.160484 221.31169 
" clip-path="url(#pe8e6188c2d)" style="fill: none; stroke: #1f77b4"/>
    <path d="M 116.291779 144.06125 
L 116.291779 229.779379 
" clip-path="url(#pe8e6188c2d)" style="fill: none; stroke: #1f77b4"/>
    <path d="M 123.423073 144.06125 
L 123.423073 219.612914 
" clip-path="url(#pe8e6188c2d)" style="fill: none; stroke: #1f77b4"/>
    <path d="M 130.554367 144.06125 
L 130.554367 192.107603 
" clip-path="url(#pe8e6188c2d)" style="fill: none; stroke: #1f77b4"/>
    <path d="M 137.685661 144.06125 
L 137.685661 149.625162 
" clip-path="url(#pe8e6188c2d)" style="fill: none; stroke: #1f77b4"/>
    <path d="M 144.816955 144.06125 
L 144.816955 102.162965 
" clip-path="url(#pe8e6188c2d)" style="fill: none; stroke: #1f77b4"/>
    <path d="M 151.94825 144.06125 
L 151.94825 65.714814 
" clip-path="url(#pe8e6188c2d)" style="fill: none; stroke: #1f77b4"/>
    <path d="M 159.079544 144.06125 
L 159.079544 51.016174 
" clip-path="url(#pe8e6188c2d)" style="fill: none; stroke: #1f77b4"/>
    <path d="M 166.210838 144.06125 
L 166.210838 66.80522 
" clip-path="url(#pe8e6188c2d)" style="fill: none; stroke: #1f77b4"/>
    <path d="M 173.342132 144.06125 
L 173.342132 103.86238 
" clip-path="url(#pe8e6188c2d)" style="fill: none; stroke: #1f77b4"/>
    <path d="M 180.473426 144.06125 
L 180.473426 151.582806 
" clip-path="url(#pe8e6188c2d)" style="fill: none; stroke: #1f77b4"/>
    <path d="M 187.604721 144.06125 
L 187.604721 192.751937 
" clip-path="url(#pe8e6188c2d)" style="fill: none; stroke: #1f77b4"/>
    <path d="M 194.736015 144.06125 
L 194.736015 218.795468 
" clip-path="url(#pe8e6188c2d)" style="fill: none; stroke: #1f77b4"/>
    <path d="M 201.867309 144.06125 
L 201.867309 226.896353 
" clip-path="url(#pe8e6188c2d)" style="fill: none; stroke: #1f77b4"/>
    <path d="M 208.998603 144.06125 
L 208.998603 217.335062 
" clip-path="url(#pe8e6188c2d)" style="fill: none; stroke: #1f77b4"/>
    <path d="M 216.129897 144.06125 
L 216.129897 190.28961 
" clip-path="url(#pe8e6188c2d)" style="fill: none; stroke: #1f77b4"/>
    <path d="M 223.261192 144.06125 
L 223.261192 146.889485 
" clip-path="url(#pe8e6188c2d)" style="fill: none; stroke: #1f77b4"/>
    <path d="M 230.392486 144.06125 
L 230.392486 100.723258 
" clip-path="url(#pe8e6188c2d)" style="fill: none; stroke: #1f77b4"/>
    <path d="M 237.52378 144.06125 
L 237.52378 63.676492 
" clip-path="url(#pe8e6188c2d)" style="fill: none; stroke: #1f77b4"/>
    <path d="M 244.655074 144.06125 
L 244.655074 47.490209 
" clip-path="url(#pe8e6188c2d)" style="fill: none; stroke: #1f77b4"/>
    <path d="M 251.786368 144.06125 
L 251.786368 63.299923 
" clip-path="url(#pe8e6188c2d)" style="fill: none; stroke: #1f77b4"/>
    <path d="M 258.917663 144.06125 
L 258.917663 101.455618 
" clip-path="url(#pe8e6188c2d)" style="fill: none; stroke: #1f77b4"/>
    <path d="M 266.048957 144.06125 
L 266.048957 149.177773 
" clip-path="url(#pe8e6188c2d)" style="fill: none; stroke: #1f77b4"/>
    <path d="M 273.180251 144.06125 
L 273.180251 189.519792 
" clip-path="url(#pe8e6188c2d)" style="fill: none; stroke: #1f77b4"/>
    <path d="M 280.311545 144.06125 
L 280.311545 215.530925 
" clip-path="url(#pe8e6188c2d)" style="fill: none; stroke: #1f77b4"/>
    <path d="M 287.442839 144.06125 
L 287.442839 223.520438 
" clip-path="url(#pe8e6188c2d)" style="fill: none; stroke: #1f77b4"/>
    <path d="M 294.574134 144.06125 
L 294.574134 214.586785 
" clip-path="url(#pe8e6188c2d)" style="fill: none; stroke: #1f77b4"/>
    <path d="M 301.705428 144.06125 
L 301.705428 189.239305 
" clip-path="url(#pe8e6188c2d)" style="fill: none; stroke: #1f77b4"/>
    <path d="M 308.836722 144.06125 
L 308.836722 148.112916 
" clip-path="url(#pe8e6188c2d)" style="fill: none; stroke: #1f77b4"/>
    <path d="M 315.968016 144.06125 
L 315.968016 104.27152 
" clip-path="url(#pe8e6188c2d)" style="fill: none; stroke: #1f77b4"/>
    <path d="M 323.09931 144.06125 
L 323.09931 69.178498 
" clip-path="url(#pe8e6188c2d)" style="fill: none; stroke: #1f77b4"/>
    <path d="M 330.230605 144.06125 
L 330.230605 55.602477 
" clip-path="url(#pe8e6188c2d)" style="fill: none; stroke: #1f77b4"/>
    <path d="M 337.361899 144.06125 
L 337.361899 71.499632 
" clip-path="url(#pe8e6188c2d)" style="fill: none; stroke: #1f77b4"/>
    <path d="M 344.493193 144.06125 
L 344.493193 105.602244 
" clip-path="url(#pe8e6188c2d)" style="fill: none; stroke: #1f77b4"/>
    <path d="M 351.624487 144.06125 
L 351.624487 150.393798 
" clip-path="url(#pe8e6188c2d)" style="fill: none; stroke: #1f77b4"/>
    <path d="M 358.755781 144.06125 
L 358.755781 188.92154 
" clip-path="url(#pe8e6188c2d)" style="fill: none; stroke: #1f77b4"/>
    <path d="M 365.887076 144.06125 
L 365.887076 213.650534 
" clip-path="url(#pe8e6188c2d)" style="fill: none; stroke: #1f77b4"/>
    <path d="M 373.01837 144.06125 
L 373.01837 221.298476 
" clip-path="url(#pe8e6188c2d)" style="fill: none; stroke: #1f77b4"/>
    <path d="M 380.149664 144.06125 
L 380.149664 213.044215 
" clip-path="url(#pe8e6188c2d)" style="fill: none; stroke: #1f77b4"/>
    <path d="M 387.280958 144.06125 
L 387.280958 187.992302 
" clip-path="url(#pe8e6188c2d)" style="fill: none; stroke: #1f77b4"/>
    <path d="M 394.412252 144.06125 
L 394.412252 149.485349 
" clip-path="url(#pe8e6188c2d)" style="fill: none; stroke: #1f77b4"/>
    <path d="M 401.543547 144.06125 
L 401.543547 106.965884 
" clip-path="url(#pe8e6188c2d)" style="fill: none; stroke: #1f77b4"/>
    <path d="M 408.674841 144.06125 
L 408.674841 72.184864 
" clip-path="url(#pe8e6188c2d)" style="fill: none; stroke: #1f77b4"/>
    <path d="M 415.806135 144.06125 
L 415.806135 61.503753 
" clip-path="url(#pe8e6188c2d)" style="fill: none; stroke: #1f77b4"/>
   </g>
   <g id="line2d_31">
    <path d="M 56.210625 144.06125 
L 436.66517 144.06125 
" clip-path="url(#pe8e6188c2d)" style="fill: none; stroke: #1f77b4; stroke-linecap: square"/>
   </g>
   <g id="line2d_32">
    <defs>
     <path id="me5e768d196" d="M 0 2.5 
C 0.663008 2.5 1.29895 2.236584 1.767767 1.767767 
C 2.236584 1.29895 2.5 0.663008 2.5 0 
C 2.5 -0.663008 2.236584 -1.29895 1.767767 -1.767767 
C 1.29895 -2.236584 0.663008 -2.5 0 -2.5 
C -0.663008 -2.5 -1.29895 -2.236584 -1.767767 -1.767767 
C -2.236584 -1.29895 -2.5 -0.663008 -2.5 0 
C -2.5 0.663008 -2.236584 1.29895 -1.767767 1.767767 
C -1.29895 2.236584 -0.663008 2.5 0 2.5 
z
" style="stroke: #1f77b4"/>
    </defs>
    <g clip-path="url(#pe8e6188c2d)">
     <use xlink:href="#me5e768d196" x="73.504013" y="19.32125" style="fill: #1f77b4; stroke: #1f77b4"/>
     <use xlink:href="#me5e768d196" x="80.635308" y="48.128778" style="fill: #1f77b4; stroke: #1f77b4"/>
     <use xlink:href="#me5e768d196" x="87.766602" y="95.168253" style="fill: #1f77b4; stroke: #1f77b4"/>
     <use xlink:href="#me5e768d196" x="94.897896" y="147.466292" style="fill: #1f77b4; stroke: #1f77b4"/>
     <use xlink:href="#me5e768d196" x="102.02919" y="193.211595" style="fill: #1f77b4; stroke: #1f77b4"/>
     <use xlink:href="#me5e768d196" x="109.160484" y="221.31169" style="fill: #1f77b4; stroke: #1f77b4"/>
     <use xlink:href="#me5e768d196" x="116.291779" y="229.779379" style="fill: #1f77b4; stroke: #1f77b4"/>
     <use xlink:href="#me5e768d196" x="123.423073" y="219.612914" style="fill: #1f77b4; stroke: #1f77b4"/>
     <use xlink:href="#me5e768d196" x="130.554367" y="192.107603" style="fill: #1f77b4; stroke: #1f77b4"/>
     <use xlink:href="#me5e768d196" x="137.685661" y="149.625162" style="fill: #1f77b4; stroke: #1f77b4"/>
     <use xlink:href="#me5e768d196" x="144.816955" y="102.162965" style="fill: #1f77b4; stroke: #1f77b4"/>
     <use xlink:href="#me5e768d196" x="151.94825" y="65.714814" style="fill: #1f77b4; stroke: #1f77b4"/>
     <use xlink:href="#me5e768d196" x="159.079544" y="51.016174" style="fill: #1f77b4; stroke: #1f77b4"/>
     <use xlink:href="#me5e768d196" x="166.210838" y="66.80522" style="fill: #1f77b4; stroke: #1f77b4"/>
     <use xlink:href="#me5e768d196" x="173.342132" y="103.86238" style="fill: #1f77b4; stroke: #1f77b4"/>
     <use xlink:href="#me5e768d196" x="180.473426" y="151.582806" style="fill: #1f77b4; stroke: #1f77b4"/>
     <use xlink:href="#me5e768d196" x="187.604721" y="192.751937" style="fill: #1f77b4; stroke: #1f77b4"/>
     <use xlink:href="#me5e768d196" x="194.736015" y="218.795468" style="fill: #1f77b4; stroke: #1f77b4"/>
     <use xlink:href="#me5e768d196" x="201.867309" y="226.896353" style="fill: #1f77b4; stroke: #1f77b4"/>
     <use xlink:href="#me5e768d196" x="208.998603" y="217.335062" style="fill: #1f77b4; stroke: #1f77b4"/>
     <use xlink:href="#me5e768d196" x="216.129897" y="190.28961" style="fill: #1f77b4; stroke: #1f77b4"/>
     <use xlink:href="#me5e768d196" x="223.261192" y="146.889485" style="fill: #1f77b4; stroke: #1f77b4"/>
     <use xlink:href="#me5e768d196" x="230.392486" y="100.723258" style="fill: #1f77b4; stroke: #1f77b4"/>
     <use xlink:href="#me5e768d196" x="237.52378" y="63.676492" style="fill: #1f77b4; stroke: #1f77b4"/>
     <use xlink:href="#me5e768d196" x="244.655074" y="47.490209" style="fill: #1f77b4; stroke: #1f77b4"/>
     <use xlink:href="#me5e768d196" x="251.786368" y="63.299923" style="fill: #1f77b4; stroke: #1f77b4"/>
     <use xlink:href="#me5e768d196" x="258.917663" y="101.455618" style="fill: #1f77b4; stroke: #1f77b4"/>
     <use xlink:href="#me5e768d196" x="266.048957" y="149.177773" style="fill: #1f77b4; stroke: #1f77b4"/>
     <use xlink:href="#me5e768d196" x="273.180251" y="189.519792" style="fill: #1f77b4; stroke: #1f77b4"/>
     <use xlink:href="#me5e768d196" x="280.311545" y="215.530925" style="fill: #1f77b4; stroke: #1f77b4"/>
     <use xlink:href="#me5e768d196" x="287.442839" y="223.520438" style="fill: #1f77b4; stroke: #1f77b4"/>
     <use xlink:href="#me5e768d196" x="294.574134" y="214.586785" style="fill: #1f77b4; stroke: #1f77b4"/>
     <use xlink:href="#me5e768d196" x="301.705428" y="189.239305" style="fill: #1f77b4; stroke: #1f77b4"/>
     <use xlink:href="#me5e768d196" x="308.836722" y="148.112916" style="fill: #1f77b4; stroke: #1f77b4"/>
     <use xlink:href="#me5e768d196" x="315.968016" y="104.27152" style="fill: #1f77b4; stroke: #1f77b4"/>
     <use xlink:href="#me5e768d196" x="323.09931" y="69.178498" style="fill: #1f77b4; stroke: #1f77b4"/>
     <use xlink:href="#me5e768d196" x="330.230605" y="55.602477" style="fill: #1f77b4; stroke: #1f77b4"/>
     <use xlink:href="#me5e768d196" x="337.361899" y="71.499632" style="fill: #1f77b4; stroke: #1f77b4"/>
     <use xlink:href="#me5e768d196" x="344.493193" y="105.602244" style="fill: #1f77b4; stroke: #1f77b4"/>
     <use xlink:href="#me5e768d196" x="351.624487" y="150.393798" style="fill: #1f77b4; stroke: #1f77b4"/>
     <use xlink:href="#me5e768d196" x="358.755781" y="188.92154" style="fill: #1f77b4; stroke: #1f77b4"/>
     <use xlink:href="#me5e768d196" x="365.887076" y="213.650534" style="fill: #1f77b4; stroke: #1f77b4"/>
     <use xlink:href="#me5e768d196" x="373.01837" y="221.298476" style="fill: #1f77b4; stroke: #1f77b4"/>
     <use xlink:href="#me5e768d196" x="380.149664" y="213.044215" style="fill: #1f77b4; stroke: #1f77b4"/>
     <use xlink:href="#me5e768d196" x="387.280958" y="187.992302" style="fill: #1f77b4; stroke: #1f77b4"/>
     <use xlink:href="#me5e768d196" x="394.412252" y="149.485349" style="fill: #1f77b4; stroke: #1f77b4"/>
     <use xlink:href="#me5e768d196" x="401.543547" y="106.965884" style="fill: #1f77b4; stroke: #1f77b4"/>
     <use xlink:href="#me5e768d196" x="408.674841" y="72.184864" style="fill: #1f77b4; stroke: #1f77b4"/>
     <use xlink:href="#me5e768d196" x="415.806135" y="61.503753" style="fill: #1f77b4; stroke: #1f77b4"/>
    </g>
   </g>
   <g id="patch_3">
    <path d="M 56.210625 268.80125 
L 56.210625 19.32125 
" style="fill: none; opacity: 0.3; stroke: #000000; stroke-width: 0.75; stroke-linejoin: miter; stroke-linecap: square"/>
   </g>
   <g id="patch_4">
    <path d="M 436.66517 268.80125 
L 436.66517 19.32125 
" style="fill: none; opacity: 0.3; stroke: #000000; stroke-width: 0.75; stroke-linejoin: miter; stroke-linecap: square"/>
   </g>
   <g id="patch_5">
    <path d="M 56.210625 268.80125 
L 436.66517 268.80125 
" style="fill: none; opacity: 0.3; stroke: #000000; stroke-width: 0.75; stroke-linejoin: miter; stroke-linecap: square"/>
   </g>
   <g id="patch_6">
    <path d="M 56.210625 19.32125 
L 436.66517 19.32125 
" style="fill: none; opacity: 0.3; stroke: #000000; stroke-width: 0.75; stroke-linejoin: miter; stroke-linecap: square"/>
   </g>
   <g id="text_18">
    <!-- Autocorrelation -->
    <g transform="translate(202.120241 13.32125) scale(0.14 -0.14)">
     <defs>
      <path id="TimesNewRomanPSMT-75" d="M 2709 2863 
L 2709 1128 
Q 2709 631 2732 520 
Q 2756 409 2807 365 
Q 2859 322 2928 322 
Q 3025 322 3147 375 
L 3191 266 
L 2334 -88 
L 2194 -88 
L 2194 519 
Q 1825 119 1631 15 
Q 1438 -88 1222 -88 
Q 981 -88 804 51 
Q 628 191 559 409 
Q 491 628 491 1028 
L 491 2306 
Q 491 2509 447 2587 
Q 403 2666 317 2708 
Q 231 2750 6 2747 
L 6 2863 
L 1009 2863 
L 1009 947 
Q 1009 547 1148 422 
Q 1288 297 1484 297 
Q 1619 297 1789 381 
Q 1959 466 2194 703 
L 2194 2325 
Q 2194 2569 2105 2655 
Q 2016 2741 1734 2747 
L 1734 2863 
L 2709 2863 
z
" transform="scale(0.015625)"/>
      <path id="TimesNewRomanPSMT-74" d="M 1031 3803 
L 1031 2863 
L 1700 2863 
L 1700 2644 
L 1031 2644 
L 1031 788 
Q 1031 509 1111 412 
Q 1191 316 1316 316 
Q 1419 316 1516 380 
Q 1613 444 1666 569 
L 1788 569 
Q 1678 263 1478 108 
Q 1278 -47 1066 -47 
Q 922 -47 784 33 
Q 647 113 581 261 
Q 516 409 516 719 
L 516 2644 
L 63 2644 
L 63 2747 
Q 234 2816 414 2980 
Q 594 3144 734 3369 
Q 806 3488 934 3803 
L 1031 3803 
z
" transform="scale(0.015625)"/>
      <path id="TimesNewRomanPSMT-6f" d="M 1600 2947 
Q 2250 2947 2644 2453 
Q 2978 2031 2978 1484 
Q 2978 1100 2793 706 
Q 2609 313 2286 112 
Q 1963 -88 1566 -88 
Q 919 -88 538 428 
Q 216 863 216 1403 
Q 216 1797 411 2186 
Q 606 2575 925 2761 
Q 1244 2947 1600 2947 
z
M 1503 2744 
Q 1338 2744 1170 2645 
Q 1003 2547 900 2300 
Q 797 2053 797 1666 
Q 797 1041 1045 587 
Q 1294 134 1700 134 
Q 2003 134 2200 384 
Q 2397 634 2397 1244 
Q 2397 2006 2069 2444 
Q 1847 2744 1503 2744 
z
" transform="scale(0.015625)"/>
      <path id="TimesNewRomanPSMT-63" d="M 2631 1088 
Q 2516 522 2178 217 
Q 1841 -88 1431 -88 
Q 944 -88 581 321 
Q 219 731 219 1428 
Q 219 2103 620 2525 
Q 1022 2947 1584 2947 
Q 2006 2947 2278 2723 
Q 2550 2500 2550 2259 
Q 2550 2141 2473 2067 
Q 2397 1994 2259 1994 
Q 2075 1994 1981 2113 
Q 1928 2178 1911 2362 
Q 1894 2547 1784 2644 
Q 1675 2738 1481 2738 
Q 1169 2738 978 2506 
Q 725 2200 725 1697 
Q 725 1184 976 792 
Q 1228 400 1656 400 
Q 1963 400 2206 609 
Q 2378 753 2541 1131 
L 2631 1088 
z
" transform="scale(0.015625)"/>
      <path id="TimesNewRomanPSMT-72" d="M 1038 2947 
L 1038 2303 
Q 1397 2947 1775 2947 
Q 1947 2947 2059 2842 
Q 2172 2738 2172 2600 
Q 2172 2478 2090 2393 
Q 2009 2309 1897 2309 
Q 1788 2309 1652 2417 
Q 1516 2525 1450 2525 
Q 1394 2525 1328 2463 
Q 1188 2334 1038 2041 
L 1038 669 
Q 1038 431 1097 309 
Q 1138 225 1241 169 
Q 1344 113 1538 113 
L 1538 0 
L 72 0 
L 72 113 
Q 291 113 397 181 
Q 475 231 506 341 
Q 522 394 522 644 
L 522 1753 
Q 522 2253 501 2348 
Q 481 2444 426 2487 
Q 372 2531 291 2531 
Q 194 2531 72 2484 
L 41 2597 
L 906 2947 
L 1038 2947 
z
" transform="scale(0.015625)"/>
      <path id="TimesNewRomanPSMT-65" d="M 681 1784 
Q 678 1147 991 784 
Q 1303 422 1725 422 
Q 2006 422 2214 576 
Q 2422 731 2563 1106 
L 2659 1044 
Q 2594 616 2278 264 
Q 1963 -88 1488 -88 
Q 972 -88 605 314 
Q 238 716 238 1394 
Q 238 2128 614 2539 
Q 991 2950 1559 2950 
Q 2041 2950 2350 2633 
Q 2659 2316 2659 1784 
L 681 1784 
z
M 681 1966 
L 2006 1966 
Q 1991 2241 1941 2353 
Q 1863 2528 1708 2628 
Q 1553 2728 1384 2728 
Q 1125 2728 920 2526 
Q 716 2325 681 1966 
z
" transform="scale(0.015625)"/>
      <path id="TimesNewRomanPSMT-6c" d="M 1184 4444 
L 1184 647 
Q 1184 378 1223 290 
Q 1263 203 1344 158 
Q 1425 113 1647 113 
L 1647 0 
L 244 0 
L 244 113 
Q 441 113 512 153 
Q 584 194 625 287 
Q 666 381 666 647 
L 666 3247 
Q 666 3731 644 3842 
Q 622 3953 573 3993 
Q 525 4034 450 4034 
Q 369 4034 244 3984 
L 191 4094 
L 1044 4444 
L 1184 4444 
z
" transform="scale(0.015625)"/>
      <path id="TimesNewRomanPSMT-69" d="M 928 4444 
Q 1059 4444 1151 4351 
Q 1244 4259 1244 4128 
Q 1244 3997 1151 3903 
Q 1059 3809 928 3809 
Q 797 3809 703 3903 
Q 609 3997 609 4128 
Q 609 4259 701 4351 
Q 794 4444 928 4444 
z
M 1188 2947 
L 1188 647 
Q 1188 378 1227 289 
Q 1266 200 1342 156 
Q 1419 113 1622 113 
L 1622 0 
L 231 0 
L 231 113 
Q 441 113 512 153 
Q 584 194 626 287 
Q 669 381 669 647 
L 669 1750 
Q 669 2216 641 2353 
Q 619 2453 572 2492 
Q 525 2531 444 2531 
Q 356 2531 231 2484 
L 188 2597 
L 1050 2947 
L 1188 2947 
z
" transform="scale(0.015625)"/>
      <path id="TimesNewRomanPSMT-6e" d="M 1034 2341 
Q 1538 2947 1994 2947 
Q 2228 2947 2397 2830 
Q 2566 2713 2666 2444 
Q 2734 2256 2734 1869 
L 2734 647 
Q 2734 375 2778 278 
Q 2813 200 2889 156 
Q 2966 113 3172 113 
L 3172 0 
L 1756 0 
L 1756 113 
L 1816 113 
Q 2016 113 2095 173 
Q 2175 234 2206 353 
Q 2219 400 2219 647 
L 2219 1819 
Q 2219 2209 2117 2386 
Q 2016 2563 1775 2563 
Q 1403 2563 1034 2156 
L 1034 647 
Q 1034 356 1069 288 
Q 1113 197 1189 155 
Q 1266 113 1500 113 
L 1500 0 
L 84 0 
L 84 113 
L 147 113 
Q 366 113 442 223 
Q 519 334 519 647 
L 519 1709 
Q 519 2225 495 2337 
Q 472 2450 423 2490 
Q 375 2531 294 2531 
Q 206 2531 84 2484 
L 38 2597 
L 900 2947 
L 1034 2947 
L 1034 2341 
z
" transform="scale(0.015625)"/>
     </defs>
     <use xlink:href="#TimesNewRomanPSMT-41"/>
     <use xlink:href="#TimesNewRomanPSMT-75" x="72.216797"/>
     <use xlink:href="#TimesNewRomanPSMT-74" x="122.216797"/>
     <use xlink:href="#TimesNewRomanPSMT-6f" x="150"/>
     <use xlink:href="#TimesNewRomanPSMT-63" x="200"/>
     <use xlink:href="#TimesNewRomanPSMT-6f" x="244.384766"/>
     <use xlink:href="#TimesNewRomanPSMT-72" x="294.384766"/>
     <use xlink:href="#TimesNewRomanPSMT-72" x="327.685547"/>
     <use xlink:href="#TimesNewRomanPSMT-65" x="360.986328"/>
     <use xlink:href="#TimesNewRomanPSMT-6c" x="405.371094"/>
     <use xlink:href="#TimesNewRomanPSMT-61" x="433.154297"/>
     <use xlink:href="#TimesNewRomanPSMT-74" x="477.539062"/>
     <use xlink:href="#TimesNewRomanPSMT-69" x="505.322266"/>
     <use xlink:href="#TimesNewRomanPSMT-6f" x="533.105469"/>
     <use xlink:href="#TimesNewRomanPSMT-6e" x="583.105469"/>
    </g>
   </g>
  </g>
  <g id="axes_2">
   <g id="patch_7">
    <path d="M 512.75608 268.80125 
L 893.210625 268.80125 
L 893.210625 19.32125 
L 512.75608 19.32125 
L 512.75608 268.80125 
z
" style="fill: none"/>
   </g>
   <g id="PolyCollection_2">
    <path d="M 533.615115 131.175711 
L 533.615115 156.946789 
L 544.312056 156.946789 
L 551.443351 156.946789 
L 558.574645 156.946789 
L 565.705939 156.946789 
L 572.837233 156.946789 
L 579.968527 156.946789 
L 587.099822 156.946789 
L 594.231116 156.946789 
L 601.36241 156.946789 
L 608.493704 156.946789 
L 615.624998 156.946789 
L 622.756293 156.946789 
L 629.887587 156.946789 
L 637.018881 156.946789 
L 644.150175 156.946789 
L 651.281469 156.946789 
L 658.412764 156.946789 
L 665.544058 156.946789 
L 672.675352 156.946789 
L 679.806646 156.946789 
L 686.93794 156.946789 
L 694.069235 156.946789 
L 701.200529 156.946789 
L 708.331823 156.946789 
L 715.463117 156.946789 
L 722.594411 156.946789 
L 729.725706 156.946789 
L 736.857 156.946789 
L 743.988294 156.946789 
L 751.119588 156.946789 
L 758.250882 156.946789 
L 765.382177 156.946789 
L 772.513471 156.946789 
L 779.644765 156.946789 
L 786.776059 156.946789 
L 793.907353 156.946789 
L 801.038647 156.946789 
L 808.169942 156.946789 
L 815.301236 156.946789 
L 822.43253 156.946789 
L 829.563824 156.946789 
L 836.695118 156.946789 
L 843.826413 156.946789 
L 850.957707 156.946789 
L 858.089001 156.946789 
L 865.220295 156.946789 
L 875.917237 156.946789 
L 875.917237 131.175711 
L 875.917237 131.175711 
L 865.220295 131.175711 
L 858.089001 131.175711 
L 850.957707 131.175711 
L 843.826413 131.175711 
L 836.695118 131.175711 
L 829.563824 131.175711 
L 822.43253 131.175711 
L 815.301236 131.175711 
L 808.169942 131.175711 
L 801.038647 131.175711 
L 793.907353 131.175711 
L 786.776059 131.175711 
L 779.644765 131.175711 
L 772.513471 131.175711 
L 765.382177 131.175711 
L 758.250882 131.175711 
L 751.119588 131.175711 
L 743.988294 131.175711 
L 736.857 131.175711 
L 729.725706 131.175711 
L 722.594411 131.175711 
L 715.463117 131.175711 
L 708.331823 131.175711 
L 701.200529 131.175711 
L 694.069235 131.175711 
L 686.93794 131.175711 
L 679.806646 131.175711 
L 672.675352 131.175711 
L 665.544058 131.175711 
L 658.412764 131.175711 
L 651.281469 131.175711 
L 644.150175 131.175711 
L 637.018881 131.175711 
L 629.887587 131.175711 
L 622.756293 131.175711 
L 615.624998 131.175711 
L 608.493704 131.175711 
L 601.36241 131.175711 
L 594.231116 131.175711 
L 587.099822 131.175711 
L 579.968527 131.175711 
L 572.837233 131.175711 
L 565.705939 131.175711 
L 558.574645 131.175711 
L 551.443351 131.175711 
L 544.312056 131.175711 
L 533.615115 131.175711 
z
" clip-path="url(#p70a1e36bf2)" style="fill: #1f77b4; fill-opacity: 0.25"/>
   </g>
   <g id="matplotlib.axis_3">
    <g id="xtick_7">
     <g id="line2d_33">
      <path d="M 530.049468 268.80125 
L 530.049468 19.32125 
" clip-path="url(#p70a1e36bf2)" style="fill: none; stroke-dasharray: 1.85,0.8; stroke-dashoffset: 0; stroke: #000000; stroke-width: 0.5"/>
     </g>
     <g id="line2d_34">
      <g>
       <use xlink:href="#m3594e59923" x="530.049468" y="268.80125" style="stroke: #000000; stroke-width: 0.5"/>
      </g>
     </g>
     <g id="text_19">
      <!-- 0 -->
      <g transform="translate(526.549468 282.0225) scale(0.14 -0.14)">
       <use xlink:href="#TimesNewRomanPSMT-30"/>
      </g>
     </g>
    </g>
    <g id="xtick_8">
     <g id="line2d_35">
      <path d="M 601.36241 268.80125 
L 601.36241 19.32125 
" clip-path="url(#p70a1e36bf2)" style="fill: none; stroke-dasharray: 1.85,0.8; stroke-dashoffset: 0; stroke: #000000; stroke-width: 0.5"/>
     </g>
     <g id="line2d_36">
      <g>
       <use xlink:href="#m3594e59923" x="601.36241" y="268.80125" style="stroke: #000000; stroke-width: 0.5"/>
      </g>
     </g>
     <g id="text_20">
      <!-- 10 -->
      <g transform="translate(594.36241 282.0225) scale(0.14 -0.14)">
       <use xlink:href="#TimesNewRomanPSMT-31"/>
       <use xlink:href="#TimesNewRomanPSMT-30" x="50"/>
      </g>
     </g>
    </g>
    <g id="xtick_9">
     <g id="line2d_37">
      <path d="M 672.675352 268.80125 
L 672.675352 19.32125 
" clip-path="url(#p70a1e36bf2)" style="fill: none; stroke-dasharray: 1.85,0.8; stroke-dashoffset: 0; stroke: #000000; stroke-width: 0.5"/>
     </g>
     <g id="line2d_38">
      <g>
       <use xlink:href="#m3594e59923" x="672.675352" y="268.80125" style="stroke: #000000; stroke-width: 0.5"/>
      </g>
     </g>
     <g id="text_21">
      <!-- 20 -->
      <g transform="translate(665.675352 282.0225) scale(0.14 -0.14)">
       <use xlink:href="#TimesNewRomanPSMT-32"/>
       <use xlink:href="#TimesNewRomanPSMT-30" x="50"/>
      </g>
     </g>
    </g>
    <g id="xtick_10">
     <g id="line2d_39">
      <path d="M 743.988294 268.80125 
L 743.988294 19.32125 
" clip-path="url(#p70a1e36bf2)" style="fill: none; stroke-dasharray: 1.85,0.8; stroke-dashoffset: 0; stroke: #000000; stroke-width: 0.5"/>
     </g>
     <g id="line2d_40">
      <g>
       <use xlink:href="#m3594e59923" x="743.988294" y="268.80125" style="stroke: #000000; stroke-width: 0.5"/>
      </g>
     </g>
     <g id="text_22">
      <!-- 30 -->
      <g transform="translate(736.988294 282.0225) scale(0.14 -0.14)">
       <use xlink:href="#TimesNewRomanPSMT-33"/>
       <use xlink:href="#TimesNewRomanPSMT-30" x="50"/>
      </g>
     </g>
    </g>
    <g id="xtick_11">
     <g id="line2d_41">
      <path d="M 815.301236 268.80125 
L 815.301236 19.32125 
" clip-path="url(#p70a1e36bf2)" style="fill: none; stroke-dasharray: 1.85,0.8; stroke-dashoffset: 0; stroke: #000000; stroke-width: 0.5"/>
     </g>
     <g id="line2d_42">
      <g>
       <use xlink:href="#m3594e59923" x="815.301236" y="268.80125" style="stroke: #000000; stroke-width: 0.5"/>
      </g>
     </g>
     <g id="text_23">
      <!-- 40 -->
      <g transform="translate(808.301236 282.0225) scale(0.14 -0.14)">
       <use xlink:href="#TimesNewRomanPSMT-34"/>
       <use xlink:href="#TimesNewRomanPSMT-30" x="50"/>
      </g>
     </g>
    </g>
    <g id="xtick_12">
     <g id="line2d_43">
      <path d="M 886.614178 268.80125 
L 886.614178 19.32125 
" clip-path="url(#p70a1e36bf2)" style="fill: none; stroke-dasharray: 1.85,0.8; stroke-dashoffset: 0; stroke: #000000; stroke-width: 0.5"/>
     </g>
     <g id="line2d_44">
      <g>
       <use xlink:href="#m3594e59923" x="886.614178" y="268.80125" style="stroke: #000000; stroke-width: 0.5"/>
      </g>
     </g>
     <g id="text_24">
      <!-- 50 -->
      <g transform="translate(879.614178 282.0225) scale(0.14 -0.14)">
       <use xlink:href="#TimesNewRomanPSMT-35"/>
       <use xlink:href="#TimesNewRomanPSMT-30" x="50"/>
      </g>
     </g>
    </g>
    <g id="text_25">
     <!-- Lag -->
     <g transform="translate(692.10054 298.712187) scale(0.14 -0.14)">
      <use xlink:href="#TimesNewRomanPSMT-4c"/>
      <use xlink:href="#TimesNewRomanPSMT-61" x="61.083984"/>
      <use xlink:href="#TimesNewRomanPSMT-67" x="105.46875"/>
     </g>
    </g>
   </g>
   <g id="matplotlib.axis_4">
    <g id="ytick_10">
     <g id="line2d_45">
      <path d="M 512.75608 268.80125 
L 893.210625 268.80125 
" clip-path="url(#p70a1e36bf2)" style="fill: none; stroke-dasharray: 1.85,0.8; stroke-dashoffset: 0; stroke: #000000; stroke-width: 0.5"/>
     </g>
     <g id="line2d_46">
      <g>
       <use xlink:href="#mb59b8249f7" x="512.75608" y="268.80125" style="stroke: #000000; stroke-width: 0.5"/>
      </g>
     </g>
     <g id="text_26">
      <!-- −1.00 -->
      <g transform="translate(476.861392 273.661875) scale(0.14 -0.14)">
       <use xlink:href="#TimesNewRomanPSMT-2212"/>
       <use xlink:href="#TimesNewRomanPSMT-31" x="56.396484"/>
       <use xlink:href="#TimesNewRomanPSMT-2e" x="106.396484"/>
       <use xlink:href="#TimesNewRomanPSMT-30" x="131.396484"/>
       <use xlink:href="#TimesNewRomanPSMT-30" x="181.396484"/>
      </g>
     </g>
    </g>
    <g id="ytick_11">
     <g id="line2d_47">
      <path d="M 512.75608 237.61625 
L 893.210625 237.61625 
" clip-path="url(#p70a1e36bf2)" style="fill: none; stroke-dasharray: 1.85,0.8; stroke-dashoffset: 0; stroke: #000000; stroke-width: 0.5"/>
     </g>
     <g id="line2d_48">
      <g>
       <use xlink:href="#mb59b8249f7" x="512.75608" y="237.61625" style="stroke: #000000; stroke-width: 0.5"/>
      </g>
     </g>
     <g id="text_27">
      <!-- −0.75 -->
      <g transform="translate(476.861392 242.476875) scale(0.14 -0.14)">
       <use xlink:href="#TimesNewRomanPSMT-2212"/>
       <use xlink:href="#TimesNewRomanPSMT-30" x="56.396484"/>
       <use xlink:href="#TimesNewRomanPSMT-2e" x="106.396484"/>
       <use xlink:href="#TimesNewRomanPSMT-37" x="131.396484"/>
       <use xlink:href="#TimesNewRomanPSMT-35" x="181.396484"/>
      </g>
     </g>
    </g>
    <g id="ytick_12">
     <g id="line2d_49">
      <path d="M 512.75608 206.43125 
L 893.210625 206.43125 
" clip-path="url(#p70a1e36bf2)" style="fill: none; stroke-dasharray: 1.85,0.8; stroke-dashoffset: 0; stroke: #000000; stroke-width: 0.5"/>
     </g>
     <g id="line2d_50">
      <g>
       <use xlink:href="#mb59b8249f7" x="512.75608" y="206.43125" style="stroke: #000000; stroke-width: 0.5"/>
      </g>
     </g>
     <g id="text_28">
      <!-- −0.50 -->
      <g transform="translate(476.861392 211.291875) scale(0.14 -0.14)">
       <use xlink:href="#TimesNewRomanPSMT-2212"/>
       <use xlink:href="#TimesNewRomanPSMT-30" x="56.396484"/>
       <use xlink:href="#TimesNewRomanPSMT-2e" x="106.396484"/>
       <use xlink:href="#TimesNewRomanPSMT-35" x="131.396484"/>
       <use xlink:href="#TimesNewRomanPSMT-30" x="181.396484"/>
      </g>
     </g>
    </g>
    <g id="ytick_13">
     <g id="line2d_51">
      <path d="M 512.75608 175.24625 
L 893.210625 175.24625 
" clip-path="url(#p70a1e36bf2)" style="fill: none; stroke-dasharray: 1.85,0.8; stroke-dashoffset: 0; stroke: #000000; stroke-width: 0.5"/>
     </g>
     <g id="line2d_52">
      <g>
       <use xlink:href="#mb59b8249f7" x="512.75608" y="175.24625" style="stroke: #000000; stroke-width: 0.5"/>
      </g>
     </g>
     <g id="text_29">
      <!-- −0.25 -->
      <g transform="translate(476.861392 180.106875) scale(0.14 -0.14)">
       <use xlink:href="#TimesNewRomanPSMT-2212"/>
       <use xlink:href="#TimesNewRomanPSMT-30" x="56.396484"/>
       <use xlink:href="#TimesNewRomanPSMT-2e" x="106.396484"/>
       <use xlink:href="#TimesNewRomanPSMT-32" x="131.396484"/>
       <use xlink:href="#TimesNewRomanPSMT-35" x="181.396484"/>
      </g>
     </g>
    </g>
    <g id="ytick_14">
     <g id="line2d_53">
      <path d="M 512.75608 144.06125 
L 893.210625 144.06125 
" clip-path="url(#p70a1e36bf2)" style="fill: none; stroke-dasharray: 1.85,0.8; stroke-dashoffset: 0; stroke: #000000; stroke-width: 0.5"/>
     </g>
     <g id="line2d_54">
      <g>
       <use xlink:href="#mb59b8249f7" x="512.75608" y="144.06125" style="stroke: #000000; stroke-width: 0.5"/>
      </g>
     </g>
     <g id="text_30">
      <!-- 0.00 -->
      <g transform="translate(484.75608 148.921875) scale(0.14 -0.14)">
       <use xlink:href="#TimesNewRomanPSMT-30"/>
       <use xlink:href="#TimesNewRomanPSMT-2e" x="50"/>
       <use xlink:href="#TimesNewRomanPSMT-30" x="75"/>
       <use xlink:href="#TimesNewRomanPSMT-30" x="125"/>
      </g>
     </g>
    </g>
    <g id="ytick_15">
     <g id="line2d_55">
      <path d="M 512.75608 112.87625 
L 893.210625 112.87625 
" clip-path="url(#p70a1e36bf2)" style="fill: none; stroke-dasharray: 1.85,0.8; stroke-dashoffset: 0; stroke: #000000; stroke-width: 0.5"/>
     </g>
     <g id="line2d_56">
      <g>
       <use xlink:href="#mb59b8249f7" x="512.75608" y="112.87625" style="stroke: #000000; stroke-width: 0.5"/>
      </g>
     </g>
     <g id="text_31">
      <!-- 0.25 -->
      <g transform="translate(484.75608 117.736875) scale(0.14 -0.14)">
       <use xlink:href="#TimesNewRomanPSMT-30"/>
       <use xlink:href="#TimesNewRomanPSMT-2e" x="50"/>
       <use xlink:href="#TimesNewRomanPSMT-32" x="75"/>
       <use xlink:href="#TimesNewRomanPSMT-35" x="125"/>
      </g>
     </g>
    </g>
    <g id="ytick_16">
     <g id="line2d_57">
      <path d="M 512.75608 81.69125 
L 893.210625 81.69125 
" clip-path="url(#p70a1e36bf2)" style="fill: none; stroke-dasharray: 1.85,0.8; stroke-dashoffset: 0; stroke: #000000; stroke-width: 0.5"/>
     </g>
     <g id="line2d_58">
      <g>
       <use xlink:href="#mb59b8249f7" x="512.75608" y="81.69125" style="stroke: #000000; stroke-width: 0.5"/>
      </g>
     </g>
     <g id="text_32">
      <!-- 0.50 -->
      <g transform="translate(484.75608 86.551875) scale(0.14 -0.14)">
       <use xlink:href="#TimesNewRomanPSMT-30"/>
       <use xlink:href="#TimesNewRomanPSMT-2e" x="50"/>
       <use xlink:href="#TimesNewRomanPSMT-35" x="75"/>
       <use xlink:href="#TimesNewRomanPSMT-30" x="125"/>
      </g>
     </g>
    </g>
    <g id="ytick_17">
     <g id="line2d_59">
      <path d="M 512.75608 50.50625 
L 893.210625 50.50625 
" clip-path="url(#p70a1e36bf2)" style="fill: none; stroke-dasharray: 1.85,0.8; stroke-dashoffset: 0; stroke: #000000; stroke-width: 0.5"/>
     </g>
     <g id="line2d_60">
      <g>
       <use xlink:href="#mb59b8249f7" x="512.75608" y="50.50625" style="stroke: #000000; stroke-width: 0.5"/>
      </g>
     </g>
     <g id="text_33">
      <!-- 0.75 -->
      <g transform="translate(484.75608 55.366875) scale(0.14 -0.14)">
       <use xlink:href="#TimesNewRomanPSMT-30"/>
       <use xlink:href="#TimesNewRomanPSMT-2e" x="50"/>
       <use xlink:href="#TimesNewRomanPSMT-37" x="75"/>
       <use xlink:href="#TimesNewRomanPSMT-35" x="125"/>
      </g>
     </g>
    </g>
    <g id="ytick_18">
     <g id="line2d_61">
      <path d="M 512.75608 19.32125 
L 893.210625 19.32125 
" clip-path="url(#p70a1e36bf2)" style="fill: none; stroke-dasharray: 1.85,0.8; stroke-dashoffset: 0; stroke: #000000; stroke-width: 0.5"/>
     </g>
     <g id="line2d_62">
      <g>
       <use xlink:href="#mb59b8249f7" x="512.75608" y="19.32125" style="stroke: #000000; stroke-width: 0.5"/>
      </g>
     </g>
     <g id="text_34">
      <!-- 1.00 -->
      <g transform="translate(484.75608 24.181875) scale(0.14 -0.14)">
       <use xlink:href="#TimesNewRomanPSMT-31"/>
       <use xlink:href="#TimesNewRomanPSMT-2e" x="50"/>
       <use xlink:href="#TimesNewRomanPSMT-30" x="75"/>
       <use xlink:href="#TimesNewRomanPSMT-30" x="125"/>
      </g>
     </g>
    </g>
    <g id="text_35">
     <!-- PACF -->
     <g transform="translate(469.866705 160.932344) rotate(-90) scale(0.14 -0.14)">
      <defs>
       <path id="TimesNewRomanPSMT-50" d="M 1313 1984 
L 1313 750 
Q 1313 350 1400 253 
Q 1519 116 1759 116 
L 1922 116 
L 1922 0 
L 106 0 
L 106 116 
L 266 116 
Q 534 116 650 291 
Q 713 388 713 750 
L 713 3488 
Q 713 3888 628 3984 
Q 506 4122 266 4122 
L 106 4122 
L 106 4238 
L 1659 4238 
Q 2228 4238 2556 4120 
Q 2884 4003 3109 3725 
Q 3334 3447 3334 3066 
Q 3334 2547 2992 2222 
Q 2650 1897 2025 1897 
Q 1872 1897 1694 1919 
Q 1516 1941 1313 1984 
z
M 1313 2163 
Q 1478 2131 1606 2115 
Q 1734 2100 1825 2100 
Q 2150 2100 2386 2351 
Q 2622 2603 2622 3003 
Q 2622 3278 2509 3514 
Q 2397 3750 2190 3867 
Q 1984 3984 1722 3984 
Q 1563 3984 1313 3925 
L 1313 2163 
z
" transform="scale(0.015625)"/>
      </defs>
      <use xlink:href="#TimesNewRomanPSMT-50"/>
      <use xlink:href="#TimesNewRomanPSMT-41" x="46.490234"/>
      <use xlink:href="#TimesNewRomanPSMT-43" x="118.707031"/>
      <use xlink:href="#TimesNewRomanPSMT-46" x="185.40625"/>
     </g>
    </g>
   </g>
   <g id="LineCollection_2">
    <path d="M 530.049468 144.06125 
L 530.049468 19.32125 
" clip-path="url(#p70a1e36bf2)" style="fill: none; stroke: #1f77b4"/>
    <path d="M 537.180762 144.06125 
L 537.180762 47.861556 
" clip-path="url(#p70a1e36bf2)" style="fill: none; stroke: #1f77b4"/>
    <path d="M 544.312056 144.06125 
L 544.312056 205.809165 
" clip-path="url(#p70a1e36bf2)" style="fill: none; stroke: #1f77b4"/>
    <path d="M 551.443351 144.06125 
L 551.443351 184.91795 
" clip-path="url(#p70a1e36bf2)" style="fill: none; stroke: #1f77b4"/>
    <path d="M 558.574645 144.06125 
L 558.574645 177.088597 
" clip-path="url(#p70a1e36bf2)" style="fill: none; stroke: #1f77b4"/>
    <path d="M 565.705939 144.06125 
L 565.705939 164.676806 
" clip-path="url(#p70a1e36bf2)" style="fill: none; stroke: #1f77b4"/>
    <path d="M 572.837233 144.06125 
L 572.837233 170.070287 
" clip-path="url(#p70a1e36bf2)" style="fill: none; stroke: #1f77b4"/>
    <path d="M 579.968527 144.06125 
L 579.968527 169.24398 
" clip-path="url(#p70a1e36bf2)" style="fill: none; stroke: #1f77b4"/>
    <path d="M 587.099822 144.06125 
L 587.099822 154.629556 
" clip-path="url(#p70a1e36bf2)" style="fill: none; stroke: #1f77b4"/>
    <path d="M 594.231116 144.06125 
L 594.231116 126.431806 
" clip-path="url(#p70a1e36bf2)" style="fill: none; stroke: #1f77b4"/>
    <path d="M 601.36241 144.06125 
L 601.36241 114.307878 
" clip-path="url(#p70a1e36bf2)" style="fill: none; stroke: #1f77b4"/>
    <path d="M 608.493704 144.06125 
L 608.493704 123.136642 
" clip-path="url(#p70a1e36bf2)" style="fill: none; stroke: #1f77b4"/>
    <path d="M 615.624998 144.06125 
L 615.624998 126.945911 
" clip-path="url(#p70a1e36bf2)" style="fill: none; stroke: #1f77b4"/>
    <path d="M 622.756293 144.06125 
L 622.756293 155.946774 
" clip-path="url(#p70a1e36bf2)" style="fill: none; stroke: #1f77b4"/>
    <path d="M 629.887587 144.06125 
L 629.887587 150.605123 
" clip-path="url(#p70a1e36bf2)" style="fill: none; stroke: #1f77b4"/>
    <path d="M 637.018881 144.06125 
L 637.018881 164.199777 
" clip-path="url(#p70a1e36bf2)" style="fill: none; stroke: #1f77b4"/>
    <path d="M 644.150175 144.06125 
L 644.150175 147.958049 
" clip-path="url(#p70a1e36bf2)" style="fill: none; stroke: #1f77b4"/>
    <path d="M 651.281469 144.06125 
L 651.281469 150.697534 
" clip-path="url(#p70a1e36bf2)" style="fill: none; stroke: #1f77b4"/>
    <path d="M 658.412764 144.06125 
L 658.412764 154.033554 
" clip-path="url(#p70a1e36bf2)" style="fill: none; stroke: #1f77b4"/>
    <path d="M 665.544058 144.06125 
L 665.544058 161.347339 
" clip-path="url(#p70a1e36bf2)" style="fill: none; stroke: #1f77b4"/>
    <path d="M 672.675352 144.06125 
L 672.675352 152.252623 
" clip-path="url(#p70a1e36bf2)" style="fill: none; stroke: #1f77b4"/>
    <path d="M 679.806646 144.06125 
L 679.806646 126.003235 
" clip-path="url(#p70a1e36bf2)" style="fill: none; stroke: #1f77b4"/>
    <path d="M 686.93794 144.06125 
L 686.93794 131.19561 
" clip-path="url(#p70a1e36bf2)" style="fill: none; stroke: #1f77b4"/>
    <path d="M 694.069235 144.06125 
L 694.069235 119.986274 
" clip-path="url(#p70a1e36bf2)" style="fill: none; stroke: #1f77b4"/>
    <path d="M 701.200529 144.06125 
L 701.200529 117.867043 
" clip-path="url(#p70a1e36bf2)" style="fill: none; stroke: #1f77b4"/>
    <path d="M 708.331823 144.06125 
L 708.331823 145.894874 
" clip-path="url(#p70a1e36bf2)" style="fill: none; stroke: #1f77b4"/>
    <path d="M 715.463117 144.06125 
L 715.463117 147.291795 
" clip-path="url(#p70a1e36bf2)" style="fill: none; stroke: #1f77b4"/>
    <path d="M 722.594411 144.06125 
L 722.594411 153.824964 
" clip-path="url(#p70a1e36bf2)" style="fill: none; stroke: #1f77b4"/>
    <path d="M 729.725706 144.06125 
L 729.725706 139.178145 
" clip-path="url(#p70a1e36bf2)" style="fill: none; stroke: #1f77b4"/>
    <path d="M 736.857 144.06125 
L 736.857 145.201573 
" clip-path="url(#p70a1e36bf2)" style="fill: none; stroke: #1f77b4"/>
    <path d="M 743.988294 144.06125 
L 743.988294 147.128366 
" clip-path="url(#p70a1e36bf2)" style="fill: none; stroke: #1f77b4"/>
    <path d="M 751.119588 144.06125 
L 751.119588 157.547005 
" clip-path="url(#p70a1e36bf2)" style="fill: none; stroke: #1f77b4"/>
    <path d="M 758.250882 144.06125 
L 758.250882 151.738908 
" clip-path="url(#p70a1e36bf2)" style="fill: none; stroke: #1f77b4"/>
    <path d="M 765.382177 144.06125 
L 765.382177 133.053068 
" clip-path="url(#p70a1e36bf2)" style="fill: none; stroke: #1f77b4"/>
    <path d="M 772.513471 144.06125 
L 772.513471 141.045913 
" clip-path="url(#p70a1e36bf2)" style="fill: none; stroke: #1f77b4"/>
    <path d="M 779.644765 144.06125 
L 779.644765 132.934475 
" clip-path="url(#p70a1e36bf2)" style="fill: none; stroke: #1f77b4"/>
    <path d="M 786.776059 144.06125 
L 786.776059 135.772949 
" clip-path="url(#p70a1e36bf2)" style="fill: none; stroke: #1f77b4"/>
    <path d="M 793.907353 144.06125 
L 793.907353 151.536769 
" clip-path="url(#p70a1e36bf2)" style="fill: none; stroke: #1f77b4"/>
    <path d="M 801.038647 144.06125 
L 801.038647 135.060699 
" clip-path="url(#p70a1e36bf2)" style="fill: none; stroke: #1f77b4"/>
    <path d="M 808.169942 144.06125 
L 808.169942 154.635135 
" clip-path="url(#p70a1e36bf2)" style="fill: none; stroke: #1f77b4"/>
    <path d="M 815.301236 144.06125 
L 815.301236 141.566129 
" clip-path="url(#p70a1e36bf2)" style="fill: none; stroke: #1f77b4"/>
    <path d="M 822.43253 144.06125 
L 822.43253 144.851311 
" clip-path="url(#p70a1e36bf2)" style="fill: none; stroke: #1f77b4"/>
    <path d="M 829.563824 144.06125 
L 829.563824 148.647938 
" clip-path="url(#p70a1e36bf2)" style="fill: none; stroke: #1f77b4"/>
    <path d="M 836.695118 144.06125 
L 836.695118 157.73737 
" clip-path="url(#p70a1e36bf2)" style="fill: none; stroke: #1f77b4"/>
    <path d="M 843.826413 144.06125 
L 843.826413 148.925982 
" clip-path="url(#p70a1e36bf2)" style="fill: none; stroke: #1f77b4"/>
    <path d="M 850.957707 144.06125 
L 850.957707 149.827038 
" clip-path="url(#p70a1e36bf2)" style="fill: none; stroke: #1f77b4"/>
    <path d="M 858.089001 144.06125 
L 858.089001 142.343555 
" clip-path="url(#p70a1e36bf2)" style="fill: none; stroke: #1f77b4"/>
    <path d="M 865.220295 144.06125 
L 865.220295 136.84997 
" clip-path="url(#p70a1e36bf2)" style="fill: none; stroke: #1f77b4"/>
    <path d="M 872.351589 144.06125 
L 872.351589 162.635961 
" clip-path="url(#p70a1e36bf2)" style="fill: none; stroke: #1f77b4"/>
   </g>
   <g id="line2d_63">
    <path d="M 512.75608 144.06125 
L 893.210625 144.06125 
" clip-path="url(#p70a1e36bf2)" style="fill: none; stroke: #1f77b4; stroke-linecap: square"/>
   </g>
   <g id="line2d_64">
    <g clip-path="url(#p70a1e36bf2)">
     <use xlink:href="#me5e768d196" x="530.049468" y="19.32125" style="fill: #1f77b4; stroke: #1f77b4"/>
     <use xlink:href="#me5e768d196" x="537.180762" y="47.861556" style="fill: #1f77b4; stroke: #1f77b4"/>
     <use xlink:href="#me5e768d196" x="544.312056" y="205.809165" style="fill: #1f77b4; stroke: #1f77b4"/>
     <use xlink:href="#me5e768d196" x="551.443351" y="184.91795" style="fill: #1f77b4; stroke: #1f77b4"/>
     <use xlink:href="#me5e768d196" x="558.574645" y="177.088597" style="fill: #1f77b4; stroke: #1f77b4"/>
     <use xlink:href="#me5e768d196" x="565.705939" y="164.676806" style="fill: #1f77b4; stroke: #1f77b4"/>
     <use xlink:href="#me5e768d196" x="572.837233" y="170.070287" style="fill: #1f77b4; stroke: #1f77b4"/>
     <use xlink:href="#me5e768d196" x="579.968527" y="169.24398" style="fill: #1f77b4; stroke: #1f77b4"/>
     <use xlink:href="#me5e768d196" x="587.099822" y="154.629556" style="fill: #1f77b4; stroke: #1f77b4"/>
     <use xlink:href="#me5e768d196" x="594.231116" y="126.431806" style="fill: #1f77b4; stroke: #1f77b4"/>
     <use xlink:href="#me5e768d196" x="601.36241" y="114.307878" style="fill: #1f77b4; stroke: #1f77b4"/>
     <use xlink:href="#me5e768d196" x="608.493704" y="123.136642" style="fill: #1f77b4; stroke: #1f77b4"/>
     <use xlink:href="#me5e768d196" x="615.624998" y="126.945911" style="fill: #1f77b4; stroke: #1f77b4"/>
     <use xlink:href="#me5e768d196" x="622.756293" y="155.946774" style="fill: #1f77b4; stroke: #1f77b4"/>
     <use xlink:href="#me5e768d196" x="629.887587" y="150.605123" style="fill: #1f77b4; stroke: #1f77b4"/>
     <use xlink:href="#me5e768d196" x="637.018881" y="164.199777" style="fill: #1f77b4; stroke: #1f77b4"/>
     <use xlink:href="#me5e768d196" x="644.150175" y="147.958049" style="fill: #1f77b4; stroke: #1f77b4"/>
     <use xlink:href="#me5e768d196" x="651.281469" y="150.697534" style="fill: #1f77b4; stroke: #1f77b4"/>
     <use xlink:href="#me5e768d196" x="658.412764" y="154.033554" style="fill: #1f77b4; stroke: #1f77b4"/>
     <use xlink:href="#me5e768d196" x="665.544058" y="161.347339" style="fill: #1f77b4; stroke: #1f77b4"/>
     <use xlink:href="#me5e768d196" x="672.675352" y="152.252623" style="fill: #1f77b4; stroke: #1f77b4"/>
     <use xlink:href="#me5e768d196" x="679.806646" y="126.003235" style="fill: #1f77b4; stroke: #1f77b4"/>
     <use xlink:href="#me5e768d196" x="686.93794" y="131.19561" style="fill: #1f77b4; stroke: #1f77b4"/>
     <use xlink:href="#me5e768d196" x="694.069235" y="119.986274" style="fill: #1f77b4; stroke: #1f77b4"/>
     <use xlink:href="#me5e768d196" x="701.200529" y="117.867043" style="fill: #1f77b4; stroke: #1f77b4"/>
     <use xlink:href="#me5e768d196" x="708.331823" y="145.894874" style="fill: #1f77b4; stroke: #1f77b4"/>
     <use xlink:href="#me5e768d196" x="715.463117" y="147.291795" style="fill: #1f77b4; stroke: #1f77b4"/>
     <use xlink:href="#me5e768d196" x="722.594411" y="153.824964" style="fill: #1f77b4; stroke: #1f77b4"/>
     <use xlink:href="#me5e768d196" x="729.725706" y="139.178145" style="fill: #1f77b4; stroke: #1f77b4"/>
     <use xlink:href="#me5e768d196" x="736.857" y="145.201573" style="fill: #1f77b4; stroke: #1f77b4"/>
     <use xlink:href="#me5e768d196" x="743.988294" y="147.128366" style="fill: #1f77b4; stroke: #1f77b4"/>
     <use xlink:href="#me5e768d196" x="751.119588" y="157.547005" style="fill: #1f77b4; stroke: #1f77b4"/>
     <use xlink:href="#me5e768d196" x="758.250882" y="151.738908" style="fill: #1f77b4; stroke: #1f77b4"/>
     <use xlink:href="#me5e768d196" x="765.382177" y="133.053068" style="fill: #1f77b4; stroke: #1f77b4"/>
     <use xlink:href="#me5e768d196" x="772.513471" y="141.045913" style="fill: #1f77b4; stroke: #1f77b4"/>
     <use xlink:href="#me5e768d196" x="779.644765" y="132.934475" style="fill: #1f77b4; stroke: #1f77b4"/>
     <use xlink:href="#me5e768d196" x="786.776059" y="135.772949" style="fill: #1f77b4; stroke: #1f77b4"/>
     <use xlink:href="#me5e768d196" x="793.907353" y="151.536769" style="fill: #1f77b4; stroke: #1f77b4"/>
     <use xlink:href="#me5e768d196" x="801.038647" y="135.060699" style="fill: #1f77b4; stroke: #1f77b4"/>
     <use xlink:href="#me5e768d196" x="808.169942" y="154.635135" style="fill: #1f77b4; stroke: #1f77b4"/>
     <use xlink:href="#me5e768d196" x="815.301236" y="141.566129" style="fill: #1f77b4; stroke: #1f77b4"/>
     <use xlink:href="#me5e768d196" x="822.43253" y="144.851311" style="fill: #1f77b4; stroke: #1f77b4"/>
     <use xlink:href="#me5e768d196" x="829.563824" y="148.647938" style="fill: #1f77b4; stroke: #1f77b4"/>
     <use xlink:href="#me5e768d196" x="836.695118" y="157.73737" style="fill: #1f77b4; stroke: #1f77b4"/>
     <use xlink:href="#me5e768d196" x="843.826413" y="148.925982" style="fill: #1f77b4; stroke: #1f77b4"/>
     <use xlink:href="#me5e768d196" x="850.957707" y="149.827038" style="fill: #1f77b4; stroke: #1f77b4"/>
     <use xlink:href="#me5e768d196" x="858.089001" y="142.343555" style="fill: #1f77b4; stroke: #1f77b4"/>
     <use xlink:href="#me5e768d196" x="865.220295" y="136.84997" style="fill: #1f77b4; stroke: #1f77b4"/>
     <use xlink:href="#me5e768d196" x="872.351589" y="162.635961" style="fill: #1f77b4; stroke: #1f77b4"/>
    </g>
   </g>
   <g id="patch_8">
    <path d="M 512.75608 268.80125 
L 512.75608 19.32125 
" style="fill: none; opacity: 0.3; stroke: #000000; stroke-width: 0.75; stroke-linejoin: miter; stroke-linecap: square"/>
   </g>
   <g id="patch_9">
    <path d="M 893.210625 268.80125 
L 893.210625 19.32125 
" style="fill: none; opacity: 0.3; stroke: #000000; stroke-width: 0.75; stroke-linejoin: miter; stroke-linecap: square"/>
   </g>
   <g id="patch_10">
    <path d="M 512.75608 268.80125 
L 893.210625 268.80125 
" style="fill: none; opacity: 0.3; stroke: #000000; stroke-width: 0.75; stroke-linejoin: miter; stroke-linecap: square"/>
   </g>
   <g id="patch_11">
    <path d="M 512.75608 19.32125 
L 893.210625 19.32125 
" style="fill: none; opacity: 0.3; stroke: #000000; stroke-width: 0.75; stroke-linejoin: miter; stroke-linecap: square"/>
   </g>
   <g id="text_36">
    <!-- Partial Autocorrelation -->
    <g transform="translate(639.028509 13.32125) scale(0.14 -0.14)">
     <defs>
      <path id="TimesNewRomanPSMT-20" transform="scale(0.015625)"/>
     </defs>
     <use xlink:href="#TimesNewRomanPSMT-50"/>
     <use xlink:href="#TimesNewRomanPSMT-61" x="55.615234"/>
     <use xlink:href="#TimesNewRomanPSMT-72" x="100"/>
     <use xlink:href="#TimesNewRomanPSMT-74" x="133.300781"/>
     <use xlink:href="#TimesNewRomanPSMT-69" x="161.083984"/>
     <use xlink:href="#TimesNewRomanPSMT-61" x="188.867188"/>
     <use xlink:href="#TimesNewRomanPSMT-6c" x="233.251953"/>
     <use xlink:href="#TimesNewRomanPSMT-20" x="261.035156"/>
     <use xlink:href="#TimesNewRomanPSMT-41" x="280.535156"/>
     <use xlink:href="#TimesNewRomanPSMT-75" x="352.751953"/>
     <use xlink:href="#TimesNewRomanPSMT-74" x="402.751953"/>
     <use xlink:href="#TimesNewRomanPSMT-6f" x="430.535156"/>
     <use xlink:href="#TimesNewRomanPSMT-63" x="480.535156"/>
     <use xlink:href="#TimesNewRomanPSMT-6f" x="524.919922"/>
     <use xlink:href="#TimesNewRomanPSMT-72" x="574.919922"/>
     <use xlink:href="#TimesNewRomanPSMT-72" x="608.220703"/>
     <use xlink:href="#TimesNewRomanPSMT-65" x="641.521484"/>
     <use xlink:href="#TimesNewRomanPSMT-6c" x="685.90625"/>
     <use xlink:href="#TimesNewRomanPSMT-61" x="713.689453"/>
     <use xlink:href="#TimesNewRomanPSMT-74" x="758.074219"/>
     <use xlink:href="#TimesNewRomanPSMT-69" x="785.857422"/>
     <use xlink:href="#TimesNewRomanPSMT-6f" x="813.640625"/>
     <use xlink:href="#TimesNewRomanPSMT-6e" x="863.640625"/>
    </g>
   </g>
  </g>
 </g>
 <defs>
  <clipPath id="pe8e6188c2d">
   <rect x="56.210625" y="19.32125" width="380.454545" height="249.48"/>
  </clipPath>
  <clipPath id="p70a1e36bf2">
   <rect x="512.75608" y="19.32125" width="380.454545" height="249.48"/>
  </clipPath>
 </defs>
</svg>
