<?xml version="1.0" encoding="UTF-8"?>
<svg id="uuid-debf69b0-56bf-4d30-8485-4849aee3a182" data-name="图层 1" xmlns="http://www.w3.org/2000/svg" xmlns:xlink="http://www.w3.org/1999/xlink" viewBox="0 0 214.50133 152.62019">
  <defs>
    <clipPath id="uuid-c177911d-5555-4c03-a9cb-c6b236e99b5e">
      <rect x="30.36625" y="6.3775" width="171.20321" height="98.57875" fill="none" stroke-width="0"/>
    </clipPath>
    <clipPath id="uuid-84ec1075-b413-490d-a731-ff9fc0d6e355">
      <rect x="30.36625" y="6.3775" width="171.20321" height="98.57875" fill="none" stroke-width="0"/>
    </clipPath>
    <clipPath id="uuid-e8d1940b-bba7-46d1-b832-d999bc8a1ae0">
      <rect x="30.36625" y="6.3775" width="171.20321" height="98.57875" fill="none" stroke-width="0"/>
    </clipPath>
    <clipPath id="uuid-994a7d78-23b4-4272-abca-5b95ec2eccc0">
      <rect x="30.36625" y="6.3775" width="171.20321" height="98.57875" fill="none" stroke-width="0"/>
    </clipPath>
    <clipPath id="uuid-a76edeb0-0249-44b9-8ee2-ac04a792afd3">
      <rect x="30.36625" y="6.3775" width="171.20321" height="98.57875" fill="none" stroke-width="0"/>
    </clipPath>
    <clipPath id="uuid-0d70cf1d-40fe-4a06-8daf-8c0a727ead33">
      <rect x="30.36625" y="6.3775" width="171.20321" height="98.57875" fill="none" stroke-width="0"/>
    </clipPath>
    <clipPath id="uuid-8a19e175-dd08-4cae-a27a-99a2be1386ee">
      <rect x="30.36625" y="6.3775" width="171.20321" height="98.57875" fill="none" stroke-width="0"/>
    </clipPath>
    <clipPath id="uuid-3ebc718f-6fb0-4e6b-bb03-96cc694ebbca">
      <rect x="30.36625" y="6.3775" width="171.20321" height="98.57875" fill="none" stroke-width="0"/>
    </clipPath>
    <clipPath id="uuid-fc3094df-b4de-472c-a73f-33df2607b7c5">
      <rect x="30.36625" y="6.3775" width="171.20321" height="98.57875" fill="none" stroke-width="0"/>
    </clipPath>
    <clipPath id="uuid-649c6517-c7c2-4982-a84b-0fc4367555fa">
      <rect x="30.36625" y="6.3775" width="171.20321" height="98.57875" fill="none" stroke-width="0"/>
    </clipPath>
    <clipPath id="uuid-78425d9e-f328-4aa1-b4d7-b581102c6c6c">
      <rect x="30.36625" y="6.3775" width="171.20321" height="98.57875" fill="none" stroke-width="0"/>
    </clipPath>
    <clipPath id="uuid-a926b1e9-162a-45b0-bc55-a63a74478c39">
      <rect x="30.36625" y="6.3775" width="171.20321" height="98.57875" fill="none" stroke-width="0"/>
    </clipPath>
    <clipPath id="uuid-3ca02dce-3daa-49af-b52e-73e74c8a46cc">
      <rect x="30.36625" y="6.3775" width="171.20321" height="98.57875" fill="none" stroke-width="0"/>
    </clipPath>
  </defs>
  <g id="uuid-4b16dae8-0f60-4e39-b2dd-ed28552a95fb" data-name="figure 1">
    <g id="uuid-006539c7-91ec-4b47-b84c-231726a2efec" data-name="patch 1">
      <path d="m0,152.62019h214.50133V0H0v152.62019Z" fill="none" stroke-width="0"/>
    </g>
    <g id="uuid-b6201cb9-9e57-46d5-8fd5-d2d5a85eefef" data-name="axes 1">
      <g id="uuid-e1a85f4b-585e-457b-9444-ffcc1084ac68" data-name="patch 2">
        <path d="m30.36625,104.95625h171.20321V6.3775H30.36625v98.57875Z" fill="none" stroke-width="0"/>
      </g>
      <g id="uuid-43d5ad4a-c827-48a4-bd44-b702619562e8" data-name="line2d 1">
        <g clip-path="url(#uuid-c177911d-5555-4c03-a9cb-c6b236e99b5e)">
          <path d="m30.36625,53.13967l60.97649,42.8728h0" fill="none" stroke="rgba(128, 128, 128, .6)" stroke-dasharray="0 0 2.775 1.2" stroke-linejoin="round" stroke-width=".75"/>
        </g>
      </g>
      <g id="uuid-498add26-2a3f-4028-9538-5830407ae35f" data-name="line2d 2">
        <g clip-path="url(#uuid-84ec1075-b413-490d-a731-ff9fc0d6e355)">
          <path d="m91.34274,96.01247L170.61217,16.93439h0" fill="none" stroke="rgba(128, 128, 128, .6)" stroke-dasharray="0 0 2.775 1.2" stroke-linejoin="round" stroke-width=".75"/>
        </g>
      </g>
      <g id="uuid-8409beb8-2622-43e7-8202-a743f85ecb2d" data-name="line2d 3">
        <g clip-path="url(#uuid-e8d1940b-bba7-46d1-b832-d999bc8a1ae0)">
          <path d="m170.61217,16.93439l.46904.54856.46906.54856.46906.54856.46904.54856.46906.54856.46906.54856.46904.54856.46906.54856.46904.54856.46906.54856.46906.54856.46904.54856.46906.54856.46906.54856.46904.54856.46906.54856.46906.54856.46904.54856.46906.54856.46906.54856.46904.54856.46906.54856.46906.54856.46904.54856.46906.54856.46906.54856.46904.54856.46906.54856.46906.54856.46904.54856.46906.54856.46904.54856.46906.54856.46906.54856.46904.54856.46906.54856.46906.54856.46904.54856.46906.54856.46906.54856.46904.54856.46906.54856.46906.54856.46904.54856.46906.54856.46906.54856.46904.54856.46906.54856.46906.54856.46904.54856.46906.54856.46906.54856.46904.54856.46906.54856.46906.54856.46904.54856.46906.54856.46904.54856.46906.54856.46906.54856.46904.54856.46906.54856.46906.54856.46904.54856.46906.54856.46906.54856" fill="none" stroke="rgba(128, 128, 128, .6)" stroke-dasharray="0 0 2.775 1.2" stroke-linejoin="round" stroke-width=".75"/>
        </g>
      </g>
      <g id="uuid-3374bf14-5e43-4672-9d47-bace45d22fc4" data-name="line2d 4">
        <g clip-path="url(#uuid-994a7d78-23b4-4272-abca-5b95ec2eccc0)">
          <path d="m91.34274,104.95625v-8.94378" fill="none" stroke="rgba(128, 128, 128, .4)" stroke-dasharray="0 0 2.775 1.2" stroke-linejoin="round" stroke-width=".75"/>
        </g>
      </g>
      <g id="uuid-b6525fb0-86f0-4f2d-a12f-1d83d6096a13" data-name="line2d 5">
        <g clip-path="url(#uuid-a76edeb0-0249-44b9-8ee2-ac04a792afd3)">
          <path d="m170.61217,104.95625V16.93439" fill="none" stroke="rgba(128, 128, 128, .4)" stroke-dasharray="0 0 2.775 1.2" stroke-linejoin="round" stroke-width=".75"/>
        </g>
      </g>
      <g id="uuid-6c3b081f-fa45-4bfe-9f73-d40a9aa26d0f" data-name="PolyCollection 1">
        <g clip-path="url(#uuid-0d70cf1d-40fe-4a06-8daf-8c0a727ead33)">
          <path id="uuid-b1544cbb-8257-4753-a71a-c1251fc713b7" data-name="mda552a44a3" d="m30.36625,6.3775v98.57874h60.97649V6.3775H30.36625Z" fill="rgba(255, 253, 189, .3)" stroke-width="0"/>
        </g>
      </g>
      <g id="uuid-ef020809-5459-42d9-bd7e-deb2e795bd62" data-name="PolyCollection 2">
        <g clip-path="url(#uuid-8a19e175-dd08-4cae-a27a-99a2be1386ee)">
          <path id="uuid-f8c269d7-d67b-45ee-a318-3a3cef95c825" data-name="me8763a5630" d="m91.34274,6.3775v98.57874h79.26943V6.3775h-79.26943Z" fill="rgba(188, 233, 255, .3)" stroke-width="0"/>
        </g>
      </g>
      <g id="uuid-8bde64b5-92af-4949-8f70-ee7e4fa4acf2" data-name="PolyCollection 3">
        <g clip-path="url(#uuid-3ebc718f-6fb0-4e6b-bb03-96cc694ebbca)">
          <path id="uuid-82425159-8f43-41dd-87b7-ef19411c127b" data-name="mbd96a2cb5a" d="m170.61217,6.3775v98.57874h30.95729V6.3775h-30.95729Z" fill="rgba(189, 255, 198, .3)" stroke-width="0"/>
        </g>
      </g>
      <g id="uuid-a60e88ef-55a8-468c-a236-1c32779196b0" data-name="matplotlib.axis 1">
        <g id="uuid-03779ebb-6cc0-4215-8175-67ed5d755ecb" data-name="xtick 1">
          <g id="uuid-b3f059b0-388a-478a-8382-013a44de56c2" data-name="line2d 6">
            <path id="uuid-1cf347c7-731c-4175-b660-6f9d896a15b1" data-name="mb7680dfd53" d="m30.36625,104.95625v-3" stroke="#000" stroke-linejoin="round" stroke-width=".5"/>
          </g>
          <g id="uuid-77eaad69-6f08-49be-b5e2-9f57cd0d1c09" data-name="text 1">
            <g>
              <path id="uuid-c28e48ec-4d8e-4f2a-b215-62529565ec64" data-name="TimesNewRomanPSMT-30" d="m21.32312,111.39375c0-.60417.09125-1.12417.27375-1.56.1825-.43667.42458-.76167.72625-.975.235-.16917.4775-.25375.7275-.25375.40583,0,.77042.20708,1.09375.62125.40333.5125.605,1.20792.605,2.08625,0,.61417-.08875,1.13625-.26625,1.56625-.17667.42917-.4025.74083-.6775.935-.27417.19417-.53917.29125-.795.29125-.505,0-.92542-.29833-1.26125-.895-.28417-.5025-.42625-1.10792-.42625-1.81625Zm.76625.0975c0,.72917.08958,1.32417.26875,1.785.14917.38833.37083.5825.665.5825.14,0,.28542-.06292.43625-.18875.15167-.12667.26667-.33833.345-.635.11917-.44833.17875-1.08.17875-1.895,0-.60417-.0625-1.10792-.1875-1.51125-.09333-.3-.21417-.5125-.3625-.6375-.10667-.08583-.23583-.12875-.3875-.12875-.17667,0-.33417.07958-.4725.23875-.1875.21583-.315.55583-.3825,1.02-.0675.46333-.10125.92-.10125,1.37Z" stroke-width="0"/>
              <path id="uuid-656fa8df-fb3e-4b64-b8b7-05c7627dd2c6" data-name="TimesNewRomanPSMT-31" d="m25.97187,109.23375l1.28875-.62875h.12875v4.4725c0,.29667.0125.48167.0375.555.025.0725.07625.12833.15375.1675.07833.03917.2375.06125.4775.06625v.145h-1.9925v-.145c.25-.005.41125-.02625.48375-.06375.07333-.03833.12417-.08917.1525-.1525.02917-.06417.04375-.255.04375-.5725v-2.85875c0-.38583-.01292-.63333-.03875-.7425-.01833-.08333-.05167-.14458-.1-.18375s-.10625-.05875-.17375-.05875c-.09667,0-.23083.04042-.4025.12125l-.05875-.12125Z" stroke-width="0"/>
              <path id="uuid-d4e02c0c-6538-4923-9d59-3f030a7194bc" data-name="TimesNewRomanPSMT-2d" d="m29.35812,111.92125h2.02v.59h-2.02v-.59Z" stroke-width="0"/>
              <path id="uuid-4044a58f-667f-420a-836e-45aa2a37eeac" data-name="TimesNewRomanPSMT-30" d="m31.98719,111.39375c0-.60417.09125-1.12417.27375-1.56.1825-.43667.42458-.76167.72625-.975.235-.16917.4775-.25375.7275-.25375.40583,0,.77042.20708,1.09375.62125.40333.5125.605,1.20792.605,2.08625,0,.61417-.08875,1.13625-.26625,1.56625-.17667.42917-.4025.74083-.6775.935-.27417.19417-.53917.29125-.795.29125-.505,0-.92542-.29833-1.26125-.895-.28417-.5025-.42625-1.10792-.42625-1.81625Zm.76625.0975c0,.72917.08958,1.32417.26875,1.785.14917.38833.37083.5825.665.5825.14,0,.28542-.06292.43625-.18875.15167-.12667.26667-.33833.345-.635.11917-.44833.17875-1.08.17875-1.895,0-.60417-.0625-1.10792-.1875-1.51125-.09333-.3-.21417-.5125-.3625-.6375-.10667-.08583-.23583-.12875-.3875-.12875-.17667,0-.33417.07958-.4725.23875-.1875.21583-.315.55583-.3825,1.02-.0675.46333-.10125.92-.10125,1.37Z" stroke-width="0"/>
              <path id="uuid-9b0c4042-1c37-4cf6-a3b8-c22156990658" data-name="TimesNewRomanPSMT-31" d="m36.63594,109.23375l1.28875-.62875h.12875v4.4725c0,.29667.0125.48167.0375.555.025.0725.07625.12833.15375.1675.07833.03917.2375.06125.4775.06625v.145h-1.9925v-.145c.25-.005.41125-.02625.48375-.06375.07333-.03833.12417-.08917.1525-.1525.02917-.06417.04375-.255.04375-.5725v-2.85875c0-.38583-.01292-.63333-.03875-.7425-.01833-.08333-.05167-.14458-.1-.18375s-.10625-.05875-.17375-.05875c-.09667,0-.23083.04042-.4025.12125l-.05875-.12125Z" stroke-width="0"/>
            </g>
          </g>
        </g>
        <g id="uuid-defe4be2-9e3c-476b-afd2-0dd1c773b6b0" data-name="xtick 2">
          <g id="uuid-2a739fdc-e0d8-406a-a648-4bc26415ae57" data-name="line2d 7">
            <path id="uuid-fdd3dc3e-420e-4bc3-9472-a28edb786f32" data-name="mb7680dfd53" d="m73.04979,104.95625v-3" stroke="#000" stroke-linejoin="round" stroke-width=".5"/>
          </g>
          <g id="uuid-4159f088-f08a-4f42-ba4e-2c2c2a4990ee" data-name="text 2">
            <g>
              <path id="uuid-f8537bf5-b79e-4432-b767-73f05949aeab" data-name="TimesNewRomanPSMT-30" d="m64.00666,111.39375c0-.60417.09125-1.12417.27375-1.56.1825-.43667.42458-.76167.72625-.975.235-.16917.4775-.25375.7275-.25375.40583,0,.77042.20708,1.09375.62125.40333.5125.605,1.20792.605,2.08625,0,.61417-.08875,1.13625-.26625,1.56625-.17667.42917-.4025.74083-.6775.935-.27417.19417-.53917.29125-.795.29125-.505,0-.92542-.29833-1.26125-.895-.28417-.5025-.42625-1.10792-.42625-1.81625Zm.76625.0975c0,.72917.08958,1.32417.26875,1.785.14917.38833.37083.5825.665.5825.14,0,.28542-.06292.43625-.18875.15167-.12667.26667-.33833.345-.635.11917-.44833.17875-1.08.17875-1.895,0-.60417-.0625-1.10792-.1875-1.51125-.09333-.3-.21417-.5125-.3625-.6375-.10667-.08583-.23583-.12875-.3875-.12875-.17667,0-.33417.07958-.4725.23875-.1875.21583-.315.55583-.3825,1.02-.0675.46333-.10125.92-.10125,1.37Z" stroke-width="0"/>
              <path id="uuid-ee6749a4-8702-41b5-ab48-196946ea3325" data-name="TimesNewRomanPSMT-34" d="m71.44041,112.0575v.555h-.71125v1.39875h-.64375v-1.39875h-2.2425v-.5l2.4575-3.5075h.42875v3.4525h.71125Zm-1.355,0v-2.62875l-1.86,2.62875h1.86Z" stroke-width="0"/>
              <path id="uuid-50947fb1-6b40-4f0e-8519-03a010231ad0" data-name="TimesNewRomanPSMT-2d" d="m72.04166,111.92125h2.02v.59h-2.02v-.59Z" stroke-width="0"/>
              <path id="uuid-d9638399-42fb-4a16-8240-0b7795d68525" data-name="TimesNewRomanPSMT-30" d="m74.67073,111.39375c0-.60417.09125-1.12417.27375-1.56.1825-.43667.42458-.76167.72625-.975.235-.16917.4775-.25375.7275-.25375.40583,0,.77042.20708,1.09375.62125.40333.5125.605,1.20792.605,2.08625,0,.61417-.08875,1.13625-.26625,1.56625-.17667.42917-.4025.74083-.6775.935-.27417.19417-.53917.29125-.795.29125-.505,0-.92542-.29833-1.26125-.895-.28417-.5025-.42625-1.10792-.42625-1.81625Zm.76625.0975c0,.72917.08958,1.32417.26875,1.785.14917.38833.37083.5825.665.5825.14,0,.28542-.06292.43625-.18875.15167-.12667.26667-.33833.345-.635.11917-.44833.17875-1.08.17875-1.895,0-.60417-.0625-1.10792-.1875-1.51125-.09333-.3-.21417-.5125-.3625-.6375-.10667-.08583-.23583-.12875-.3875-.12875-.17667,0-.33417.07958-.4725.23875-.1875.21583-.315.55583-.3825,1.02-.0675.46333-.10125.92-.10125,1.37Z" stroke-width="0"/>
              <path id="uuid-a108cb56-379f-47b2-b822-262d6d92dd4e" data-name="TimesNewRomanPSMT-31" d="m79.31948,109.23375l1.28875-.62875h.12875v4.4725c0,.29667.0125.48167.0375.555.025.0725.07625.12833.15375.1675.07833.03917.2375.06125.4775.06625v.145h-1.9925v-.145c.25-.005.41125-.02625.48375-.06375.07333-.03833.12417-.08917.1525-.1525.02917-.06417.04375-.255.04375-.5725v-2.85875c0-.38583-.01292-.63333-.03875-.7425-.01833-.08333-.05167-.14458-.1-.18375s-.10625-.05875-.17375-.05875c-.09667,0-.23083.04042-.4025.12125l-.05875-.12125Z" stroke-width="0"/>
            </g>
          </g>
        </g>
        <g id="uuid-9e4f4851-5492-4f2b-8f95-6aca74f5719e" data-name="xtick 3">
          <g id="uuid-4f57fc0e-f14d-4394-81c0-5e988cc412b1" data-name="line2d 8">
            <path id="uuid-2d1e8989-6611-425b-a1ef-193dca1cb0cc" data-name="mb7680dfd53" d="m115.73333,104.95625v-3" stroke="#000" stroke-linejoin="round" stroke-width=".5"/>
          </g>
          <g id="uuid-c3145da3-9708-4db2-88c4-93d7293ea53a" data-name="text 3">
            <g>
              <path id="uuid-82458543-0d58-4aef-947a-6eaab29f5733" data-name="TimesNewRomanPSMT-30" d="m106.6902,111.39375c0-.60417.09125-1.12417.27375-1.56.1825-.43667.42458-.76167.72625-.975.235-.16917.4775-.25375.7275-.25375.40583,0,.77042.20708,1.09375.62125.40333.5125.605,1.20792.605,2.08625,0,.61417-.08875,1.13625-.26625,1.56625-.17667.42917-.4025.74083-.6775.935-.27417.19417-.53917.29125-.795.29125-.505,0-.92542-.29833-1.26125-.895-.28417-.5025-.42625-1.10792-.42625-1.81625Zm.76625.0975c0,.72917.08958,1.32417.26875,1.785.14917.38833.37083.5825.665.5825.14,0,.28542-.06292.43625-.18875.15167-.12667.26667-.33833.345-.635.11917-.44833.17875-1.08.17875-1.895,0-.60417-.0625-1.10792-.1875-1.51125-.09333-.3-.21417-.5125-.3625-.6375-.10667-.08583-.23583-.12875-.3875-.12875-.17667,0-.33417.07958-.4725.23875-.1875.21583-.315.55583-.3825,1.02-.0675.46333-.10125.92-.10125,1.37Z" stroke-width="0"/>
              <path id="uuid-a0553f64-b34d-4f7b-b39d-0d5fbbb6e78f" data-name="TimesNewRomanPSMT-37" d="m111.20645,108.71375h2.84v.14875l-1.76625,5.25875h-.4375l1.5825-4.77h-1.4575c-.29417,0-.50375.035-.62875.105-.21833.12-.39417.305-.5275.555l-.1125-.0425.5075-1.255Z" stroke-width="0"/>
              <path id="uuid-8e4a53b9-53f7-43aa-9196-010b33b1d1e7" data-name="TimesNewRomanPSMT-2d" d="m114.7252,111.92125h2.02v.59h-2.02v-.59Z" stroke-width="0"/>
              <path id="uuid-7864905d-ebd6-4ff8-ad19-b7fefedece79" data-name="TimesNewRomanPSMT-30" d="m117.35426,111.39375c0-.60417.09125-1.12417.27375-1.56.1825-.43667.42458-.76167.72625-.975.235-.16917.4775-.25375.7275-.25375.40583,0,.77042.20708,1.09375.62125.40333.5125.605,1.20792.605,2.08625,0,.61417-.08875,1.13625-.26625,1.56625-.17667.42917-.4025.74083-.6775.935-.27417.19417-.53917.29125-.795.29125-.505,0-.92542-.29833-1.26125-.895-.28417-.5025-.42625-1.10792-.42625-1.81625Zm.76625.0975c0,.72917.08958,1.32417.26875,1.785.14917.38833.37083.5825.665.5825.14,0,.28542-.06292.43625-.18875.15167-.12667.26667-.33833.345-.635.11917-.44833.17875-1.08.17875-1.895,0-.60417-.0625-1.10792-.1875-1.51125-.09333-.3-.21417-.5125-.3625-.6375-.10667-.08583-.23583-.12875-.3875-.12875-.17667,0-.33417.07958-.4725.23875-.1875.21583-.315.55583-.3825,1.02-.0675.46333-.10125.92-.10125,1.37Z" stroke-width="0"/>
              <path id="uuid-778a9b50-78c6-4967-a65e-1e92d93bb4ce" data-name="TimesNewRomanPSMT-31" d="m122.00301,109.23375l1.28875-.62875h.12875v4.4725c0,.29667.0125.48167.0375.555.025.0725.07625.12833.15375.1675.07833.03917.2375.06125.4775.06625v.145h-1.9925v-.145c.25-.005.41125-.02625.48375-.06375.07333-.03833.12417-.08917.1525-.1525.02917-.06417.04375-.255.04375-.5725v-2.85875c0-.38583-.01292-.63333-.03875-.7425-.01833-.08333-.05167-.14458-.1-.18375s-.10625-.05875-.17375-.05875c-.09667,0-.23083.04042-.4025.12125l-.05875-.12125Z" stroke-width="0"/>
            </g>
          </g>
        </g>
        <g id="uuid-b50069e1-6e96-47fc-89ad-fdfd2fb6075f" data-name="xtick 4">
          <g id="uuid-5fc0e4cf-db27-406b-a82b-305b4b7c377c" data-name="line2d 9">
            <path id="uuid-5204b728-d47a-4e7d-b1de-19bf876b24b1" data-name="mb7680dfd53" d="m158.88591,104.95625v-3" stroke="#000" stroke-linejoin="round" stroke-width=".5"/>
          </g>
          <g id="uuid-35a93d34-4c58-4250-9155-632144caf18b" data-name="text 4">
            <g>
              <path id="uuid-ff989758-2e25-449e-a525-ec0a92cbd1df" data-name="TimesNewRomanPSMT-31" d="m150.49155,109.23375l1.28875-.62875h.12875v4.4725c0,.29667.0125.48167.0375.555.025.0725.07625.12833.15375.1675.07833.03917.2375.06125.4775.06625v.145h-1.9925v-.145c.25-.005.41125-.02625.48375-.06375.07333-.03833.12417-.08917.1525-.1525.02917-.06417.04375-.255.04375-.5725v-2.85875c0-.38583-.01292-.63333-.03875-.7425-.01833-.08333-.05167-.14458-.1-.18375s-.10625-.05875-.17375-.05875c-.09667,0-.23083.04042-.4025.12125l-.05875-.12125Z" stroke-width="0"/>
              <path id="uuid-ae49ad36-0003-4028-af63-54c96ca36c58" data-name="TimesNewRomanPSMT-30" d="m153.8428,111.39375c0-.60417.09125-1.12417.27375-1.56.1825-.43667.42458-.76167.72625-.975.235-.16917.4775-.25375.7275-.25375.40583,0,.77042.20708,1.09375.62125.40333.5125.605,1.20792.605,2.08625,0,.61417-.08875,1.13625-.26625,1.56625-.17667.42917-.4025.74083-.6775.935-.27417.19417-.53917.29125-.795.29125-.505,0-.92542-.29833-1.26125-.895-.28417-.5025-.42625-1.10792-.42625-1.81625Zm.76625.0975c0,.72917.08958,1.32417.26875,1.785.14917.38833.37083.5825.665.5825.14,0,.28542-.06292.43625-.18875.15167-.12667.26667-.33833.345-.635.11917-.44833.17875-1.08.17875-1.895,0-.60417-.0625-1.10792-.1875-1.51125-.09333-.3-.21417-.5125-.3625-.6375-.10667-.08583-.23583-.12875-.3875-.12875-.17667,0-.33417.07958-.4725.23875-.1875.21583-.315.55583-.3825,1.02-.0675.46333-.10125.92-.10125,1.37Z" stroke-width="0"/>
              <path id="uuid-cebb3192-c049-4217-9bd4-723fb2928454" data-name="TimesNewRomanPSMT-2d" d="m157.8778,111.92125h2.02v.59h-2.02v-.59Z" stroke-width="0"/>
              <path id="uuid-82ab83c3-e535-4daf-974f-56b39687ce2a" data-name="TimesNewRomanPSMT-30" d="m160.50686,111.39375c0-.60417.09125-1.12417.27375-1.56.1825-.43667.42458-.76167.72625-.975.235-.16917.4775-.25375.7275-.25375.40583,0,.77042.20708,1.09375.62125.40333.5125.605,1.20792.605,2.08625,0,.61417-.08875,1.13625-.26625,1.56625-.17667.42917-.4025.74083-.6775.935-.27417.19417-.53917.29125-.795.29125-.505,0-.92542-.29833-1.26125-.895-.28417-.5025-.42625-1.10792-.42625-1.81625Zm.76625.0975c0,.72917.08958,1.32417.26875,1.785.14917.38833.37083.5825.665.5825.14,0,.28542-.06292.43625-.18875.15167-.12667.26667-.33833.345-.635.11917-.44833.17875-1.08.17875-1.895,0-.60417-.0625-1.10792-.1875-1.51125-.09333-.3-.21417-.5125-.3625-.6375-.10667-.08583-.23583-.12875-.3875-.12875-.17667,0-.33417.07958-.4725.23875-.1875.21583-.315.55583-.3825,1.02-.0675.46333-.10125.92-.10125,1.37Z" stroke-width="0"/>
              <path id="uuid-eec20de0-7beb-408c-9bdd-3f71a12b07f0" data-name="TimesNewRomanPSMT-31" d="m165.15561,109.23375l1.28875-.62875h.12875v4.4725c0,.29667.0125.48167.0375.555.025.0725.07625.12833.15375.1675.07833.03917.2375.06125.4775.06625v.145h-1.9925v-.145c.25-.005.41125-.02625.48375-.06375.07333-.03833.12417-.08917.1525-.1525.02917-.06417.04375-.255.04375-.5725v-2.85875c0-.38583-.01292-.63333-.03875-.7425-.01833-.08333-.05167-.14458-.1-.18375s-.10625-.05875-.17375-.05875c-.09667,0-.23083.04042-.4025.12125l-.05875-.12125Z" stroke-width="0"/>
            </g>
          </g>
        </g>
        <g id="uuid-a485eb26-885f-468a-8f9c-78419e24cd01" data-name="xtick 5">
          <g id="uuid-7a89bb26-668c-4912-8437-9bb019e22d5d" data-name="line2d 10">
            <path id="uuid-87840cee-a313-43b7-8906-3936ee7b775f" data-name="mb7680dfd53" d="m201.56946,104.95625v-3" stroke="#000" stroke-linejoin="round" stroke-width=".5"/>
          </g>
          <g id="uuid-a9fbefd9-876d-40cb-a4f3-7c03ca986145" data-name="text 5">
            <g>
              <path id="uuid-14363227-0823-452f-84ac-6b49bbb11c11" data-name="TimesNewRomanPSMT-31" d="m193.17508,109.23375l1.28875-.62875h.12875v4.4725c0,.29667.0125.48167.0375.555.025.0725.07625.12833.15375.1675.07833.03917.2375.06125.4775.06625v.145h-1.9925v-.145c.25-.005.41125-.02625.48375-.06375.07333-.03833.12417-.08917.1525-.1525.02917-.06417.04375-.255.04375-.5725v-2.85875c0-.38583-.01292-.63333-.03875-.7425-.01833-.08333-.05167-.14458-.1-.18375s-.10625-.05875-.17375-.05875c-.09667,0-.23083.04042-.4025.12125l-.05875-.12125Z" stroke-width="0"/>
              <path id="uuid-9ab11c82-db9f-4871-97f5-dad1bcd38165" data-name="TimesNewRomanPSMT-32" d="m199.90508,112.99125l-.37,1.02h-3.125v-.145c.91917-.83833,1.56625-1.52292,1.94125-2.05375.375-.53167.5625-1.0175.5625-1.4575,0-.33583-.10292-.61167-.30875-.8275-.20583-.21667-.45208-.325-.73875-.325-.26,0-.49375.07625-.70125.22875-.20667.1525-.35958.37583-.45875.67h-.145c.06583-.48167.23333-.85125.5025-1.10875.26917-.25833.60583-.3875,1.01-.3875.42917,0,.7875.13792,1.075.41375.28833.27583.4325.60125.4325.97625,0,.26833-.0625.53667-.1875.805-.1925.42167-.505.86833-.9375,1.34-.64833.70833-1.05333,1.13542-1.215,1.28125h1.3825c.28167,0,.47917-.01042.5925-.03125.11333-.02083.21542-.06292.30625-.12625.09167-.06417.17125-.155.23875-.2725h.14375Z" stroke-width="0"/>
              <path id="uuid-fabf172d-746f-4c9b-a35e-612d2ed69c2f" data-name="TimesNewRomanPSMT-2d" d="m200.56133,111.92125h2.02v.59h-2.02v-.59Z" stroke-width="0"/>
              <path id="uuid-9a6b5992-27d8-4dc8-8874-9f4aec606314" data-name="TimesNewRomanPSMT-33" d="m203.30789,109.7225c.15083-.35667.34125-.63208.57125-.82625.23083-.19417.51833-.29125.8625-.29125.42417,0,.74958.13792.97625.41375.17167.20583.2575.42583.2575.66,0,.38583-.24208.78458-.72625,1.19625.32583.1275.57208.30958.73875.54625.16667.23667.25.51542.25.83625,0,.45833-.14583.85542-.4375,1.19125-.38.4375-.93083.65625-1.6525.65625-.35667,0-.59958-.04417-.72875-.1325-.12917-.08917-.19375-.18417-.19375-.285,0-.07583.03042-.1425.09125-.2.06167-.0575.13542-.08625.22125-.08625.06583,0,.1325.01042.2.03125.04417.01333.14417.06125.3.14375.15667.08167.265.13042.325.14625.09583.02833.19875.0425.30875.0425.265,0,.49583-.10292.6925-.30875.19667-.20583.295-.44917.295-.73,0-.20583-.04542-.40625-.13625-.60125-.0675-.14583-.14167-.25667-.2225-.3325-.1125-.10417-.26625-.19833-.46125-.2825-.195-.085-.39417-.1275-.5975-.1275h-.125v-.1175c.20583-.02583.41208-.1.61875-.2225.2075-.1225.35792-.26958.45125-.44125.09417-.17167.14125-.36042.14125-.56625,0-.26833-.08417-.485-.2525-.65-.1675-.16583-.37625-.24875-.62625-.24875-.40417,0-.74167.21625-1.0125.64875l-.12875-.0625Z" stroke-width="0"/>
              <path id="uuid-b13ea1ed-e21d-43c2-8703-0bbc01740885" data-name="TimesNewRomanPSMT-31" d="m207.83914,109.23375l1.28875-.62875h.12875v4.4725c0,.29667.0125.48167.0375.555.025.0725.07625.12833.15375.1675.07833.03917.2375.06125.4775.06625v.145h-1.9925v-.145c.25-.005.41125-.02625.48375-.06375.07333-.03833.12417-.08917.1525-.1525.02917-.06417.04375-.255.04375-.5725v-2.85875c0-.38583-.01292-.63333-.03875-.7425-.01833-.08333-.05167-.14458-.1-.18375s-.10625-.05875-.17375-.05875c-.09667,0-.23083.04042-.4025.12125l-.05875-.12125Z" stroke-width="0"/>
            </g>
          </g>
        </g>
        <g id="uuid-c27e6735-77eb-4d15-8ff1-e0a41496df4c" data-name="text 6">
          <g>
            <path id="uuid-4d006e7f-4d19-41b7-9bb3-5610bac81b12" data-name="TimesNewRomanPSMT-44" d="m108.55285,125.2775v-.145h.2c.22417,0,.38292-.07167.47625-.215.0575-.08583.08625-.27833.08625-.5775v-3.4225c0-.33-.03667-.53667-.11-.62-.10167-.115-.2525-.1725-.4525-.1725h-.2v-.145h2.15625c.79167,0,1.39375.09,1.80625.27.41333.18.74542.47958.99625.89875.25167.41917.3775.90333.3775,1.4525,0,.7375-.22375,1.35333-.67125,1.8475-.5025.5525-1.26833.82875-2.2975.82875h-2.3675Zm1.5125-.3825c.33083.0725.60792.10875.83125.10875.60417,0,1.10542-.21208,1.50375-.63625.39917-.425.59875-1.00042.59875-1.72625,0-.7325-.19958-1.30958-.59875-1.73125-.39833-.42167-.91-.6325-1.535-.6325-.23417,0-.50083.03792-.8.11375v4.50375Z" stroke-width="0"/>
            <path id="uuid-b3327852-575b-44b5-9ebd-1bc8df1aefb7" data-name="TimesNewRomanPSMT-61" d="m116.47145,124.76125c-.3675.28417-.59792.44833-.69125.4925-.14083.065-.29083.0975-.45.0975-.24667,0-.45042-.08458-.61125-.25375-.16-.16917-.24-.39167-.24-.6675,0-.175.03917-.32625.1175-.45375.10667-.17667.29208-.34292.55625-.49875.26417-.15667.70375-.34708,1.31875-.57125v-.14c0-.3575-.05667-.6025-.17-.735s-.27792-.19875-.49375-.19875c-.16417,0-.29458.04417-.39125.1325-.09917.08833-.14875.19-.14875.305l.00875.22625c0,.12-.03083.2125-.0925.2775-.06083.065-.14083.0975-.24.0975-.09667,0-.17542-.03375-.23625-.10125-.06083-.06833-.09125-.16083-.09125-.2775,0-.22417.11458-.43.34375-.6175.22917-.1875.55042-.28125.96375-.28125.31833,0,.57875.05333.78125.16.15417.08083.2675.20708.34.37875.0475.1125.07125.34167.07125.6875v1.215c0,.34167.00625.55083.01875.6275.01333.07667.035.12792.065.15375s.06458.03875.10375.03875c.04167,0,.07792-.00875.10875-.02625.055-.03417.16042-.12958.31625-.28625v.21875c-.29167.39083-.57042.58625-.83625.58625-.1275,0-.22917-.04417-.305-.1325-.075-.08833-.11375-.23958-.11625-.45375Zm0-.25375v-1.3625c-.39333.15583-.64708.26625-.76125.33125-.20583.115-.35333.235-.4425.36-.08833.125-.1325.26167-.1325.41,0,.1875.05583.34333.1675.4675.1125.12333.24167.185.3875.185.1975,0,.45792-.13042.78125-.39125Z" stroke-width="0"/>
            <path id="uuid-e809648a-1c78-448e-9b6e-c0ea93602644" data-name="TimesNewRomanPSMT-74" d="m119.03348,120.52375v1.175h.83625v.27375h-.83625v2.32c0,.2325.03333.38917.1.47.06667.08.15208.12.25625.12.08583,0,.16917-.02667.25-.08s.14333-.13208.1875-.23625h.1525c-.09167.255-.22083.44708-.3875.57625-.16667.12917-.33833.19375-.515.19375-.12,0-.2375-.03333-.3525-.1-.11417-.06667-.19875-.16167-.25375-.285-.05417-.12333-.08125-.31417-.08125-.5725v-2.40625h-.56625v-.12875c.1425-.0575.28875-.15458.43875-.29125s.28333-.29875.4-.48625c.06-.09917.14333-.28.25-.5425h.12125Z" stroke-width="0"/>
            <path id="uuid-d571c837-d3fb-4ba5-9748-8f6ad833418b" data-name="TimesNewRomanPSMT-65" d="m120.81863,123.0475c-.0025.53083.12667.9475.3875,1.25.26.30167.56583.4525.9175.4525.23417,0,.43792-.06417.61125-.1925.17333-.12917.31875-.35.43625-.6625l.12.0775c-.05417.35667-.21292.68167-.47625.975-.2625.29333-.59167.44-.9875.44-.43,0-.79792-.1675-1.10375-.5025-.30583-.335-.45875-.785-.45875-1.35,0-.61167.15667-1.08875.47-1.43125.31417-.3425.70792-.51375,1.18125-.51375.40167,0,.73125.13208.98875.39625s.38625.61792.38625,1.06125h-2.4725Zm0-.2275h1.65625c-.0125-.22917-.03958-.39042-.08125-.48375-.065-.14583-.16208-.26042-.29125-.34375s-.26417-.125-.405-.125c-.21583,0-.40917.08417-.58.2525-.17.1675-.26958.40083-.29875.7Z" stroke-width="0"/>
          </g>
        </g>
      </g>
      <g id="uuid-aec1ac9d-9325-4e43-b288-097a37bf838b" data-name="matplotlib.axis 2">
        <g id="uuid-dcc703d2-9637-45b4-8da0-a94276977caf" data-name="ytick 1">
          <g id="uuid-9676d112-1e5e-4f1d-919c-aaf9d79bdc4c" data-name="line2d 11">
            <path id="uuid-e0692d0b-a0bd-4f56-8c28-7f466ac91674" data-name="m0f8945bdaf" d="m30.36625,95.99454h3" stroke="#000" stroke-linejoin="round" stroke-width=".5"/>
          </g>
          <g id="uuid-eb029f3b-009d-4710-b155-31aabe265a75" data-name="text 7">
            <g>
              <path id="uuid-a54b96ad-a2fb-4429-ba2f-df1fc2e52149" data-name="TimesNewRomanPSMT-33" d="m15.2725,94.44954c.15083-.35667.34125-.63208.57125-.82625.23083-.19417.51833-.29125.8625-.29125.42417,0,.74958.13792.97625.41375.17167.20583.2575.42583.2575.66,0,.38583-.24208.78458-.72625,1.19625.32583.1275.57208.30958.73875.54625.16667.23667.25.51542.25.83625,0,.45833-.14583.85542-.4375,1.19125-.38.4375-.93083.65625-1.6525.65625-.35667,0-.59958-.04417-.72875-.1325-.12917-.08917-.19375-.18417-.19375-.285,0-.07583.03042-.1425.09125-.2.06167-.0575.13542-.08625.22125-.08625.06583,0,.1325.01042.2.03125.04417.01333.14417.06125.3.14375.15667.08167.265.13042.325.14625.09583.02833.19875.0425.30875.0425.265,0,.49583-.10292.6925-.30875.19667-.20583.295-.44917.295-.73,0-.20583-.04542-.40625-.13625-.60125-.0675-.14583-.14167-.25667-.2225-.3325-.1125-.10417-.26625-.19833-.46125-.2825-.195-.085-.39417-.1275-.5975-.1275h-.125v-.1175c.20583-.02583.41208-.1.61875-.2225.2075-.1225.35792-.26958.45125-.44125.09417-.17167.14125-.36042.14125-.56625,0-.26833-.08417-.485-.2525-.65-.1675-.16583-.37625-.24875-.62625-.24875-.40417,0-.74167.21625-1.0125.64875l-.12875-.0625Z" stroke-width="0"/>
              <path id="uuid-143bf10f-fa02-4025-950e-1aa842870b79" data-name="TimesNewRomanPSMT-33" d="m19.2725,94.44954c.15083-.35667.34125-.63208.57125-.82625.23083-.19417.51833-.29125.8625-.29125.42417,0,.74958.13792.97625.41375.17167.20583.2575.42583.2575.66,0,.38583-.24208.78458-.72625,1.19625.32583.1275.57208.30958.73875.54625.16667.23667.25.51542.25.83625,0,.45833-.14583.85542-.4375,1.19125-.38.4375-.93083.65625-1.6525.65625-.35667,0-.59958-.04417-.72875-.1325-.12917-.08917-.19375-.18417-.19375-.285,0-.07583.03042-.1425.09125-.2.06167-.0575.13542-.08625.22125-.08625.06583,0,.1325.01042.2.03125.04417.01333.14417.06125.3.14375.15667.08167.265.13042.325.14625.09583.02833.19875.0425.30875.0425.265,0,.49583-.10292.6925-.30875.19667-.20583.295-.44917.295-.73,0-.20583-.04542-.40625-.13625-.60125-.0675-.14583-.14167-.25667-.2225-.3325-.1125-.10417-.26625-.19833-.46125-.2825-.195-.085-.39417-.1275-.5975-.1275h-.125v-.1175c.20583-.02583.41208-.1.61875-.2225.2075-.1225.35792-.26958.45125-.44125.09417-.17167.14125-.36042.14125-.56625,0-.26833-.08417-.485-.2525-.65-.1675-.16583-.37625-.24875-.62625-.24875-.40417,0-.74167.21625-1.0125.64875l-.12875-.0625Z" stroke-width="0"/>
              <path id="uuid-035b5dbf-3cef-4da1-9fc8-d8bbe1ade7db" data-name="TimesNewRomanPSMT-30" d="m23.155,96.12079c0-.60417.09125-1.12417.27375-1.56.1825-.43667.42458-.76167.72625-.975.235-.16917.4775-.25375.7275-.25375.40583,0,.77042.20708,1.09375.62125.40333.5125.605,1.20792.605,2.08625,0,.61417-.08875,1.13625-.26625,1.56625-.17667.42917-.4025.74083-.6775.935-.27417.19417-.53917.29125-.795.29125-.505,0-.92542-.29833-1.26125-.895-.28417-.5025-.42625-1.10792-.42625-1.81625Zm.76625.0975c0,.72917.08958,1.32417.26875,1.785.14917.38833.37083.5825.665.5825.14,0,.28542-.06292.43625-.18875.15167-.12667.26667-.33833.345-.635.11917-.44833.17875-1.08.17875-1.895,0-.60417-.0625-1.10792-.1875-1.51125-.09333-.3-.21417-.5125-.3625-.6375-.10667-.08583-.23583-.12875-.3875-.12875-.17667,0-.33417.07958-.4725.23875-.1875.21583-.315.55583-.3825,1.02-.0675.46333-.10125.92-.10125,1.37Z" stroke-width="0"/>
            </g>
          </g>
        </g>
        <g id="uuid-aaa445c1-4e35-4e58-93e2-e1de5a878341" data-name="ytick 2">
          <g id="uuid-5effa709-af11-4dd2-ad02-873f441caa6e" data-name="line2d 12">
            <path id="uuid-bddd7602-f8a5-4b09-baf7-9c6dbcf7999b" data-name="m0f8945bdaf" d="m30.36625,78.07114h3" stroke="#000" stroke-linejoin="round" stroke-width=".5"/>
          </g>
          <g id="uuid-28920e8e-e366-45ab-a120-e326adeaaba3" data-name="text 8">
            <g>
              <path id="uuid-0d38d561-8647-4881-b32b-37c1a29a1950" data-name="TimesNewRomanPSMT-33" d="m15.2725,76.52613c.15083-.35667.34125-.63208.57125-.82625.23083-.19417.51833-.29125.8625-.29125.42417,0,.74958.13792.97625.41375.17167.20583.2575.42583.2575.66,0,.38583-.24208.78458-.72625,1.19625.32583.1275.57208.30958.73875.54625.16667.23667.25.51542.25.83625,0,.45833-.14583.85542-.4375,1.19125-.38.4375-.93083.65625-1.6525.65625-.35667,0-.59958-.04417-.72875-.1325-.12917-.08917-.19375-.18417-.19375-.285,0-.07583.03042-.1425.09125-.2.06167-.0575.13542-.08625.22125-.08625.06583,0,.1325.01042.2.03125.04417.01333.14417.06125.3.14375.15667.08167.265.13042.325.14625.09583.02833.19875.0425.30875.0425.265,0,.49583-.10292.6925-.30875.19667-.20583.295-.44917.295-.73,0-.20583-.04542-.40625-.13625-.60125-.0675-.14583-.14167-.25667-.2225-.3325-.1125-.10417-.26625-.19833-.46125-.2825-.195-.085-.39417-.1275-.5975-.1275h-.125v-.1175c.20583-.02583.41208-.1.61875-.2225.2075-.1225.35792-.26958.45125-.44125.09417-.17167.14125-.36042.14125-.56625,0-.26833-.08417-.485-.2525-.65-.1675-.16583-.37625-.24875-.62625-.24875-.40417,0-.74167.21625-1.0125.64875l-.12875-.0625Z" stroke-width="0"/>
              <path id="uuid-948373d0-9ccc-401d-a2e7-814dd74f1528" data-name="TimesNewRomanPSMT-34" d="m22.58875,78.86113v.555h-.71125v1.39875h-.64375v-1.39875h-2.2425v-.5l2.4575-3.5075h.42875v3.4525h.71125Zm-1.355,0v-2.62875l-1.86,2.62875h1.86Z" stroke-width="0"/>
              <path id="uuid-9a3e3aa1-ea7c-4aa2-b707-a66973ad789e" data-name="TimesNewRomanPSMT-30" d="m23.155,78.19738c0-.60417.09125-1.12417.27375-1.56.1825-.43667.42458-.76167.72625-.975.235-.16917.4775-.25375.7275-.25375.40583,0,.77042.20708,1.09375.62125.40333.5125.605,1.20792.605,2.08625,0,.61417-.08875,1.13625-.26625,1.56625-.17667.42917-.4025.74083-.6775.935-.27417.19417-.53917.29125-.795.29125-.505,0-.92542-.29833-1.26125-.895-.28417-.5025-.42625-1.10792-.42625-1.81625Zm.76625.0975c0,.72917.08958,1.32417.26875,1.785.14917.38833.37083.5825.665.5825.14,0,.28542-.06292.43625-.18875.15167-.12667.26667-.33833.345-.635.11917-.44833.17875-1.08.17875-1.895,0-.60417-.0625-1.10792-.1875-1.51125-.09333-.3-.21417-.5125-.3625-.6375-.10667-.08583-.23583-.12875-.3875-.12875-.17667,0-.33417.07958-.4725.23875-.1875.21583-.315.55583-.3825,1.02-.0675.46333-.10125.92-.10125,1.37Z" stroke-width="0"/>
            </g>
          </g>
        </g>
        <g id="uuid-fe3a3b4f-443a-4c54-8037-bfea9a232c13" data-name="ytick 3">
          <g id="uuid-5f8a767b-a258-4d22-92af-1fea5545d98c" data-name="line2d 13">
            <path id="uuid-c806b048-6edb-4c3e-adaa-caec5ad8a9d1" data-name="m0f8945bdaf" d="m30.36625,60.14772h3" stroke="#000" stroke-linejoin="round" stroke-width=".5"/>
          </g>
          <g id="uuid-f54c269d-c031-467f-8312-d43bcd0d533b" data-name="text 9">
            <g>
              <path id="uuid-bd9790bd-ec62-40fc-86ad-89bb28e9ce17" data-name="TimesNewRomanPSMT-33" d="m15.2725,58.60272c.15083-.35667.34125-.63208.57125-.82625.23083-.19417.51833-.29125.8625-.29125.42417,0,.74958.13792.97625.41375.17167.20583.2575.42583.2575.66,0,.38583-.24208.78458-.72625,1.19625.32583.1275.57208.30958.73875.54625.16667.23667.25.51542.25.83625,0,.45833-.14583.85542-.4375,1.19125-.38.4375-.93083.65625-1.6525.65625-.35667,0-.59958-.04417-.72875-.1325-.12917-.08917-.19375-.18417-.19375-.285,0-.07583.03042-.1425.09125-.2.06167-.0575.13542-.08625.22125-.08625.06583,0,.1325.01042.2.03125.04417.01333.14417.06125.3.14375.15667.08167.265.13042.325.14625.09583.02833.19875.0425.30875.0425.265,0,.49583-.10292.6925-.30875.19667-.20583.295-.44917.295-.73,0-.20583-.04542-.40625-.13625-.60125-.0675-.14583-.14167-.25667-.2225-.3325-.1125-.10417-.26625-.19833-.46125-.2825-.195-.085-.39417-.1275-.5975-.1275h-.125v-.1175c.20583-.02583.41208-.1.61875-.2225.2075-.1225.35792-.26958.45125-.44125.09417-.17167.14125-.36042.14125-.56625,0-.26833-.08417-.485-.2525-.65-.1675-.16583-.37625-.24875-.62625-.24875-.40417,0-.74167.21625-1.0125.64875l-.12875-.0625Z" stroke-width="0"/>
              <path id="uuid-bad8f78f-32dc-4cd6-a499-e71fbcc2281f" data-name="TimesNewRomanPSMT-35" d="m22.33875,57.59397l-.305.665h-1.59375l-.3475.71c.69.10167,1.23708.35833,1.64125.77.34583.35417.51875.77083.51875,1.25,0,.27833-.05667.53625-.17.77375-.1125.23667-.255.43833-.4275.605-.17167.16667-.36292.30083-.57375.4025-.29917.14333-.60667.215-.9225.215-.3175,0-.54875-.05375-.69375-.16125-.14417-.10833-.21625-.22792-.21625-.35875,0-.0725.03-.13667.09-.1925.06-.05667.13542-.085.22625-.085.06833,0,.12792.01042.17875.03125s.13708.07458.25875.16125c.19583.135.39375.2025.59375.2025.305,0,.5725-.115.8025-.345.23083-.23083.34625-.51167.34625-.8425,0-.32-.10292-.61875-.30875-.89625-.20583-.2775-.48958-.49167-.85125-.6425-.28417-.1175-.67083-.18542-1.16-.20375l1.015-2.05875h1.89875Z" stroke-width="0"/>
              <path id="uuid-701a264c-89ea-4978-828c-b153e5bb7f43" data-name="TimesNewRomanPSMT-30" d="m23.155,60.27397c0-.60417.09125-1.12417.27375-1.56.1825-.43667.42458-.76167.72625-.975.235-.16917.4775-.25375.7275-.25375.40583,0,.77042.20708,1.09375.62125.40333.5125.605,1.20792.605,2.08625,0,.61417-.08875,1.13625-.26625,1.56625-.17667.42917-.4025.74083-.6775.935-.27417.19417-.53917.29125-.795.29125-.505,0-.92542-.29833-1.26125-.895-.28417-.5025-.42625-1.10792-.42625-1.81625Zm.76625.0975c0,.72917.08958,1.32417.26875,1.785.14917.38833.37083.5825.665.5825.14,0,.28542-.06292.43625-.18875.15167-.12667.26667-.33833.345-.635.11917-.44833.17875-1.08.17875-1.895,0-.60417-.0625-1.10792-.1875-1.51125-.09333-.3-.21417-.5125-.3625-.6375-.10667-.08583-.23583-.12875-.3875-.12875-.17667,0-.33417.07958-.4725.23875-.1875.21583-.315.55583-.3825,1.02-.0675.46333-.10125.92-.10125,1.37Z" stroke-width="0"/>
            </g>
          </g>
        </g>
        <g id="uuid-fb0a1c45-d5b0-4c46-82b6-4b4143b1107a" data-name="ytick 4">
          <g id="uuid-b73c816a-7215-4434-9b79-9f743b351c29" data-name="line2d 14">
            <path id="uuid-d1c39c61-bba5-4b17-8e6a-086e2d5a1626" data-name="m0f8945bdaf" d="m30.36625,42.22432h3" stroke="#000" stroke-linejoin="round" stroke-width=".5"/>
          </g>
          <g id="uuid-3e5d6487-c306-4086-8c9c-b83852882348" data-name="text 10">
            <g>
              <path id="uuid-a5f906c9-60f8-40a0-94fe-e34235ae451f" data-name="TimesNewRomanPSMT-33" d="m15.2725,40.67932c.15083-.35667.34125-.63208.57125-.82625.23083-.19417.51833-.29125.8625-.29125.42417,0,.74958.13792.97625.41375.17167.20583.2575.42583.2575.66,0,.38583-.24208.78458-.72625,1.19625.32583.1275.57208.30958.73875.54625.16667.23667.25.51542.25.83625,0,.45833-.14583.85542-.4375,1.19125-.38.4375-.93083.65625-1.6525.65625-.35667,0-.59958-.04417-.72875-.1325-.12917-.08917-.19375-.18417-.19375-.285,0-.07583.03042-.1425.09125-.2.06167-.0575.13542-.08625.22125-.08625.06583,0,.1325.01042.2.03125.04417.01333.14417.06125.3.14375.15667.08167.265.13042.325.14625.09583.02833.19875.0425.30875.0425.265,0,.49583-.10292.6925-.30875.19667-.20583.295-.44917.295-.73,0-.20583-.04542-.40625-.13625-.60125-.0675-.14583-.14167-.25667-.2225-.3325-.1125-.10417-.26625-.19833-.46125-.2825-.195-.085-.39417-.1275-.5975-.1275h-.125v-.1175c.20583-.02583.41208-.1.61875-.2225.2075-.1225.35792-.26958.45125-.44125.09417-.17167.14125-.36042.14125-.56625,0-.26833-.08417-.485-.2525-.65-.1675-.16583-.37625-.24875-.62625-.24875-.40417,0-.74167.21625-1.0125.64875l-.12875-.0625Z" stroke-width="0"/>
              <path id="uuid-433b2855-8d5e-468a-bbee-0e1fb4fe232b" data-name="TimesNewRomanPSMT-36" d="m22.4525,39.56182v.145c-.34417.03333-.625.10167-.8425.205-.2175.1025-.4325.25917-.645.47-.21167.21083-.38708.44583-.52625.705s-.25583.56708-.35.92375c.375-.2575.75125-.38625,1.12875-.38625.3625,0,.67625.14583.94125.4375.26583.29167.39875.66667.39875,1.125,0,.4425-.13417.84625-.4025,1.21125-.3225.4425-.74958.66375-1.28125.66375-.36167,0-.66875-.12-.92125-.36-.495-.46583-.7425-1.07-.7425-1.8125,0-.47333.095-.92333.285-1.35.19-.4275.46125-.80667.81375-1.1375.35333-.33083.69125-.55333,1.01375-.6675.32333-.115.62458-.1725.90375-.1725h.22625Zm-2.43,2.73375c-.04667.35167-.07.63583-.07.8525,0,.25.04625.52167.13875.815.0925.2925.22958.52458.41125.69625.13333.1225.295.18375.485.18375.22667,0,.42917-.10667.6075-.32.17833-.21417.2675-.51917.2675-.915,0-.445-.08875-.83-.26625-1.155-.17667-.32583-.42792-.48875-.75375-.48875-.09833,0-.20417.02083-.3175.0625s-.28083.13125-.5025.26875Z" stroke-width="0"/>
              <path id="uuid-45d1244e-e2b1-4e99-9511-29ddceebd576" data-name="TimesNewRomanPSMT-30" d="m23.155,42.35057c0-.60417.09125-1.12417.27375-1.56.1825-.43667.42458-.76167.72625-.975.235-.16917.4775-.25375.7275-.25375.40583,0,.77042.20708,1.09375.62125.40333.5125.605,1.20792.605,2.08625,0,.61417-.08875,1.13625-.26625,1.56625-.17667.42917-.4025.74083-.6775.935-.27417.19417-.53917.29125-.795.29125-.505,0-.92542-.29833-1.26125-.895-.28417-.5025-.42625-1.10792-.42625-1.81625Zm.76625.0975c0,.72917.08958,1.32417.26875,1.785.14917.38833.37083.5825.665.5825.14,0,.28542-.06292.43625-.18875.15167-.12667.26667-.33833.345-.635.11917-.44833.17875-1.08.17875-1.895,0-.60417-.0625-1.10792-.1875-1.51125-.09333-.3-.21417-.5125-.3625-.6375-.10667-.08583-.23583-.12875-.3875-.12875-.17667,0-.33417.07958-.4725.23875-.1875.21583-.315.55583-.3825,1.02-.0675.46333-.10125.92-.10125,1.37Z" stroke-width="0"/>
            </g>
          </g>
        </g>
        <g id="uuid-6b4440d8-f6f2-4bb1-b5c4-aa3fc8411fd6" data-name="ytick 5">
          <g id="uuid-f961a4c8-fe40-4d60-8f10-2a470613fbba" data-name="line2d 15">
            <path id="uuid-cd1faa01-e713-4e6d-b212-2df3fac360a8" data-name="m0f8945bdaf" d="m30.36625,24.30091h3" stroke="#000" stroke-linejoin="round" stroke-width=".5"/>
          </g>
          <g id="uuid-59a359a7-6905-4c86-adf5-b9dc194b19cf" data-name="text 11">
            <g>
              <path id="uuid-fd405e7a-68e4-4e26-b9f0-4bd798a88f60" data-name="TimesNewRomanPSMT-33" d="m15.2725,22.75591c.15083-.35667.34125-.63208.57125-.82625.23083-.19417.51833-.29125.8625-.29125.42417,0,.74958.13792.97625.41375.17167.20583.2575.42583.2575.66,0,.38583-.24208.78458-.72625,1.19625.32583.1275.57208.30958.73875.54625.16667.23667.25.51542.25.83625,0,.45833-.14583.85542-.4375,1.19125-.38.4375-.93083.65625-1.6525.65625-.35667,0-.59958-.04417-.72875-.1325-.12917-.08917-.19375-.18417-.19375-.285,0-.07583.03042-.1425.09125-.2.06167-.0575.13542-.08625.22125-.08625.06583,0,.1325.01042.2.03125.04417.01333.14417.06125.3.14375.15667.08167.265.13042.325.14625.09583.02833.19875.0425.30875.0425.265,0,.49583-.10292.6925-.30875.19667-.20583.295-.44917.295-.73,0-.20583-.04542-.40625-.13625-.60125-.0675-.14583-.14167-.25667-.2225-.3325-.1125-.10417-.26625-.19833-.46125-.2825-.195-.085-.39417-.1275-.5975-.1275h-.125v-.1175c.20583-.02583.41208-.1.61875-.2225.2075-.1225.35792-.26958.45125-.44125.09417-.17167.14125-.36042.14125-.56625,0-.26833-.08417-.485-.2525-.65-.1675-.16583-.37625-.24875-.62625-.24875-.40417,0-.74167.21625-1.0125.64875l-.12875-.0625Z" stroke-width="0"/>
              <path id="uuid-1c24966c-825e-493c-a3f5-2b463318d893" data-name="TimesNewRomanPSMT-37" d="m19.67125,21.74716h2.84v.14875l-1.76625,5.25875h-.4375l1.5825-4.77h-1.4575c-.29417,0-.50375.035-.62875.105-.21833.12-.39417.305-.5275.555l-.1125-.0425.5075-1.255Z" stroke-width="0"/>
              <path id="uuid-cd13ab76-9f62-472f-8249-2c69bbd291e7" data-name="TimesNewRomanPSMT-30" d="m23.155,24.42716c0-.60417.09125-1.12417.27375-1.56.1825-.43667.42458-.76167.72625-.975.235-.16917.4775-.25375.7275-.25375.40583,0,.77042.20708,1.09375.62125.40333.5125.605,1.20792.605,2.08625,0,.61417-.08875,1.13625-.26625,1.56625-.17667.42917-.4025.74083-.6775.935-.27417.19417-.53917.29125-.795.29125-.505,0-.92542-.29833-1.26125-.895-.28417-.5025-.42625-1.10792-.42625-1.81625Zm.76625.0975c0,.72917.08958,1.32417.26875,1.785.14917.38833.37083.5825.665.5825.14,0,.28542-.06292.43625-.18875.15167-.12667.26667-.33833.345-.635.11917-.44833.17875-1.08.17875-1.895,0-.60417-.0625-1.10792-.1875-1.51125-.09333-.3-.21417-.5125-.3625-.6375-.10667-.08583-.23583-.12875-.3875-.12875-.17667,0-.33417.07958-.4725.23875-.1875.21583-.315.55583-.3825,1.02-.0675.46333-.10125.92-.10125,1.37Z" stroke-width="0"/>
            </g>
          </g>
        </g>
        <g id="uuid-15e92eaf-481a-4035-8c8c-754922b4d896" data-name="ytick 6">
          <g id="uuid-690eaa0f-2562-4c7c-8761-b49ce60d6780" data-name="line2d 16">
            <path id="uuid-671ae55f-f672-4e5a-bd92-ed7394b584be" data-name="m0f8945bdaf" d="m30.36625,6.3775h3" stroke="#000" stroke-linejoin="round" stroke-width=".5"/>
          </g>
          <g id="uuid-8a416f82-189e-4133-9464-45db92790948" data-name="text 12">
            <g>
              <path id="uuid-561ceac7-a5b1-48b0-b756-cbe755bce5c1" data-name="TimesNewRomanPSMT-33" d="m15.2725,4.8325c.15083-.35667.34125-.63208.57125-.82625.23083-.19417.51833-.29125.8625-.29125.42417,0,.74958.13792.97625.41375.17167.20583.2575.42583.2575.66,0,.38583-.24208.78458-.72625,1.19625.32583.1275.57208.30958.73875.54625.16667.23667.25.51542.25.83625,0,.45833-.14583.85542-.4375,1.19125-.38.4375-.93083.65625-1.6525.65625-.35667,0-.59958-.04417-.72875-.1325-.12917-.08917-.19375-.18417-.19375-.285,0-.07583.03042-.1425.09125-.2.06167-.0575.13542-.08625.22125-.08625.06583,0,.1325.01042.2.03125.04417.01333.14417.06125.3.14375.15667.08167.265.13042.325.14625.09583.02833.19875.0425.30875.0425.265,0,.49583-.10292.6925-.30875.19667-.20583.295-.44917.295-.73,0-.20583-.04542-.40625-.13625-.60125-.0675-.14583-.14167-.25667-.2225-.3325-.1125-.10417-.26625-.19833-.46125-.2825-.195-.085-.39417-.1275-.5975-.1275h-.125v-.1175c.20583-.02583.41208-.1.61875-.2225.2075-.1225.35792-.26958.45125-.44125.09417-.17167.14125-.36042.14125-.56625,0-.26833-.08417-.485-.2525-.65-.1675-.16583-.37625-.24875-.62625-.24875-.40417,0-.74167.21625-1.0125.64875l-.12875-.0625Z" stroke-width="0"/>
              <path id="uuid-011a9c22-0f6a-4164-98c4-2a68c0cecb97" data-name="TimesNewRomanPSMT-38" d="m20.40125,6.45375c-.41917-.34417-.68958-.62042-.81125-.82875-.12083-.20833-.18125-.42458-.18125-.64875,0-.34333.13292-.63917.39875-.8875.26583-.24917.61875-.37375,1.05875-.37375.4275,0,.77125.11583,1.03125.3475.26083.23167.39125.49583.39125.7925,0,.19833-.07042.40042-.21125.60625s-.43375.44792-.87875.72625c.45833.35417.76167.63292.91.83625.1975.26583.29625.54583.29625.84,0,.3725-.14208.69083-.42625.955-.28333.26417-.65542.39625-1.11625.39625-.5025,0-.89458-.1575-1.17625-.4725-.22333-.2525-.335-.52875-.335-.82875,0-.23417.07875-.46625.23625-.69625.1575-.23083.42875-.48542.81375-.76375Zm.61375-.41875c.3125-.28083.51042-.5025.59375-.665.08333-.16333.125-.34792.125-.55375,0-.27333-.07708-.4875-.23125-.6425-.15333-.155-.36292-.2325-.62875-.2325-.265,0-.48083.07708-.6475.23125-.16667.15333-.25.33292-.25.53875,0,.135.03417.27042.1025.40625.06917.135.1675.26375.295.38625l.64125.53125Zm-.43.56625c-.21583.1825-.37583.38125-.48.59625-.10417.215-.15625.4475-.15625.6975,0,.33583.09167.60458.275.80625.18333.20167.41708.3025.70125.3025.28083,0,.50583-.07917.675-.2375.17-.15917.255-.35208.255-.57875,0-.1875-.04958-.35542-.14875-.50375-.185-.27583-.55875-.63667-1.12125-1.0825Z" stroke-width="0"/>
              <path id="uuid-4da7a98c-f1fd-40ae-85ab-202ce65681c4" data-name="TimesNewRomanPSMT-30" d="m23.155,6.50375c0-.60417.09125-1.12417.27375-1.56.1825-.43667.42458-.76167.72625-.975.235-.16917.4775-.25375.7275-.25375.40583,0,.77042.20708,1.09375.62125.40333.5125.605,1.20792.605,2.08625,0,.61417-.08875,1.13625-.26625,1.56625-.17667.42917-.4025.74083-.6775.935-.27417.19417-.53917.29125-.795.29125-.505,0-.92542-.29833-1.26125-.895-.28417-.5025-.42625-1.10792-.42625-1.81625Zm.76625.0975c0,.72917.08958,1.32417.26875,1.785.14917.38833.37083.5825.665.5825.14,0,.28542-.06292.43625-.18875.15167-.12667.26667-.33833.345-.635.11917-.44833.17875-1.08.17875-1.895,0-.60417-.0625-1.10792-.1875-1.51125-.09333-.3-.21417-.5125-.3625-.6375-.10667-.08583-.23583-.12875-.3875-.12875-.17667,0-.33417.07958-.4725.23875-.1875.21583-.315.55583-.3825,1.02-.0675.46333-.10125.92-.10125,1.37Z" stroke-width="0"/>
            </g>
          </g>
        </g>
        <g id="uuid-bc50f588-c237-4484-be5e-0d31c53f0c94" data-name="text 13">
          <g>
            <path id="uuid-41649e91-32e0-4d4a-933f-7a9665879a6c" data-name="TimesNewRomanPSMT-57" d="m3.8575,74.50875h.145c0,.13833.025.25042.075.33625.04917.08583.14125.16792.27625.24625.09167.05167.30917.13375.6525.24625l4.27,1.47625v.15625l-3.3875,1.2075,3.3875,1.19875v.14125l-4.39875,1.57375c-.32833.1175-.5225.19167-.5825.2225-.09833.0525-.17167.12375-.22.21375-.04833.08917-.0725.21083-.0725.365h-.145v-1.96125h.145v.09375c0,.1375.03125.24292.09375.31625.0625.0725.13792.10875.22625.10875.09167,0,.30125-.05708.62875-.17125l2.97375-1.0425-2.5275-.88-.44625.15625-.355.125c-.13.055-.24458.11625-.34375.18375-.04917.03417-.09083.07583-.125.125-.04667.065-.08042.13042-.10125.19625-.01583.04917-.02375.12708-.02375.23375h-.145v-2.0625h.145v.14125c0,.14583.03125.2525.09375.32s.14708.10125.25375.10125c.13333,0,.365-.05875.695-.17625l2.88-1.015-2.91875-1.0075c-.3225-.115-.54625-.1725-.67125-.1725-.06,0-.11583.01917-.1675.0575-.0525.0375-.08917.085-.11.1425-.03667.09833-.055.22708-.055.38625h-.145v-1.5825Z" stroke-width="0"/>
            <path id="uuid-f5564161-ccb0-4e63-a692-a2fb6261f6f4" data-name="TimesNewRomanPSMT-61" d="m8.63875,72.80922c.28417.3675.44833.59792.4925.69125.065.14083.0975.29083.0975.45,0,.24667-.08458.45042-.25375.61125-.16917.16-.39167.24-.6675.24-.175,0-.32625-.03917-.45375-.1175-.17667-.10667-.34292-.29208-.49875-.55625-.15667-.26417-.34708-.70375-.57125-1.31875h-.14c-.3575,0-.6025.05667-.735.17s-.19875.27792-.19875.49375c0,.16417.04417.29458.1325.39125.08833.09917.19.14875.305.14875l.22625-.00875c.12,0,.2125.03083.2775.0925.065.06083.0975.14083.0975.24,0,.09667-.03375.17542-.10125.23625-.06833.06083-.16083.09125-.2775.09125-.22417,0-.43-.11458-.6175-.34375-.1875-.22917-.28125-.55042-.28125-.96375,0-.31833.05333-.57875.16-.78125.08083-.15417.20708-.2675.37875-.34.1125-.0475.34167-.07125.6875-.07125h1.215c.34167,0,.55083-.00625.6275-.01875.07667-.01333.12792-.035.15375-.065s.03875-.06458.03875-.10375c0-.04167-.00875-.07792-.02625-.10875-.03417-.055-.12958-.16042-.28625-.31625h.21875c.39083.29167.58625.57042.58625.83625,0,.1275-.04417.22917-.1325.305-.08833.075-.23958.11375-.45375.11625Zm-.25375,0h-1.3625c.15583.39333.26625.64708.33125.76125.115.20583.235.35333.36.4425.125.08833.26167.1325.41.1325.1875,0,.34333-.05583.4675-.1675.12333-.1125.185-.24167.185-.3875,0-.1975-.13042-.45792-.39125-.78125Z" stroke-width="0"/>
            <path id="uuid-bcc92d0e-3b0f-47ca-83ca-c37700c15fbc" data-name="TimesNewRomanPSMT-74" d="m4.40125,70.24719h1.175v-.83625h.27375v.83625h2.32c.2325,0,.38917-.03333.47-.1.08-.06667.12-.15208.12-.25625,0-.08583-.02667-.16917-.08-.25s-.13208-.14333-.23625-.1875v-.1525c.255.09167.44708.22083.57625.3875.12917.16667.19375.33833.19375.515,0,.12-.03333.2375-.1.3525-.06667.11417-.16167.19875-.285.25375-.12333.05417-.31417.08125-.5725.08125h-2.40625v.56625h-.12875c-.0575-.1425-.15458-.28875-.29125-.43875s-.29875-.28333-.48625-.4c-.09917-.06-.28-.14333-.5425-.25v-.12125Z" stroke-width="0"/>
            <path id="uuid-72ca6fcb-57b5-4d54-b933-def1628ae92b" data-name="TimesNewRomanPSMT-65" d="m6.925,68.46203c.53083.0025.9475-.12667,1.25-.3875.30167-.26.4525-.56583.4525-.9175,0-.23417-.06417-.43792-.1925-.61125-.12917-.17333-.35-.31875-.6625-.43625l.0775-.12c.35667.05417.68167.21292.975.47625.29333.2625.44.59167.44.9875,0,.43-.1675.79792-.5025,1.10375-.335.30583-.785.45875-1.35.45875-.61167,0-1.08875-.15667-1.43125-.47-.3425-.31417-.51375-.70792-.51375-1.18125,0-.40167.13208-.73125.39625-.98875s.61792-.38625,1.06125-.38625v2.4725Zm-.2275,0v-1.65625c-.22917.0125-.39042.03958-.48375.08125-.14583.065-.26042.16208-.34375.29125s-.125.26417-.125.405c0,.21583.08417.40917.2525.58.1675.17.40083.26958.7.29875Z" stroke-width="0"/>
            <path id="uuid-a4f19368-b498-45f8-aa8d-d9c1aeb0f4bc" data-name="TimesNewRomanPSMT-72" d="m5.47125,64.465h.805c-.53667-.29917-.805-.60625-.805-.92125,0-.14333.04375-.26167.13125-.355.08667-.09417.1875-.14125.3025-.14125.10167,0,.18792.03417.25875.1025.07.0675.105.14792.105.24125,0,.09083-.045.19292-.135.30625s-.135.1975-.135.2525c0,.04667.02583.0975.0775.1525.1075.11667.28333.2375.5275.3625h1.715c.19833,0,.34833-.02458.45-.07375.07-.03417.12833-.09417.175-.18s.07-.20958.07-.37125h.14125v1.8325h-.14125c0-.1825-.02833-.31792-.085-.40625-.04167-.065-.10833-.11042-.2-.13625-.04417-.01333-.17042-.02-.37875-.02h-1.38625c-.41667,0-.66458.00875-.74375.02625-.08.01667-.13792.04792-.17375.09375-.03667.045-.055.10125-.055.16875,0,.08083.01958.17208.05875.27375l-.14125.03875-.4375-1.08125v-.165Z" stroke-width="0"/>
            <path id="uuid-b8b68c52-669c-4c72-87d7-717c3643b85b" data-name="TimesNewRomanPSMT-4c" d="m7.69,56.51219l.0275-.12875,1.4375.45375v4.10125h-.145v-.2c0-.22333-.07292-.38333-.21875-.48-.08333-.055-.27583-.0825-.5775-.0825h-3.41875c-.33,0-.53667.03667-.62.11-.115.10167-.1725.2525-.1725.4525v.2h-.145v-2.39875h.145c-.0025.28167.02375.47917.07875.5925.05417.1125.12292.18958.20625.23125s.2825.0625.5975.0625h3.32875c.21583,0,.36417-.02083.445-.0625.055-.03083.09542-.07875.12125-.14375s.03875-.26833.03875-.61v-.38625c0-.40667-.03-.69167-.09-.855-.06-.16417-.16583-.31375-.3175-.44875-.1525-.13583-.39292-.27167-.72125-.4075Z" stroke-width="0"/>
            <path id="uuid-0a9ece09-e684-4614-a210-4a5caa827c3d" data-name="TimesNewRomanPSMT-65" d="m6.925,55.36047c.53083.0025.9475-.12667,1.25-.3875.30167-.26.4525-.56583.4525-.9175,0-.23417-.06417-.43792-.1925-.61125-.12917-.17333-.35-.31875-.6625-.43625l.0775-.12c.35667.05417.68167.21292.975.47625.29333.2625.44.59167.44.9875,0,.43-.1675.79792-.5025,1.10375-.335.30583-.785.45875-1.35.45875-.61167,0-1.08875-.15667-1.43125-.47-.3425-.31417-.51375-.70792-.51375-1.18125,0-.40167.13208-.73125.39625-.98875s.61792-.38625,1.06125-.38625v2.4725Zm-.2275,0v-1.65625c-.22917.0125-.39042.03958-.48375.08125-.14583.065-.26042.16208-.34375.29125s-.125.26417-.125.405c0,.21583.08417.40917.2525.58.1675.17.40083.26958.7.29875Z" stroke-width="0"/>
            <path id="uuid-59014dfb-8975-4eac-ab69-95f29e1dc318" data-name="TimesNewRomanPSMT-76" d="m5.57625,52.59469v-1.68375h.145v.10875c0,.10167.025.17917.075.2325.04917.05333.11542.08.19875.08.09083,0,.19875-.02708.32375-.08125l1.97625-.8325-2.05-.83625c-.14583-.05917-.25667-.08875-.3325-.08875-.03667,0-.06667.01042-.09.03125-.03917.02833-.06583.06458-.08.10875s-.02125.13417-.02125.27h-.145v-1.16875h.145c.01083.13583.03833.22958.0825.28125.0775.09167.2075.17375.39.24625l3.07125,1.27v.16l-3.02,1.2775c-.14083.0575-.24167.1125-.3025.165-.06167.05167-.11333.1175-.155.1975-.02333.045-.04542.1325-.06625.2625h-.145Z" stroke-width="0"/>
            <path id="uuid-882c61e4-1509-4ff6-9a27-490b66d9c0c0" data-name="TimesNewRomanPSMT-65" d="m6.925,47.80969c.53083.0025.9475-.12667,1.25-.3875.30167-.26.4525-.56583.4525-.9175,0-.23417-.06417-.43792-.1925-.61125-.12917-.17333-.35-.31875-.6625-.43625l.0775-.12c.35667.05417.68167.21292.975.47625.29333.2625.44.59167.44.9875,0,.43-.1675.79792-.5025,1.10375-.335.30583-.785.45875-1.35.45875-.61167,0-1.08875-.15667-1.43125-.47-.3425-.31417-.51375-.70792-.51375-1.18125,0-.40167.13208-.73125.39625-.98875s.61792-.38625,1.06125-.38625v2.4725Zm-.2275,0v-1.65625c-.22917.0125-.39042.03958-.48375.08125-.14583.065-.26042.16208-.34375.29125s-.125.26417-.125.405c0,.21583.08417.40917.2525.58.1675.17.40083.26958.7.29875Z" stroke-width="0"/>
            <path id="uuid-19c1a731-f73f-4e8e-a164-5c83e986be69" data-name="TimesNewRomanPSMT-6c" d="m3.6,43.63015h4.74625c.22417,0,.37292-.01625.44625-.04875.0725-.03333.1275-.08375.165-.15125s.05625-.19375.05625-.37875h.14125v1.75375h-.14125c0-.16417-.01667-.27583-.05-.335-.03417-.06-.09-.10708-.1675-.14125-.07833-.03417-.22833-.05125-.45-.05125h-3.25c-.40333,0-.65125.00917-.74375.0275s-.15542.04792-.18875.08875c-.03417.04-.05125.09125-.05125.15375,0,.0675.02083.15333.0625.2575l-.1375.06625-.4375-1.06625v-.175Z" stroke-width="0"/>
            <path id="uuid-f6a0a22b-e8c0-4cab-9ac7-057de8826577" data-name="TimesNewRomanPSMT-28" d="m10.72125,38.4025h.145c-.19833.39333-.43.72167-.695.985-.37833.375-.82375.66417-1.33625.8675-.51333.2025-1.04583.30375-1.5975.30375-.8075,0-1.54375-.19917-2.20875-.5975-.66583-.39833-1.14208-.91792-1.42875-1.55875h.16375c.1775.32083.42.58417.7275.79.30667.20583.69583.35958,1.1675.46125.47167.10083.96375.15125,1.47625.15125.5575,0,1.06417-.04292,1.52-.12875.35917-.0675.6475-.14917.865-.245.2175-.09667.42625-.22625.62625-.38875.20083-.16333.3925-.37667.575-.64Z" stroke-width="0"/>
            <path id="uuid-6a061994-8ff6-4e22-adfe-c5579ab8cee7" data-name="TimesNewRomanPSMT-6d" d="m6.2325,36.91094c-.26-.26083-.40958-.41458-.44875-.46125-.09917-.11667-.17583-.2425-.23-.3775-.055-.13583-.0825-.27042-.0825-.40375,0-.22417.06542-.41667.19625-.5775.13-.16167.31833-.27.565-.325-.3125-.26833-.5175-.49458-.615-.67875-.0975-.185-.14625-.37542-.14625-.57125,0-.19.04875-.35833.14625-.505.0975-.1475.25708-.26417.47875-.35.15083-.0575.38792-.08625.71125-.08625h1.53875c.22417,0,.37792-.01667.46125-.05.0575-.02667.10625-.075.14625-.145s.06-.18458.06-.34375h.14125v1.765h-.14125v-.07375c0-.15333-.02958-.27292-.08875-.35875-.04167-.06-.10833-.10333-.2-.13-.04417-.01-.17042-.015-.37875-.015h-1.53875c-.29167,0-.4975.035-.6175.105-.16667.10167-.25.26458-.25.48875,0,.13833.03458.27708.10375.41625s.1975.3075.385.505l.0425.00875.1675-.00875h1.7075c.245,0,.3975-.01333.4575-.04.06-.0275.11-.07875.15-.15375.04-.07583.06-.205.06-.3875h.14125v1.80875h-.14125c0-.19833-.02333-.33458-.07-.40875s-.11708-.12542-.21125-.15375c-.04417-.01333-.17292-.02-.38625-.02h-1.53875c-.29167,0-.50125.04292-.62875.12875-.16667.115-.25.27542-.25.48125,0,.14.0375.27917.1125.4175.115.21583.24417.3825.3875.5h1.9175c.23417,0,.38667-.01625.4575-.04875.07-.0325.1225-.08042.1575-.14375.035-.06417.0525-.19417.0525-.39h.14125v1.77h-.14125c0-.16417-.0175-.27875-.0525-.34375s-.09083-.11417-.1675-.1475c-.07667-.03417-.22583-.05125-.4475-.05125h-1.3675c-.39333,0-.64708.01167-.76125.035-.08583.01833-.145.04708-.1775.08625-.0325.03833-.04875.09167-.04875.16,0,.0725.01958.15958.05875.26125l-.14125.05875-.4375-1.07875v-.1675h.76125Z" stroke-width="0"/>
            <path id="uuid-0541875e-5b8a-4b67-a6ac-354b646c1f42" data-name="TimesNewRomanPSMT-29" d="m3.76375,31.82078h-.16375c.19583-.39583.42625-.725.69125-.9875.38083-.3725.82708-.66042,1.33875-.86375s1.04458-.305,1.59875-.305c.8075,0,1.54375.19875,2.20875.59625.66583.39667,1.14208.91667,1.42875,1.56h-.145c-.17917-.32-.42208-.58333-.72875-.79-.30583-.2075-.695-.36125-1.1675-.46125-.4725-.10083-.96542-.15125-1.47875-.15125-.555,0-1.06167.04292-1.52.12875-.35917.06583-.64667.1475-.8625.245-.21667.0975-.425.22708-.625.38875-.20083.16083-.3925.37417-.575.64Z" stroke-width="0"/>
          </g>
        </g>
      </g>
      <g id="uuid-f8b64eaf-0304-4ac6-8c98-4478eff82518" data-name="line2d 17">
        <g clip-path="url(#uuid-fc3094df-b4de-472c-a73f-33df2607b7c5)">
          <path d="m30.36625,53.13967l.46905.34055.46905.68109,1.8762,1.54141.9381.44809.9381.82447,1.8762,1.89988,1.40715.91409,1.40715.68109.46905.16131.46905.3047.9381.32262.46905.32262.9381.25093.46905.0717.46905-.14339.46905.17923.46905-.01793.9381.10754,3.28335.48393,3.7524.98579.9381-.21508,1.40715.44809.9381.48393.9381.51978,1.8762.80656.9381.39432,2.8143,1.05748.9381.82448.9381,1.12917.46906.35847,1.40715.62732.9381.55563,1.8762,1.84611,1.87621,2.24043,4.22144,5.48456.9381.51978.46905.23301.46906.46601,2.34525,3.31583,5.6286,7.8863.9381.07169,2.34525,1.05748.9381.66317.46905.66316.9381.86033.46906.21508.46905-.35847,2.34525-.80656,1.40714-.46601,1.40715-.05376.9381.19715h.46905l1.40715-.59147.46906-.19716.46905.03585.46905-.19716.46905-.75278.46906-.43016.46905-1.05748.9381-3.11868,1.40715-7.2769.9381-7.47407.46905-2.07911.9381-1.84612.9381-.8424.9381-.96786.46906-.14339.9381-.75278,1.40715.07169.46906-.17923.46905-2.49136.46905-1.12917.46905-.48393.46906.12547.46905.34055.9381,1.20087h.46905l.46905-1.4518.46905-1.9178.46906-1.30841.46905-.32262.9381.03585.9381.43016.9381-.08962.46905.21508.46906.34054.46905.57355.9381.51978.46905.26885.46905-.21508.46905-.62732.9381-3.11867.46905-.9141.9381-.87825,1.40715-.46601h.9381l.93811-.19716.9381-.233.46904.01792.46906-.10754,1.87621.05377.46904-.44809.46906-.26885.9381-.10754.93811-.25093.9381-.5377.9381-.25093.46906-.35847.46906-.6094.46904-.35847,2.8143-3.53091.9381-.8424.93811-.5377,1.40715-.62732.9381-.12546.46906-.26885.46904-.44809.93811-1.21879.9381-1.34425.46906-1.1471,1.40715-4.39124.46904-2.88567.46906-4.212.46904-3.19037.46906-1.52349.46906-1.11125.46904-.48393.93811-.43016.46904-.43016.46906-.10754,1.40715-.01792.9381-.44808,2.8143-1.9178.93811-.59147.9381-.10754.9381.10754.46906.08962.9381-.28678.9381-.87825.93811-.78863.9381-.28678.46906-.35847.9381-.35847.9381-.07169h.46906l1.40715.46601.9381.78863.9381.86032.46906.43016,2.34525,1.12918,2.34526,1.66688,2.34525,1.64895,6.09764,5.16194,2.34526,2.93944,1.40715,1.64895,2.8143,3.63845.9381,1.54141,3.28334,5.09025,1.87621,2.79605.46906.66317h0" fill="none" stroke="#1a6fdf" stroke-linecap="square" stroke-linejoin="round"/>
        </g>
      </g>
      <g id="uuid-94bbba1d-1d3d-4d37-a057-91886acaf59c" data-name="line2d 18">
        <g clip-path="url(#uuid-649c6517-c7c2-4982-a84b-0fc4367555fa)">
          <path d="m30.36625,95.99454h171.20321" fill="none" stroke="#f4b919" stroke-dasharray="0 0 2.775 1.2" stroke-linejoin="round" stroke-width=".75"/>
        </g>
      </g>
      <g id="uuid-66bdc5f9-60f5-477d-9e99-7cf0253799f2" data-name="line2d 19">
        <g clip-path="url(#uuid-78425d9e-f328-4aa1-b4d7-b581102c6c6c)">
          <path d="m30.36625,15.3392h56.28599v28.13975h35.64779v-12.00868h22.04534V15.3392h57.22409" fill="none" stroke="#f14040" stroke-dasharray="0 0 2.775 1.2" stroke-linejoin="round" stroke-width=".75"/>
        </g>
      </g>
      <g id="uuid-bd41816e-ad22-4ccd-95c6-309a3e43fd5c" data-name="patch 3">
        <path d="m30.36625,104.95625V6.3775" fill="none" stroke="#000" stroke-linecap="square" stroke-width=".5"/>
      </g>
      <g id="uuid-445d8790-5199-4c88-9f21-f815a67f9a08" data-name="patch 4">
        <path d="m201.56946,104.95625V6.3775" fill="none" stroke="#000" stroke-linecap="square" stroke-width=".5"/>
      </g>
      <g id="uuid-a3261e37-55ac-44b7-8d3a-29eefec0f009" data-name="patch 5">
        <path d="m30.36625,104.95625h171.20321" fill="none" stroke="#000" stroke-linecap="square" stroke-width=".5"/>
      </g>
      <g id="uuid-10872c1b-2175-41d3-8032-29fb05b13f42" data-name="patch 6">
        <path d="m30.36625,6.3775h171.20321" fill="none" stroke="#000" stroke-linecap="square" stroke-width=".5"/>
      </g>
      <g id="uuid-1272cc00-5927-45f0-af00-8de53e5ca4fe" data-name="PathCollection 1">
        <g clip-path="url(#uuid-a926b1e9-162a-45b0-bc55-a63a74478c39)">
          <path id="uuid-80d2f0ff-7ccd-4509-b61f-888898464918" data-name="mf9e3a90515" d="m91.34274,97.42668l1.41421-2.82843h-2.82843l1.41421,2.82843Z" fill="#1ae099" stroke="#1ae099" stroke-linejoin="round"/>
        </g>
      </g>
      <g id="uuid-2ca33974-acef-4ca8-aca0-1b63a2fdaa8e" data-name="PathCollection 2">
        <g clip-path="url(#uuid-3ca02dce-3daa-49af-b52e-73e74c8a46cc)">
          <path id="uuid-29e83f21-c263-44de-96f8-1dfaabfcd19a" data-name="mf67f308d5f" d="m170.61217,15.52017l-1.41421,2.82843h2.82843l-1.41421-2.82843Z" fill="#821ae0" stroke="#821ae0" stroke-linejoin="round"/>
        </g>
      </g>
      <g id="uuid-f5ce535c-7391-4db3-ba0c-5a785b7a0fc3" data-name="legend 1">
        <g id="uuid-236721da-2183-4544-ba17-7c0bb5ab5bab" data-name="line2d 20">
          <path d="m41.79598,129.9827h16" fill="none" stroke="#1a6fdf" stroke-linecap="square" stroke-linejoin="round"/>
        </g>
        <g id="uuid-6e0f4012-fa4f-4829-857a-253459901c90" data-name="text 14">
          <g>
            <path id="uuid-771c30aa-f88a-498b-962e-54ca61b34258" data-name="TimesNewRomanPSMT-41" d="m67.85598,131.00895h-2.05l-.36.83625c-.08833.20583-.1325.35958-.1325.46125,0,.08083.03833.15167.115.2125.07667.06083.2425.10042.4975.11875v.145h-1.6675v-.145c.22167-.03917.365-.09.43-.1525.1325-.125.27958-.37875.44125-.76125l1.86375-4.35875h.13625l1.84375,4.40625c.14833.35417.28292.58417.40375.69.12167.105.29042.16375.50625.17625v.145h-2.09v-.145c.21083-.01.35333-.045.4275-.105s.11125-.13292.11125-.21875c0-.115-.05208-.29583-.15625-.5425l-.32-.7625Zm-.10875-.28875l-.89875-2.14125-.9225,2.14125h1.82125Z" stroke-width="0"/>
            <path id="uuid-a8c28b06-472a-4590-a787-98b9d9540731" data-name="TimesNewRomanPSMT-63" d="m73.26207,131.4227c-.09583.47167-.28458.83458-.56625,1.08875-.28083.25417-.59208.38125-.93375.38125-.40583,0-.76-.17042-1.0625-.51125-.30167-.34167-.4525-.80292-.4525-1.38375,0-.5625.16708-1.01958.50125-1.37125.335-.35167.73667-.5275,1.205-.5275.35167,0,.64083.09333.8675.28.22667.18583.34.37917.34.58,0,.09833-.03208.17833-.09625.24-.06333.06083-.1525.09125-.2675.09125-.15333,0-.26917-.04958-.3475-.14875-.04417-.05417-.07333-.15792-.0875-.31125-.01417-.15417-.06708-.27167-.15875-.3525-.09083-.07833-.21708-.1175-.37875-.1175-.26,0-.46958.09667-.62875.29-.21083.255-.31625.59208-.31625,1.01125,0,.4275.10458.80458.31375,1.13125.21.32667.49333.49.85.49.25583,0,.485-.08708.6875-.26125.14333-.12.28292-.3375.41875-.6525l.1125.05375Z" stroke-width="0"/>
            <path id="uuid-8c224194-006d-4c40-997e-f9726b1cf811" data-name="TimesNewRomanPSMT-74" d="m74.81285,128.02895v1.175h.83625v.27375h-.83625v2.32c0,.2325.03333.38917.1.47.06667.08.15208.12.25625.12.08583,0,.16917-.02667.25-.08s.14333-.13208.1875-.23625h.1525c-.09167.255-.22083.44708-.3875.57625-.16667.12917-.33833.19375-.515.19375-.12,0-.2375-.03333-.3525-.1-.11417-.06667-.19875-.16167-.25375-.285-.05417-.12333-.08125-.31417-.08125-.5725v-2.40625h-.56625v-.12875c.1425-.0575.28875-.15458.43875-.29125s.28333-.29875.4-.48625c.06-.09917.14333-.28.25-.5425h.12125Z" stroke-width="0"/>
            <path id="uuid-b8ac4008-793f-4171-ac65-ecbe1b12864f" data-name="TimesNewRomanPSMT-75" d="m79.13301,129.20395v2.16875c0,.41417.00958.6675.02875.76.02.0925.05125.15708.09375.19375.04333.03583.09375.05375.15125.05375.08083,0,.17208-.02208.27375-.06625l.055.13625-1.07125.4425h-.175v-.75875c-.3075.33333-.54208.54333-.70375.63-.16083.08583-.33125.12875-.51125.12875-.20083,0-.375-.05792-.5225-.17375-.14667-.11667-.24875-.26583-.30625-.4475-.05667-.1825-.085-.44042-.085-.77375v-1.5975c0-.16917-.01833-.28625-.055-.35125-.03667-.06583-.09083-.11625-.1625-.15125s-.20125-.05125-.38875-.04875v-.145h1.25375v2.395c0,.33333.05792.55208.17375.65625.11667.10417.25667.15625.42.15625.1125,0,.23958-.035.38125-.105.14167-.07083.31042-.205.50625-.4025v-2.0275c0-.20333-.03708-.34083-.11125-.4125-.07417-.07167-.22875-.11-.46375-.115v-.145h1.21875Z" stroke-width="0"/>
            <path id="uuid-27a92017-45f5-4f59-b130-0d5554a37204" data-name="TimesNewRomanPSMT-61" d="m82.02426,132.26645c-.3675.28417-.59792.44833-.69125.4925-.14083.065-.29083.0975-.45.0975-.24667,0-.45042-.08458-.61125-.25375-.16-.16917-.24-.39167-.24-.6675,0-.175.03917-.32625.1175-.45375.10667-.17667.29208-.34292.55625-.49875.26417-.15667.70375-.34708,1.31875-.57125v-.14c0-.3575-.05667-.6025-.17-.735s-.27792-.19875-.49375-.19875c-.16417,0-.29458.04417-.39125.1325-.09917.08833-.14875.19-.14875.305l.00875.22625c0,.12-.03083.2125-.0925.2775-.06083.065-.14083.0975-.24.0975-.09667,0-.17542-.03375-.23625-.10125-.06083-.06833-.09125-.16083-.09125-.2775,0-.22417.11458-.43.34375-.6175.22917-.1875.55042-.28125.96375-.28125.31833,0,.57875.05333.78125.16.15417.08083.2675.20708.34.37875.0475.1125.07125.34167.07125.6875v1.215c0,.34167.00625.55083.01875.6275.01333.07667.035.12792.065.15375s.06458.03875.10375.03875c.04167,0,.07792-.00875.10875-.02625.055-.03417.16042-.12958.31625-.28625v.21875c-.29167.39083-.57042.58625-.83625.58625-.1275,0-.22917-.04417-.305-.1325-.075-.08833-.11375-.23958-.11625-.45375Zm0-.25375v-1.3625c-.39333.15583-.64708.26625-.76125.33125-.20583.115-.35333.235-.4425.36-.08833.125-.1325.26167-.1325.41,0,.1875.05583.34333.1675.4675.1125.12333.24167.185.3875.185.1975,0,.45792-.13042.78125-.39125Z" stroke-width="0"/>
            <path id="uuid-ac26fb08-7501-4cdf-a7f2-c7ba5e3cf56a" data-name="TimesNewRomanPSMT-6c" d="m84.77754,127.2277v4.74625c0,.22417.01625.37292.04875.44625.03333.0725.08375.1275.15125.165s.19375.05625.37875.05625v.14125h-1.75375v-.14125c.16417,0,.27583-.01667.335-.05.06-.03417.10708-.09.14125-.1675.03417-.07833.05125-.22833.05125-.45v-3.25c0-.40333-.00917-.65125-.0275-.74375s-.04792-.15542-.08875-.18875c-.04-.03417-.09125-.05125-.15375-.05125-.0675,0-.15333.02083-.2575.0625l-.06625-.1375,1.06625-.4375h.175Z" stroke-width="0"/>
          </g>
        </g>
        <g id="uuid-fc53ef02-cc08-4e30-90cc-ed6781542215" data-name="line2d 21">
          <path d="m41.79598,141.29395h16" fill="none" stroke="#f4b919" stroke-dasharray="0 0 2.775 1.2" stroke-linejoin="round" stroke-width=".75"/>
        </g>
        <g id="uuid-b1a9e12e-1ba7-4742-a598-a4eda47fb16c" data-name="text 15">
          <g>
            <path id="uuid-d82f7d05-ee1a-4a22-aa03-6cb79fdbaced" data-name="TimesNewRomanPSMT-4c" d="m68.78223,142.62895l.12875.0275-.45375,1.4375h-4.10125v-.145h.2c.22333,0,.38333-.07292.48-.21875.055-.08333.0825-.27583.0825-.5775v-3.41875c0-.33-.03667-.53667-.11-.62-.10167-.115-.2525-.1725-.4525-.1725h-.2v-.145h2.39875v.145c-.28167-.0025-.47917.02375-.5925.07875-.1125.05417-.18958.12292-.23125.20625s-.0625.2825-.0625.5975v3.32875c0,.21583.02083.36417.0625.445.03083.055.07875.09542.14375.12125s.26833.03875.61.03875h.38625c.40667,0,.69167-.03.855-.09.16417-.06.31375-.16583.44875-.3175.13583-.1525.27167-.39292.4075-.72125Z" stroke-width="0"/>
            <path id="uuid-2657fb22-8274-4166-80de-a7b5d393d76c" data-name="TimesNewRomanPSMT-6f" d="m71.08269,140.4102c.54167,0,.97667.20583,1.305.6175.27833.35167.4175.75542.4175,1.21125,0,.32-.07708.64417-.23125.9725-.15333.3275-.36458.575-.63375.7425-.26917.16667-.56917.25-.9.25-.53917,0-.9675-.215-1.285-.645-.26833-.3625-.4025-.76875-.4025-1.21875,0-.32833.08125-.65458.24375-.97875.1625-.32417.37667-.56375.6425-.71875.26583-.155.54708-.2325.84375-.2325Zm-.12125.25375c-.1375,0-.27625.04125-.41625.12375-.13917.08167-.25167.22542-.3375.43125s-.12875.47-.12875.7925c0,.52083.10333.97042.31,1.34875.2075.3775.48042.56625.81875.56625.2525,0,.46083-.10417.625-.3125.16417-.20833.24625-.56667.24625-1.075,0-.635-.13667-1.135-.41-1.5-.185-.25-.42083-.375-.7075-.375Z" stroke-width="0"/>
            <path id="uuid-717c6e21-ea67-49ff-af6a-4e28a885a790" data-name="TimesNewRomanPSMT-77" d="m73.13394,140.5152h1.5v.145c-.13833.01083-.22917.03583-.2725.075-.0425.03833-.06375.09417-.06375.1675,0,.08083.02208.17833.06625.2925l.76625,2.05875.76875-1.67625-.2025-.52625c-.0625-.15667-.14458-.265-.24625-.325-.0575-.03667-.16417-.05875-.32-.06625v-.145h1.7025v.145c-.1875.0075-.32042.04125-.39875.10125-.05167.04167-.0775.10833-.0775.2,0,.05167.01042.105.03125.16l.8125,2.055.75375-1.98125c.05167-.14083.0775-.25292.0775-.33625,0-.04917-.02542-.09333-.07625-.1325-.05-.03917-.14958-.06125-.29875-.06625v-.145h1.13v.145c-.22667.03417-.39333.18792-.5.46125l-1.19625,3.0825h-.16l-.89375-2.28625-1.04375,2.28625h-.14375l-1.14875-3.00875c-.07583-.19-.15042-.31792-.22375-.38375-.0725-.06667-.18667-.11708-.3425-.15125v-.145Z" stroke-width="0"/>
            <path id="uuid-5767d09c-e73c-4602-a35d-3089b6cba420" data-name="TimesNewRomanPSMT-65" d="m79.71129,141.86395c-.0025.53083.12667.9475.3875,1.25.26.30167.56583.4525.9175.4525.23417,0,.43792-.06417.61125-.1925.17333-.12917.31875-.35.43625-.6625l.12.0775c-.05417.35667-.21292.68167-.47625.975-.2625.29333-.59167.44-.9875.44-.43,0-.79792-.1675-1.10375-.5025-.30583-.335-.45875-.785-.45875-1.35,0-.61167.15667-1.08875.47-1.43125.31417-.3425.70792-.51375,1.18125-.51375.40167,0,.73125.13208.98875.39625s.38625.61792.38625,1.06125h-2.4725Zm0-.2275h1.65625c-.0125-.22917-.03958-.39042-.08125-.48375-.065-.14583-.16208-.26042-.29125-.34375s-.26417-.125-.405-.125c-.21583,0-.40917.08417-.58.2525-.17.1675-.26958.40083-.29875.7Z" stroke-width="0"/>
            <path id="uuid-3ae4dd2e-9ddc-4857-b71d-d8010c0447c5" data-name="TimesNewRomanPSMT-72" d="m83.70832,140.4102v.805c.29917-.53667.60625-.805.92125-.805.14333,0,.26167.04375.355.13125.09417.08667.14125.1875.14125.3025,0,.10167-.03417.18792-.1025.25875-.0675.07-.14792.105-.24125.105-.09083,0-.19292-.045-.30625-.135s-.1975-.135-.2525-.135c-.04667,0-.0975.02583-.1525.0775-.11667.1075-.2375.28333-.3625.5275v1.715c0,.19833.02458.34833.07375.45.03417.07.09417.12833.18.175s.20958.07.37125.07v.14125h-1.8325v-.14125c.1825,0,.31792-.02833.40625-.085.065-.04167.11042-.10833.13625-.2.01333-.04417.02-.17042.02-.37875v-1.38625c0-.41667-.00875-.66458-.02625-.74375-.01667-.08-.04792-.13792-.09375-.17375-.045-.03667-.10125-.055-.16875-.055-.08083,0-.17208.01958-.27375.05875l-.03875-.14125,1.08125-.4375h.165Z" stroke-width="0"/>
            <path id="uuid-26cb1095-a1a7-407b-b610-ee39202ab2c6" data-name="TimesNewRomanPSMT-42" d="m90.76988,141.3902c.3675.07833.6425.20333.825.375.2525.24.37875.53333.37875.88,0,.2625-.08333.51417-.25.755-.16667.24083-.39542.41667-.68625.5275-.29.11083-.73333.16625-1.33.16625h-2.5v-.145h.2c.22083,0,.37958-.07.47625-.21.06-.09167.09-.28583.09-.5825v-3.4225c0-.3275-.03792-.53417-.11375-.62-.10167-.115-.2525-.1725-.4525-.1725h-.2v-.145h2.29c.42667,0,.76875.03125,1.02625.09375.39083.09417.68917.26042.895.49875s.30875.5125.30875.8225c0,.265-.08083.5025-.2425.7125s-.4.36542-.715.46625Zm-2.04625-.21c.09583.01833.20542.03208.32875.04125.12417.00833.26042.0125.40875.0125.38083,0,.66667-.04083.8575-.1225.19167-.08167.33833-.20708.44-.37625.10167-.17.1525-.355.1525-.555,0-.31-.12625-.57417-.37875-.7925-.2525-.21917-.62125-.32875-1.10625-.32875-.26,0-.49417.02875-.7025.08625v2.035Zm0,2.53125c.30167.07.59958.105.89375.105.47167,0,.83125-.10583,1.07875-.3175.2475-.2125.37125-.475.37125-.7875,0-.20583-.05625-.40375-.16875-.59375-.11167-.19-.29375-.33958-.54625-.44875-.2525-.11-.565-.165-.9375-.165-.16167,0-.3.00292-.415.00875-.11417.005-.20625.01375-.27625.02625v2.1725Z" stroke-width="0"/>
            <path id="uuid-9c4d65b0-5a12-4c98-b02b-017da7ce13d2" data-name="TimesNewRomanPSMT-6f" d="m94.41082,140.4102c.54167,0,.97667.20583,1.305.6175.27833.35167.4175.75542.4175,1.21125,0,.32-.07708.64417-.23125.9725-.15333.3275-.36458.575-.63375.7425-.26917.16667-.56917.25-.9.25-.53917,0-.9675-.215-1.285-.645-.26833-.3625-.4025-.76875-.4025-1.21875,0-.32833.08125-.65458.24375-.97875.1625-.32417.37667-.56375.6425-.71875.26583-.155.54708-.2325.84375-.2325Zm-.12125.25375c-.1375,0-.27625.04125-.41625.12375-.13917.08167-.25167.22542-.3375.43125s-.12875.47-.12875.7925c0,.52083.10333.97042.31,1.34875.2075.3775.48042.56625.81875.56625.2525,0,.46083-.10417.625-.3125.16417-.20833.24625-.56667.24625-1.075,0-.635-.13667-1.135-.41-1.5-.185-.25-.42083-.375-.7075-.375Z" stroke-width="0"/>
            <path id="uuid-72eb0e47-1c00-428c-9540-57b68f50d38f" data-name="TimesNewRomanPSMT-75" d="m99.79707,140.5152v2.16875c0,.41417.00958.6675.02875.76.02.0925.05125.15708.09375.19375.04333.03583.09375.05375.15125.05375.08083,0,.17208-.02208.27375-.06625l.055.13625-1.07125.4425h-.175v-.75875c-.3075.33333-.54208.54333-.70375.63-.16083.08583-.33125.12875-.51125.12875-.20083,0-.375-.05792-.5225-.17375-.14667-.11667-.24875-.26583-.30625-.4475-.05667-.1825-.085-.44042-.085-.77375v-1.5975c0-.16917-.01833-.28625-.055-.35125-.03667-.06583-.09083-.11625-.1625-.15125s-.20125-.05125-.38875-.04875v-.145h1.25375v2.395c0,.33333.05792.55208.17375.65625.11667.10417.25667.15625.42.15625.1125,0,.23958-.035.38125-.105.14167-.07083.31042-.205.50625-.4025v-2.0275c0-.20333-.03708-.34083-.11125-.4125-.07417-.07167-.22875-.11-.46375-.115v-.145h1.21875Z" stroke-width="0"/>
            <path id="uuid-ad3a318a-e541-4290-9cd0-c57807a10d74" data-name="TimesNewRomanPSMT-6e" d="m101.70332,141.1677c.42-.505.82-.7575,1.2-.7575.195,0,.36292.04875.50375.14625s.25292.25833.33625.4825c.05667.15667.085.39625.085.71875v1.5275c0,.22667.01833.38042.055.46125.02917.065.07542.11583.13875.1525.06417.03583.18208.05375.35375.05375v.14125h-1.77v-.14125h.075c.16667,0,.28292-.025.34875-.075.06667-.05083.11292-.12583.13875-.225.01083-.03917.01625-.16167.01625-.3675v-1.465c0-.325-.0425-.56125-.1275-.70875-.08417-.1475-.22667-.22125-.4275-.22125-.31,0-.61875.16958-.92625.50875v1.88625c0,.2425.01458.39208.04375.44875.03667.07583.08667.13125.15.16625.06417.035.19375.0525.38875.0525v.14125h-1.77v-.14125h.07875c.1825,0,.30542-.04583.36875-.1375.06417-.0925.09625-.26917.09625-.53v-1.3275c0-.43-.01-.69167-.03-.785-.01917-.09417-.04917-.15792-.09-.19125-.04-.03417-.09375-.05125-.16125-.05125-.07333,0-.16083.01958-.2625.05875l-.0575-.14125,1.0775-.4375h.1675v.7575Z" stroke-width="0"/>
            <path id="uuid-35653f1e-83d4-405d-8171-1e2baf29dd1e" data-name="TimesNewRomanPSMT-64" d="m107.18832,143.69145c-.17417.1825-.34458.31375-.51125.39375-.16667.07917-.34667.11875-.54.11875-.39,0-.73083-.16333-1.0225-.49-.29167-.3275-.4375-.74792-.4375-1.26125,0-.5125.16125-.98167.48375-1.4075.32333-.42583.73875-.63875,1.24625-.63875.315,0,.57542.10042.78125.30125v-.66125c0-.40833-.01-.65917-.03-.7525-.01917-.09417-.04958-.15792-.09125-.19125-.04167-.03417-.09375-.05125-.15625-.05125-.0675,0-.1575.02083-.27.0625l-.05-.1375,1.06625-.4375h.17625v4.1375c0,.41917.00958.675.02875.7675s.05042.15708.09375.19375c.04333.03583.09333.05375.15.05375.07083,0,.16458-.02208.28125-.06625l.04375.13625-1.0625.4425h-.18v-.5125Zm0-.27375v-1.84375c-.01583-.17667-.06292-.33792-.14125-.48375-.0775-.14583-.18083-.25583-.31-.33s-.255-.11125-.3775-.11125c-.22917,0-.43333.10292-.6125.30875-.2375.27083-.35625.66667-.35625,1.1875,0,.52583.11458.92875.34375,1.20875.22917.28.48458.42.76625.42.23667,0,.46583-.11875.6875-.35625Z" stroke-width="0"/>
          </g>
        </g>
        <g id="uuid-b378287e-cf57-4f58-ab19-7ef36306a928" data-name="line2d 22">
          <path d="m124.41098,129.9827h16" fill="none" stroke="rgba(128, 128, 128, .6)" stroke-dasharray="0 0 2.775 1.2" stroke-linejoin="round" stroke-width=".75"/>
        </g>
        <g id="uuid-8617eaeb-9ee3-45fe-9183-8a856fddfbd2" data-name="text 16">
          <g>
            <path id="uuid-c5e8b580-3dbc-49d1-b1cc-663084f39fcb" data-name="TimesNewRomanPSMT-54" d="m151.43972,127.4852l.05875,1.2425h-.14875c-.02833-.21833-.06708-.37458-.11625-.46875-.08083-.15083-.18833-.26208-.3225-.33375s-.31083-.1075-.53-.1075h-.74625v4.0475c0,.325.03542.52792.10625.60875.09917.10917.25125.16375.45625.16375h.18375v.145h-2.24625v-.145h.1875c.22417,0,.38333-.0675.4775-.2025.05667-.08333.085-.27333.085-.57v-4.0475h-.63625c-.2475,0-.42333.01833-.5275.055-.135.04917-.25083.14417-.3475.285-.09667.14083-.15375.33083-.17125.57h-.14875l.0625-1.2425h4.32375Z" stroke-width="0"/>
            <path id="uuid-d9708b8d-c021-4c59-8c91-c9170ca3f2bb" data-name="TimesNewRomanPSMT-61" d="m153.41519,132.26645c-.3675.28417-.59792.44833-.69125.4925-.14083.065-.29083.0975-.45.0975-.24667,0-.45042-.08458-.61125-.25375-.16-.16917-.24-.39167-.24-.6675,0-.175.03917-.32625.1175-.45375.10667-.17667.29208-.34292.55625-.49875.26417-.15667.70375-.34708,1.31875-.57125v-.14c0-.3575-.05667-.6025-.17-.735s-.27792-.19875-.49375-.19875c-.16417,0-.29458.04417-.39125.1325-.09917.08833-.14875.19-.14875.305l.00875.22625c0,.12-.03083.2125-.0925.2775-.06083.065-.14083.0975-.24.0975-.09667,0-.17542-.03375-.23625-.10125-.06083-.06833-.09125-.16083-.09125-.2775,0-.22417.11458-.43.34375-.6175.22917-.1875.55042-.28125.96375-.28125.31833,0,.57875.05333.78125.16.15417.08083.2675.20708.34.37875.0475.1125.07125.34167.07125.6875v1.215c0,.34167.00625.55083.01875.6275.01333.07667.035.12792.065.15375s.06458.03875.10375.03875c.04167,0,.07792-.00875.10875-.02625.055-.03417.16042-.12958.31625-.28625v.21875c-.29167.39083-.57042.58625-.83625.58625-.1275,0-.22917-.04417-.305-.1325-.075-.08833-.11375-.23958-.11625-.45375Zm0-.25375v-1.3625c-.39333.15583-.64708.26625-.76125.33125-.20583.115-.35333.235-.4425.36-.08833.125-.1325.26167-.1325.41,0,.1875.05583.34333.1675.4675.1125.12333.24167.185.3875.185.1975,0,.45792-.13042.78125-.39125Z" stroke-width="0"/>
            <path id="uuid-0b22dd1b-2bec-4cfc-81ed-888d5ba32342" data-name="TimesNewRomanPSMT-72" d="m155.98597,129.09895v.805c.29917-.53667.60625-.805.92125-.805.14333,0,.26167.04375.355.13125.09417.08667.14125.1875.14125.3025,0,.10167-.03417.18792-.1025.25875-.0675.07-.14792.105-.24125.105-.09083,0-.19292-.045-.30625-.135s-.1975-.135-.2525-.135c-.04667,0-.0975.02583-.1525.0775-.11667.1075-.2375.28333-.3625.5275v1.715c0,.19833.02458.34833.07375.45.03417.07.09417.12833.18.175s.20958.07.37125.07v.14125h-1.8325v-.14125c.1825,0,.31792-.02833.40625-.085.065-.04167.11042-.10833.13625-.2.01333-.04417.02-.17042.02-.37875v-1.38625c0-.41667-.00875-.66458-.02625-.74375-.01667-.08-.04792-.13792-.09375-.17375-.045-.03667-.10125-.055-.16875-.055-.08083,0-.17208.01958-.27375.05875l-.03875-.14125,1.08125-.4375h.165Z" stroke-width="0"/>
            <path id="uuid-128687e7-9559-4fb8-90b9-a7b894371ab7" data-name="TimesNewRomanPSMT-67" d="m158.42004,131.4777c-.21917-.10667-.3875-.25542-.505-.44625-.11667-.19167-.175-.40333-.175-.635,0-.35417.13333-.65875.4-.91375.2675-.25583.60958-.38375,1.02625-.38375.34083,0,.63625.08333.88625.25h.7575c.1125,0,.1775.00333.195.01.01833.00667.03167.0175.04.0325.015.02417.0225.06583.0225.125,0,.06833-.00625.11542-.01875.14125-.00833.01333-.02208.02375-.04125.03125s-.085.01125-.1975.01125h-.465c.14583.1875.21875.42708.21875.71875,0,.33333-.1275.61875-.3825.85625-.255.23667-.5975.355-1.0275.355-.17667,0-.3575-.02583-.5425-.0775-.115.09833-.19292.18458-.23375.25875-.04.07417-.06.1375-.06.19,0,.04417.02167.08708.065.12875.04333.04167.1275.07167.2525.09.0725.01.25458.01917.54625.0275.53667.0125.88417.03083,1.0425.055.2425.03333.43583.12292.58.26875.145.14583.2175.32583.2175.54,0,.29417-.13792.57-.41375.8275-.40667.38-.93667.57-1.59.57-.5025,0-.92708-.11333-1.27375-.34-.195-.13-.2925-.26542-.2925-.40625,0-.0625.01417-.125.0425-.1875.04417-.09583.13542-.22958.27375-.40125.01833-.02417.15125-.165.39875-.4225-.13583-.08083-.23167-.15292-.2875-.21625-.05583-.06417-.08375-.13667-.08375-.2175,0-.09083.03708-.1975.11125-.32.07417-.1225.24542-.29583.51375-.52Zm.67875-2.19125c-.1925,0-.35375.07708-.48375.23125-.13.15333-.195.38875-.195.70625,0,.41167.08833.73083.265.9575.13583.17167.30792.2575.51625.2575.1975,0,.36-.07417.4875-.2225s.19125-.38167.19125-.7c0-.41333-.08958-.7375-.26875-.9725-.13333-.17167-.30417-.2575-.5125-.2575Zm-.71875,3.49625c-.12167.1325-.21375.25583-.27625.37-.0625.115-.09375.22083-.09375.3175,0,.125.07542.23458.22625.32875.26.16083.63625.24125,1.12875.24125.46833,0,.81375-.08292,1.03625-.24875.22333-.165.335-.34125.335-.52875,0-.135-.06667-.23125-.2-.28875-.135-.0575-.40292-.09125-.80375-.10125-.58583-.01583-1.03667-.04583-1.3525-.09Z" stroke-width="0"/>
            <path id="uuid-db032dd4-420b-4023-900c-6bc9ed338e49" data-name="TimesNewRomanPSMT-65" d="m162.06379,130.5527c-.0025.53083.12667.9475.3875,1.25.26.30167.56583.4525.9175.4525.23417,0,.43792-.06417.61125-.1925.17333-.12917.31875-.35.43625-.6625l.12.0775c-.05417.35667-.21292.68167-.47625.975-.2625.29333-.59167.44-.9875.44-.43,0-.79792-.1675-1.10375-.5025-.30583-.335-.45875-.785-.45875-1.35,0-.61167.15667-1.08875.47-1.43125.31417-.3425.70792-.51375,1.18125-.51375.40167,0,.73125.13208.98875.39625s.38625.61792.38625,1.06125h-2.4725Zm0-.2275h1.65625c-.0125-.22917-.03958-.39042-.08125-.48375-.065-.14583-.16208-.26042-.29125-.34375s-.26417-.125-.405-.125c-.21583,0-.40917.08417-.58.2525-.17.1675-.26958.40083-.29875.7Z" stroke-width="0"/>
            <path id="uuid-c32010de-5227-4d6e-9f02-ce43100364a8" data-name="TimesNewRomanPSMT-74" d="m166.05207,128.02895v1.175h.83625v.27375h-.83625v2.32c0,.2325.03333.38917.1.47.06667.08.15208.12.25625.12.08583,0,.16917-.02667.25-.08s.14333-.13208.1875-.23625h.1525c-.09167.255-.22083.44708-.3875.57625-.16667.12917-.33833.19375-.515.19375-.12,0-.2375-.03333-.3525-.1-.11417-.06667-.19875-.16167-.25375-.285-.05417-.12333-.08125-.31417-.08125-.5725v-2.40625h-.56625v-.12875c.1425-.0575.28875-.15458.43875-.29125s.28333-.29875.4-.48625c.06-.09917.14333-.28.25-.5425h.12125Z" stroke-width="0"/>
          </g>
        </g>
        <g id="uuid-4321e8b6-9957-454e-8909-d9e17e64132e" data-name="line2d 23">
          <path d="m124.41098,141.30894h16" fill="none" stroke="#f14040" stroke-dasharray="0 0 2.775 1.2" stroke-linejoin="round" stroke-width=".75"/>
        </g>
        <g id="uuid-593c7aa0-7a35-4160-a92b-0db9d909380b" data-name="text 17">
          <g>
            <path id="uuid-2fd14ec7-d644-4cfc-aa28-b381155ad0c0" data-name="TimesNewRomanPSMT-55" d="m150.62722,138.95645v-.145h1.875v.145h-.19875c-.20833,0-.36875.08708-.48125.26125-.05417.08083-.08125.26833-.08125.5625v2.14875c0,.53167-.05292.94417-.15875,1.2375-.105.2925-.31208.54375-.62125.75375-.30833.20917-.72792.31375-1.25875.31375-.57833,0-1.0175-.1-1.3175-.3-.29917-.20083-.51125-.47083-.63625-.81-.08333-.23167-.125-.66625-.125-1.30375v-2.07125c0-.325-.045-.53833-.135-.64s-.235-.1525-.435-.1525h-.2v-.145h2.29v.145h-.20375c-.21833,0-.37458.06917-.46875.2075-.065.09333-.0975.28833-.0975.585v2.30875c0,.20583.01875.44167.05625.7075.03833.26583.10667.47292.205.62125.09917.14833.24167.27083.4275.3675.18667.09583.41542.14375.68625.14375.34667,0,.65667-.07542.93-.22625.27333-.15083.46-.34417.56-.58.10083-.23583.15125-.635.15125-1.1975v-2.145c0-.33-.03667-.53667-.11-.62-.10167-.115-.2525-.1725-.4525-.1725h-.2Z" stroke-width="0"/>
            <path id="uuid-7b769a1b-60d7-428b-bcaf-f6a2e9428aab" data-name="TimesNewRomanPSMT-70" d="m152.58082,140.88645l1.10125-.445h.14875v.835c.185-.315.37042-.53542.55625-.66125.18667-.12667.3825-.19.5875-.19.36,0,.65958.14083.89875.4225.29417.34333.44125.79125.44125,1.34375,0,.61667-.17708,1.12708-.53125,1.53125-.29167.33083-.65875.49625-1.10125.49625-.1925,0-.35917-.0275-.5-.0825-.10417-.03917-.22125-.1175-.35125-.235v1.09c0,.245.015.40042.045.46625.03.06667.08208.11958.15625.15875s.20875.05875.40375.05875v.145h-1.875v-.145h.0975c.14333.0025.26583-.02458.3675-.08125.04917-.02917.0875-.07583.115-.14.0275-.06333.04125-.225.04125-.485v-3.38375c0-.23167-.01042-.37875-.03125-.44125s-.05417-.10917-.1-.14c-.045-.03167-.10667-.0475-.185-.0475-.0625,0-.14208.01833-.23875.055l-.04625-.125Zm1.25.62125v1.335c0,.28917.01167.47958.035.57125.03667.15083.12583.28375.2675.39875.14167.11417.32083.17125.5375.17125.26,0,.47083-.10167.6325-.305.21083-.26583.31625-.63958.31625-1.12125,0-.54667-.11958-.96708-.35875-1.26125-.16667-.20333-.36458-.305-.59375-.305-.125,0-.24875.03125-.37125.09375-.09417.04667-.24917.1875-.465.4225Z" stroke-width="0"/>
            <path id="uuid-c613fff5-31e5-4531-bc12-d576dd536974" data-name="TimesNewRomanPSMT-70" d="m156.58082,140.88645l1.10125-.445h.14875v.835c.185-.315.37042-.53542.55625-.66125.18667-.12667.3825-.19.5875-.19.36,0,.65958.14083.89875.4225.29417.34333.44125.79125.44125,1.34375,0,.61667-.17708,1.12708-.53125,1.53125-.29167.33083-.65875.49625-1.10125.49625-.1925,0-.35917-.0275-.5-.0825-.10417-.03917-.22125-.1175-.35125-.235v1.09c0,.245.015.40042.045.46625.03.06667.08208.11958.15625.15875s.20875.05875.40375.05875v.145h-1.875v-.145h.0975c.14333.0025.26583-.02458.3675-.08125.04917-.02917.0875-.07583.115-.14.0275-.06333.04125-.225.04125-.485v-3.38375c0-.23167-.01042-.37875-.03125-.44125s-.05417-.10917-.1-.14c-.045-.03167-.10667-.0475-.185-.0475-.0625,0-.14208.01833-.23875.055l-.04625-.125Zm1.25.62125v1.335c0,.28917.01167.47958.035.57125.03667.15083.12583.28375.2675.39875.14167.11417.32083.17125.5375.17125.26,0,.47083-.10167.6325-.305.21083-.26583.31625-.63958.31625-1.12125,0-.54667-.11958-.96708-.35875-1.26125-.16667-.20333-.36458-.305-.59375-.305-.125,0-.24875.03125-.37125.09375-.09417.04667-.24917.1875-.465.4225Z" stroke-width="0"/>
            <path id="uuid-c508ac7a-6a59-4ff6-a72f-5f562403ba4f" data-name="TimesNewRomanPSMT-65" d="m161.43957,141.87895c-.0025.53083.12667.9475.3875,1.25.26.30167.56583.4525.9175.4525.23417,0,.43792-.06417.61125-.1925.17333-.12917.31875-.35.43625-.6625l.12.0775c-.05417.35667-.21292.68167-.47625.975-.2625.29333-.59167.44-.9875.44-.43,0-.79792-.1675-1.10375-.5025-.30583-.335-.45875-.785-.45875-1.35,0-.61167.15667-1.08875.47-1.43125.31417-.3425.70792-.51375,1.18125-.51375.40167,0,.73125.13208.98875.39625s.38625.61792.38625,1.06125h-2.4725Zm0-.2275h1.65625c-.0125-.22917-.03958-.39042-.08125-.48375-.065-.14583-.16208-.26042-.29125-.34375s-.26417-.125-.405-.125c-.21583,0-.40917.08417-.58.2525-.17.1675-.26958.40083-.29875.7Z" stroke-width="0"/>
            <path id="uuid-4df35582-44b1-4fe6-af45-efb5526d3ea9" data-name="TimesNewRomanPSMT-72" d="m165.4366,140.4252v.805c.29917-.53667.60625-.805.92125-.805.14333,0,.26167.04375.355.13125.09417.08667.14125.1875.14125.3025,0,.10167-.03417.18792-.1025.25875-.0675.07-.14792.105-.24125.105-.09083,0-.19292-.045-.30625-.135s-.1975-.135-.2525-.135c-.04667,0-.0975.02583-.1525.0775-.11667.1075-.2375.28333-.3625.5275v1.715c0,.19833.02458.34833.07375.45.03417.07.09417.12833.18.175s.20958.07.37125.07v.14125h-1.8325v-.14125c.1825,0,.31792-.02833.40625-.085.065-.04167.11042-.10833.13625-.2.01333-.04417.02-.17042.02-.37875v-1.38625c0-.41667-.00875-.66458-.02625-.74375-.01667-.08-.04792-.13792-.09375-.17375-.045-.03667-.10125-.055-.16875-.055-.08083,0-.17208.01958-.27375.05875l-.03875-.14125,1.08125-.4375h.165Z" stroke-width="0"/>
            <path id="uuid-1459d98c-8696-417e-adcd-ef82cae1b386" data-name="TimesNewRomanPSMT-42" d="m172.49816,141.4052c.3675.07833.6425.20333.825.375.2525.24.37875.53333.37875.88,0,.2625-.08333.51417-.25.755-.16667.24083-.39542.41667-.68625.5275-.29.11083-.73333.16625-1.33.16625h-2.5v-.145h.2c.22083,0,.37958-.07.47625-.21.06-.09167.09-.28583.09-.5825v-3.4225c0-.3275-.03792-.53417-.11375-.62-.10167-.115-.2525-.1725-.4525-.1725h-.2v-.145h2.29c.42667,0,.76875.03125,1.02625.09375.39083.09417.68917.26042.895.49875s.30875.5125.30875.8225c0,.265-.08083.5025-.2425.7125s-.4.36542-.715.46625Zm-2.04625-.21c.09583.01833.20542.03208.32875.04125.12417.00833.26042.0125.40875.0125.38083,0,.66667-.04083.8575-.1225.19167-.08167.33833-.20708.44-.37625.10167-.17.1525-.355.1525-.555,0-.31-.12625-.57417-.37875-.7925-.2525-.21917-.62125-.32875-1.10625-.32875-.26,0-.49417.02875-.7025.08625v2.035Zm0,2.53125c.30167.07.59958.105.89375.105.47167,0,.83125-.10583,1.07875-.3175.2475-.2125.37125-.475.37125-.7875,0-.20583-.05625-.40375-.16875-.59375-.11167-.19-.29375-.33958-.54625-.44875-.2525-.11-.565-.165-.9375-.165-.16167,0-.3.00292-.415.00875-.11417.005-.20625.01375-.27625.02625v2.1725Z" stroke-width="0"/>
            <path id="uuid-9eed6a75-cd7f-4384-bf76-740b988c65fa" data-name="TimesNewRomanPSMT-6f" d="m176.1391,140.4252c.54167,0,.97667.20583,1.305.6175.27833.35167.4175.75542.4175,1.21125,0,.32-.07708.64417-.23125.9725-.15333.3275-.36458.575-.63375.7425-.26917.16667-.56917.25-.9.25-.53917,0-.9675-.215-1.285-.645-.26833-.3625-.4025-.76875-.4025-1.21875,0-.32833.08125-.65458.24375-.97875.1625-.32417.37667-.56375.6425-.71875.26583-.155.54708-.2325.84375-.2325Zm-.12125.25375c-.1375,0-.27625.04125-.41625.12375-.13917.08167-.25167.22542-.3375.43125s-.12875.47-.12875.7925c0,.52083.10333.97042.31,1.34875.2075.3775.48042.56625.81875.56625.2525,0,.46083-.10417.625-.3125.16417-.20833.24625-.56667.24625-1.075,0-.635-.13667-1.135-.41-1.5-.185-.25-.42083-.375-.7075-.375Z" stroke-width="0"/>
            <path id="uuid-8341bb72-c892-4b5f-9320-73b0136b8069" data-name="TimesNewRomanPSMT-75" d="m181.52535,140.5302v2.16875c0,.41417.00958.6675.02875.76.02.0925.05125.15708.09375.19375.04333.03583.09375.05375.15125.05375.08083,0,.17208-.02208.27375-.06625l.055.13625-1.07125.4425h-.175v-.75875c-.3075.33333-.54208.54333-.70375.63-.16083.08583-.33125.12875-.51125.12875-.20083,0-.375-.05792-.5225-.17375-.14667-.11667-.24875-.26583-.30625-.4475-.05667-.1825-.085-.44042-.085-.77375v-1.5975c0-.16917-.01833-.28625-.055-.35125-.03667-.06583-.09083-.11625-.1625-.15125s-.20125-.05125-.38875-.04875v-.145h1.25375v2.395c0,.33333.05792.55208.17375.65625.11667.10417.25667.15625.42.15625.1125,0,.23958-.035.38125-.105.14167-.07083.31042-.205.50625-.4025v-2.0275c0-.20333-.03708-.34083-.11125-.4125-.07417-.07167-.22875-.11-.46375-.115v-.145h1.21875Z" stroke-width="0"/>
            <path id="uuid-8d5e3b1b-528f-4113-929e-8d9c36afe780" data-name="TimesNewRomanPSMT-6e" d="m183.4316,141.1827c.42-.505.82-.7575,1.2-.7575.195,0,.36292.04875.50375.14625s.25292.25833.33625.4825c.05667.15667.085.39625.085.71875v1.5275c0,.22667.01833.38042.055.46125.02917.065.07542.11583.13875.1525.06417.03583.18208.05375.35375.05375v.14125h-1.77v-.14125h.075c.16667,0,.28292-.025.34875-.075.06667-.05083.11292-.12583.13875-.225.01083-.03917.01625-.16167.01625-.3675v-1.465c0-.325-.0425-.56125-.1275-.70875-.08417-.1475-.22667-.22125-.4275-.22125-.31,0-.61875.16958-.92625.50875v1.88625c0,.2425.01458.39208.04375.44875.03667.07583.08667.13125.15.16625.06417.035.19375.0525.38875.0525v.14125h-1.77v-.14125h.07875c.1825,0,.30542-.04583.36875-.1375.06417-.0925.09625-.26917.09625-.53v-1.3275c0-.43-.01-.69167-.03-.785-.01917-.09417-.04917-.15792-.09-.19125-.04-.03417-.09375-.05125-.16125-.05125-.07333,0-.16083.01958-.2625.05875l-.0575-.14125,1.0775-.4375h.1675v.7575Z" stroke-width="0"/>
            <path id="uuid-31d7485e-f9bd-47f4-b090-b93bca5ad1dd" data-name="TimesNewRomanPSMT-64" d="m188.9166,143.70645c-.17417.1825-.34458.31375-.51125.39375-.16667.07917-.34667.11875-.54.11875-.39,0-.73083-.16333-1.0225-.49-.29167-.3275-.4375-.74792-.4375-1.26125,0-.5125.16125-.98167.48375-1.4075.32333-.42583.73875-.63875,1.24625-.63875.315,0,.57542.10042.78125.30125v-.66125c0-.40833-.01-.65917-.03-.7525-.01917-.09417-.04958-.15792-.09125-.19125-.04167-.03417-.09375-.05125-.15625-.05125-.0675,0-.1575.02083-.27.0625l-.05-.1375,1.06625-.4375h.17625v4.1375c0,.41917.00958.675.02875.7675s.05042.15708.09375.19375c.04333.03583.09333.05375.15.05375.07083,0,.16458-.02208.28125-.06625l.04375.13625-1.0625.4425h-.18v-.5125Zm0-.27375v-1.84375c-.01583-.17667-.06292-.33792-.14125-.48375-.0775-.14583-.18083-.25583-.31-.33s-.255-.11125-.3775-.11125c-.22917,0-.43333.10292-.6125.30875-.2375.27083-.35625.66667-.35625,1.1875,0,.52583.11458.92875.34375,1.20875.22917.28.48458.42.76625.42.23667,0,.46583-.11875.6875-.35625Z" stroke-width="0"/>
          </g>
        </g>
      </g>
    </g>
  </g>
</svg>