<?xml version="1.0" encoding="UTF-8"?>
<svg id="uuid-ff3678ce-b1cc-4bb2-9c54-42df5f69cf3d" data-name="图层 1" xmlns="http://www.w3.org/2000/svg" xmlns:xlink="http://www.w3.org/1999/xlink" viewBox="0 0 270.72 167.5211">
  <defs>
    <style>
      .uuid-5937783b-760b-4440-9762-cdf19c3ebaec {
        stroke: #8e7ef0;
      }

      .uuid-5937783b-760b-4440-9762-cdf19c3ebaec, .uuid-8b20ffc2-cff1-4ed0-b0ec-90171a51641d, .uuid-855a9f9a-4083-4fb5-9679-8c32b349b397 {
        stroke-miterlimit: 10;
        stroke-width: .75072px;
      }

      .uuid-5937783b-760b-4440-9762-cdf19c3ebaec, .uuid-8b20ffc2-cff1-4ed0-b0ec-90171a51641d, .uuid-855a9f9a-4083-4fb5-9679-8c32b349b397, .uuid-08fc0a34-d845-4752-a2bb-3af8be5a6821 {
        fill: none;
      }

      .uuid-71be2cba-c7e3-4e4c-8ac8-2c774e1cc8f0 {
        fill: #5ba3eb;
      }

      .uuid-71be2cba-c7e3-4e4c-8ac8-2c774e1cc8f0, .uuid-fe7efc29-ed6e-4d7e-81b4-25ee5e08462d, .uuid-1c5a6365-5b25-4c7a-87e5-3a23a9a9ae93, .uuid-9c896591-75eb-4735-873d-28b09680bf7a, .uuid-ea5c4227-e978-42a7-958a-b1bcce27f365, .uuid-1ba4ca93-e986-4e89-a2c3-1f18abc66fdf, .uuid-08fc0a34-d845-4752-a2bb-3af8be5a6821, .uuid-3fe9a73f-8e17-47d7-b228-9cac3f79549d, .uuid-6dd67c4c-4fff-42a8-bac8-4618059378b4, .uuid-c184c11c-16ac-4cd5-a189-9767f9920ec7, .uuid-9081f64e-c674-4118-9680-ddfde4907f11, .uuid-53a0576d-9336-4860-9469-a1acbd994914 {
        stroke-width: 0px;
      }

      .uuid-71be2cba-c7e3-4e4c-8ac8-2c774e1cc8f0, .uuid-fe7efc29-ed6e-4d7e-81b4-25ee5e08462d, .uuid-1c5a6365-5b25-4c7a-87e5-3a23a9a9ae93, .uuid-9c896591-75eb-4735-873d-28b09680bf7a, .uuid-1ba4ca93-e986-4e89-a2c3-1f18abc66fdf, .uuid-3fe9a73f-8e17-47d7-b228-9cac3f79549d, .uuid-6dd67c4c-4fff-42a8-bac8-4618059378b4, .uuid-c184c11c-16ac-4cd5-a189-9767f9920ec7, .uuid-9081f64e-c674-4118-9680-ddfde4907f11, .uuid-53a0576d-9336-4860-9469-a1acbd994914 {
        fill-rule: evenodd;
      }

      .uuid-ed82affc-1089-4121-b2bd-ba09e80b4e4a {
        clip-path: url(#uuid-8d2b9d1b-da6e-4027-9be9-4842e83de0c1);
      }

      .uuid-fe7efc29-ed6e-4d7e-81b4-25ee5e08462d {
        fill: url(#uuid-c10bcf23-4dcc-4206-9695-00c40bb6dedf);
      }

      .uuid-8b20ffc2-cff1-4ed0-b0ec-90171a51641d {
        stroke: #f84d4d;
      }

      .uuid-1c5a6365-5b25-4c7a-87e5-3a23a9a9ae93 {
        fill: url(#uuid-b5e6466b-30de-43ae-b49d-5f2aa3a97f0c);
      }

      .uuid-9c896591-75eb-4735-873d-28b09680bf7a {
        fill: url(#uuid-d9c36d9c-be97-4b6c-ba5e-18b5ebc396f6);
      }

      .uuid-2e112e9c-42c7-442f-ae0c-87a5fcee872a {
        clip-path: url(#uuid-03cc3110-c33a-4b85-bc6f-5cccfd331c76);
      }

      .uuid-2638eb7a-5c4f-4fb0-a8a4-fd5bb0df2a76 {
        clip-path: url(#uuid-a8d331de-1992-467a-bcd2-29319e104ca5);
      }

      .uuid-fc09e598-d4da-4de6-a216-a21b4700be7a {
        clip-path: url(#uuid-fbc3f844-a773-4b7d-aad6-772f003d47c5);
      }

      .uuid-855a9f9a-4083-4fb5-9679-8c32b349b397 {
        stroke: #778495;
        stroke-dasharray: 0 0 2.25216 .75072;
      }

      .uuid-1ba4ca93-e986-4e89-a2c3-1f18abc66fdf {
        fill: #06bb9a;
      }

      .uuid-60fed8b7-ca3c-43dc-96d1-d459d7195b02 {
        clip-path: url(#uuid-bdd19d5e-33d8-4104-9635-f872a9e9292a);
      }

      .uuid-6aa12e6b-72a3-44ad-9af3-df586d788955 {
        clip-path: url(#uuid-65418094-7adc-4b80-9a3a-4a2f8ac45deb);
      }

      .uuid-df30588f-114b-450c-a922-3c57e97d579e {
        clip-path: url(#uuid-0ecfe47c-d5d4-4c55-9360-0145604ef71d);
      }

      .uuid-dbc76d2f-e874-444f-8d29-021624194dae {
        clip-path: url(#uuid-c8bf544b-fe5f-431e-8d3c-a92701dcb35b);
      }

      .uuid-38a756b5-2199-4964-8858-f88d19e3985f {
        clip-path: url(#uuid-1e800365-ec70-4f90-9154-b2d134b93a3b);
      }

      .uuid-7568aeef-4631-4b40-bacc-e139d2851c21 {
        clip-path: url(#uuid-2a6559ad-6c44-4ac7-b2a3-ff80b12facb8);
      }

      .uuid-3fe9a73f-8e17-47d7-b228-9cac3f79549d {
        fill: url(#uuid-c768f9a1-d097-40a9-a91b-aaf95eada43c);
      }

      .uuid-ab96058c-c0ee-4704-a86b-c35e452cea8f {
        clip-path: url(#uuid-2986197c-d0f4-4a98-9c9f-9f77a618d05b);
      }

      .uuid-e2eff1c2-fade-4489-b1f4-dea2a990a1bb {
        clip-path: url(#uuid-4e36639b-911f-4663-a236-656ae34736b4);
      }

      .uuid-6dd67c4c-4fff-42a8-bac8-4618059378b4 {
        fill: url(#uuid-d832aed5-edb7-479d-890c-373c10ce9174);
      }

      .uuid-94eb16e8-823d-4f06-b292-9aff1ccbef7e {
        clip-path: url(#uuid-fff45fd2-1d93-4327-b461-187ef3b7afa5);
      }

      .uuid-c184c11c-16ac-4cd5-a189-9767f9920ec7 {
        fill: url(#uuid-d6100975-4e94-4aaf-9de8-70bd3b68bf44);
      }

      .uuid-9081f64e-c674-4118-9680-ddfde4907f11 {
        fill: url(#uuid-a28bbe27-2640-448c-86fd-fcd404328b38);
      }

      .uuid-53a0576d-9336-4860-9469-a1acbd994914 {
        fill: url(#uuid-c85be392-3769-446c-839c-19f28ca13dd0);
      }

      .uuid-4426876b-90c7-47ec-b7f2-a8ae439781c4 {
        clip-path: url(#uuid-e2a69d31-93ac-4e64-8672-4b33470044cc);
      }
    </style>
    <linearGradient id="uuid-c768f9a1-d097-40a9-a91b-aaf95eada43c" data-name="未命名的渐变" x1="29.725" y1="131.84107" x2="29.725" y2="166.64121" gradientTransform="translate(.72002 -669.96505) scale(5.00674)" gradientUnits="userSpaceOnUse">
      <stop offset="0" stop-color="#e4e6ea"/>
      <stop offset=".15" stop-color="#abd3ef"/>
      <stop offset=".28" stop-color="#74c3f4"/>
      <stop offset=".41" stop-color="#3eacf0"/>
      <stop offset=".5" stop-color="#1299ec"/>
      <stop offset=".59" stop-color="#3eacf0"/>
      <stop offset=".72" stop-color="#74c3f4"/>
      <stop offset=".85" stop-color="#abd3ef"/>
      <stop offset="1" stop-color="#e4e6ea"/>
    </linearGradient>
    <linearGradient id="uuid-c10bcf23-4dcc-4206-9695-00c40bb6dedf" data-name="未命名的渐变 2" x1="49.76499" y1="156.56123" x2="49.76499" y2="166.4012" gradientTransform="translate(.72002 -669.96505) scale(5.00674)" gradientUnits="userSpaceOnUse">
      <stop offset="0" stop-color="#e4e6ea"/>
      <stop offset=".15" stop-color="#abd3ef"/>
      <stop offset=".28" stop-color="#74c3f4"/>
      <stop offset=".41" stop-color="#3eacf0"/>
      <stop offset=".5" stop-color="#1299ec"/>
      <stop offset=".59" stop-color="#3eacf0"/>
      <stop offset=".72" stop-color="#74c3f4"/>
      <stop offset=".85" stop-color="#abd3ef"/>
      <stop offset="1" stop-color="#e4e6ea"/>
    </linearGradient>
    <linearGradient id="uuid-b5e6466b-30de-43ae-b49d-5f2aa3a97f0c" data-name="未命名的渐变 6" x1="53.005" y1="154.76119" x2="40.28499" y2="154.76119" gradientTransform="translate(.72002 -669.96505) scale(5.00674)" gradientUnits="userSpaceOnUse">
      <stop offset="0" stop-color="#4f4f4f"/>
      <stop offset=".025" stop-color="#7d7d7d"/>
      <stop offset=".095" stop-color="#9b9b9b"/>
      <stop offset=".2" stop-color="#b6b6b6"/>
      <stop offset=".335" stop-color="#d1d3d5"/>
      <stop offset=".5" stop-color="#e0e3e7"/>
      <stop offset=".665" stop-color="#d1d3d5"/>
      <stop offset=".8" stop-color="#b6b6b6"/>
      <stop offset=".905" stop-color="#9b9b9b"/>
      <stop offset=".975" stop-color="#7d7d7d"/>
      <stop offset="1" stop-color="#4f4f4f"/>
    </linearGradient>
    <linearGradient id="uuid-d6100975-4e94-4aaf-9de8-70bd3b68bf44" data-name="未命名的渐变 8" x1="39.40141" y1="168.67782" x2="48.10542" y2="152.47192" gradientTransform="translate(.72002 -669.96505) scale(5.00674)" gradientUnits="userSpaceOnUse">
      <stop offset="0" stop-color="#125191"/>
      <stop offset=".07333" stop-color="#1b7ada"/>
      <stop offset=".14333" stop-color="#5ba3eb"/>
      <stop offset=".20667" stop-color="#9dc8f3"/>
      <stop offset=".27333" stop-color="#bddaf7"/>
      <stop offset=".33333" stop-color="#deedfb"/>
      <stop offset=".39333" stop-color="#bddaf7"/>
      <stop offset=".46" stop-color="#9dc8f3"/>
      <stop offset=".52333" stop-color="#5ba3eb"/>
      <stop offset=".59333" stop-color="#1b7ada"/>
      <stop offset=".66667" stop-color="#125191"/>
      <stop offset=".74" stop-color="#1b7ada"/>
      <stop offset=".81" stop-color="#5ba3eb"/>
      <stop offset=".87333" stop-color="#9dc8f3"/>
      <stop offset=".94" stop-color="#bddaf7"/>
      <stop offset="1" stop-color="#deedfb"/>
    </linearGradient>
    <linearGradient id="uuid-c85be392-3769-446c-839c-19f28ca13dd0" data-name="未命名的渐变 3" x1="8.905" y1="124.16114" x2="8.905" y2="151.52114" gradientTransform="translate(.72002 -669.96505) scale(5.00674)" gradientUnits="userSpaceOnUse">
      <stop offset="0" stop-color="#e4e6ea"/>
      <stop offset=".15" stop-color="#abd3ef"/>
      <stop offset=".28" stop-color="#74c3f4"/>
      <stop offset=".41" stop-color="#3eacf0"/>
      <stop offset=".5" stop-color="#1299ec"/>
      <stop offset=".59" stop-color="#3eacf0"/>
      <stop offset=".72" stop-color="#74c3f4"/>
      <stop offset=".85" stop-color="#abd3ef"/>
      <stop offset="1" stop-color="#e4e6ea"/>
    </linearGradient>
    <linearGradient id="uuid-d9c36d9c-be97-4b6c-ba5e-18b5ebc396f6" data-name="未命名的渐变 4" x1="26.12499" y1="145.70114" x2="13.405" y2="145.70114" gradientTransform="translate(.72002 -669.96505) scale(5.00674)" gradientUnits="userSpaceOnUse">
      <stop offset="0" stop-color="#4f4f4f"/>
      <stop offset=".025" stop-color="#7d7d7d"/>
      <stop offset=".095" stop-color="#9b9b9b"/>
      <stop offset=".2" stop-color="#b6b6b6"/>
      <stop offset=".335" stop-color="#d1d3d5"/>
      <stop offset=".5" stop-color="#e0e3e7"/>
      <stop offset=".665" stop-color="#d1d3d5"/>
      <stop offset=".8" stop-color="#b6b6b6"/>
      <stop offset=".905" stop-color="#9b9b9b"/>
      <stop offset=".975" stop-color="#7d7d7d"/>
      <stop offset="1" stop-color="#4f4f4f"/>
    </linearGradient>
    <clipPath id="uuid-fff45fd2-1d93-4327-b461-187ef3b7afa5">
      <rect class="uuid-08fc0a34-d845-4752-a2bb-3af8be5a6821" x="1.1458" y=".42554" width="268.56144" height="166.89575"/>
    </clipPath>
    <linearGradient id="uuid-a28bbe27-2640-448c-86fd-fcd404328b38" data-name="未命名的渐变 5" x1="-17.97738" y1="222.8479" x2="41.86562" y2="126.62591" gradientTransform="translate(.72002 -669.96505) scale(5.00674)" gradientUnits="userSpaceOnUse">
      <stop offset="0" stop-color="#f4bc20"/>
      <stop offset=".1" stop-color="#f5c53d"/>
      <stop offset=".425" stop-color="#fde5c7"/>
      <stop offset=".5" stop-color="#fff2eb"/>
      <stop offset=".575" stop-color="#fde5c7"/>
      <stop offset=".9" stop-color="#f5c53d"/>
      <stop offset="1" stop-color="#f4bc20"/>
    </linearGradient>
    <linearGradient id="uuid-d832aed5-edb7-479d-890c-373c10ce9174" data-name="未命名的渐变 7" x1="12.52137" y1="158.9578" x2="21.22537" y2="142.7519" gradientTransform="translate(.72002 -669.96505) scale(5.00674)" gradientUnits="userSpaceOnUse">
      <stop offset="0" stop-color="#125191"/>
      <stop offset=".07333" stop-color="#1b7ada"/>
      <stop offset=".14333" stop-color="#5ba3eb"/>
      <stop offset=".20667" stop-color="#9dc8f3"/>
      <stop offset=".27333" stop-color="#bddaf7"/>
      <stop offset=".33333" stop-color="#deedfb"/>
      <stop offset=".39333" stop-color="#bddaf7"/>
      <stop offset=".46" stop-color="#9dc8f3"/>
      <stop offset=".52333" stop-color="#5ba3eb"/>
      <stop offset=".59333" stop-color="#1b7ada"/>
      <stop offset=".66667" stop-color="#125191"/>
      <stop offset=".74" stop-color="#1b7ada"/>
      <stop offset=".81" stop-color="#5ba3eb"/>
      <stop offset=".87333" stop-color="#9dc8f3"/>
      <stop offset=".94" stop-color="#bddaf7"/>
      <stop offset="1" stop-color="#deedfb"/>
    </linearGradient>
    <clipPath id="uuid-e2a69d31-93ac-4e64-8672-4b33470044cc">
      <rect class="uuid-08fc0a34-d845-4752-a2bb-3af8be5a6821" x="93.12" y="17.40114" width="15.24" height="18.96001"/>
    </clipPath>
    <clipPath id="uuid-0ecfe47c-d5d4-4c55-9360-0145604ef71d">
      <rect class="uuid-08fc0a34-d845-4752-a2bb-3af8be5a6821" x="93.12" y="17.40086" width="15.24033" height="18.9603"/>
    </clipPath>
    <clipPath id="uuid-4e36639b-911f-4663-a236-656ae34736b4">
      <rect class="uuid-08fc0a34-d845-4752-a2bb-3af8be5a6821" x="113.51999" y="69.72114" width="16.56001" height="18.96"/>
    </clipPath>
    <clipPath id="uuid-8d2b9d1b-da6e-4027-9be9-4842e83de0c1">
      <rect class="uuid-08fc0a34-d845-4752-a2bb-3af8be5a6821" x="113.51999" y="69.72084" width="16.56009" height="18.9603"/>
    </clipPath>
    <clipPath id="uuid-65418094-7adc-4b80-9a3a-4a2f8ac45deb">
      <rect class="uuid-08fc0a34-d845-4752-a2bb-3af8be5a6821" x="230.03999" y="94.08114" width="15.24001" height="19.08"/>
    </clipPath>
    <clipPath id="uuid-2a6559ad-6c44-4ac7-b2a3-ff80b12facb8">
      <rect class="uuid-08fc0a34-d845-4752-a2bb-3af8be5a6821" x="230.03997" y="94.0806" width="15.24033" height="19.08054"/>
    </clipPath>
    <clipPath id="uuid-bdd19d5e-33d8-4104-9635-f872a9e9292a">
      <rect class="uuid-08fc0a34-d845-4752-a2bb-3af8be5a6821" y=".12114" width="270.72" height="167.28"/>
    </clipPath>
    <clipPath id="uuid-a8d331de-1992-467a-bcd2-29319e104ca5">
      <rect class="uuid-08fc0a34-d845-4752-a2bb-3af8be5a6821" x="248.39999" y="127.68114" width="16.44" height="19.08"/>
    </clipPath>
    <clipPath id="uuid-1e800365-ec70-4f90-9154-b2d134b93a3b">
      <rect class="uuid-08fc0a34-d845-4752-a2bb-3af8be5a6821" x="248.39997" y="127.6806" width="16.43985" height="19.08054"/>
    </clipPath>
    <clipPath id="uuid-2986197c-d0f4-4a98-9c9f-9f77a618d05b">
      <rect class="uuid-08fc0a34-d845-4752-a2bb-3af8be5a6821" x="97.32" y="88.68114" width="21.96" height="18.48"/>
    </clipPath>
    <clipPath id="uuid-03cc3110-c33a-4b85-bc6f-5cccfd331c76">
      <rect class="uuid-08fc0a34-d845-4752-a2bb-3af8be5a6821" x="97.31999" y="88.68063" width="21.96062" height="18.48051"/>
    </clipPath>
    <clipPath id="uuid-c8bf544b-fe5f-431e-8d3c-a92701dcb35b">
      <rect class="uuid-08fc0a34-d845-4752-a2bb-3af8be5a6821" x="97.41146" y="88.77241" width="21.8122" height="18.35449"/>
    </clipPath>
    <clipPath id="uuid-fbc3f844-a773-4b7d-aad6-772f003d47c5">
      <rect class="uuid-08fc0a34-d845-4752-a2bb-3af8be5a6821" x="97.41146" y="88.77223" width="21.8129" height="18.35467"/>
    </clipPath>
  </defs>
  <path class="uuid-3fe9a73f-8e17-47d7-b228-9cac3f79549d" d="m95.96318,81.83193l-4.69633-5.16296,23.69189,15.03362c8.20104,4.99786,26.3054,7.47429,35.97342,11.41155,16.81764,7.31919,45.75157-2.10622,56.89157.66038l-7.32486,59.94474-100.12976-35.06697-4.40592-46.82037Z"/>
  <path class="uuid-fe7efc29-ed6e-4d7e-81b4-25ee5e08462d" d="m235.4459,137.98215c7.28481.66888,21.98958,5.48314,30.6913,7.20313l3.56979.53531v16.79794l-35.2975-9.45573c-1.25168-8.85108-7.84555-13.81843-1.92258-15.03662.73598-.15209,1.74734-.15559,2.95898-.04403Z"/>
  <polygon class="uuid-1c5a6365-5b25-4c7a-87e5-3a23a9a9ae93" points="213.24603 56.8576 223.30957 57.49797 234.2593 151.71253 202.41644 141.44014 213.24603 56.8576"/>
  <path class="uuid-c184c11c-16ac-4cd5-a189-9767f9920ec7" d="m203.61807,124.69703c3.38455.3507,6.01309-.51029,12.42171,3.32191,3.37454,3.22935,8.56653,9.03318,11.64067,9.68906l8.38129.46276-.15022,3.93626-8.53146-.16009c-7.51012-2.22027-13.05759-10.64761-13.45811-10.2944-3.58482-2.67153-7.16965-2.46741-10.30386-3.32241v-3.63309Z"/>
  <path class="uuid-53a0576d-9336-4860-9469-a1acbd994914" d="m14.96417,19.63626l60.68167,6.91898-7.70036,61.52028c-8.75178-.13007-30.14707-37.37644-37.11145-45.60117-8.78032-11.37151-11.36279-15.04861-15.86986-22.83809Z"/>
  <polygon class="uuid-9c896591-75eb-4735-873d-28b09680bf7a" points="77.62851 10.63109 87.53183 11.05634 99.67817 107.28654 67.83532 88.42572 77.62851 10.63109"/>
  <g class="uuid-94eb16e8-823d-4f06-b292-9aff1ccbef7e">
    <path class="uuid-9081f64e-c674-4118-9680-ddfde4907f11" d="m1.14579.42523l1.36636,1.94112c10.05879,14.15312,59.22996,81.97704,65.74374,86.38956l29.56478,15.46388,103.67955,36.37287c4.9166,2.37987,30.02539,9.44242,33.1546,11.1529l35.05217,10.18584v5.38993L1.14579,166.12725V.42523Z"/>
  </g>
  <line class="uuid-5937783b-760b-4440-9762-cdf19c3ebaec" x1="75.94624" y1="27.14056" x2="94.76156" y2="27.14056"/>
  <line class="uuid-8b20ffc2-cff1-4ed0-b0ec-90171a51641d" x1="96.37373" y1="79.37052" x2="115.18906" y2="79.37052"/>
  <line class="uuid-5937783b-760b-4440-9762-cdf19c3ebaec" x1="207.52333" y1="103.98465" x2="232.72725" y2="103.98465"/>
  <path class="uuid-6dd67c4c-4fff-42a8-bac8-4618059378b4" d="m69.03695,76.06863c3.38455.35021,6.01308-.51029,12.42171,3.32191,3.37454,3.23185,8.56654,9.03518,11.64568,9.69055l8.37627.46027-.15021,3.93726-8.53147-.16009c-7.51011-2.22128-13.05758-10.6461-13.45811-10.29591-3.58482-2.67153-7.16965-2.46642-10.30386-3.32191v-3.63208Z"/>
  <path class="uuid-1ba4ca93-e986-4e89-a2c3-1f18abc66fdf" d="m137.56417,91.64256c1.09647-.54031,2.12785-.97056,3.28441-1.19068,1.12151-.27515,2.29309-.36021,3.42462-.28016,1.16154.13007,2.25803.38022,3.2794.74542,1.00134.45026,2.01772,1.0356,2.84883,1.67097.8912.73042,1.65222,1.48084,2.28307,2.37636.13019.20512.29541.46527.42558.67038l.22531.36021.14519.3452c.24033.49529.48065.99056.63586,1.47084.63585,2.04617.68091,4.1774.13518,6.17355.29039-2.05618-.04005-4.07735-.87119-5.85837-.21028-.44525-.47063-.85548-.73097-1.27073l-.19026-.30517-.25034-.28017c-.12517-.20512-.25534-.41023-.44058-.58533-.67091-.73042-1.41692-1.34077-2.23302-1.83605s-1.66725-.82547-2.54343-1.06561c-.92624-.21513-1.86751-.34019-2.76872-.28016-.92625.01-1.81244.20512-2.63354.50529-.90622.27516-1.62718.73042-2.40323,1.2157l-1.62218-2.58148Z"/>
  <polygon class="uuid-1ba4ca93-e986-4e89-a2c3-1f18abc66fdf" points="132.96798 96.34526 140.34791 96.0751 136.4026 89.7965 132.96798 96.34526"/>
  <path class="uuid-71be2cba-c7e3-4e4c-8ac8-2c774e1cc8f0" d="m148.53393,111.02869c-1.06644.59534-2.12787.97056-3.24937,1.24571-1.15656.22013-2.32814.31018-3.45966.22513-1.08147-.11007-2.22299-.33019-3.27942-.74543-1.00134-.45026-1.98767-.98556-2.84883-1.66595-.86116-.68539-1.65222-1.48586-2.25302-2.33134-.16524-.25515-.29541-.46027-.45563-.72041l-.14018-.34019-.23032-.36521c-.24033-.49528-.4456-.94054-.58578-1.50086-.65588-1.96113-.73099-4.14738-.18524-6.14352-.29041,2.05618.04004,4.07734.90622,5.90839.20528.44526.46562.8555.72597,1.27073l.19527.31018.24533.27516c.13017.21012.26035.41524.44058.59034.64087.67538,1.38687,1.28574,2.20297,1.78102s1.70229.8755,2.57347,1.12064c.92624.21012,1.83746.28516,2.76872.28016.89621-.06004,1.78239-.26015,2.63354-.50529.87617-.33019,1.6322-.73542,2.37318-1.27073l1.62219,2.58148Z"/>
  <polygon class="uuid-71be2cba-c7e3-4e4c-8ac8-2c774e1cc8f0" points="153.14013 106.346 145.74517 106.59615 149.7055 112.89476 153.14013 106.346"/>
  <line class="uuid-855a9f9a-4083-4fb5-9679-8c32b349b397" x1="98.17616" y1="89.57638" x2="116.18039" y2="89.57638"/>
  <line class="uuid-8b20ffc2-cff1-4ed0-b0ec-90171a51641d" x1="232.15646" y1="138.20478" x2="250.9718" y2="138.20478"/>
  <rect class="uuid-08fc0a34-d845-4752-a2bb-3af8be5a6821" x=".72" y="0" width="269.28233" height="167.5211"/>
  <rect class="uuid-08fc0a34-d845-4752-a2bb-3af8be5a6821" x=".72" y=".12108" width="269.28" height="167.28"/>
  <g class="uuid-4426876b-90c7-47ec-b7f2-a8ae439781c4">
    <g class="uuid-df30588f-114b-450c-a922-3c57e97d579e">
      <path class="uuid-ea5c4227-e978-42a7-958a-b1bcce27f365" d="m101.89746,29.16139l.94922-.45996h.09473v3.27148c0,.21729.00928.35254.02734.40576.01807.05371.05615.09424.11377.12305.05713.02881.17432.04492.35059.04834v.10596h-1.46631v-.10596c.18408-.00342.30273-.01904.35645-.04688s.09082-.06494.1123-.11133c.021-.04688.03125-.18652.03125-.41895v-2.09131c0-.28223-.00928-.46289-.02832-.54297-.01367-.06104-.03809-.10596-.07373-.13428-.03516-.02881-.07812-.04297-.12793-.04297-.0708,0-.16943.0293-.2959.08838l-.04346-.08838Z"/>
      <path class="uuid-ea5c4227-e978-42a7-958a-b1bcce27f365" d="m105.32812,22.98219l-.50049,1.70312c-.07471.25342-.11182.41357-.11182.47998,0,.03467.00586.05957.01855.07568.01221.0166.0293.02441.05029.02441.03271,0,.06836-.01465.10791-.04443.03906-.0293.13818-.14697.29736-.35254l.08643.06543c-.15137.23828-.30664.41357-.46582.52588-.10547.07227-.20703.1084-.30469.1084-.07471,0-.1333-.021-.17529-.0625-.04248-.04199-.06348-.09619-.06348-.16309,0-.06445.01221-.15039.0376-.25732.03027-.14062.11768-.44727.26123-.91992-.32568.53174-.59814.89844-.81787,1.1001-.21973.20215-.42334.30273-.61084.30273-.08838,0-.16309-.03027-.22461-.09131-.06104-.06104-.0918-.13818-.0918-.23145,0-.14258.04199-.36182.12646-.65723l.25-.88281c.06152-.21143.09229-.34277.09229-.39453,0-.02246-.0083-.04199-.02441-.05859-.0166-.01611-.03418-.02393-.05322-.02393-.04053,0-.08057.01416-.12109.04248-.04004.02881-.13135.13428-.27295.31738l-.08936-.06299c.14404-.2207.29639-.38379.45752-.48828.12256-.08203.23584-.12305.33936-.12305.0708,0,.12891.02246.17383.06689.04492.04492.06738.10254.06738.17285,0,.10303-.03809.28711-.11475.55176l-.27051.92285c-.07471.25146-.1123.41064-.1123.47705,0,.03662.01221.06543.03613.0874s.05615.03271.09619.03271c.06348,0,.146-.03125.24756-.09424s.2373-.20215.40674-.41846c.16992-.21631.30957-.41895.41992-.60889.11035-.18945.22754-.49072.35205-.9043l.06348-.21729h.43701Z"/>
      <path class="uuid-ea5c4227-e978-42a7-958a-b1bcce27f365" d="m97.19824,23.34303h4.67969v.18311l-5.0083,6.19727h.78076c.84229,0,1.43652-.04102,1.7832-.12354.34619-.08252.63477-.22559.86523-.42969.23047-.20459.42383-.49463.57959-.87012h.18896l-.58203,1.74463h-4.84912v-.14355l5.0083-6.19727h-1.39746c-.61035,0-1.03955.02734-1.28809.08154-.24854.05469-.46191.16504-.63916.33105-.17725.1665-.32764.41797-.4502.75391h-.17383l.50244-1.52734Z"/>
    </g>
  </g>
  <g class="uuid-e2eff1c2-fade-4489-b1f4-dea2a990a1bb">
    <g class="uuid-ed82affc-1089-4121-b2bd-ba09e80b4e4a">
      <path class="uuid-ea5c4227-e978-42a7-958a-b1bcce27f365" d="m122.31982,81.48561l.95215-.45996h.09521v3.27148c0,.21729.00879.35254.02734.40576.01807.05371.05615.09424.11377.12305s.1748.04492.35205.04834v.10596h-1.47119v-.10596c.18457-.00342.30371-.01904.35742-.04688.0542-.02783.09131-.06494.11279-.11133.021-.04688.03174-.18652.03174-.41895v-2.09131c0-.28223-.00977-.46289-.02881-.54297-.01367-.06104-.03809-.10596-.07373-.13428-.03564-.02881-.07861-.04297-.12842-.04297-.07129,0-.16992.0293-.29688.08838l-.04346-.08838Z"/>
      <path class="uuid-ea5c4227-e978-42a7-958a-b1bcce27f365" d="m126.33593,73.76051l-.99219,3.37207c-.0542.18262-.08105.30273-.08105.35986,0,.01904.0083.03711.0249.0542.01611.01709.03271.02588.05029.02588.0249,0,.05469-.01221.08936-.03711.06543-.0459.1748-.16016.3291-.34277l.09766.06006c-.13818.19043-.27832.34473-.41943.46289-.1416.11768-.27344.17676-.39697.17676-.06494,0-.11914-.02246-.16113-.06836-.04248-.0459-.06348-.11035-.06348-.19434,0-.1084.02881-.25439.08643-.43701l.1123-.35449c-.27881.42676-.53271.72217-.76123.88574-.15771.1123-.30908.16846-.45312.16846-.146,0-.27344-.06396-.38232-.19287-.1084-.12842-.16309-.30322-.16309-.52393,0-.28418.09131-.58691.27441-.90869.18262-.32227.42383-.58398.72412-.78613.23633-.16162.45361-.24268.65186-.24268.104,0,.19336.021.26807.06299.0752.04199.14893.11133.22217.2085l.28271-.99463c.021-.07031.03857-.12646.05225-.16846.02295-.07617.03418-.13916.03418-.18848,0-.04004-.01416-.07324-.04297-.1001-.04053-.03223-.09229-.04834-.15576-.04834-.04443,0-.11768.00635-.21924.02002v-.10596l.99219-.16309Zm-1.07031,2.02881c0-.12158-.03564-.21973-.10645-.29395-.07129-.07471-.16162-.11182-.27148-.11182-.24219,0-.49463.19824-.75732.59473-.26221.396-.39355.77539-.39355,1.13721,0,.14258.03174.25195.09521.32715s.13916.11279.22803.11279c.19971,0,.45068-.21436.75293-.64307.30176-.42871.45264-.80273.45264-1.12305Z"/>
      <path class="uuid-ea5c4227-e978-42a7-958a-b1bcce27f365" d="m117.60839,75.66725h4.69482v.18311l-5.02441,6.19727h.78369c.84473,0,1.44092-.04102,1.78857-.12354s.63672-.22559.86816-.42969c.23096-.20459.4248-.49463.58105-.87012h.18994l-.58398,1.74463h-4.86475v-.14355l5.02441-6.19727h-1.40186c-.6123,0-1.04297.02734-1.29248.08154-.24951.05469-.46338.16504-.64111.33105-.17773.1665-.32861.41797-.45166.75391h-.17432l.50391-1.52734Z"/>
    </g>
  </g>
  <g class="uuid-6aa12e6b-72a3-44ad-9af3-df586d788955">
    <g class="uuid-7568aeef-4631-4b40-bacc-e139d2851c21">
      <path class="uuid-ea5c4227-e978-42a7-958a-b1bcce27f365" d="m241.45214,108.68727l-.27344.75098h-2.2998v-.10645c.67578-.61719,1.15234-1.12109,1.42871-1.5127.27637-.39062.41406-.74805.41406-1.07227,0-.24707-.07617-.4502-.22754-.60938s-.33203-.23926-.54297-.23926c-.19141,0-.36426.05664-.5166.16797-.15234.1123-.26465.27734-.33789.49316h-.10645c.04785-.35449.17188-.62598.37012-.81641.19824-.18945.44629-.28418.74316-.28418.31641,0,.58008.10156.79199.30469s.31836.44238.31836.71875c0,.19727-.04688.39453-.13867.59277-.1416.31055-.37207.63867-.69043.98633-.47656.52148-.77539.83496-.89355.94238h1.01758c.20703,0,.35254-.00684.43555-.02246.08398-.01562.15918-.04688.22559-.09375.06738-.04688.12598-.11328.17578-.2002h.10645Z"/>
      <path class="uuid-ea5c4227-e978-42a7-958a-b1bcce27f365" d="m242.2373,99.70387l-.50098,1.71387c-.07422.25488-.1123.41602-.1123.48242,0,.03516.00684.06055.01855.07715.0127.01562.0293.02441.05078.02441.03223,0,.06836-.01562.10742-.04492.04004-.03027.13867-.14844.29785-.35547l.08691.06641c-.15234.23926-.30762.41602-.46582.5293-.10547.07227-.20703.10938-.30566.10938-.07422,0-.13281-.02148-.1748-.06348s-.06348-.09668-.06348-.16406c0-.06543.0127-.15137.03711-.25879.03125-.1416.11816-.4502.26172-.92578-.32617.53516-.59863.90332-.81738,1.10742-.21973.20312-.42383.30469-.61133.30469-.08887,0-.16309-.03125-.22461-.09277-.06152-.06055-.0918-.13867-.0918-.23242,0-.14355.04199-.36426.12598-.66113l.25098-.88867c.06055-.21289.0918-.3457.0918-.39746,0-.02246-.00879-.04199-.02441-.05859-.0166-.0166-.03418-.02441-.05371-.02441-.04004,0-.08008.01465-.12012.04297-.04102.0293-.13184.13574-.27344.31934l-.08887-.06348c.14355-.22168.2959-.38574.45703-.49121.12207-.08301.23535-.12402.33887-.12402.07129,0,.12891.02246.17383.06738.0459.0459.06836.10352.06836.1748,0,.10352-.03906.28809-.11523.55469l-.27051.92871c-.07422.25293-.1123.41309-.1123.48047,0,.03613.01172.06543.03613.08691.02441.02246.05566.0332.09668.0332.0625,0,.14551-.03125.24707-.09473s.2373-.20312.40723-.4209c.16895-.21777.30957-.42188.41895-.6123.11035-.19141.22852-.49414.35254-.91016l.06348-.21875h.4375Z"/>
      <path class="uuid-ea5c4227-e978-42a7-958a-b1bcce27f365" d="m234.10644,100.06618h4.67969v.18457l-5.00781,6.23633h.78027c.84277,0,1.43652-.04102,1.7832-.12402s.63477-.22754.86523-.43262c.23047-.20605.42383-.49805.5791-.87598h.18945l-.58203,1.75586h-4.84863v-.14453l5.00781-6.23633h-1.39746c-.61035,0-1.03906.02734-1.28809.08203s-.46191.16602-.63867.33301c-.17773.16797-.32812.4209-.4502.75879h-.1748l.50293-1.53711Z"/>
    </g>
  </g>
  <g class="uuid-60fed8b7-ca3c-43dc-96d1-d459d7195b02">
    <g>
      <path class="uuid-ea5c4227-e978-42a7-958a-b1bcce27f365" d="m166.63769,97.80836c.41309.08789.72168.22852.92676.42188.28418.26953.42676.59961.42676.98828,0,.29688-.09375.58008-.28125.85059-.1875.27148-.44434.46875-.77148.59375-.32617.12402-.8252.18652-1.49609.18652h-2.8125v-.16211h.22363c.24902,0,.42773-.08008.53711-.23828.06641-.10156.10059-.32031.10059-.6543v-3.84961c0-.36914-.04297-.60156-.12793-.69922-.11328-.12793-.28418-.19336-.50977-.19336h-.22363v-.16211h2.5752c.48047,0,.86523.03516,1.15625.10547.43945.10547.77441.29199,1.00586.56055.23145.26758.34766.57617.34766.9248,0,.29883-.0918.56641-.27344.80176-.18164.23633-.44922.41113-.80371.52539Zm-2.30273-.2373c.1084.02051.23242.03613.37109.0459.13965.01074.29199.01562.45996.01562.42676,0,.74902-.0459.96387-.13867.21582-.0918.37988-.2334.49512-.42383.11328-.19043.1709-.39844.1709-.62402,0-.34863-.14258-.64551-.42676-.8916s-.69824-.36914-1.24316-.36914c-.29297,0-.55664.03223-.79102.0957v2.29004Zm0,2.84766c.33984.0791.6748.11816,1.00684.11816.5293,0,.93359-.11914,1.21289-.35742.27734-.23926.41699-.53418.41699-.88574,0-.23145-.06348-.4541-.18848-.66797-.12695-.21387-.33203-.38184-.61523-.50488-.28516-.12305-.63672-.18555-1.05469-.18555-.18262,0-.33789.00391-.4668.00977s-.23242.01562-.31152.03027v2.44336Z"/>
      <path class="uuid-ea5c4227-e978-42a7-958a-b1bcce27f365" d="m171.04589,100.2693c-.41406.31934-.67285.50391-.77832.55371-.1582.07324-.32715.11035-.50488.11035-.2793,0-.50781-.0957-.68848-.28613-.17969-.19043-.27051-.44043-.27051-.75098,0-.19629.04492-.36621.13281-.50977.11914-.19922.32812-.38672.62598-.5625.29688-.17578.79102-.38965,1.4834-.64258v-.1582c0-.40039-.06445-.67578-.19141-.82617-.12793-.14844-.31348-.22363-.55664-.22363-.18359,0-.33105.0498-.43945.14941-.11133.09961-.16602.21387-.16602.34277l.00781.25488c0,.13477-.03418.23926-.10254.3125-.06934.07324-.15918.10938-.27051.10938-.1084,0-.19727-.03809-.26562-.11426-.06934-.07617-.10352-.18066-.10352-.31152,0-.25195.12891-.48438.38672-.69531s.61914-.31641,1.08594-.31641c.35645,0,.65039.06055.87891.18066.17188.09082.2998.2334.38184.42676.05273.12598.0791.38379.0791.77344v1.36621c0,.38379.00684.61914.02148.70508.01465.08691.03906.14453.07324.17383.0332.0293.07227.04395.11621.04395.04688,0,.08789-.00977.12305-.03125.06152-.03711.17969-.14453.35547-.32031v.24609c-.32812.43945-.64062.65918-.93945.65918-.14453,0-.25879-.0498-.34375-.14941s-.12891-.26953-.13086-.50977Zm0-.28516v-1.53418c-.44336.17578-.72852.30078-.85742.37402-.23145.12891-.39746.26367-.49609.4043-.10059.14062-.15039.29395-.15039.46094,0,.21094.06348.38574.18945.52539.12598.13867.27051.20898.43555.20898.22168,0,.51465-.14648.87891-.43945Z"/>
      <path class="uuid-ea5c4227-e978-42a7-958a-b1bcce27f365" d="m176.15136,99.32008c-.1084.53027-.32129.93848-.6377,1.22363-.31641.28613-.66602.42871-1.0498.42871-.45703,0-.85547-.19141-1.19531-.57617-.33984-.38281-.50977-.90137-.50977-1.55469,0-.63281.18848-1.14746.56445-1.54297.37695-.39551.8291-.59375,1.35645-.59375.39453,0,.7207.10547.97461.31445.25586.20996.38281.42773.38281.65234,0,.1123-.03613.20215-.10742.27051-.07227.06934-.17285.10352-.30078.10352-.17383,0-.30371-.05566-.3916-.16699-.0498-.06152-.08301-.17871-.09863-.35156-.0166-.17285-.07617-.30469-.17773-.39551-.10352-.08789-.24512-.13184-.42676-.13184-.29297,0-.5293.1084-.70801.3252-.23633.28711-.35547.66699-.35547,1.1377,0,.48145.11816.90527.35352,1.27246.23633.36816.55469.55176.95605.55176.28711,0,.54492-.09766.77344-.29492.16113-.13379.31738-.37891.46973-.7334l.12793.06152Z"/>
      <path class="uuid-ea5c4227-e978-42a7-958a-b1bcce27f365" d="m177.8916,94.60036v4.00293l1.02344-.93164c.2168-.19824.34277-.32422.37793-.37695.02344-.03516.03516-.07031.03516-.10547,0-.05859-.02441-.10938-.07227-.15234-.04883-.04199-.12891-.06641-.23926-.07227v-.14062h1.74805v.14062c-.24023.00586-.43945.04297-.59961.10938-.15918.06836-.33496.18848-.52539.36133l-1.03223.95312,1.03223,1.30469c.28711.36133.48047.58984.58008.68555.14062.13867.26367.22754.36914.26855.07324.0293.20117.04395.38281.04395v.1582h-1.95508v-.1582c.11035-.00293.18652-.01953.22559-.05078.04004-.03027.05957-.07324.05957-.12891,0-.06738-.05859-.17578-.17578-.32617l-1.23438-1.57715v1.33594c0,.26074.01758.43262.05469.51465.03613.08203.08789.14062.15625.17578.06641.03516.21289.05371.43945.05664v.1582h-2.04883v-.1582c.20508,0,.35938-.02441.46191-.07422.06152-.03223.1084-.08203.14062-.15039.04395-.0957.06543-.26367.06543-.5v-3.66602c0-.46484-.00977-.75-.03027-.85449-.02051-.10352-.05469-.17578-.10059-.21484-.04785-.04004-.10938-.05957-.18555-.05957-.06055,0-.15332.02539-.27637.07422l-.0752-.15332,1.19531-.49219h.20312Z"/>
      <path class="uuid-ea5c4227-e978-42a7-958a-b1bcce27f365" d="m180.91211,96.82399h1.6875v.16211c-.15527.0127-.25684.04004-.30469.08398-.04883.04395-.07227.10742-.07227.18945,0,.09082.02441.2002.07422.3291l.86133,2.31543.86523-1.88477-.22852-.59375c-.07031-.17578-.16211-.29688-.27637-.36426-.06445-.04102-.18457-.06543-.36035-.0752v-.16211h1.91602v.16211c-.21094.00977-.36035.04785-.44824.11523-.05859.04688-.08789.12109-.08789.22363,0,.05859.01172.11816.03516.18066l.91406,2.31055.84863-2.22754c.05762-.1582.08789-.28418.08789-.37793,0-.05566-.0293-.10547-.08594-.14941-.05762-.04395-.16992-.06836-.33594-.0752v-.16211h1.26953v.16211c-.25488.03906-.44238.21094-.5625.51953l-1.34473,3.4668h-.18066l-1.00586-2.57031-1.17383,2.57031h-.16211l-1.29199-3.38379c-.08496-.21387-.16895-.3584-.25098-.43262-.08203-.0752-.21094-.13086-.38672-.16992v-.16211Z"/>
      <path class="uuid-ea5c4227-e978-42a7-958a-b1bcce27f365" d="m189.78222,100.2693c-.41406.31934-.67285.50391-.77832.55371-.1582.07324-.32715.11035-.50488.11035-.2793,0-.50781-.0957-.68848-.28613-.17969-.19043-.27051-.44043-.27051-.75098,0-.19629.04492-.36621.13281-.50977.11914-.19922.32812-.38672.62598-.5625.29688-.17578.79102-.38965,1.4834-.64258v-.1582c0-.40039-.06445-.67578-.19141-.82617-.12793-.14844-.31348-.22363-.55664-.22363-.18359,0-.33105.0498-.43945.14941-.11133.09961-.16602.21387-.16602.34277l.00781.25488c0,.13477-.03418.23926-.10254.3125-.06934.07324-.15918.10938-.27051.10938-.1084,0-.19727-.03809-.26562-.11426-.06934-.07617-.10352-.18066-.10352-.31152,0-.25195.12891-.48438.38672-.69531s.61914-.31641,1.08594-.31641c.35645,0,.65039.06055.87891.18066.17188.09082.2998.2334.38184.42676.05273.12598.0791.38379.0791.77344v1.36621c0,.38379.00684.61914.02148.70508.01465.08691.03906.14453.07324.17383.0332.0293.07227.04395.11621.04395.04688,0,.08789-.00977.12305-.03125.06152-.03711.17969-.14453.35547-.32031v.24609c-.32812.43945-.64062.65918-.93945.65918-.14453,0-.25879-.0498-.34375-.14941s-.12891-.26953-.13086-.50977Zm0-.28516v-1.53418c-.44336.17578-.72852.30078-.85742.37402-.23145.12891-.39746.26367-.49609.4043-.10059.14062-.15039.29395-.15039.46094,0,.21094.06348.38574.18945.52539.12598.13867.27051.20898.43555.20898.22168,0,.51465-.14648.87891-.43945Z"/>
      <path class="uuid-ea5c4227-e978-42a7-958a-b1bcce27f365" d="m192.63769,95.50172v1.32227h.94043v.30762h-.94043v2.61035c0,.26074.03711.43652.1123.52734.07422.09082.16992.13672.28711.13672.09766,0,.19043-.03027.28125-.09082.09082-.05957.16113-.14844.21094-.26562h.17188c-.10254.28711-.24805.50293-.43555.64844-.1875.14453-.38086.21777-.58008.21777-.13477,0-.2666-.03809-.39453-.1123-.12988-.0752-.22461-.18164-.28613-.32129-.06152-.13867-.09277-.35352-.09277-.64355v-2.70703h-.63672v-.14551c.16113-.06348.32617-.17285.49414-.32715.16895-.15332.31836-.33594.45117-.54688.06641-.11133.16016-.31445.28125-.61035h.13574Z"/>
      <path class="uuid-ea5c4227-e978-42a7-958a-b1bcce27f365" d="m194.64648,98.33961c-.00293.59766.1416,1.06738.43457,1.40625.29297.34082.6377.50977,1.0332.50977.26367,0,.49316-.07227.6875-.2168.19531-.14551.3584-.39355.49023-.74512l.13672.08789c-.0625.40137-.24121.7666-.53711,1.09668-.2959.3291-.66602.49414-1.11133.49414-.4834,0-.89746-.18848-1.24121-.56445-.34473-.37695-.5166-.88281-.5166-1.51855,0-.68848.17676-1.22559.5293-1.61035.35352-.38574.7959-.57812,1.33008-.57812.4502,0,.82129.14844,1.11133.44629.29004.29688.43555.69531.43555,1.19238h-2.78223Zm0-.25391h1.86328c-.01465-.25781-.0459-.43945-.09277-.54492-.07324-.16406-.18164-.29297-.32715-.38672-.14453-.09375-.2959-.14062-.4541-.14062-.24414,0-.46094.09375-.65332.2832-.19141.18848-.30371.45215-.33594.78906Z"/>
      <path class="uuid-ea5c4227-e978-42a7-958a-b1bcce27f365" d="m199.1416,96.70485v.90625c.33691-.60352.68262-.90625,1.03711-.90625.16113,0,.29492.0498.40039.14746.10547.09863.1582.21191.1582.34082,0,.11426-.03906.21094-.11523.29004s-.16602.11816-.27148.11816c-.10352,0-.21777-.0498-.3457-.15137-.12695-.10059-.22168-.15137-.2832-.15137-.05273,0-.10938.0293-.17188.08789-.13086.12012-.26758.31836-.4082.59375v1.92871c0,.22266.02734.3916.08398.50488.03711.08008.10547.14551.20117.19824.09766.05273.23633.0791.41797.0791v.1582h-2.06055v-.1582c.2041,0,.35645-.03223.45703-.09668.07227-.04688.12402-.12109.15332-.22363.01465-.0498.02246-.19238.02246-.42676v-1.55957c0-.46875-.00977-.74805-.0293-.83789-.01855-.08887-.05371-.1543-.10547-.19531-.05078-.04102-.11523-.06152-.19141-.06152-.09082,0-.19336.02246-.30664.06543l-.04492-.1582,1.21777-.49219h.18457Z"/>
    </g>
  </g>
  <g class="uuid-2638eb7a-5c4f-4fb0-a8a4-fd5bb0df2a76">
    <g class="uuid-38a756b5-2199-4964-8858-f88d19e3985f">
      <path class="uuid-ea5c4227-e978-42a7-958a-b1bcce27f365" d="m259.76269,142.28883l-.27246.75098h-2.29102v-.10645c.67383-.61719,1.14844-1.12109,1.42383-1.5127.27441-.39062.41211-.74805.41211-1.07227,0-.24707-.0752-.4502-.22656-.60938-.15039-.15918-.33105-.23926-.54102-.23926-.19141,0-.3623.05664-.51465.16797-.15137.1123-.26367.27734-.33594.49316h-.10645c.04785-.35449.1709-.62598.36816-.81641.19824-.18945.44434-.28418.74023-.28418.31543,0,.57812.10156.78906.30469s.31641.44238.31641.71875c0,.19727-.0459.39453-.13672.59277-.1416.31055-.37109.63867-.6875.98633-.47559.52148-.77246.83496-.89062.94238h1.01367c.20605,0,.35059-.00684.43359-.02246s.1582-.04688.22461-.09375c.06738-.04688.125-.11328.1748-.2002h.10645Z"/>
      <path class="uuid-ea5c4227-e978-42a7-958a-b1bcce27f365" d="m261.11328,131.74977l-.98535,3.39258c-.05273.18457-.08008.30566-.08008.3623,0,.01953.00879.03809.02441.05469.0166.01758.0332.02637.05078.02637.02441,0,.05371-.0127.08887-.03711.06445-.04688.17285-.16113.32617-.3457l.09766.06055c-.1377.19141-.27637.34668-.41699.46582s-.27148.17871-.39355.17871c-.06543,0-.11914-.02344-.16113-.06934s-.0625-.11133-.0625-.19531c0-.10938.02832-.25586.08594-.44043l.11133-.35645c-.27637.42969-.52832.72656-.75586.8916-.15625.11328-.30664.16992-.44922.16992-.14551,0-.27246-.06543-.37988-.19434-.10742-.12988-.16211-.30566-.16211-.52734,0-.28613.09082-.59082.27246-.91504s.4209-.58691.71875-.79102c.23535-.16211.4502-.24414.64746-.24414.10254,0,.19141.02148.2666.06348.07422.04199.14746.1123.21973.20996l.28125-1.00098c.02051-.07031.03809-.12695.05176-.16992.02246-.07617.03418-.13965.03418-.18945,0-.04004-.01465-.07324-.04297-.10059-.04004-.03223-.0918-.04883-.15527-.04883-.04395,0-.11621.00684-.21777.02051v-.10645l.98535-.16406Zm-1.0625,2.04102c0-.12207-.03516-.2207-.10547-.2959-.07129-.07422-.16016-.1123-.26953-.1123-.24023,0-.49121.2002-.75195.59863s-.39062.78027-.39062,1.14453c0,.14355.03125.25293.09473.3291.0625.0752.13867.11328.22559.11328.19922,0,.44824-.21582.74805-.64648.2998-.43164.44922-.80859.44922-1.13086Z"/>
      <path class="uuid-ea5c4227-e978-42a7-958a-b1bcce27f365" d="m252.44921,133.66774h4.66113v.18457l-4.9873,6.23633h.77734c.83887,0,1.43066-.04102,1.77539-.12402.3457-.08301.63281-.22754.8623-.43262.22949-.20605.42188-.49805.57715-.87598h.1875l-.5791,1.75586h-4.8291v-.14453l4.9873-6.23633h-1.3916c-.60742,0-1.03516.02734-1.2832.08203-.24707.05469-.45996.16602-.63574.33301-.17676.16797-.32617.4209-.44824.75879h-.17383l.5-1.53711Z"/>
    </g>
  </g>
  <g class="uuid-ab96058c-c0ee-4704-a86b-c35e452cea8f">
    <g class="uuid-2e112e9c-42c7-442f-ae0c-87a5fcee872a">
      <g class="uuid-dbc76d2f-e874-444f-8d29-021624194dae">
        <g class="uuid-fc09e598-d4da-4de6-a216-a21b4700be7a">
          <g>
            <path class="uuid-ea5c4227-e978-42a7-958a-b1bcce27f365" d="m111.02734,94.31032c0,.32422-.08594.64453-.25781.96191s-.41113.56836-.71777.75391c-.30664.18652-.60498.2793-.89453.2793-.2959,0-.5376-.09473-.72461-.28418-.18652-.18848-.28027-.43262-.28027-.7334,0-.31738.09131-.63574.27393-.95508s.42676-.57227.73242-.75781.60156-.27832.88672-.27832.52002.09375.70459.28125c.18506.18848.27734.43262.27734.73242Zm-.53809-.22363c0-.20117-.04932-.35449-.14746-.46094-.09814-.10742-.2251-.16113-.38086-.16113-.31738,0-.60986.22754-.87646.68164-.26709.45508-.40039.90625-.40039,1.35547,0,.20508.05176.36328.15527.47461.104.11133.23486.16699.39258.16699.30469,0,.59033-.22656.85693-.67871.26709-.45215.40039-.91113.40039-1.37793Z"/>
            <path class="uuid-ea5c4227-e978-42a7-958a-b1bcce27f365" d="m114.38818,93.37477l-.56396,1.92969c-.08447.28711-.12646.46875-.12646.54395,0,.03906.00684.06738.021.08594s.03271.02734.05664.02734c.03662,0,.07715-.0166.12158-.0498.04443-.03418.15625-.16699.33545-.40039l.09717.07422c-.17041.27051-.3457.46875-.5249.59668-.11914.08203-.2334.12305-.34375.12305-.08398,0-.1499-.02441-.19775-.07129-.04736-.04785-.07129-.10938-.07129-.18457,0-.07422.01416-.1709.04248-.29199.03418-.15918.13281-.50684.29492-1.04297-.36768.60254-.6748,1.01855-.92236,1.24707-.24707.22852-.47705.34375-.68848.34375-.09961,0-.18359-.03516-.25293-.10449-.06934-.06836-.10352-.15625-.10352-.26172,0-.16211.04736-.41016.14258-.74512l.28174-1c.06934-.24023.104-.38867.104-.44727,0-.02637-.00928-.04785-.02783-.06641-.01807-.01855-.03809-.02734-.06006-.02734-.04541,0-.09033.01562-.13574.04785-.04541.0332-.14844.15234-.30811.36035l-.10059-.07129c.16211-.25098.33398-.43555.51562-.55371.13818-.09277.26562-.13965.38232-.13965.08008,0,.14502.02539.1958.07617s.07617.11621.07617.19629c0,.11621-.04297.32422-.12939.625l-.30469,1.0459c-.08447.28418-.12646.46484-.12646.54004,0,.04102.01367.07422.04053.09961.02686.02441.06348.03711.1084.03711.07129,0,.16455-.03613.27881-.10742.11475-.07129.26758-.22949.45898-.47461.19092-.24414.34863-.47461.47314-.68945.12402-.21484.25635-.55664.39697-1.02441l.07129-.24609h.49268Z"/>
            <path class="uuid-ea5c4227-e978-42a7-958a-b1bcce27f365" d="m116.29345,92.49391l-.25293.88086h.50928l-.05518.20312h-.50586l-.55713,1.91113c-.06055.20508-.09082.33789-.09082.39844,0,.03613.0083.06445.02588.08398.01709.01953.0376.0293.06152.0293.0542,0,.12549-.03809.21387-.11328.05176-.04297.16748-.17578.34668-.39844l.10693.08105c-.19873.28906-.38672.49316-.56396.6123-.12061.08203-.24268.12305-.36621.12305-.09473,0-.17285-.03027-.2334-.08984-.06055-.05859-.09033-.13477-.09033-.22754,0-.11719.03418-.29492.10352-.53516l.54102-1.875h-.48926l.03271-.12598c.2373-.06445.43506-.16113.59277-.29004.15771-.12793.33398-.35059.52832-.66797h.14258Z"/>
          </g>
          <path class="uuid-ea5c4227-e978-42a7-958a-b1bcce27f365" d="m102.52539,101.56325l-1.44678,1.1709c.22803-.04102.43945-.06152.63379-.06152.18652,0,.35938.01074.51855.0332.15869.02246.49902.09277,1.02051.20996.521.11816.97607.17676,1.36475.17676.41504,0,.76709-.07227,1.05713-.21582.28955-.14355.5708-.38379.84375-.71973l.18506.08984c-.38525.55273-.83936.95117-1.3623,1.19531-.52344.24512-1.07861.36719-1.66553.36719-.32471,0-.77002-.06348-1.33398-.19043-.86328-.19043-1.46729-.28613-1.81104-.28613-.13086,0-.2373.00977-.31934.02832-.08252.01855-.20557.06348-.37012.13477l-.12891-.15137,2.29834-1.81543c-.70996-.09668-1.24805-.4082-1.61426-.93555-.3667-.52637-.5498-1.08789-.5498-1.68555,0-.81836.24756-1.66406.74316-2.53809.49512-.87305,1.12842-1.55078,1.90039-2.03027s1.52979-.71973,2.27344-.71973c.55322,0,1.0249.1123,1.41553.33594.39062.22461.69238.5498.90527.97754.21338.42773.31982.86523.31982,1.31348,0,.85938-.24512,1.72949-.73438,2.61035-.48975.88184-1.09814,1.54883-1.8252,2.00293-.72656.4541-1.49951.6875-2.31787.70312Zm2.10205-7.58496c-.37354,0-.73877.09277-1.0957.27734s-.71143.4873-1.0625.90723c-.35156.41992-.66748.9707-.94775,1.65039-.33984.83594-.50977,1.62598-.50977,2.36914,0,.53027.13623,1,.40918,1.40918.27246.4082.69141.61328,1.25586.61328.33643,0,.66895-.08398.99756-.25195.3291-.16895.66943-.4541,1.02051-.85742.44873-.51562.82422-1.1709,1.12695-1.96582.30273-.7959.4541-1.53516.4541-2.21875,0-.50391-.13623-.95215-.40918-1.34473-.27295-.3916-.68604-.58789-1.23926-.58789Z"/>
        </g>
      </g>
    </g>
  </g>
</svg>