<?xml version="1.0" encoding="utf-8"?>
<!-- Generator: Adobe Illustrator 27.9.0, SVG Export Plug-In . SVG Version: 6.00 Build 0)  -->
<svg version="1.1" id="图层_1" xmlns="http://www.w3.org/2000/svg" xmlns:xlink="http://www.w3.org/1999/xlink" x="0px" y="0px"
	 viewBox="0 0 170.2 166.1" style="enable-background:new 0 0 170.2 166.1;" xml:space="preserve">
<style type="text/css">
	.st0{font-family:'TimesNewRomanPSMT';}
	.st1{font-size:6.4858px;}
	.st2{font-size:6.7947px;}
	.st3{font-size:7.0006px;}
	.st4{font-size:7.2065px;}
	.st5{font-size:7.5153px;}
	.st6{font-size:7.8242px;}
	.st7{font-size:7.9271px;}
	.st8{font-size:7.6183px;}
	.st9{font-size:7.3094px;}
	.st10{font-size:6.6917px;}
	.st11{font-size:6.8976px;}
	.st12{font-size:7.1035px;}
	.st13{fill-rule:evenodd;clip-rule:evenodd;fill:#FC2727;stroke:#FC2727;stroke-width:0.1198;stroke-miterlimit:10;}
	.st14{fill-rule:evenodd;clip-rule:evenodd;fill:#FD8181;}
	.st15{fill-rule:evenodd;clip-rule:evenodd;fill:#FEBEBE;}
	.st16{fill-rule:evenodd;clip-rule:evenodd;fill:#FEFAFA;}
	.st17{font-size:8.0301px;}
	
		.st18{fill-rule:evenodd;clip-rule:evenodd;fill:#03D8D8;stroke:#03D8D8;stroke-width:0.3594;stroke-linecap:round;stroke-linejoin:round;stroke-miterlimit:10;}
	
		.st19{fill-rule:evenodd;clip-rule:evenodd;fill:#BBC4FF;stroke:#BBC4FF;stroke-width:0.2396;stroke-linecap:round;stroke-linejoin:round;stroke-miterlimit:10;}
</style>
<g>
	
		<image style="overflow:visible;enable-background:new    ;" width="1417" height="1382" xlink:href="9610E24A.png"  transform="matrix(0.1198 0 0 0.1199 2.288816e-05 2.731320e-05)">
	</image>
	<g transform="matrix(0.804597 0 0 0.807692 115.804 888.807)">
		<text transform="matrix(1.2376 0 0 1.2381 -126.6845 -961.3481)" class="st0 st1">0.0</text>
	</g>
	<g transform="matrix(0.827586 0 0 0.846153 173.827 939.846)">
		<text transform="matrix(1.1814 0 0 1.1818 -184.8772 -970.4133)" class="st0 st2">0.2</text>
	</g>
	<g transform="matrix(0.862068 0 0 0.871794 235.862 994.871)">
		<text transform="matrix(1.1466 0 0 1.1471 -240.8211 -997.213)" class="st0 st3">0.4</text>
	</g>
	<g transform="matrix(0.896551 0 0 0.897435 302.896 1053.89)">
		<text transform="matrix(1.1138 0 0 1.1143 -297.3701 -1026.3981)" class="st0 st4">0</text>
		<text transform="matrix(1.1138 0 0 1.1143 -293.2968 -1026.3981)" class="st0 st4">.</text>
		<text transform="matrix(1.1138 0 0 1.1143 -291.2599 -1026.3981)" class="st0 st4">6</text>
	</g>
	<g transform="matrix(0.942528 0 0 0.935897 374.942 1117.93)">
		<text transform="matrix(1.0681 0 0 1.0685 -350.1456 -1044.1469)" class="st0 st5">0.8</text>
	</g>
	<g transform="matrix(0.965517 0 0 0.974358 453.965 1186.97)">
		<text transform="matrix(1.0259 0 0 1.0263 -413.8485 -1065.0116)" class="st0 st6">1.0</text>
	</g>
	<g transform="matrix(1 0 0 0.987179 582 1184.98)">
		<text transform="matrix(1.0126 0 0 1.013 -512.2734 -1049.3118)" class="st0 st7">0</text>
		<text transform="matrix(1.0126 0 0 1.013 -508.2002 -1049.3118)" class="st0 st7">.</text>
		<text transform="matrix(1.0126 0 0 1.013 -506.1636 -1049.3118)" class="st0 st7">0</text>
	</g>
	<g transform="matrix(0.977011 0 0 0.974358 747.976 1143.97)">
		<text transform="matrix(1.0259 0 0 1.0263 -673.8564 -1026.1688)" class="st0 st6">0</text>
		<text transform="matrix(1.0259 0 0 1.0263 -669.7828 -1026.1688)" class="st0 st6">.</text>
		<text transform="matrix(1.0259 0 0 1.0263 -667.7463 -1026.1688)" class="st0 st6">2</text>
	</g>
	<g transform="matrix(0.954023 0 0 0.948717 905.954 1104.94)">
		<text transform="matrix(1.0536 0 0 1.0541 -835.8466 -1017.8885)" class="st0 st8">0</text>
		<text transform="matrix(1.0536 0 0 1.0541 -831.7726 -1017.8885)" class="st0 st8">.</text>
		<text transform="matrix(1.0536 0 0 1.0541 -829.7366 -1017.8885)" class="st0 st8">4</text>
	</g>
	<g transform="matrix(0.931034 0 0 0.935897 1056.93 1067.93)">
		<text transform="matrix(1.0681 0 0 1.0685 -999.217 -997.1248)" class="st0 st5">0</text>
		<text transform="matrix(1.0681 0 0 1.0685 -995.1437 -997.1248)" class="st0 st5">.</text>
		<text transform="matrix(1.0681 0 0 1.0685 -993.1067 -997.1248)" class="st0 st5">6</text>
	</g>
	<g transform="matrix(0.896551 0 0 0.910256 1201.89 1032.91)">
		<text transform="matrix(1.0982 0 0 1.0986 -1179.9639 -991.5539)" class="st0 st9">0</text>
		<text transform="matrix(1.0982 0 0 1.0986 -1175.8907 -991.5539)" class="st0 st9">.</text>
		<text transform="matrix(1.0982 0 0 1.0986 -1173.8538 -991.5539)" class="st0 st9">8</text>
	</g>
	<g transform="matrix(0.885057 0 0 0.897435 1339.88 998.897)">
		<text transform="matrix(1.1138 0 0 1.1143 -1332.5199 -972.4646)" class="st0 st4">1.0</text>
	</g>
	<g transform="matrix(0.827586 0 0 0.833333 95.8275 799.833)">
		<text transform="matrix(1.1995 0 0 1.2 -101.9194 -837.5747)" class="st0 st10">0.0</text>
	</g>
	<g transform="matrix(0.83908 0 0 0.833333 88.839 647.833)">
		<text transform="matrix(1.1995 0 0 1.2 -93.1919 -677.0354)" class="st0 st10">0</text>
		<text transform="matrix(1.1995 0 0 1.2 -89.1184 -677.0354)" class="st0 st10">.</text>
		<text transform="matrix(1.1995 0 0 1.2 -87.0817 -677.0354)" class="st0 st10">2</text>
	</g>
	<g transform="matrix(0.850574 0 0 0.846153 81.8505 491.846)">
		<text transform="matrix(1.1814 0 0 1.1818 -84.7009 -504.4152)" class="st0 st2">0.4</text>
	</g>
	<g transform="matrix(0.862068 0 0 0.858974 74.862 331.858)">
		<text transform="matrix(1.1637 0 0 1.1642 -76.4363 -332.8476)" class="st0 st11">0.6</text>
	</g>
	<g transform="matrix(0.873563 0 0 0.871794 66.8735 168.871)">
		<text transform="matrix(1.1466 0 0 1.1471 -67.3813 -163.2982)" class="st0 st3">0</text>
		<text transform="matrix(1.1466 0 0 1.1471 -63.3076 -163.2982)" class="st0 st3">.</text>
		<text transform="matrix(1.1466 0 0 1.1471 -61.2708 -163.2982)" class="st0 st3">8</text>
	</g>
	<g transform="matrix(0.873563 0 0 0.884615 59.8735 0.884615)">
		<text transform="matrix(1.13 0 0 1.1304 -60.3278 6.3107)" class="st0 st12">1</text>
		<text transform="matrix(1.13 0 0 1.1304 -56.2547 6.3107)" class="st0 st12">.</text>
		<text transform="matrix(1.13 0 0 1.1304 -54.2179 6.3107)" class="st0 st12">0</text>
	</g>
	<circle class="st13" cx="6" cy="160.8" r="2.2"/>
	<circle class="st14" cx="5.3" cy="160.1" r="1.2"/>
	<circle class="st15" cx="5.3" cy="160.1" r="0.7"/>
	<circle class="st16" cx="5.3" cy="160.1" r="0.4"/>
	<text transform="matrix(0.9996 0 0 1 15.2153 163.598)" class="st0 st17"> NNC</text>
	<polygon class="st18" points="43.2,158 45.8,162.4 40.6,162.4 	"/>
	<text transform="matrix(0.9996 0 0 1 52.3545 163.598)" class="st0 st17"> ε-constraint-1 </text>
	<rect x="108.7" y="159.5" shape-rendering="crispEdges" class="st19" width="2.8" height="2.8"/>
	<text transform="matrix(0.9996 0 0 1 119.2056 163.598)" class="st0 st17"> ε-constraint-2</text>
</g>
</svg>
